<svg xmlns="http://www.w3.org/2000/svg" width="141.85" height="141.394" viewBox="0 0 141.85 141.394"><defs><style>.a{fill:#fff;}.b{fill:#263238;}.c{fill:#455a64;}.d{fill:#ffa8a7;}.e{opacity:0.1;}.f{fill:#e6e6e6;}.g{fill:#787878;}.h{fill:#cfcfcf;}.i{fill:#ebebeb;}.j{fill:#f5f5f5;}.k{fill:#37474f;}.l{fill:#ba68c8;}.m{opacity:0.2;}.n{fill:#db8ae0;}.o,.p{fill:#a47ef6;}.p{opacity:0.4;}.q{fill:#fe8990;}.r{fill:#f6843d;}.s{fill:#ff9192;}.t{fill:#2f3162;}.u{fill:#fdb945;}.v{fill:#893976;}.w{opacity:0.3;}</style></defs><g transform="translate(-725 -4827)"><path class="a" d="M614.52,509.016c-1.51-18.612-2.264-27.918-5.778-33.939-10.06-17.24-39.306-21.34-57.778-19.768-24.729,2.1-53.02,16.32-65.472,43.768-11.311,24.93-6.1,53.149,10.947,71.609,31.241,33.839,95.686,27.8,111.428,5.593,6.283-8.862,6.735-23.016,7.4-43.808A198.137,198.137,0,0,0,614.52,509.016Z" transform="matrix(-0.017, 1, -1, -0.017, 1330.148, 4361.073)"/><g transform="translate(-2)"><g transform="translate(779.303 4941.719)"><path class="b" d="M307.33,396.072a3.307,3.307,0,0,1-2.374,1.431,10.9,10.9,0,0,1-3.257-.207,21.59,21.59,0,0,0-4.861-.124,25.574,25.574,0,0,1-3.025.216,4.8,4.8,0,0,1-2.843-.9,2.9,2.9,0,0,1-1.068-1.814,2.742,2.742,0,0,0,1.068,2.446,4.8,4.8,0,0,0,2.843.9,25.561,25.561,0,0,0,3.025-.216,21.588,21.588,0,0,1,4.861.124,11.462,11.462,0,0,0,3.334.284,3.3,3.3,0,0,0,2.373-1.431Z" transform="translate(-289.877 -388.754)"/><g transform="translate(0 1.397)"><path class="a" d="M301.921,390.811c.907,0,.573-1.342,1.436-2.242-.351.02-.7.026-1.056.025C301.526,389.712,301.309,390.811,301.921,390.811Z" transform="translate(-296.268 -386.812)"/><path class="a" d="M306.079,390.3c.912,0,.673-1.6,1.569-2.533a5.777,5.777,0,0,1-.621.179c-.179.04-.359.071-.539.1C305.689,389.178,305.459,390.3,306.079,390.3Z" transform="translate(-298.542 -386.376)"/><path class="c" d="M309.9,385.553a1.231,1.231,0,0,0-.472-.739l-4.9-.122a4.207,4.207,0,0,1-2.035,1.4c-.9.933-.657,2.533-1.569,2.533-.62,0-.39-1.126.409-2.257-.284.042-.57.069-.857.086-.863.9-.529,2.242-1.436,2.242-.613,0-.4-1.1.381-2.216-.229,0-.458,0-.687-.007-.208,0-.417-.017-.627-.034-1.8,1.426-1.956,2.972-1.723,5.4a6.565,6.565,0,0,0,.939.1,25.563,25.563,0,0,0,3.025-.216,21.584,21.584,0,0,1,4.861.124,10.9,10.9,0,0,0,3.257.207,3.307,3.307,0,0,0,2.374-1.431Z" transform="translate(-293.388 -384.692)"/><path class="a" d="M294.593,388.409a7.717,7.717,0,0,0-2.451,0,2.919,2.919,0,0,0-2.205,1.92,2.181,2.181,0,0,0-.039.863,2.9,2.9,0,0,0,1.068,1.814,4.23,4.23,0,0,0,1.9.8C292.637,391.381,292.791,389.835,294.593,388.409Z" transform="translate(-289.873 -386.668)"/></g><path class="d" d="M314.152,381.61v2.362a.97.97,0,0,0,.97.97h2.471a1.592,1.592,0,0,0,1.591-1.54l.059-1.792Z" transform="translate(-303.151 -381.61)"/></g><g transform="translate(744 4827)"><g transform="translate(27.837 73.187)"><path class="e" d="M382.892,313.489,362.813,301.9a.889.889,0,0,1,0-1.539l17.7-10.284a.889.889,0,0,1,.891,0l20.524,11.85a.889.889,0,0,1,0,1.539l-17.25,10.025A1.778,1.778,0,0,1,382.892,313.489Z" transform="translate(-322.053 -289.954)"/><path class="e" d="M313.558,359.168c-9.23-5.329-24.146-5.329-33.316,0s-9.122,13.969.108,19.3,24.147,5.329,33.317,0S322.789,364.5,313.558,359.168Z" transform="translate(-273.396 -325.619)"/></g><g transform="translate(68.626 48.73)"><g transform="translate(0 0)"><path class="f" d="M369.207,310.786l-1.756,1.021.006-2.031Z" transform="translate(-365.621 -276.337)"/><path class="g" d="M367.558,288.056v-.022h0Z" transform="translate(-365.68 -264.447)"/><path class="h" d="M367.558,288.034h0l17.087,9.865h0Z" transform="translate(-365.68 -264.447)"/><path class="h" d="M367.62,266.269l17.087,9.865h0Z" transform="translate(-365.714 -252.544)"/><path class="i" d="M367,283.151l15.369,8.873-.006,2.031,1.829,1.056.068-23.872-20.777-12-.068,23.873,1.829,1.056.006-2.031Zm15.386-3.116L365.3,270.17l.022-7.743,17.088,9.865h0Zm-.028,9.86-17.087-9.865.022-7.72v-.022h0l17.087,9.865h0Z" transform="translate(-363.414 -248.702)"/><path class="j" d="M367.509,295.775l.022-7.719v-.022l17.087,9.865h0l-.022,7.741Z" transform="translate(-365.654 -264.447)"/><path class="j" d="M367.571,274.012l.022-7.743,17.088,9.865h0l-.022,7.743Z" transform="translate(-365.687 -252.544)"/><path class="f" d="M409.335,272.994l18.139-10.541-.068,23.873-18.139,10.541Z" transform="translate(-388.49 -250.458)"/><path class="j" d="M384.34,258.517l-20.777-12L381.7,235.98l20.777,12Z" transform="translate(-363.496 -235.98)"/></g></g><g transform="translate(81.52 40.078)"><g transform="translate(0 0)"><g transform="translate(0.583 7.915)"><path class="k" d="M404.781,241.753l-5.789.169-5.789-.169c-.249,3.909.514,7.893,1.566,9.839h0a2.635,2.635,0,0,0,1.145,1.166,6.8,6.8,0,0,0,6.165,0,2.563,2.563,0,0,0,1.145-1.2C404.275,249.6,405.029,245.643,404.781,241.753Z" transform="translate(-393.156 -238.4)"/><g transform="translate(0.048)"><path class="c" d="M403.129,235.336c2.268,1.309,2.28,3.432.027,4.742a9.021,9.021,0,0,1-8.187,0c-2.268-1.309-2.28-3.432-.026-4.742A9.019,9.019,0,0,1,403.129,235.336Z" transform="translate(-393.261 -234.353)"/></g><g transform="translate(1.32 0.737)"><path class="b" d="M403.768,236.746c1.769,1.021,1.779,2.678.021,3.7a7.038,7.038,0,0,1-6.387,0c-1.769-1.021-1.779-2.678-.021-3.7A7.036,7.036,0,0,1,403.768,236.746Z" transform="translate(-396.07 -235.98)"/></g></g><g transform="translate(2.898)"><path class="l" d="M401.3,228.317a3.814,3.814,0,0,0,3.4.772,3.557,3.557,0,0,0,2.38-2.406,6.958,6.958,0,0,1-1.859-1.29,4.769,4.769,0,0,1,2.631.093,2.679,2.679,0,0,0,.2-2.509,4.6,4.6,0,0,0-3.138-.217,4.159,4.159,0,0,1,3.173-1,12.165,12.165,0,0,0-.762-4.875,9.092,9.092,0,0,0-4.956,1.711,7.883,7.883,0,0,0,.239,2.293,1.856,1.856,0,0,1-1-1.483,2.865,2.865,0,0,0-2.139,1.526,5.656,5.656,0,0,0,1.278,2.59,3.131,3.131,0,0,1-1.783-1.8C397.712,224.684,397.95,228.03,401.3,228.317Z" transform="translate(-398.265 -216.886)"/><path class="m" d="M401.3,228.317a3.814,3.814,0,0,0,3.4.772,3.557,3.557,0,0,0,2.38-2.406,6.958,6.958,0,0,1-1.859-1.29,4.769,4.769,0,0,1,2.631.093,2.679,2.679,0,0,0,.2-2.509,4.6,4.6,0,0,0-3.138-.217,4.159,4.159,0,0,1,3.173-1,12.165,12.165,0,0,0-.762-4.875,9.092,9.092,0,0,0-4.956,1.711,7.883,7.883,0,0,0,.239,2.293,1.856,1.856,0,0,1-1-1.483,2.865,2.865,0,0,0-2.139,1.526,5.656,5.656,0,0,0,1.278,2.59,3.131,3.131,0,0,1-1.783-1.8C397.712,224.684,397.95,228.03,401.3,228.317Z" transform="translate(-398.265 -216.886)"/><g transform="translate(2.838 0.645)"><path class="j" d="M404.653,229.416h-.01a.125.125,0,0,1-.115-.134,18.605,18.605,0,0,1,5.483-10.936.125.125,0,0,1,.176.177,18.337,18.337,0,0,0-5.41,10.778A.125.125,0,0,1,404.653,229.416Z" transform="translate(-404.527 -218.311)"/></g></g><g transform="translate(0 2.688)"><path class="n" d="M398.75,233.02a3.544,3.544,0,0,1-5.542-1.457,5.978,5.978,0,0,0,1.678-1.141,4.765,4.765,0,0,0-2.487.073,2.316,2.316,0,0,1-.348-2.238,4.558,4.558,0,0,1,2.962-.175,4.368,4.368,0,0,0-3.073-.912,9.913,9.913,0,0,1,.415-4.352,9.613,9.613,0,0,1,4.8,1.58,6.5,6.5,0,0,1-.083,2.036,1.493,1.493,0,0,0,.852-1.309,2.96,2.96,0,0,1,2.1,1.371,4.5,4.5,0,0,1-1.039,2.286,2.551,2.551,0,0,0,1.559-1.579C401.883,229.821,401.862,232.769,398.75,233.02Z" transform="translate(-391.869 -222.818)"/><g transform="translate(1.026 0.572)"><path class="a" d="M400.07,234.007a.125.125,0,0,1-.123-.106,17.492,17.492,0,0,0-5.773-9.6.125.125,0,0,1,.166-.186,17.754,17.754,0,0,1,5.853,9.753.125.125,0,0,1-.1.142Z" transform="translate(-394.133 -224.079)"/></g></g></g></g><g transform="translate(0)"><path class="l" d="M245.01,128.438l-33.047,19.08.134,47.163,33.047-19.08Z" transform="translate(-211.963 -128.438)"/><g transform="translate(1.857 1.087)"><path class="o" d="M249.109,130.837l-33.047,19.08.134,47.163L249.242,178Z" transform="translate(-216.062 -130.837)"/><path class="p" d="M249.109,130.837l-33.047,19.08.134,47.163L249.242,178Z" transform="translate(-216.062 -130.837)"/></g><g transform="translate(3.935 2.277)"><path class="l" d="M253.694,133.463l-33.047,19.08.134,47.163,33.047-19.08Z" transform="translate(-220.648 -133.463)"/><path class="q" d="M253.694,133.463l-33.047,19.08.134,47.163,33.047-19.08Z" transform="translate(-220.648 -133.463)"/></g><g transform="translate(14.176 4.744)"><path class="i" d="M249.038,139.7c3.2-1.851,5.814-.363,5.824,3.319a12.751,12.751,0,0,1-5.787,10.023c-3.208,1.852-5.817.369-5.828-3.317A12.76,12.76,0,0,1,249.038,139.7Z" transform="translate(-243.248 -138.908)"/><g transform="translate(3.893 5.129)"><path class="l" d="M253.99,150.287c.243-.141.442-.028.443.252l0,1.465,1.276-.736c.244-.141.442-.028.443.252a.969.969,0,0,1-.44.762l-1.275.736,0,1.465a.972.972,0,0,1-.44.763c-.244.14-.442.028-.443-.253l0-1.465-1.276.736c-.245.142-.442.028-.443-.252a.966.966,0,0,1,.44-.762l1.275-.736,0-1.465A.97.97,0,0,1,253.99,150.287Z" transform="translate(-251.839 -150.226)"/></g></g></g><g transform="translate(53.24 104.434)"><path class="b" d="M338.857,371.228a1.816,1.816,0,0,1-1.487,1.041,3.129,3.129,0,0,1-1.882-.463,7.4,7.4,0,0,1-1.761-2.155,12.928,12.928,0,0,0-2.05-2,6.77,6.77,0,0,1-1.959-2.271,3.041,3.041,0,0,1-.232-.832,2.966,2.966,0,0,0,.232,1.6,6.77,6.77,0,0,0,1.959,2.271,12.925,12.925,0,0,1,2.05,2,7.393,7.393,0,0,0,1.761,2.155,3.129,3.129,0,0,0,1.882.463,1.817,1.817,0,0,0,1.487-1.041,4.08,4.08,0,0,0,.089-1.316A1.636,1.636,0,0,1,338.857,371.228Z" transform="translate(-329.459 -361.994)"/><path class="a" d="M337.757,366a.616.616,0,0,0-.12.4.42.42,0,0,0,.268.3.588.588,0,0,0,.551-.142,2.909,2.909,0,0,0,.382-.455,2.885,2.885,0,0,1,1.261-.92,2.847,2.847,0,0,1,.754-.166l-.613-.559A3.021,3.021,0,0,0,337.757,366Z" transform="translate(-333.928 -361.951)"/><path class="a" d="M336.4,363.215a3.094,3.094,0,0,0-1.367,1.26.615.615,0,0,0-.119.4.419.419,0,0,0,.268.3.587.587,0,0,0,.551-.143,2.906,2.906,0,0,0,.382-.455,2.847,2.847,0,0,1,2.5-1.083l-.606-.553A3.088,3.088,0,0,0,336.4,363.215Z" transform="translate(-332.437 -361.113)"/><path class="a" d="M334.641,360.4a6.408,6.408,0,0,0-1.924-1.286,2.558,2.558,0,0,0-2.645.365,2.291,2.291,0,0,0-.586,1.984,3.04,3.04,0,0,0,.232.832,4.339,4.339,0,0,0,.608.963C330.561,361.151,332.393,360.163,334.641,360.4Z" transform="translate(-329.458 -358.914)"/><path class="c" d="M339.952,367.831a4.407,4.407,0,0,0-.48-2.064l-1.192-1.25-.85-.775a2.847,2.847,0,0,0-.754.166,2.885,2.885,0,0,0-1.262.92,2.908,2.908,0,0,1-.382.455.588.588,0,0,1-.551.142.42.42,0,0,1-.268-.3.616.616,0,0,1,.12-.4,3.021,3.021,0,0,1,2.484-1.534l-.138-.126a2.847,2.847,0,0,0-2.5,1.083,2.912,2.912,0,0,1-.382.455.587.587,0,0,1-.551.143.418.418,0,0,1-.268-.3.614.614,0,0,1,.119-.4,3.043,3.043,0,0,1,2.976-1.525l-.022-.02q-.181-.165-.364-.329c-2.247-.24-4.08.748-4.315,2.859a10.1,10.1,0,0,0,1.351,1.308,12.927,12.927,0,0,1,2.05,2,7.394,7.394,0,0,0,1.761,2.155,3.129,3.129,0,0,0,1.882.463A1.817,1.817,0,0,0,339.9,369.9a1.636,1.636,0,0,0,.089-.551A14.827,14.827,0,0,0,339.952,367.831Z" transform="translate(-330.505 -360.668)"/><path class="d" d="M340.816,366.486l.14,2.534a3.378,3.378,0,0,0,3.842-.164l.105-2.37Z" transform="translate(-335.67 -363.055)"/></g><path class="d" d="M327.865,241.916a2.287,2.287,0,0,1-.242-.873l-.136-2.175-15.5,1c-.205,1.087-.413,2.419-.615,3.927A23.052,23.052,0,0,0,327.865,241.916Z" transform="translate(-266.328 -188.83)"/><path class="d" d="M347.1,221.913l3.3,6.377-3,5.022,3.315,5.245,5.008-7.773a4.369,4.369,0,0,0,.512-3.591,61.18,61.18,0,0,0-3.253-8.854Z" transform="translate(-285.867 -177.604)"/><path class="c" d="M341.312,198.838c3.8-.707,5.97.56,9.181,9.153-1.311,2.94-6.875,4.025-6.875,4.025Z" transform="translate(-282.701 -166.847)"/><path class="r" d="M341.312,198.838c3.8-.707,5.97.56,9.181,9.153-1.311,2.94-6.875,4.025-6.875,4.025Z" transform="translate(-282.701 -166.847)"/><g transform="translate(44.509 13.144)"><path class="s" d="M311.47,179.334l-1.281,2.226,1.4.518Z" transform="translate(-310.189 -169.416)"/><path class="d" d="M312.58,171.438c.206-1.953.778-3.794,2.049-4.727a10.546,10.546,0,0,0,1.464,6.987,3.058,3.058,0,0,1,.946-1.674,1.764,1.764,0,0,1,1.819-.388,1.794,1.794,0,0,1,.915,1,2.371,2.371,0,0,1-2.964,3.132,4.554,4.554,0,0,0,3.5,3.546,5.867,5.867,0,0,0,3.395-.323l.529,2.631c-2.143,2.286-5.8.75-5.8.75l-.482-2.589c-4.214.25-4.606.179-5.071-2.143A22.72,22.72,0,0,1,312.58,171.438Z" transform="translate(-311.444 -162.513)"/><path class="l" d="M311.15,161.694a6.784,6.784,0,0,1,4.019-3.674,11.5,11.5,0,0,1,5.536-.423,10.1,10.1,0,0,1,3.3.973A5.6,5.6,0,0,1,326.45,161l.216-1.8a1.319,1.319,0,0,1,.972.872,1.42,1.42,0,0,1-.331,1.317h.169a5.652,5.652,0,0,1,5.651,5.652v9.6a5.549,5.549,0,0,1-5.549-5.549v-2.205a10.43,10.43,0,0,1-3.194,4.157,7.085,7.085,0,0,1-1.605.877,5.867,5.867,0,0,1-3.395.323,4.554,4.554,0,0,1-3.5-3.546,2.371,2.371,0,0,0,2.964-3.132,1.794,1.794,0,0,0-.915-1,1.764,1.764,0,0,0-1.819.388,3.057,3.057,0,0,0-.946,1.674,10.546,10.546,0,0,1-1.464-6.987c-1.271.933-1.843,2.775-2.049,4.727A4.973,4.973,0,0,1,311.15,161.694Z" transform="translate(-310.517 -157.446)"/><path class="t" d="M311.15,161.694a6.784,6.784,0,0,1,4.019-3.674,11.5,11.5,0,0,1,5.536-.423,10.1,10.1,0,0,1,3.3.973A5.6,5.6,0,0,1,326.45,161l.216-1.8a1.319,1.319,0,0,1,.972.872,1.42,1.42,0,0,1-.331,1.317h.169a5.652,5.652,0,0,1,5.651,5.652v9.6a5.549,5.549,0,0,1-5.549-5.549v-2.205a10.43,10.43,0,0,1-3.194,4.157,7.085,7.085,0,0,1-1.605.877,5.867,5.867,0,0,1-3.395.323,4.554,4.554,0,0,1-3.5-3.546,2.371,2.371,0,0,0,2.964-3.132,1.794,1.794,0,0,0-.915-1,1.764,1.764,0,0,0-1.819.388,3.057,3.057,0,0,0-.946,1.674,10.546,10.546,0,0,1-1.464-6.987c-1.271.933-1.843,2.775-2.049,4.727A4.973,4.973,0,0,1,311.15,161.694Z" transform="translate(-310.517 -157.446)"/></g><path class="c" d="M315.634,200.049l-4.147.816c-.917,1.677-1.851,3.253-2.767,4.93a8.115,8.115,0,0,0-1.349,4.046,4.12,4.12,0,0,0,2.484,3.573l-.479,5.663c6.513,1.99,14.473.241,16.222-1.266.514-2.373.97-4.9,1.484-7.27a24.562,24.562,0,0,0,.7-4.673,8.235,8.235,0,0,0-1.1-4.537l-.025-.04a5.074,5.074,0,0,0-5.091-2.185Z" transform="translate(-264.138 -167.048)"/><path class="u" d="M315.634,200.049l-4.147.816c-.917,1.677-1.851,3.253-2.767,4.93a8.115,8.115,0,0,0-1.349,4.046,4.12,4.12,0,0,0,2.484,3.573l-.479,5.663c6.513,1.99,14.473.241,16.222-1.266.514-2.373.97-4.9,1.484-7.27a24.562,24.562,0,0,0,.7-4.673,8.235,8.235,0,0,0-1.1-4.537l-.025-.04a5.074,5.074,0,0,0-5.091-2.185Z" transform="translate(-264.138 -167.048)"/><path class="v" d="M326,245.99a2.427,2.427,0,0,1-.241-.4,23.052,23.052,0,0,1-16.492,1.875c-1.169,8.7-2.172,23.418-1.556,33.131.513,11.307,2.593,27.319,2.593,27.319,2.714.814,4.749.316,5.518-.271.9-11.217,2.895-18.906,1.357-26.324,1.025-5.186,1.689-11.7,1.689-11.7l.784,11.458,2.654,20.142a4.758,4.758,0,0,0,4.764-.242c1.93-11.518,2.653-19.323.965-25.04C330.613,257.042,330.745,252.206,326,245.99Z" transform="translate(-264.224 -192.508)"/><path class="w" d="M333.7,282.043l1.421-5.967a8.366,8.366,0,0,0,5.614-3.632,11.414,11.414,0,0,1-6.881,2.426l-1.3,9.438.276,4.033.111-1.468A30.913,30.913,0,0,1,333.7,282.043Z" transform="translate(-277.915 -207.191)"/><g transform="translate(18.323 16.039)"><path class="d" d="M270.575,182.009a34.172,34.172,0,0,1-6.428-.708s-4.15-4.785-6.033-7.616a2.457,2.457,0,0,1-.4-1.156h0a2.494,2.494,0,0,1,.021-.6l.625-3.936a2.218,2.218,0,0,0-.613-1.906l-2.066-2.092a.538.538,0,0,0-.795.724l1.524,1.815-2.925.709a.975.975,0,0,0-.709.684l-.338,1.2a1.061,1.061,0,0,0,.617,1.268l.4.164.019.277a2.62,2.62,0,0,0,.7,1.859c.12.352.552,1.271.552,1.271l4.175,10.8a4.31,4.31,0,0,0,3.277,2.691l7.137,1.247a6.313,6.313,0,0,0,1.263-6.7Z" transform="translate(-252.399 -163.834)"/><path class="c" d="M301.189,202.9c-2.567.121-6.42.545-10.2.473a6.312,6.312,0,0,1-1.264,6.7l8.909,1.557a3.829,3.829,0,0,0,4.3-2.823c.277-1.129.574-2.074.745-3.173A2.392,2.392,0,0,0,301.189,202.9Z" transform="translate(-272.811 -185.196)"/><path class="r" d="M301.189,202.9c-2.567.121-6.42.545-10.2.473a6.312,6.312,0,0,1-1.264,6.7l8.909,1.557a3.829,3.829,0,0,0,4.3-2.823c.277-1.129.574-2.074.745-3.173A2.392,2.392,0,0,0,301.189,202.9Z" transform="translate(-272.811 -185.196)"/></g></g></g></g></svg>