<svg xmlns="http://www.w3.org/2000/svg" width="46.27" height="47.859" viewBox="0 0 46.27 47.859"><defs><style>.a{fill:#a57b5b;}.b{fill:#0481bf;}.c{fill:#c6a07d;}.d{fill:#9b0d17;}.e{fill:#c0272d;}.f{fill:#ffb98a;}.g{fill:#ffd5b3;}.h{fill:#9ea7af;}.i{fill:#5b4025;}.j{fill:#fcdb67;}.k{fill:#ffc502;}.l{fill:#ef5050;}.m{fill:#046699;}.n{fill:#08375e;}.o{fill:#368c0e;}.p{fill:#89c947;}</style></defs><g transform="translate(-9)"><path class="a" d="M173.277,339.973h-2.089a1.049,1.049,0,0,0-.391.076,1.01,1.01,0,0,0,.984.784h.193l.019-.069a.951.951,0,0,1,.916-.7h.368Z" transform="translate(-146.673 -308.194)"/><path class="b" d="M378.579,345.859h3.644v12.629h-3.644Z" transform="translate(-335.033 -313.53)"/><path class="c" d="M348.3,481.458a1.5,1.5,0,0,1,1.5-1.5h-5.279a1.5,1.5,0,1,0,0,2.995H349.8A1.5,1.5,0,0,1,348.3,481.458Z" transform="translate(-302.801 -435.097)"/><path class="b" d="M433.739,345.859h3.644v12.629h-3.644Z" transform="translate(-385.037 -313.53)"/><path class="a" d="M321.787,181.32H319.8a.982.982,0,0,0-.3.047h.672a.945.945,0,0,1,.922.735h.023a.955.955,0,0,0,.933-.743A1,1,0,0,0,321.787,181.32Z" transform="translate(-281.483 -164.371)"/><path class="d" d="M345.944,193.1v-1.127a3.127,3.127,0,0,1,.117-.842l-1.366-1.005a2.177,2.177,0,0,1-1.316,1.086Z" transform="translate(-303.123 -172.35)"/><path class="e" d="M377.973,176.34a5.613,5.613,0,0,1-6.123.159,3.205,3.205,0,0,0-2.029,2.977v1.057l1.733,1.275,4.381-3.085a1.4,1.4,0,1,1,1.614,2.286l-4.858,3.42a2.047,2.047,0,0,1-2.329-.025l-.54-.4v7.808a.464.464,0,0,0,.465.464h9.783a.464.464,0,0,0,.465-.464V179.476A3.207,3.207,0,0,0,377.973,176.34Z" transform="translate(-327.093 -159.857)"/><path class="e" d="M404.156,1.79a5.984,5.984,0,0,1,1.941.322V1.94a1.941,1.941,0,0,0-3.882,0v.172A5.988,5.988,0,0,1,404.156,1.79Z" transform="translate(-356.46)"/><path class="f" d="M343.917,109.145v-1.821H343.6a1.628,1.628,0,1,0,0,3.256h.5A5.6,5.6,0,0,1,343.917,109.145Z" transform="translate(-301.845 -97.292)"/><path class="f" d="M481.662,107.32h-.318v1.822a5.6,5.6,0,0,1-.187,1.435h.5a1.628,1.628,0,1,0,0-3.257Z" transform="translate(-428.022 -97.288)"/><path class="g" d="M361.813,99.684v2.535a5.705,5.705,0,0,0,.324,1.9h4.586a.389.389,0,0,1,.389.388v.726a.389.389,0,0,1-.389.388h-3.789a5.718,5.718,0,0,0,10.315-3.4V99.684Z" transform="translate(-319.834 -90.366)"/><path class="h" d="M370.327,23.717a6.075,6.075,0,0,0-12.108,0Z" transform="translate(-316.576 -16.449)"/><path class="i" d="M438.6,115.627a.7.7,0,0,1-.7-.7v-.635a.7.7,0,1,1,1.4,0v.635A.7.7,0,0,1,438.6,115.627Z" transform="translate(-388.812 -102.972)"/><path class="i" d="M393.768,115.627a.7.7,0,0,1-.7-.7v-.635a.7.7,0,0,1,1.4,0v.635A.7.7,0,0,1,393.768,115.627Z" transform="translate(-348.167 -102.972)"/><path class="e" d="M343.27,78.509a.483.483,0,0,0,.482.481h13.739a.483.483,0,0,0,.482-.481V77.235a.483.483,0,0,0-.482-.481H343.752a.483.483,0,0,0-.482.481Z" transform="translate(-303.024 -69.579)"/><g transform="translate(35.227 12.314)"><path class="j" d="M325.152,133.173v-.734a.7.7,0,1,0-1.4,0v.734Z" transform="translate(-320.556 -131.738)"/><path class="j" d="M308.067,133.173v-.734a.7.7,0,1,0-1.4,0v.734Z" transform="translate(-305.068 -131.738)"/><path class="j" d="M290.985,133.173v-.734a.7.7,0,1,0-1.4,0v.734Z" transform="translate(-289.583 -131.738)"/></g><path class="k" d="M212.32,116.889H196.873a1.91,1.91,0,0,1-.885-.264l-4.1-2.68c-.222-.145-.4-.047-.4.218v7.2c0,.265.18.362.4.214l4.1-2.732a1.874,1.874,0,0,1,.883-.267h2.217a2.258,2.258,0,0,0,1.745,3.7h.373a1,1,0,0,1-.008-.115v-.987a.934.934,0,0,1,.05-.3h-.415a.857.857,0,1,1,0-1.715h4.241a.857.857,0,1,1,0,1.715h-.054a.933.933,0,0,1,.05.3v.5h.047l.661.486a2.257,2.257,0,0,0,1.041-3.583h5.5a.483.483,0,0,0,.482-.481v-.726A.483.483,0,0,0,212.32,116.889Z" transform="translate(-165.431 -103.234)"/><path class="l" d="M320.022,196.529a1.494,1.494,0,0,0-2.081-.36l-4.326,3.046-4.82-3.547v.634a.944.944,0,0,1-.945.941h-1.944L312.366,202a2.14,2.14,0,0,0,2.439.026l4.857-3.42A1.491,1.491,0,0,0,320.022,196.529Z" transform="translate(-269.154 -177.378)"/><path class="c" d="M295.874,181.32a.989.989,0,0,0-.991.987v.988a.989.989,0,0,0,.991.987h1.983a.989.989,0,0,0,.992-.987v-.988a.989.989,0,0,0-.992-.987Z" transform="translate(-259.16 -164.371)"/><path class="m" d="M144.246,351.465v1.462l2.882-2.121a2.233,2.233,0,0,1-1.434-1.1l-1.515,1.115A3.221,3.221,0,0,1,144.246,351.465Z" transform="translate(-122.544 -317.015)"/><path class="n" d="M36.709,341.537a2.162,2.162,0,0,1-2.459.026l-5.116-3.6a1.477,1.477,0,0,1-.357-2.059,1.48,1.48,0,0,1,2.062-.356l4.612,3.247,1.63-1.2V336.2a3.358,3.358,0,0,0-2.442-3.225,5.608,5.608,0,0,1-5.749-.111A3.358,3.358,0,0,0,25.86,336.2v12.922a.487.487,0,0,0,.487.486H36.592a.487.487,0,0,0,.487-.486v-7.857Z" transform="translate(-15.284 -301.749)"/><path class="o" d="M71.191,159.727a6.088,6.088,0,0,1,1.941.317v-.1a1.941,1.941,0,0,0-3.882,0v.1A6.089,6.089,0,0,1,71.191,159.727Z" transform="translate(-54.618 -143.231)"/><path class="f" d="M10.949,264.162V262.34H10.63a1.628,1.628,0,1,0,0,3.257h.5A5.606,5.606,0,0,1,10.949,264.162Z" transform="translate(0 -237.818)"/><path class="f" d="M148.7,262.34h-.318v1.822a5.605,5.605,0,0,1-.186,1.435h.5a1.628,1.628,0,1,0,0-3.257Z" transform="translate(-126.181 -237.818)"/><path class="g" d="M35.575,263.647a.388.388,0,0,1-.388-.388v-.788a.389.389,0,0,1,.388-.388h4.291a5.687,5.687,0,0,0,.417-2.143v-2.257H28.848v2.257a5.717,5.717,0,0,0,10.067,3.706Z" transform="translate(-17.993 -233.597)"/><path class="p" d="M36.568,181.108a6.168,6.168,0,0,0-12.29,0Z" transform="translate(-13.85 -159.071)"/><path class="i" d="M60.8,270.646a.7.7,0,0,1-.7-.7v-.635a.7.7,0,0,1,1.4,0v.635A.7.7,0,0,1,60.8,270.646Z" transform="translate(-46.322 -243.501)"/><path class="i" d="M105.635,270.646a.7.7,0,0,1-.7-.7v-.635a.7.7,0,0,1,1.4,0v.635A.7.7,0,0,1,105.635,270.646Z" transform="translate(-86.967 -243.501)"/><path class="o" d="M27.137,236.509a.483.483,0,0,1-.482.481H12.916a.483.483,0,0,1-.482-.481v-1.274a.483.483,0,0,1,.482-.481H26.655a.483.483,0,0,1,.482.481Z" transform="translate(-3.113 -212.811)"/><path class="j" d="M181.031,288.988v-.924a.7.7,0,0,0-1.4,0v.924Z" transform="translate(-154.68 -260.502)"/><path class="j" d="M198.738,288.988v-.924a.7.7,0,0,0-1.4,0v.924Z" transform="translate(-170.731 -260.502)"/><path class="j" d="M216.445,288.988v-.924a.7.7,0,0,0-1.4,0v.924Z" transform="translate(-186.783 -260.502)"/><path class="k" d="M117.346,270.357l-4.275,2.8a1.911,1.911,0,0,1-.885.264H96.139a.483.483,0,0,0-.482.482v.788a.483.483,0,0,0,.482.481h5.752a2.313,2.313,0,0,0,1.153,3.72l.8-.588v-.456a.935.935,0,0,1,.041-.273h-.219a.915.915,0,1,1,0-1.829h4.4a.915.915,0,1,1,0,1.829h-.268a.938.938,0,0,1,.041.273v1.04c0,.03,0,.06,0,.089h.232a2.314,2.314,0,0,0,1.774-3.8h2.35a1.874,1.874,0,0,1,.883.267l4.28,2.851c.221.147.4.051.4-.214v-7.5C117.749,270.31,117.568,270.212,117.346,270.357Z" transform="translate(-78.557 -245.025)"/><path class="b" d="M66.271,356.385a.95.95,0,0,1-.951-.946v-.7L60.2,358.507,55.643,355.3a1.572,1.572,0,1,0-1.813,2.568l5.117,3.6a2.254,2.254,0,0,0,2.568-.027l6.471-4.762a1.573,1.573,0,0,0,.3-.3H66.271Z" transform="translate(-40.035 -321.579)"/><path class="c" d="M185.36,339.973a1.042,1.042,0,0,1,1.044,1.04v1.041a1.042,1.042,0,0,1-1.044,1.04h-2.089a1.042,1.042,0,0,1-1.044-1.04v-1.041a1.042,1.042,0,0,1,1.044-1.04Z" transform="translate(-157.035 -308.194)"/><path class="c" d="M399.683,479.961a1.5,1.5,0,1,0,0,2.995h5a.467.467,0,0,0,.467-.467v-2.527Z" transform="translate(-352.805 -435.097)"/></g></svg>