<svg xmlns="http://www.w3.org/2000/svg" width="42.762" height="50.019" viewBox="0 0 42.762 50.019"><defs><style>.a{fill:#606572;}.b{fill:#3b4254;}.c{fill:#f9c295;}.d{fill:#e8a26a;}.e{fill:#fee9a1;}.f{fill:#fdca67;}.g{fill:#dda84a;}.h{fill:#fd7ba2;}.i{fill:#e9488e;}.j{fill:#ff7870;}.k{fill:#d7352e;}.l{fill:#78baf6;}.m{fill:#1885da;}.n{fill:#ff9794;}</style></defs><g transform="translate(-37.138)"><path class="a" d="M83.183,44.062H76.89A12.981,12.981,0,0,1,63.909,31.081V16.128A16.128,16.128,0,0,1,80.037,0h0A16.128,16.128,0,0,1,96.165,16.128V31.081A12.981,12.981,0,0,1,83.183,44.062Z" transform="translate(-24.156)"/><path class="b" d="M217.362,0h0q-.636,0-1.26.049A16.129,16.129,0,0,1,230.97,16.128V31.081a12.981,12.981,0,0,1-12.981,12.981h2.519A12.981,12.981,0,0,0,233.49,31.081V16.128A16.128,16.128,0,0,0,217.362,0Z" transform="translate(-161.481)"/><path class="c" d="M114.8,289.931H87.125l.233-3.7A6.306,6.306,0,0,1,92.14,280.5l4.021-.994a.444.444,0,0,0,.338-.431v-9h8.97v9.012a.445.445,0,0,0,.338.431l3.976.983a6.306,6.306,0,0,1,4.782,5.725Z" transform="translate(-45.104 -243.692)"/><path class="d" d="M262.928,286.229a6.306,6.306,0,0,0-4.782-5.725l-3.976-.983a.445.445,0,0,1-.338-.431v-9.012h-2.281v9.012a.445.445,0,0,0,.338.431l3.976.983a6.306,6.306,0,0,1,4.782,5.725l.233,3.7h2.281Z" transform="translate(-193.466 -243.693)"/><path class="d" d="M183.085,277.6a8.732,8.732,0,0,0,8.97,0v-7.525h-8.97V277.6Z" transform="translate(-131.689 -243.692)"/><path class="c" d="M136.373,115.057c-1.392,7.136-7.159,11.243-11.567,11.243-4.151,0-9.51-3.643-11.281-10.031,7.89-1.124,14.54-8.438,16.2-12.683C129.731,103.585,129.731,112.933,136.373,115.057Z" transform="translate(-68.925 -93.466)"/><path class="d" d="M230.851,202.727c-.374,7.805-5.3,12.533-9.277,12.992.245.024.487.037.725.037,4.408,0,10.175-4.107,11.567-11.243A7.769,7.769,0,0,1,230.851,202.727Z" transform="translate(-166.418 -182.922)"/><g transform="translate(67.076 24.77)"><path class="e" d="M349.444,263.96l-5.264-4.865a1.835,1.835,0,0,1,.618-3.071l6.489-2.362a1.835,1.835,0,0,1,2.447,1.956l-.905,7.111Z" transform="translate(-343.589 -253.548)"/><path class="f" d="M407.185,253.661l-1.645.6c1.032-.376,2.2.748,2.14,2.067l-.288,6.886,1.334-.486.905-7.111A1.835,1.835,0,0,0,407.185,253.661Z" transform="translate(-399.488 -253.548)"/><g transform="translate(1.797 0.327)"><path class="g" d="M404.143,259.2a6.869,6.869,0,0,0-.873-2.3l-1.416.516a5.069,5.069,0,0,1,.845,2.04l.332,1.9a.733.733,0,1,0,1.444-.252Z" transform="translate(-397.959 -256.897)"/><path class="g" d="M362.792,274.252l.968,1.67a.733.733,0,0,0,1.268-.735l-.968-1.67a5.069,5.069,0,0,1-.663-2.106l-1.416.515A6.867,6.867,0,0,0,362.792,274.252Z" transform="translate(-361.981 -269.993)"/></g><path class="h" d="M400.365,346.71l2.922,8.027a2.225,2.225,0,0,0,2.851,1.329h0a2.224,2.224,0,0,0,1.329-2.851l-2.922-8.027a.744.744,0,0,0-.954-.445l-2.782,1.013A.744.744,0,0,0,400.365,346.71Z" transform="translate(-394.777 -335.794)"/><path class="i" d="M424.287,353.216l-2.922-8.027a.744.744,0,0,0-.954-.445l-1.451.528c.225-.082.522.165.662.551l2.922,8.027a2.356,2.356,0,0,1-.167,2.344,2.228,2.228,0,0,0,.58-.127h0A2.224,2.224,0,0,0,424.287,353.216Z" transform="translate(-411.597 -335.794)"/><path class="a" d="M411.993,369.031l-.5-1.377h0l-4.181,1.522h0l.5,1.377h0Z" transform="translate(-401.086 -356.507)"/><path class="b" d="M434.011,367.654l-1.743.634.5,1.377,1.743-.634-.5-1.377Z" transform="translate(-423.605 -356.507)"/></g><g transform="translate(37.138 28.092)"><path class="j" d="M53.979,291.363v7.216H47.331V288.3a.673.673,0,0,1,.085-.339c.413-.714,2.2-.456,3.984.576C52.938,289.428,53.979,290.6,53.979,291.363Z" transform="translate(-46.335 -287.56)"/><path class="k" d="M92.573,299.772V309.6H94.8v-7.216C94.8,301.677,93.916,300.627,92.573,299.772Z" transform="translate(-87.157 -298.579)"/><path class="l" d="M44.788,400.351H38.127a.989.989,0,0,0-.989.989v8.929a.989.989,0,0,0,.989.989h6.661a.989.989,0,0,0,.989-.989V401.34A.989.989,0,0,0,44.788,400.351Z" transform="translate(-37.138 -389.332)"/><path class="m" d="M94.868,400.351H92.64a.989.989,0,0,1,.989.989v8.929a.989.989,0,0,1-.989.989h2.228a.989.989,0,0,0,.989-.989V401.34A.989.989,0,0,0,94.868,400.351Z" transform="translate(-87.218 -389.332)"/><path class="n" d="M53.98,291.363a.663.663,0,0,1-.087.34c-.412.714-2.2.456-3.984-.577-1.537-.887-2.577-2.059-2.577-2.824a.673.673,0,0,1,.085-.339c.413-.714,2.2-.456,3.984.576C52.939,289.428,53.98,290.6,53.98,291.363Z" transform="translate(-46.336 -287.56)"/><rect class="a" width="8.639" height="1.465" transform="translate(0 13.27)"/><rect class="b" width="2.228" height="1.465" transform="translate(6.411 13.27)"/></g></g></svg>