<svg xmlns="http://www.w3.org/2000/svg" width="11.978" height="11.947" viewBox="0 0 11.978 11.947"><defs><style>.a{fill:#ff3e6c;}</style></defs><g transform="translate(-949.917 -107.29)"><path class="a" d="M11.978,108.654v1.881a1.408,1.408,0,0,1-1.4,1.411,10.6,10.6,0,0,1-7.319-3.239A10.533,10.533,0,0,1,0,101.4,1.407,1.407,0,0,1,1.411,100H3.292a.469.469,0,0,1,.446.321l.941,2.815a.471.471,0,0,1-.055.41l-.8,1.2a7.37,7.37,0,0,0,1.455,1.937,7.658,7.658,0,0,0,1.953,1.439l1.2-.8a.471.471,0,0,1,.41-.055l2.822.941a.464.464,0,0,1,.315.446Z" transform="translate(949.917 7.29)"/><path class="a" d="M111.017,314.693v1.557a1.165,1.165,0,0,1-1.162,1.167,8.77,8.77,0,0,1-6.055-2.68l1.677-1.677a6.335,6.335,0,0,0,1.616,1.191l.99-.66a.39.39,0,0,1,.339-.045l2.335.778A.384.384,0,0,1,111.017,314.693Z" transform="translate(850.878 -198.181)"/></g></svg>