<svg xmlns="http://www.w3.org/2000/svg" width="18.262" height="17.5" viewBox="0 0 18.262 17.5"><defs><style>.a{fill:none;stroke:#282c40;stroke-linecap:round;stroke-linejoin:round;stroke-width:1.5px;}</style></defs><g transform="translate(-1003.024 -35.25)"><path class="a" d="M13.678,30.839A.839.839,0,1,1,12.839,30,.839.839,0,0,1,13.678,30.839Z" transform="translate(997.053 20.322)"/><path class="a" d="M30.178,30.839A.839.839,0,1,1,29.339,30,.839.839,0,0,1,30.178,30.839Z" transform="translate(988.68 20.322)"/><path class="a" d="M1.5,1.5H4.548L6.59,11.289a1.511,1.511,0,0,0,1.524,1.177h7.406a1.511,1.511,0,0,0,1.524-1.177l1.219-6.134H5.31" transform="translate(1002.274 34.5)"/></g></svg>