<svg xmlns="http://www.w3.org/2000/svg" width="42.72" height="37.828" viewBox="0 0 42.72 37.828"><defs><style>.a{fill:#87aac8;}.b{fill:#fab991;}.c{fill:#f0915a;}.d{fill:#ffcb00;}.e{fill:#a0c8e1;}.f{fill:#bedcf0;}.g{fill:#de225b;}.h{fill:#d7e6e6;}.i{fill:#aac3d7;}</style></defs><g transform="translate(-369 -1913)"><g transform="translate(-4.253 -2.457)"><g transform="translate(373.253 1915)"><g transform="translate(18.433 1.418)"><path class="a" d="M226.836,61.672a2.836,2.836,0,1,1,2.836-2.836A2.839,2.839,0,0,1,226.836,61.672Zm0-4.254a1.418,1.418,0,1,0,1.418,1.418A1.42,1.42,0,0,0,226.836,57.418Z" transform="translate(-224 -56)"/></g><g transform="translate(2.836 26.941)"><g transform="translate(8.508 1.418)"><path class="b" d="M154.635,360H148.6a4.254,4.254,0,0,0-3.008,1.246l-1.59,1.59,3.545,3.545,1.712-1.712a1.418,1.418,0,0,1,1-.415h4.375a2.127,2.127,0,1,0,0-4.254Z" transform="translate(-144 -360)"/></g><g transform="translate(12.052 0)"><path class="b" d="M201.309,344.415a1.418,1.418,0,0,0-2.005,0l-5.256,5.257h-7.333a1.418,1.418,0,0,0-1,.415L184,351.8l2.127,2.127,1.418-1.418h6.8a2.113,2.113,0,0,0,1.5-.623l5.464-5.464a1.418,1.418,0,0,0,0-2.005Z" transform="translate(-184 -343.999)"/></g><g transform="translate(17.961 2.363)"><path class="c" d="M251.849,373.029h-.473a.709.709,0,0,1-.709-.709v-.945a.709.709,0,0,1,.709-.709h.473a1.182,1.182,0,0,1,0,2.363Z" transform="translate(-250.667 -370.666)"/></g><g transform="translate(0 3.839)"><path class="d" d="M56.3,387.522l3.752,3.753-3.545,3.545H48l7.3-7.3a.709.709,0,0,1,1,0Z" transform="translate(-48 -387.314)"/></g><g transform="translate(8.508 7.799)"><path class="d" d="M147.545,432l2.335,2.335a.709.709,0,0,1,0,1l-.208.208H144Z" transform="translate(-144 -432)"/></g></g><g transform="translate(0 25.523)"><path class="a" d="M57.12,328h-39.7a1.418,1.418,0,1,0,0,2.836h39.7a1.418,1.418,0,1,0,0-2.836Z" transform="translate(-16 -328)"/></g><g transform="translate(1.418 5.672)"><path class="e" d="M51.851,104A19.851,19.851,0,0,0,32,123.851H71.7A19.851,19.851,0,0,0,51.851,104Z" transform="translate(-32 -104)"/></g><g transform="translate(3.781 7.799)"><path class="f" d="M59.375,143.6a.721.721,0,0,1-.119-.01.709.709,0,0,1-.581-.817A17.752,17.752,0,0,1,76.153,128a.709.709,0,0,1,0,1.418,16.256,16.256,0,0,0-16.08,13.588.709.709,0,0,1-.7.591Z" transform="translate(-58.665 -128)"/></g><g transform="translate(22.348 0)"><ellipse class="g" cx="10" cy="9.5" rx="10" ry="9.5" transform="translate(0.372 0.456)"/></g><g transform="translate(26.64 3.928)"><path class="h" d="M322.934,89.495,321.8,90.633a1.064,1.064,0,0,1-1.5,0l-3.061-3.061a2.127,2.127,0,0,1,0-3.008l.136-.136a.355.355,0,0,1,.5,0Z" transform="translate(-316.607 -84.324)"/></g><g transform="translate(32.022 9.098)"><path class="h" d="M378.278,142.667l-.945.945,5.317,5.317a.668.668,0,1,0,.945-.945Z" transform="translate(-377.333 -142.667)"/></g><g transform="translate(32.771 9.098)"><path class="i" d="M385.986,142.667a.668.668,0,0,0,0,.945l5.317,5.317a.668.668,0,0,0,0-.945Z" transform="translate(-385.79 -142.667)"/></g><g transform="translate(26.509 7.222)"><path class="h" d="M315.319,129.634a.668.668,0,0,1,0-.945l7.193-7.193.945.945-7.193,7.193a.668.668,0,0,1-.945,0Z" transform="translate(-315.123 -121.495)"/></g><g transform="translate(26.705 7.695)"><path class="i" d="M317.333,134.494,325,126.828l.473.473-7.193,7.194a.668.668,0,0,1-.945,0Z" transform="translate(-317.333 -126.828)"/></g><path class="h" d="M399.609,74.231a.354.354,0,0,0-.5,0l-2.125,2.125-.562-.562,2.125-2.125a.354.354,0,0,0-.5-.5l-2.125,2.125-.562-.562,2.125-2.125a.354.354,0,0,0-.5-.5l-2.689,2.689a1.063,1.063,0,0,0,0,1.5l1.124,1.124a1.065,1.065,0,0,0,1.5,0l2.689-2.689a.354.354,0,0,0,0-.5Z" transform="translate(-360.483 -69.165)"/></g></g></g></svg>