<svg xmlns="http://www.w3.org/2000/svg" width="49.335" height="49.577" viewBox="0 0 49.335 49.577"><defs><style>.a,.d,.e,.k{fill:#fff;}.a,.b,.c,.d,.e,.f,.g,.h,.i,.j,.k,.l,.n,.o{stroke:#42307a;}.a,.b,.c,.d,.f,.i,.l,.n,.o{stroke-linejoin:round;}.a,.b,.c,.d,.e,.f,.g,.h,.i,.j,.k,.l,.m,.n,.o{stroke-width:0.7px;}.b,.j,.m,.n{fill:#3bc7ff;}.c,.i{fill:#ffd059;}.d,.h,.i,.k,.l,.n,.o{stroke-linecap:round;}.e,.g,.h,.j,.k{stroke-miterlimit:10;}.f,.h,.l{fill:none;}.g,.o{fill:#ff6173;}.m{stroke:#707070;}</style></defs><g transform="translate(-829.015 -2185.386)"><g transform="translate(-644.608 1743.947)"><g transform="translate(1480.062 470.52)"><g transform="translate(0 0)"><path class="a" d="M1822.833,2051.155h-9.3a1.282,1.282,0,0,1-1.189-1.259l-1.33-14.646h14.334l-1.33,14.646A1.282,1.282,0,0,1,1822.833,2051.155Z" transform="translate(-1810.132 -2031.009)"/><rect class="b" width="16.104" height="2.137" transform="translate(0 2.791)"/><path class="a" d="M1.74,0H12.594a1.74,1.74,0,0,1,1.74,1.74v0a0,0,0,0,1,0,0H0a0,0,0,0,1,0,0v0A1.74,1.74,0,0,1,1.74,0Z" transform="translate(0.885 1.051)"/><path class="c" d="M1.051,0H2.6A1.051,1.051,0,0,1,3.653,1.051v0a0,0,0,0,1,0,0H0a0,0,0,0,1,0,0v0A1.051,1.051,0,0,1,1.051,0Z" transform="translate(6.122)"/><line class="d" x2="11.544" transform="translate(2.303 18.797)"/></g><line class="e" x1="0.844" y2="10.753" transform="translate(11.088 6.731)"/><line class="e" x2="0.844" y2="10.753" transform="translate(3.916 6.731)"/><line class="e" y2="10.55" transform="translate(7.924 6.731)"/></g><g transform="translate(1473.973 441.789)"><path class="a" d="M1477.737,1390.679h7.446a2.153,2.153,0,0,1,2.019,1.183l1.745,3h-14.973l1.745-3A2.153,2.153,0,0,1,1477.737,1390.679Z" transform="translate(-1473.973 -1371.044)"/><path class="f" d="M1513.68,1514.28h6.388a1.943,1.943,0,0,1,.91.227l2.634,1.4h-13.476l2.634-1.4A1.943,1.943,0,0,1,1513.68,1514.28Z" transform="translate(-1509.388 -1492.088)"/><path class="g" d="M.755,0h0a.755.755,0,0,1,.755.755V19.635a0,0,0,0,1,0,0H0a0,0,0,0,1,0,0V.755A.755.755,0,0,1,.755,0Z" transform="translate(6.647)"/><line class="h" x2="1.511" transform="translate(6.647 1.18)"/><g transform="translate(9.487)"><path class="i" d="M1946.934,1390.679h-13.326l-1.176,4.181h15.678Z" transform="translate(-1932.432 -1371.044)"/><path class="j" d="M.755,0h0a.755.755,0,0,1,.755.755V17.742a0,0,0,0,1,0,0H0a0,0,0,0,1,0,0V.755A.755.755,0,0,1,.755,0Z" transform="translate(7.084)"/><g transform="translate(0 19.635)"><line class="k" x1="1.176" y2="4.181"/><line class="k" x1="0.915" y2="4.181" transform="translate(1.742)"/><line class="k" x1="0.653" y2="4.181" transform="translate(3.484)"/><line class="k" x1="0.392" y2="4.181" transform="translate(5.226)"/><line class="k" x1="0.131" y2="4.181" transform="translate(6.968)"/><line class="k" x2="0.131" y2="4.181" transform="translate(8.579)"/><line class="k" x2="0.392" y2="4.181" transform="translate(10.06)"/><line class="k" x2="0.653" y2="4.181" transform="translate(11.541)"/><line class="k" x2="0.915" y2="4.181" transform="translate(13.022)"/><line class="k" x2="1.176" y2="4.181" transform="translate(14.502)"/></g><path class="d" d="M1.892,0H12.286a1.892,1.892,0,0,1,1.892,1.892v0a0,0,0,0,1,0,0H0a0,0,0,0,1,0,0v0A1.892,1.892,0,0,1,1.892,0Z" transform="translate(0.75 17.742)"/><line class="h" x2="1.511" transform="translate(7.084 16.311)"/></g></g><g transform="translate(1500.878 458.114)"><path class="i" d="M2944.877,1425.773s3.205,2.178,1,8.792l-2.838-.591h-5.426l-2.838.591c-2.205-6.614,1-8.792,1-8.792" transform="translate(-2930.695 -1421.737)"/><g transform="translate(0 1.482)"><path class="d" d="M2774.234,1324.908l.927-6.38a2.447,2.447,0,0,1,1.777-1.786c1.262-.321,2.066-.66,3.2-.986a1.406,1.406,0,0,0,1.016-1.352v-1.3l-.173-.194a3.534,3.534,0,0,1-.861-1.836.526.526,0,0,1-.528-.414,16.139,16.139,0,0,1-.356-1.9c0-.561.209-.695.46-.55a3.46,3.46,0,0,1-.128-.861c-.086-3.022,1.908-5,4.244-5s4.33,1.981,4.244,5a3.448,3.448,0,0,1-.128.861c.251-.145.46-.012.46.55a16.084,16.084,0,0,1-.356,1.9.526.526,0,0,1-.528.414,3.534,3.534,0,0,1-.861,1.836l-.173.194v1.3a1.406,1.406,0,0,0,1.016,1.352c1.132.326,2.162.572,3.424.893a2.446,2.446,0,0,1,1.777,1.786l1.009,6.461" transform="translate(-2774.234 -1302.35)"/><path class="d" d="M3108.569,1822.327l1.831,1a2.493,2.493,0,0,0,1.94-.04l1.545-.956" transform="translate(-3101.651 -1811.568)"/></g><path class="l" d="M3065.54,1922.953l2.9,1.891h0a2.291,2.291,0,0,1-3.4-.98l-.166-.383" transform="translate(-3058.862 -1908.63)"/><path class="l" d="M3239.917,1922.953l-2.9,1.891h0a2.292,2.292,0,0,0,3.4-.98l.166-.383" transform="translate(-3227.443 -1908.63)"/><path class="m" d="M2946.255,1969.446l-1.086-8.4,1.42-.46,2.838,5.4h3.562l2.653-5.486,1.6.781-1.037,8.159" transform="translate(-2941.632 -1945.406)"/><line class="l" x2="1.087" y2="8.397" transform="translate(3.537 15.643)"/><path class="l" d="M3013.82,1964.478l2.837,5.4h1.781" transform="translate(-3008.862 -1949.295)"/><line class="l" x1="1.037" y2="8.159" transform="translate(14.572 15.881)"/><path class="l" d="M3241.453,1960.506l-2.652,5.486h-1.781" transform="translate(-3227.443 -1945.406)"/><path class="n" d="M3024.257,1230.737l-3.127,1.6a2.506,2.506,0,0,0-.954,3.6,5.477,5.477,0,0,1,4.081-2.968h.079a5.477,5.477,0,0,1,4.081,2.968,2.506,2.506,0,0,0-.954-3.6l-3.206-1.6" transform="translate(-3014.681 -1230.737)"/><path class="d" d="M3038.09,1445.751c4.116,0,5.128-2.375,5.128-2.959a4.154,4.154,0,0,0,3.1,2.959" transform="translate(-3032.631 -1438.404)"/><g transform="translate(13.275 12.838)"><path class="o" d="M3601.176,2119.428l0-5.407a.364.364,0,0,1,.363-.364h0a.364.364,0,0,1,.363.363l0,5.408" transform="translate(-3597.335 -2108.226)"/><path class="o" d="M3420.464,1856.776l.511-1.165a3.99,3.99,0,0,1,2.551-2.259,1.747,1.747,0,0,1,.7-.079,4.532,4.532,0,0,0-1.288-1.129c-.209-.137-1.4.911-1.4.911s.23-1.541-.03-1.633a4.113,4.113,0,0,0-1.328-.253,4.959,4.959,0,0,0-1.717.322c-.156.057-.035,1.267-.035,1.267s-.81-.9-.99-.8a4.975,4.975,0,0,0-1.668,1.321,1.744,1.744,0,0,1,.7.078,3.989,3.989,0,0,1,2.556,2.254l.513,1.163" transform="translate(-3415.769 -1851.169)"/><path class="o" d="M3583.9,2104.621h-.726l-.381-1.614,1.486,0Z" transform="translate(-3579.34 -2097.795)"/></g></g></g></g></svg>