<svg xmlns="http://www.w3.org/2000/svg" xmlns:xlink="http://www.w3.org/1999/xlink" width="141.85" height="141.394" viewBox="0 0 141.85 141.394"><defs><style>.a{fill:url(#a);}.b{fill:url(#b);}.c{fill:#fff;}.d{clip-path:url(#d);}.e{opacity:0.8;mix-blend-mode:soft-light;}.e,.m{isolation:isolate;}.f{clip-path:url(#f);}.g{fill:url(#g);}.h{fill:url(#h);}.i{fill:#d8dee8;}.j{fill:url(#i);}.k{fill:url(#j);}.l{fill:url(#k);}.m{opacity:0.1;mix-blend-mode:multiply;fill:url(#l);}.n{fill:url(#n);}.o{fill:url(#o);}</style><linearGradient id="a" x1="0.294" y1="0.988" x2="0.959" y2="-0.074" gradientUnits="objectBoundingBox"><stop offset="0.004" stop-color="#e38ddd"/><stop offset="1" stop-color="#9571f6"/></linearGradient><linearGradient id="b" y1="0.5" x2="1" y2="0.5" gradientUnits="objectBoundingBox"><stop offset="0" stop-color="#ff9085"/><stop offset="1" stop-color="#fb6fbb"/></linearGradient><clipPath id="d"><path class="a" d="M2076.287,641.261a10.875,10.875,0,0,0-5.868-2.114c-14.038-.995-16.086,28.348-13.935,34.905s.758,8.711-10.3,12.142-5.752,10.037-4.4,13.9,4.016,7.126-4.044,10.965-5.259,6.217-5.259,6.217,14.863,15.2,14.042,10.336.666-12.217,13.992-12.776c5.74-.24,14.53-2.979,16.476-9.125a11.059,11.059,0,0,0,.424-5.1c-.478-2.055-1.827-3.674-2.576-5.608-1.745-4.507,2.632-7.807,5.151-10.82a33.523,33.523,0,0,0,3.636-4.979c2.091-3.723,1.308-7.715-.969-11.147-1.092-1.646-2.609-3.392-3.085-5.354-.511-2.108-.066-4.989.056-7.158a45.389,45.389,0,0,0,.162-5.1C2079.611,647.272,2078.868,643.4,2076.287,641.261Z" transform="translate(-2032.008 -639.122)"/></clipPath><clipPath id="f"><path class="b" d="M1880.892,1487.49a10.872,10.872,0,0,0-4.806-3.975c-12.873-5.686-24.73,21.232-24.924,28.131s-2.235,8.453-13.8,7.941-8.809,7.5-8.848,11.589,1.368,8.065-7.515,8.95-7.052,4.07-7.052,4.07,8.842,19.336,9.717,14.478,4.761-11.271,17.49-7.287c5.483,1.716,14.68,2.114,18.592-3.011a11.066,11.066,0,0,0,2.124-4.654c.245-2.1-.476-4.075-.526-6.149-.117-4.832,5.118-6.456,8.508-8.439a33.537,33.537,0,0,0,5.107-3.454c3.227-2.8,3.842-6.818,2.86-10.817-.471-1.918-1.307-4.074-1.091-6.083.232-2.157,1.626-4.717,2.475-6.717a45.5,45.5,0,0,0,1.878-4.746C1881.986,1494.272,1882.6,1490.374,1880.892,1487.49Z" transform="translate(-1813.792 -1482.732)"/></clipPath><linearGradient id="g" x1="-0.084" y1="0.477" x2="-0.366" y2="0.496" gradientUnits="objectBoundingBox"><stop offset="0" stop-color="#444b8c"/><stop offset="0.996" stop-color="#26264f"/></linearGradient><linearGradient id="h" x1="0.197" y1="0.034" x2="-0.498" y2="1.514" xlink:href="#g"/><linearGradient id="i" x1="-22.271" y1="-1.493" x2="-51.489" y2="78.648" gradientUnits="objectBoundingBox"><stop offset="0" stop-color="#ffc444"/><stop offset="0.996" stop-color="#f36f56"/></linearGradient><linearGradient id="j" y1="0.5" x2="1" y2="0.5" gradientUnits="objectBoundingBox"><stop offset="0" stop-color="#311944"/><stop offset="1" stop-color="#893976"/></linearGradient><linearGradient id="k" x1="0.618" y1="2.099" x2="0.497" y2="0.43" gradientUnits="objectBoundingBox"><stop offset="0.004" stop-color="#f36f56"/><stop offset="1" stop-color="#ffc444"/></linearGradient><linearGradient id="l" x1="0" y1="0.5" x2="1" y2="0.5" xlink:href="#k"/><linearGradient id="n" x1="0.583" y1="-0.668" x2="0.196" y2="4.766" xlink:href="#k"/><linearGradient id="o" x1="0.435" y1="-1.462" x2="0.566" y2="2.496" xlink:href="#k"/></defs><g transform="translate(-275.825 -4827)"><path class="c" d="M614.52,509.016c-1.51-18.612-2.264-27.918-5.778-33.939-10.06-17.24-39.306-21.34-57.778-19.768-24.729,2.1-53.02,16.32-65.472,43.768-11.311,24.93-6.1,53.149,10.947,71.609,31.241,33.839,95.686,27.8,111.428,5.593,6.283-8.862,6.735-23.016,7.4-43.808A198.137,198.137,0,0,0,614.52,509.016Z" transform="matrix(-0.017, 1, -1, -0.017, 880.974, 4361.073)"/><g transform="translate(-14.961 4.327)"><g transform="translate(337.954 4822.673)"><g transform="translate(10.502 0)"><path class="a" d="M2076.287,641.261a10.875,10.875,0,0,0-5.868-2.114c-14.038-.995-16.086,28.348-13.935,34.905s.758,8.711-10.3,12.142-5.752,10.037-4.4,13.9,4.016,7.126-4.044,10.965-5.259,6.217-5.259,6.217,14.863,15.2,14.042,10.336.666-12.217,13.992-12.776c5.74-.24,14.53-2.979,16.476-9.125a11.059,11.059,0,0,0,.424-5.1c-.478-2.055-1.827-3.674-2.576-5.608-1.745-4.507,2.632-7.807,5.151-10.82a33.523,33.523,0,0,0,3.636-4.979c2.091-3.723,1.308-7.715-.969-11.147-1.092-1.646-2.609-3.392-3.085-5.354-.511-2.108-.066-4.989.056-7.158a45.389,45.389,0,0,0,.162-5.1C2079.611,647.272,2078.868,643.4,2076.287,641.261Z" transform="translate(-2032.008 -639.122)"/><g class="d"><g class="e" transform="translate(-0.976 -3.651)"><path class="c" d="M2012.016,653.588a.208.208,0,0,1-.166-.379,100.145,100.145,0,0,0,13.3-8.745c6.432-4.995,14.811-12.871,18.2-22.026,2.833-7.647,5.417-20.288,7.09-34.682,1.5-12.908,1.736-22.454,1.1-24.226a.208.208,0,0,1,.391-.14c.745,2.073.272,12.8-1.077,24.414-1.676,14.426-4.268,27.1-7.112,34.779-3.428,9.25-11.867,17.186-18.344,22.215a100.548,100.548,0,0,1-13.356,8.78Z" transform="translate(-2011.738 -563.251)"/><g transform="translate(26.275 9.121)"><path class="c" d="M2570.113,770.663a.186.186,0,0,1-.256-.1c-.052-.142-5.285-14.221-12.033-17.4a.2.2,0,0,1-.1-.27.207.207,0,0,1,.277-.1c6.9,3.251,12.027,17.035,12.242,17.621a.187.187,0,0,1-.132.243Z" transform="translate(-2557.706 -752.778)"/></g><g transform="translate(35.852 33.414)"><path class="c" d="M2756.985,1267.486a.207.207,0,0,1-.2-.355,65.829,65.829,0,0,1,8.645-5.845c6.424-3.583,11.346-4.584,14.631-2.973a.208.208,0,0,1-.183.373c-7.559-3.705-22.678,8.64-22.83,8.765A.206.206,0,0,1,2756.985,1267.486Z" transform="translate(-2756.707 -1257.567)"/></g><g transform="translate(9.193 48.815)"><path class="c" d="M2212.921,1605.481a.208.208,0,0,1-.278-.192,79.15,79.15,0,0,0-1.372-12.466c-1.159-5.836-3.553-13.146-8.373-14.83a.208.208,0,1,1,.137-.392c4.019,1.4,6.928,6.5,8.644,15.146a79.565,79.565,0,0,1,1.379,12.535A.208.208,0,0,1,2212.921,1605.481Z" transform="translate(-2202.759 -1577.589)"/></g><g transform="translate(27.655 55.532)"><path class="c" d="M2586.654,1728.566a.208.208,0,0,1-.194-.362c.668-.494,16.437-12.086,22.585-10.979a.208.208,0,0,1-.073.409c-5.975-1.076-22.1,10.785-22.265,10.9A.2.2,0,0,1,2586.654,1728.566Z" transform="translate(-2586.376 -1717.15)"/></g></g></g></g><g transform="translate(0 40.599)"><path class="b" d="M1880.892,1487.49a10.872,10.872,0,0,0-4.806-3.975c-12.873-5.686-24.73,21.232-24.924,28.131s-2.235,8.453-13.8,7.941-8.809,7.5-8.848,11.589,1.368,8.065-7.515,8.95-7.052,4.07-7.052,4.07,8.842,19.336,9.717,14.478,4.761-11.271,17.49-7.287c5.483,1.716,14.68,2.114,18.592-3.011a11.066,11.066,0,0,0,2.124-4.654c.245-2.1-.476-4.075-.526-6.149-.117-4.832,5.118-6.456,8.508-8.439a33.537,33.537,0,0,0,5.107-3.454c3.227-2.8,3.842-6.818,2.86-10.817-.471-1.918-1.307-4.074-1.091-6.083.232-2.157,1.626-4.717,2.475-6.717a45.5,45.5,0,0,0,1.878-4.746C1881.986,1494.272,1882.6,1490.374,1880.892,1487.49Z" transform="translate(-1813.792 -1482.732)"/><g class="f"><g class="e" transform="translate(-4.038 -2.481)"><path class="c" d="M1730.084,1502.756a.208.208,0,0,1-.028-.413,100.174,100.174,0,0,0,15.474-3.729c7.743-2.524,18.292-7.1,24.583-14.568,5.254-6.237,11.963-17.258,18.407-30.238,5.779-11.639,9.232-20.542,9.232-22.425a.208.208,0,0,1,.415,0c0,2.2-4.074,12.134-9.275,22.61-6.458,13.008-13.187,24.059-18.461,30.321-6.355,7.544-16.983,12.156-24.779,14.7a100.562,100.562,0,0,1-15.54,3.743Z" transform="translate(-1729.876 -1431.176)"/><g transform="translate(52.071 4.013)"><path class="c" d="M2817.572,1535.569a.2.2,0,0,1-.208-.2c0-.151-.161-15.181-5.436-20.456a.207.207,0,1,1,.293-.292c5.4,5.4,5.553,20.12,5.557,20.744a.2.2,0,0,1-.206.2Z" transform="translate(-2811.868 -1514.56)"/></g><g transform="translate(49.642 35.942)"><path class="c" d="M2761.593,2181.553a.207.207,0,0,1-.07-.4,65.736,65.736,0,0,1,10.113-2.575c7.257-1.2,12.228-.474,14.774,2.153a.208.208,0,1,1-.3.289c-5.859-6.045-24.264.457-24.449.523A.2.2,0,0,1,2761.593,2181.553Z" transform="translate(-2761.385 -2178.014)"/></g><g transform="translate(22.564 35.582)"><path class="c" d="M2198.944,2200.168a.21.21,0,0,1-.067-.011.208.208,0,0,1-.129-.263,79.079,79.079,0,0,0,2.927-12.195c.884-5.884,1.1-13.573-2.861-16.788a.208.208,0,1,1,.261-.323c3.307,2.682,4.32,8.461,3.01,17.178a79.645,79.645,0,0,1-2.944,12.262A.207.207,0,0,1,2198.944,2200.168Z" transform="translate(-2198.736 -2170.541)"/></g><g transform="translate(33.938 54.885)"><path class="c" d="M2435.275,2575.667a.208.208,0,0,1-.06-.407c.8-.239,19.556-5.812,24.968-2.689a.208.208,0,0,1-.208.36c-5.258-3.034-24.448,2.669-24.641,2.727A.2.2,0,0,1,2435.275,2575.667Z" transform="translate(-2435.068 -2571.624)"/></g></g></g></g></g><g transform="translate(316.774 4830.955)"><path class="g" d="M1435.125,815.278l-12.261,101.907a2.685,2.685,0,0,0,2.345,3.044l51.067,5.606c3.128.194,4.841-1.4,5.034-3.029l12.872-108.345c.192-1.616-1.343-3.079-4.484-3.079l-51.531,1.085A3.249,3.249,0,0,0,1435.125,815.278Z" transform="translate(-1420.477 -811.376)"/><path class="h" d="M1386.033,814.944,1373.7,917.361a2.7,2.7,0,0,0,2.353,3.06L1429,925.692a3.1,3.1,0,0,0,3.375-2.669l12.944-108.9a2.569,2.569,0,0,0-2.7-2.9l-53.529.9A3.264,3.264,0,0,0,1386.033,814.944Z" transform="translate(-1373.684 -811.218)"/><path class="i" d="M1424.766,943.567l-11.426,94.961a2.516,2.516,0,0,0,2.2,2.853l49.79,4.84a2.887,2.887,0,0,0,3.138-2.491l11.962-100.6a2.406,2.406,0,0,0-2.51-2.719l-50.3.536A3.028,3.028,0,0,0,1424.766,943.567Z" transform="translate(-1411.413 -934.191)"/><path class="j" d="M2205.816,867.381a.847.847,0,0,0,.875.975,1.168,1.168,0,0,0,1.113-1,.847.847,0,0,0-.877-.975A1.168,1.168,0,0,0,2205.816,867.381Z" transform="translate(-2165.763 -863.724)"/></g><g transform="translate(313.961 4846.316)"><path class="k" d="M1378.119,1133.022l.249,1.343h0l-5.122.012-44.448.105a2.472,2.472,0,0,0-2.352,2.111l-10.611,70.914c-.158,1.174,1.669,2.965,2.806,3.053l19.72,1.516v-.024l29.5,2.263h0l.072.03a2.421,2.421,0,0,0,2.578-2.056v0l9.937-75.713C1380.606,1135.352,1379.385,1133.018,1378.119,1133.022Z" transform="translate(-1315.796 -1132.895)"/><path class="l" d="M1368.941,1208.309a2.431,2.431,0,0,1-2.577,2.07l-49.34-3.789a1.963,1.963,0,0,1-1.769-2.283l9.646-71.668a2.472,2.472,0,0,1,2.351-2.112l49.619-.136a1.933,1.933,0,0,1,2,2.218Z" transform="translate(-1315.234 -1130.391)"/><path class="c" d="M1542.621,1754.24a1.247,1.247,0,0,1-1.281,1.049l-43.425-1.585a.923.923,0,0,1-.9-1.079l.854-6.328a1.137,1.137,0,0,1,1.176-.967l43.463,1.207a.943.943,0,0,1,.991,1.074Z" transform="translate(-1488.26 -1715.735)"/><path class="c" d="M1508.423,2005.483a1.291,1.291,0,0,1-1.281,1.11l-43.392-2.144a1,1,0,0,1-.892-1.164l.861-6.45a1.222,1.222,0,0,1,1.18-1.066l43.419,1.751a1.054,1.054,0,0,1,.989,1.207Z" transform="translate(-1455.743 -1954.12)"/><path class="m" d="M1543.495,1747.592a1.182,1.182,0,0,0-.331-.055l-43.464-1.206a1.136,1.136,0,0,0-1.175.966l-.855,6.328-.005.048a.922.922,0,0,1-.658-1.042l.855-6.328a1.136,1.136,0,0,1,1.175-.966l43.464,1.206A.945.945,0,0,1,1543.495,1747.592Z" transform="translate(-1488.249 -1715.742)"/><path class="m" d="M1509.3,1998.568a1.023,1.023,0,0,0-.336-.071l-43.418-1.751a1.222,1.222,0,0,0-1.18,1.067l-.862,6.451a1.007,1.007,0,0,0-.008.123,1.019,1.019,0,0,1-.655-1.117l.862-6.451a1.222,1.222,0,0,1,1.18-1.067l43.418,1.751A1.05,1.05,0,0,1,1509.3,1998.568Z" transform="translate(-1455.733 -1954.104)"/><path class="n" d="M1638.912,2350.639a1.674,1.674,0,0,0-1.534-1.921l-22.463-1.29A1.926,1.926,0,0,0,1613,2349.1l-.927,6.987a1.656,1.656,0,0,0,1.448,1.916l22.451,1.536a1.991,1.991,0,0,0,2-1.728Z" transform="translate(-1598.738 -2288.855)"/><g transform="translate(26.01 6.279)"><path class="o" d="M1872.531,1269.3a9.723,9.723,0,0,1-9.557,8.258,7.341,7.341,0,0,1-5.708-2.728,7.487,7.487,0,0,1-1.486-5.711,9.733,9.733,0,0,1,9.413-8.251A7.252,7.252,0,0,1,1872.531,1269.3Z" transform="translate(-1855.705 -1260.865)"/><g transform="translate(1.561 2.254)"><path class="c" d="M1968.235,1311.338a4.218,4.218,0,0,1-4.118,3.58,3.128,3.128,0,0,1-3.131-3.64,4.222,4.222,0,0,1,4.091-3.579A3.128,3.128,0,0,1,1968.235,1311.338Z" transform="translate(-1957.45 -1307.699)"/><path class="c" d="M1900.335,1483.823a9.449,9.449,0,0,1-6.482,2.526,7.341,7.341,0,0,1-5.708-2.728,8.04,8.04,0,0,1,6.523-3.4A6.157,6.157,0,0,1,1900.335,1483.823Z" transform="translate(-1888.145 -1471.913)"/></g></g></g></g></g></svg>