<svg xmlns="http://www.w3.org/2000/svg" width="139.5" height="142.187" viewBox="0 0 139.5 142.187"><defs><style>.a{fill:#fff;}.b{fill:#d52f5f;}.c{fill:#263238;}.d{opacity:0.38;}.e{fill:#a476f1;}.f{fill:#fc75b1;}.g{fill:#e0e0e0;}.h{fill:#a7a5aa;}.i{fill:#fb74b3;}.j{fill:#444b8c;}.k{fill:#fafafa;}.l{fill:#455a64;}.m{fill:none;stroke:#fafafa;stroke-linecap:round;stroke-linejoin:round;stroke-width:0.5px;}.n{fill:#ffbe9d;}.o{fill:#eb996e;}.p{fill:#1d132f;}.q{fill:#e8505b;}.r{fill:#ffc444;}.s{fill:#473960;}</style></defs><g transform="translate(-35.509 -4828)"><path class="a" d="M614.52,509.016c-1.51-18.612-2.264-27.918-5.778-33.939-10.06-17.24-39.306-21.34-57.778-19.768-24.729,2.1-53.02,16.32-65.472,43.768-11.311,24.93-6.1,53.149,10.947,71.609,31.241,33.839,95.686,27.8,111.428,5.593,6.283-8.862,6.735-23.016,7.4-43.808A198.137,198.137,0,0,0,614.52,509.016Z" transform="translate(630.009 4354.831) rotate(90)"/><g transform="translate(23.971 43)"><g transform="translate(51.508 4916.014)"><path class="b" d="M140.62,454.966l-.53,3.072,4.732.345.017-3.018Z" transform="translate(-140.09 -454.966)"/><g transform="translate(2.335 0.042)"><path class="c" d="M147.619,455.1a13.883,13.883,0,0,1-.311,2.789,13.945,13.945,0,0,1,.311-2.789Z" transform="translate(-147.293 -455.096)"/></g><g transform="translate(0.09 2.469)"><path class="c" d="M145.011,463.2a3.664,3.664,0,0,1-.686-.052l-1.645-.182c-.643-.074-1.224-.153-1.642-.224a3,3,0,0,1-.672-.151,3.625,3.625,0,0,1,.685.052l1.645.182c.642.074,1.223.152,1.642.224A3.018,3.018,0,0,1,145.011,463.2Z" transform="translate(-140.367 -462.584)"/></g></g><g transform="translate(63.844 4914.889)"><g transform="translate(0 0)"><g transform="translate(0.071)"><path class="b" d="M183.57,454.294l.008-2.753-5.156-.049-.055,4.027.32.024c1.422.092,7.237.37,8.191.09C187.942,455.322,183.57,454.294,183.57,454.294Z" transform="translate(-178.367 -451.493)"/><g class="d" transform="translate(0.006 2.508)"><path d="M180.25,460.727a1.789,1.789,0,0,0-.647-1.106,1.738,1.738,0,0,0-1.2-.386l-.015,1.441Z" transform="translate(-178.386 -459.231)"/></g></g><g class="d" transform="translate(0.071 3.38)"><path d="M185.705,461.92s1.531.458,1.337.709-6.081.192-8.676-.062l.009-.115,6.866.128S185.4,461.93,185.705,461.92Z" transform="translate(-178.367 -461.92)"/></g><g transform="translate(0 3.905)"><path class="c" d="M178.147,463.544a.45.45,0,0,0,.088.01l.254.018.937.05c.791.037,1.885.072,3.094.086s2.3,0,3.1-.018l.937-.029.255-.013a.531.531,0,0,0,.089-.008.476.476,0,0,0-.089,0h-.255l-.938.009c-.792.008-1.886.013-3.094,0s-2.3-.042-3.093-.067l-.937-.03-.255-.006A.438.438,0,0,0,178.147,463.544Z" transform="translate(-178.147 -463.542)"/></g><g transform="translate(6.936 3.317)"><path class="c" d="M199.554,462.528a1.362,1.362,0,0,1,.5-.8.834.834,0,0,0-.5.8Z" transform="translate(-199.546 -461.725)"/></g><g transform="translate(5.429 2.905)"><path class="c" d="M194.9,460.883c.014.009.088-.078.164-.2s.127-.221.112-.23-.088.078-.164.2S194.883,460.874,194.9,460.883Z" transform="translate(-194.895 -460.456)"/></g><g transform="translate(5.015 2.82)"><path class="c" d="M193.619,460.48c.011.013.093-.041.183-.12s.153-.153.142-.166-.093.041-.183.119S193.608,460.467,193.619,460.48Z" transform="translate(-193.618 -460.192)"/></g><g transform="translate(4.757 2.592)"><path class="c" d="M192.823,459.515a.608.608,0,0,0,.268.037.6.6,0,0,0,.27-.026,1.174,1.174,0,0,0-.538-.011Z" transform="translate(-192.823 -459.489)"/></g><g transform="translate(4.67 2.269)"><path class="c" d="M192.554,458.5a.757.757,0,0,0,.61.052,22.175,22.175,0,0,1-.61-.052Z" transform="translate(-192.553 -458.493)"/></g><g transform="translate(5.611 2.427)"><path class="c" d="M195.456,459.438a.949.949,0,0,0,.332,0,1.9,1.9,0,0,0,.353-.074.977.977,0,0,0,.2-.081.179.179,0,0,0,.083-.1.13.13,0,0,0-.049-.133.607.607,0,0,0-.753.17.588.588,0,0,0-.111.22.183.183,0,0,0-.009.089.941.941,0,0,1,.154-.281.6.6,0,0,1,.285-.181.514.514,0,0,1,.395.031c.052.039.031.1-.028.135a.99.99,0,0,1-.187.078,2.282,2.282,0,0,1-.342.085C195.582,459.429,195.456,459.428,195.456,459.438Z" transform="translate(-195.456 -458.982)"/></g><g transform="translate(5.269 2.257)"><path class="c" d="M194.83,459.1a.329.329,0,0,0,.041-.23.544.544,0,0,0-.088-.243.332.332,0,0,0-.274-.172.132.132,0,0,0-.1.152.354.354,0,0,0,.055.148,1,1,0,0,0,.154.2.476.476,0,0,0,.188.136c.006-.008-.065-.06-.156-.166a1.149,1.149,0,0,1-.137-.2c-.045-.071-.075-.2.008-.211s.167.076.217.143a.547.547,0,0,1,.092.216A1.215,1.215,0,0,1,194.83,459.1Z" transform="translate(-194.403 -458.457)"/></g><g transform="translate(0.119 2.466)"><path class="c" d="M178.515,459.133c0,.012.148-.013.381.017a1.615,1.615,0,0,1,1.34,1.09c.076.222.083.37.094.369a.294.294,0,0,0,0-.1,1.376,1.376,0,0,0-.053-.279,1.568,1.568,0,0,0-1.377-1.121,1.365,1.365,0,0,0-.284,0A.292.292,0,0,0,178.515,459.133Z" transform="translate(-178.515 -459.101)"/></g><g transform="translate(0.612 0.358)"><path class="c" d="M180.1,452.6a18.058,18.058,0,0,0-.048,2.119,9.062,9.062,0,0,0,.055-1.059A8.865,8.865,0,0,0,180.1,452.6Z" transform="translate(-180.035 -452.597)"/></g><g transform="translate(2.595 3.502)"><path class="c" d="M186.154,462.3a4.232,4.232,0,0,0,1.507.029c0-.018-.338,0-.754-.01S186.156,462.286,186.154,462.3Z" transform="translate(-186.154 -462.298)"/></g><g transform="translate(1.582 3.494)"><path class="c" d="M183.031,462.275c-.013.013.027.072.06.149s.052.146.07.145.027-.081-.012-.171S183.042,462.263,183.031,462.275Z" transform="translate(-183.029 -462.273)"/></g><g transform="translate(1.206 3.016)"><path class="c" d="M181.87,460.8c-.013.012.02.066.073.121s.106.089.118.077-.02-.066-.073-.121S181.883,460.788,181.87,460.8Z" transform="translate(-181.868 -460.798)"/></g><g transform="translate(0.666 2.768)"><path class="c" d="M180.2,460.06c0,.018.072.018.148.045s.13.068.143.057-.029-.083-.122-.116S180.2,460.045,180.2,460.06Z" transform="translate(-180.2 -460.032)"/></g><g transform="translate(0.278 2.679)"><path class="c" d="M179.006,459.769c-.006.016.023.043.065.06s.082.018.089,0-.023-.043-.066-.06S179.012,459.753,179.006,459.769Z" transform="translate(-179.005 -459.758)"/></g></g></g><g transform="translate(27 4785)"><g transform="translate(0 96.844)"><g transform="translate(4.617)"><path class="e" d="M77.29,353.393c-1.575.253-2.279,2.189-2.141,3.778s.791,3.143.616,4.729c-.222,2.014-1.744,3.716-1.921,5.734-.209,2.38,1.474,4.491,1.976,6.826a21.756,21.756,0,0,0,.633,3.421,4.277,4.277,0,0,0,8.259-1.475c.035-1.828-1.093-3.549-.956-5.371.1-1.347.891-2.624.722-3.964-.2-1.595-1.679-2.727-2.2-4.248s-.02-3.2-.2-4.795c-.323-2.866-1.912-4.864-4.788-4.634" transform="translate(-73.826 -353.375)"/></g><g transform="translate(0 13.896)"><path class="f" d="M59.62,396.247c-.268,2.656.907,5.781,2.272,8.074a12.662,12.662,0,0,0,5.946,5.161.655.655,0,0,0,1.074-.657,13.041,13.041,0,0,0-9.293-12.578" transform="translate(-59.581 -396.247)"/></g><g transform="translate(3.426 18.686)"><path class="g" d="M78.333,425.021a.721.721,0,0,1-.076-.148l-.19-.435c-.159-.38-.4-.925-.7-1.6a55.159,55.159,0,0,0-5.791-9.909c-.435-.594-.793-1.07-1.046-1.395l-.286-.379a.692.692,0,0,1-.092-.138.676.676,0,0,1,.115.119l.308.361c.267.314.639.781,1.085,1.368a48.218,48.218,0,0,1,5.8,9.929c.292.677.516,1.23.659,1.617l.163.445A.674.674,0,0,1,78.333,425.021Z" transform="translate(-70.151 -411.021)"/></g><g transform="translate(9.894 7.366)"><path class="g" d="M90.109,376.1a1.551,1.551,0,0,1,.029.255q.02.27.053.732c.041.65.1,1.565.173,2.691.143,2.273.345,5.412.589,8.877s.485,6.6.661,8.873c.086,1.125.156,2.04.206,2.689q.031.46.05.731a1.606,1.606,0,0,1,.007.256,1.6,1.6,0,0,1-.038-.253q-.029-.27-.078-.729l-.253-2.685c-.2-2.268-.461-5.4-.7-8.872s-.429-6.607-.545-8.882c-.053-1.127-.095-2.044-.125-2.694q-.016-.462-.025-.733A1.647,1.647,0,0,1,90.109,376.1Z" transform="translate(-90.105 -376.099)"/></g><g transform="translate(7.455 28.897)"><path class="h" d="M82.582,442.525h6.651v4.883A3.193,3.193,0,0,1,86.04,450.6h0a3.193,3.193,0,0,1-3.188-3.023Z" transform="translate(-82.582 -442.525)"/></g></g><g transform="translate(83.808 57.492)"><g transform="translate(0 0)"><path class="b" d="M323.613,233.439c-4.6-3.213-5.642-9.176-5.46-14.537a5.826,5.826,0,0,1,.357-2.623,1.822,1.822,0,0,1,2.22-.944c.664.313.954,1.086,1.326,1.725a5.236,5.236,0,0,0,2.1,2,2,2,0,0,0,1.837.166c.772-.426.863-1.492.857-2.382q-.016-2.488-.031-4.976a8.3,8.3,0,0,1,.268-2.643,2.759,2.759,0,0,1,1.735-1.867,1.674,1.674,0,0,1,2.072,1.122,8.246,8.246,0,0,1,.025,1.108.936.936,0,0,0,.548.881,1.076,1.076,0,0,0,.977-.408,11.833,11.833,0,0,0,2.125-3.207,16.41,16.41,0,0,1,1.981-3.31,4.813,4.813,0,0,1,3.261-1.829,2.882,2.882,0,0,1,2.955,1.966c.323,1.255-.409,2.528-1.206,3.543a19.856,19.856,0,0,1-4.136,3.943,1.637,1.637,0,0,0-.692.744c-.193.593.369,1.183.955,1.378a10.284,10.284,0,0,0,2.077.234,2,2,0,0,1,1.708,1.044c.364.909-.4,1.863-1.145,2.487a17.016,17.016,0,0,1-5.036,2.907,5.742,5.742,0,0,0-1.872.91,1.648,1.648,0,0,0-.528,1.887,1.677,1.677,0,0,0,1.824.7,11.865,11.865,0,0,0,1.953-.746,3.113,3.113,0,0,1,3.586.68,2.816,2.816,0,0,1,.3,2.49,6.489,6.489,0,0,1-1.349,2.2,17.114,17.114,0,0,1-7.307,5.135,11.749,11.749,0,0,1-8.285.219" transform="translate(-318.133 -201.714)"/><g transform="translate(5.278 0.75)"><path class="c" d="M356,204.526a.626.626,0,0,1-.086.085l-.264.236c-.233.206-.577.51-1.009.913a33.373,33.373,0,0,0-3.4,3.669c-.662.825-1.35,1.758-2.071,2.775s-1.48,2.11-2.238,3.288a40.321,40.321,0,0,0-2.2,3.8c-.343.68-.649,1.392-.961,2.118l-.944,2.207a81.694,81.694,0,0,0-3.172,8.564,39.726,39.726,0,0,0-1.483,7.3,29.1,29.1,0,0,0-.083,5.027c.046.592.092,1.052.134,1.363l.041.354a.686.686,0,0,1,.009.122.64.64,0,0,1-.025-.119c-.014-.087-.033-.2-.057-.352-.052-.309-.108-.769-.165-1.362a27.825,27.825,0,0,1,.032-5.043,39.051,39.051,0,0,1,1.454-7.335,79.748,79.748,0,0,1,3.165-8.586l.945-2.208c.312-.724.621-1.442.967-2.125a39.83,39.83,0,0,1,2.213-3.814c.763-1.179,1.529-2.27,2.253-3.285s1.422-1.946,2.092-2.768a31.568,31.568,0,0,1,3.446-3.643c.439-.4.789-.693,1.03-.891l.275-.223A.671.671,0,0,1,356,204.526Z" transform="translate(-337.932 -204.525)"/></g><g transform="translate(10.685 5.648)"><path class="c" d="M359.516,232.689a1.789,1.789,0,0,1-.087-.38c-.047-.246-.1-.6-.165-1.047-.126-.886-.258-2.116-.4-3.472s-.29-2.581-.428-3.463c-.068-.441-.127-.8-.171-1.043a.2.2,0,1,1,.062-.013c.063.242.14.6.222,1.037.169.88.337,2.107.478,3.465l.351,3.475c.045.418.083.77.113,1.052A1.8,1.8,0,0,1,359.516,232.689Z" transform="translate(-358.213 -222.898)"/></g><g transform="translate(11.988 13.289)"><path class="c" d="M374.541,251.57a2.442,2.442,0,0,1-.456.055c-.294.026-.719.062-1.242.122-1.048.113-2.49.32-4.071.618s-3,.634-4.02.9c-.511.132-.921.249-1.206.329a2.47,2.47,0,0,1-.446.11,2.458,2.458,0,0,1,.428-.171c.279-.1.686-.234,1.194-.381,1.014-.3,2.435-.653,4.02-.954a40.376,40.376,0,0,1,4.09-.572c.527-.046.954-.064,1.25-.07A2.448,2.448,0,0,1,374.541,251.57Z" transform="translate(-363.099 -251.558)"/></g><g transform="translate(1.242 13.54)"><path class="c" d="M328.554,267.114a.58.58,0,0,1-.079-.139l-.2-.414c-.169-.36-.4-.888-.674-1.543-.552-1.311-1.258-3.146-2.009-5.18s-1.439-3.875-1.963-5.2l-.625-1.562-.168-.426a.576.576,0,0,1-.048-.153.6.6,0,0,1,.078.14l.2.414c.168.36.4.888.674,1.543.552,1.311,1.258,3.145,2.009,5.181s1.439,3.874,1.963,5.194l.625,1.562.168.426A.613.613,0,0,1,328.554,267.114Z" transform="translate(-322.792 -252.501)"/></g><g transform="translate(7.004 23.252)"><path class="c" d="M359.609,288.93a.624.624,0,0,1-.151.062l-.442.148-1.628.528c-1.375.446-3.266,1.084-5.356,1.791s-3.99,1.328-5.374,1.746c-.692.209-1.254.372-1.644.477l-.45.118a.587.587,0,0,1-.16.03.629.629,0,0,1,.151-.062l.441-.148,1.628-.528c1.375-.446,3.267-1.083,5.357-1.791s3.988-1.328,5.373-1.746c.692-.209,1.254-.372,1.645-.477l.45-.118A.589.589,0,0,1,359.609,288.93Z" transform="translate(-344.404 -288.928)"/></g></g><g transform="translate(4.978 25.504)"><path class="i" d="M351.339,302.492a2.642,2.642,0,0,0,2.293-1.335,3.508,3.508,0,0,0,.279-2.7,1.478,1.478,0,0,0-.725-1.012,1.13,1.13,0,0,0-1.126.21,2.294,2.294,0,0,0-.65,1,4.542,4.542,0,0,0-.07,3.837" transform="translate(-347.172 -297.376)"/><path class="i" d="M350.237,325.845a6.181,6.181,0,0,1,5.114,2.395,1.3,1.3,0,0,1,.3,1.373A1.279,1.279,0,0,1,354.3,330a5.281,5.281,0,0,1-4.189-4.1" transform="translate(-346.566 -318.251)"/><path class="i" d="M371.839,309.464a3.1,3.1,0,0,0-2.1-1.212,5.467,5.467,0,0,0-2.456.279,9.649,9.649,0,0,0-3.989,2.916,6.534,6.534,0,0,0,4.534.865c1.654-.187,4.53-1.529,4.011-2.848" transform="translate(-356.231 -305.32)"/><g transform="translate(0.044 2.231)"><path class="c" d="M336.967,311.248a6.41,6.41,0,0,0,.773-.232,11.339,11.339,0,0,0,2.606-1.56,5.685,5.685,0,0,0,1.762-2.466,3.718,3.718,0,0,0,.192-.906,1.039,1.039,0,0,0,0-.339,7.9,7.9,0,0,1-.307,1.2,5.966,5.966,0,0,1-1.758,2.371,13.146,13.146,0,0,1-2.544,1.583" transform="translate(-336.967 -305.745)"/></g><g transform="translate(0 4.969)"><path class="c" d="M336.821,318.784l1.481-.327c1.25-.279,2.977-.66,4.89-1.057s3.649-.731,4.907-.97l1.489-.288a3.3,3.3,0,0,0,.543-.127,3.3,3.3,0,0,0-.555.058c-.355.049-.868.127-1.5.231-1.264.208-3.007.523-4.921.919s-3.64.8-4.883,1.109c-.621.155-1.123.287-1.468.383" transform="translate(-336.804 -316.012)"/></g><g transform="translate(0 7.322)"><path class="c" d="M344.056,327.605a1.118,1.118,0,0,0-.177-.271,2.579,2.579,0,0,0-.241-.293,4.329,4.329,0,0,0-.351-.362,6.525,6.525,0,0,0-1.04-.8,6.952,6.952,0,0,0-3.03-1.014,6.5,6.5,0,0,0-1.312.013,4.342,4.342,0,0,0-.5.078,2.614,2.614,0,0,0-.369.089c-.2.059-.239.132-.236.144a10.358,10.358,0,0,1,1.114-.184,7.251,7.251,0,0,1,1.284.025,7.348,7.348,0,0,1,2.96.991,7.272,7.272,0,0,1,1.04.753C343.754,327.257,344.029,327.627,344.056,327.605Z" transform="translate(-336.803 -324.839)"/></g></g></g><g transform="translate(39.86)"><path class="j" d="M226.538,159.236l-36.149-.167a7.874,7.874,0,0,1-7.838-7.907l.383-90.627a7.875,7.875,0,0,1,7.911-7.841l36.15.167a7.874,7.874,0,0,1,7.838,7.908l-.383,90.627A7.874,7.874,0,0,1,226.538,159.236Z" transform="translate(-182.551 -52.693)"/></g><g transform="translate(42.26 3.128)"><path class="k" d="M231.948,62.509l-7.009-.032a1.741,1.741,0,0,0-1.709,1.771l-.006,1.271a1.741,1.741,0,0,1-1.709,1.771l-13.662-.063a1.743,1.743,0,0,1-1.694-1.787l.006-1.271a1.743,1.743,0,0,0-1.695-1.787l-2.465-.012-6.134-.028a5.515,5.515,0,0,0-5.54,5.492l-.374,88.458a5.515,5.515,0,0,0,5.489,5.539l36.077.166a5.515,5.515,0,0,0,5.54-5.491l.374-88.459A5.515,5.515,0,0,0,231.948,62.509Z" transform="translate(-189.957 -62.343)"/></g><g transform="translate(61.916 14.165)"><rect class="l" width="9.307" height="1.708" transform="translate(0.008 0) rotate(0.264)"/></g><g transform="translate(44.893 19.648)"><g transform="translate(3.34 2.481)"><path class="l" d="M217.184,139.627a.848.848,0,0,1,.219.032c0-.012.072-.014.2-.03Z" transform="translate(-214.331 -133.577)"/><path class="k" d="M214.127,122.72a2.737,2.737,0,0,0-.618-.613,2.893,2.893,0,0,0-3.429,0,2.916,2.916,0,0,0-1.016,1.346,2.92,2.92,0,0,0,.4,2.761c.035.047.073.088.11.132a2.09,2.09,0,0,1,1.755-1.458,1.4,1.4,0,0,1-.839-1.311,1.319,1.319,0,1,1,2.632.012,1.4,1.4,0,0,1-.836,1.3,2.054,2.054,0,0,1,1.724,1.453c.036-.042.072-.082.106-.128a2.918,2.918,0,0,0,.4-2.761A2.732,2.732,0,0,0,214.127,122.72Z" transform="translate(-208.723 -121.356)"/><path class="l" d="M214.347,123a3.076,3.076,0,0,0-1.069-1.436,3.062,3.062,0,0,0-3.648,0A3.074,3.074,0,0,0,208.561,123a3.069,3.069,0,0,0-.124,1.616,3.02,3.02,0,0,0,.585,1.285,2.981,2.981,0,0,0,1.693,1.084,2.383,2.383,0,0,0,.548.067.745.745,0,0,0,.192-.009.849.849,0,0,0-.219-.032l.423,0c-.132.016-.2.018-.2.03a.741.741,0,0,0,.192.009,2.382,2.382,0,0,0,.548-.067,2.98,2.98,0,0,0,1.693-1.084,3.024,3.024,0,0,0,.585-1.285A3.073,3.073,0,0,0,214.347,123Zm-.03,1.587a2.914,2.914,0,0,1-.537,1.233c-.034.046-.07.086-.106.128a2.054,2.054,0,0,0-1.724-1.453,1.4,1.4,0,0,0,.836-1.3,1.319,1.319,0,1,0-2.632-.012,1.4,1.4,0,0,0,.839,1.311,2.09,2.09,0,0,0-1.755,1.458c-.037-.043-.075-.085-.11-.132a2.92,2.92,0,0,1-.4-2.761,2.915,2.915,0,0,1,1.016-1.346,2.893,2.893,0,0,1,3.429,0,2.916,2.916,0,0,1,1.015,1.346A2.933,2.933,0,0,1,214.318,124.589Z" transform="translate(-208.382 -120.963)"/></g><path class="l" d="M239.51,124.571c0-.008.093,0,.269-.036a1.419,1.419,0,0,0,.69-.363,1.439,1.439,0,0,0,.436-1.159c0-.514-.006-1.106-.009-1.772,0-1.335-.01-2.967-.016-4.86q0-.71,0-1.47a1.378,1.378,0,0,0-.677-1.26,3.241,3.241,0,0,0-1.591-.185l-1.745,0L199.6,113.5a1.336,1.336,0,0,0-1.086.561,1.3,1.3,0,0,0-.23.582c-.026.2-.01.44-.015.661q0,1.348,0,2.677,0,2.656,0,5.23a1.321,1.321,0,0,0,.55,1.018,1.282,1.282,0,0,0,.542.231,4.1,4.1,0,0,0,.616.022h2.5l4.843,0,16.754.02,11.3.03,3.071.017.8.009c.18,0,.272.01.272.01s-.092.006-.272.009l-.8.009-3.071.018-11.3.03-16.754.02-4.843,0h-2.5a4.134,4.134,0,0,1-.648-.025,1.466,1.466,0,0,1-.618-.262,1.506,1.506,0,0,1-.627-1.159q0-2.575,0-5.238,0-1.329,0-2.677a6.688,6.688,0,0,1,.016-.687,1.49,1.49,0,0,1,.264-.665,1.526,1.526,0,0,1,1.24-.641l37.266.028,1.745,0,.84,0a1.49,1.49,0,0,1,1.541,1.57q0,.759,0,1.47c-.006,1.893-.012,3.524-.016,4.86,0,.666-.006,1.258-.009,1.772a1.477,1.477,0,0,1-.466,1.186,1.4,1.4,0,0,1-.713.355A1.016,1.016,0,0,1,239.51,124.571Z" transform="translate(-198.077 -113.309)"/><rect class="l" width="10.527" height="0.789" transform="translate(12.187 2.998)"/><rect class="l" width="18.443" height="0.79" transform="translate(12.187 7.459)"/><rect class="l" width="26.728" height="0.789" transform="translate(12.187 5.174)"/></g><g transform="translate(44.893 47.578)"><g transform="translate(3.34 2.481)"><path class="l" d="M217.184,225.793a.848.848,0,0,1,.219.032c0-.012.072-.014.2-.03Z" transform="translate(-214.331 -219.743)"/><path class="k" d="M214.127,208.886a2.737,2.737,0,0,0-.618-.613,2.893,2.893,0,0,0-3.429,0,2.916,2.916,0,0,0-1.016,1.346,2.92,2.92,0,0,0,.4,2.761c.035.047.073.089.11.132a2.09,2.09,0,0,1,1.755-1.458,1.4,1.4,0,0,1-.839-1.311,1.319,1.319,0,1,1,2.632.012,1.4,1.4,0,0,1-.836,1.3,2.054,2.054,0,0,1,1.724,1.453c.036-.042.072-.082.106-.128a2.918,2.918,0,0,0,.4-2.761A2.732,2.732,0,0,0,214.127,208.886Z" transform="translate(-208.723 -207.522)"/><path class="l" d="M214.347,209.168a3.076,3.076,0,0,0-1.069-1.436,3.062,3.062,0,0,0-3.648,0,3.074,3.074,0,0,0-1.069,1.436,3.069,3.069,0,0,0-.124,1.616,3.02,3.02,0,0,0,.585,1.285,2.981,2.981,0,0,0,1.693,1.084,2.361,2.361,0,0,0,.548.067.739.739,0,0,0,.192-.009.849.849,0,0,0-.219-.032l.423,0c-.132.016-.2.018-.2.03a.735.735,0,0,0,.192.009,2.359,2.359,0,0,0,.548-.067,2.98,2.98,0,0,0,1.693-1.084,3.024,3.024,0,0,0,.585-1.285A3.073,3.073,0,0,0,214.347,209.168Zm-.03,1.587a2.913,2.913,0,0,1-.537,1.233c-.034.046-.07.086-.106.128a2.054,2.054,0,0,0-1.724-1.453,1.4,1.4,0,0,0,.836-1.3,1.319,1.319,0,1,0-2.632-.012,1.4,1.4,0,0,0,.839,1.311,2.09,2.09,0,0,0-1.755,1.458c-.037-.043-.075-.085-.11-.132a2.92,2.92,0,0,1-.4-2.761,2.915,2.915,0,0,1,1.016-1.346,2.893,2.893,0,0,1,3.429,0,2.916,2.916,0,0,1,1.015,1.346A2.933,2.933,0,0,1,214.318,210.755Z" transform="translate(-208.382 -207.129)"/></g><g transform="translate(0 0)"><path class="l" d="M239.51,210.737c0-.008.093,0,.269-.036a1.419,1.419,0,0,0,.69-.363,1.439,1.439,0,0,0,.436-1.159c0-.514-.006-1.106-.009-1.772,0-1.335-.01-2.967-.016-4.86q0-.71,0-1.47a1.378,1.378,0,0,0-.677-1.26,3.242,3.242,0,0,0-1.591-.185l-1.745,0-37.266.028a1.336,1.336,0,0,0-1.086.561,1.3,1.3,0,0,0-.23.582c-.026.2-.01.44-.015.661q0,1.348,0,2.677,0,2.656,0,5.23a1.321,1.321,0,0,0,.55,1.018,1.282,1.282,0,0,0,.542.231,4.1,4.1,0,0,0,.616.022h2.5l4.843,0,16.754.02,11.3.03,3.071.018.8.009c.18,0,.272.01.272.01s-.092.006-.272.009l-.8.009-3.071.018-11.3.03-16.754.02-4.843,0h-2.5a4.132,4.132,0,0,1-.648-.025,1.466,1.466,0,0,1-.618-.262,1.506,1.506,0,0,1-.627-1.159q0-2.575,0-5.238,0-1.329,0-2.677a6.688,6.688,0,0,1,.016-.687,1.49,1.49,0,0,1,.264-.665,1.526,1.526,0,0,1,1.24-.641l37.266.028,1.745,0,.84,0a1.49,1.49,0,0,1,1.541,1.57q0,.759,0,1.47c-.006,1.893-.012,3.524-.016,4.86,0,.666-.006,1.258-.009,1.772a1.477,1.477,0,0,1-.466,1.186,1.4,1.4,0,0,1-.713.355A1.018,1.018,0,0,1,239.51,210.737Z" transform="translate(-198.077 -199.475)"/><rect class="l" width="10.527" height="0.789" transform="translate(12.187 2.998)"/><rect class="l" width="18.443" height="0.79" transform="translate(12.187 7.459)"/><rect class="l" width="26.728" height="0.789" transform="translate(12.187 5.174)"/></g></g><g transform="translate(45.067 33.354)"><rect class="f" width="11.168" height="42.761" rx="3.932" transform="translate(0 11.168) rotate(-89.836)"/><rect class="k" width="10.527" height="0.79" transform="translate(12.116 2.938) rotate(0.164)"/><rect class="k" width="18.443" height="0.789" transform="translate(12.103 7.399) rotate(0.164)"/><rect class="k" width="26.728" height="0.79" transform="translate(12.109 5.114) rotate(0.164)"/><g transform="translate(3.269 2.415)"><path class="k" d="M214.07,168.252a1.4,1.4,0,0,0,.808-1.316,1.319,1.319,0,1,0-2.632.044,1.4,1.4,0,0,0,.866,1.292,2.107,2.107,0,0,0-1.749,1.569,2.984,2.984,0,0,0,1.847.945l.811-.014a2.983,2.983,0,0,0,1.833-1.031A2.071,2.071,0,0,0,214.07,168.252Z" transform="translate(-210.5 -164.74)"/><path class="k" d="M211.83,169.112c0-.021.267-.012.72-.141a2.984,2.984,0,0,0,1.585-1.127,2.927,2.927,0,0,0,.347-2.776,2.927,2.927,0,0,0-1.047-1.329,2.9,2.9,0,0,0-3.44.074,2.923,2.923,0,0,0-.989,1.372,2.926,2.926,0,0,0,.466,2.759A2.985,2.985,0,0,0,211.1,169c.459.11.726.089.725.11a2.269,2.269,0,0,1-.74-.046,2.981,2.981,0,0,1-1.711-1.048,3.016,3.016,0,0,1-.61-1.269,3.064,3.064,0,0,1,.09-1.614,3.066,3.066,0,0,1,1.036-1.454,3.054,3.054,0,0,1,3.636-.078,3.068,3.068,0,0,1,1.1,1.408,3.06,3.06,0,0,1,.159,1.608,3.015,3.015,0,0,1-.555,1.294,2.981,2.981,0,0,1-1.664,1.121A2.264,2.264,0,0,1,211.83,169.112Z" transform="translate(-208.702 -163.041)"/></g></g><g transform="translate(62.346 93.671)"><path class="l" d="M253.409,342.318a.753.753,0,1,1-.742-.643A.7.7,0,0,1,253.409,342.318Z" transform="translate(-251.92 -341.675)"/></g><g transform="translate(64.652 93.682)"><path class="l" d="M260.525,342.35a.753.753,0,1,1-.742-.643A.7.7,0,0,1,260.525,342.35Z" transform="translate(-259.036 -341.707)"/></g><g transform="translate(66.958 93.693)"><path class="l" d="M267.64,342.383a.753.753,0,1,1-.742-.643A.7.7,0,0,1,267.64,342.383Z" transform="translate(-266.151 -341.74)"/></g><g transform="translate(44.893 62.064)"><g transform="translate(3.34 2.481)"><path class="l" d="M217.184,270.482a.86.86,0,0,1,.219.031c0-.011.072-.014.2-.029Z" transform="translate(-214.331 -264.432)"/><path class="k" d="M214.127,253.574a2.736,2.736,0,0,0-.618-.612,2.893,2.893,0,0,0-3.429,0,2.92,2.92,0,0,0-1.016,1.346,2.92,2.92,0,0,0,.4,2.761c.035.047.073.089.11.132a2.089,2.089,0,0,1,1.755-1.458,1.4,1.4,0,0,1-.839-1.311,1.319,1.319,0,1,1,2.632.012,1.4,1.4,0,0,1-.836,1.3,2.054,2.054,0,0,1,1.724,1.453c.036-.042.072-.082.106-.128a2.918,2.918,0,0,0,.4-2.761A2.732,2.732,0,0,0,214.127,253.574Z" transform="translate(-208.723 -252.21)"/><path class="l" d="M214.347,253.856a3.077,3.077,0,0,0-1.069-1.436,3.062,3.062,0,0,0-3.648,0,3.074,3.074,0,0,0-1.069,1.436,3.071,3.071,0,0,0-.124,1.616,3.023,3.023,0,0,0,.585,1.285,2.979,2.979,0,0,0,1.693,1.084,2.382,2.382,0,0,0,.548.067.725.725,0,0,0,.192-.009.861.861,0,0,0-.219-.031l.423,0c-.132.016-.2.018-.2.029a.722.722,0,0,0,.192.009,2.381,2.381,0,0,0,.548-.067,2.98,2.98,0,0,0,1.693-1.084,3.022,3.022,0,0,0,.585-1.285A3.073,3.073,0,0,0,214.347,253.856Zm-.03,1.588a2.915,2.915,0,0,1-.537,1.233c-.034.046-.07.085-.106.128a2.054,2.054,0,0,0-1.724-1.453,1.4,1.4,0,0,0,.836-1.3,1.319,1.319,0,1,0-2.632-.012,1.4,1.4,0,0,0,.839,1.311,2.089,2.089,0,0,0-1.755,1.458c-.037-.044-.075-.085-.11-.132a2.92,2.92,0,0,1-.4-2.761,2.92,2.92,0,0,1,1.016-1.346,2.893,2.893,0,0,1,3.429,0,2.913,2.913,0,0,1,1.015,1.346A2.935,2.935,0,0,1,214.318,255.443Z" transform="translate(-208.382 -251.817)"/></g><path class="l" d="M239.51,255.426c0-.008.093,0,.269-.036a1.415,1.415,0,0,0,.69-.363,1.438,1.438,0,0,0,.436-1.158c0-.514-.006-1.107-.009-1.773,0-1.335-.01-2.967-.016-4.86q0-.71,0-1.469a1.377,1.377,0,0,0-.677-1.26,3.237,3.237,0,0,0-1.591-.185l-1.745,0-37.266.028a1.337,1.337,0,0,0-1.086.562,1.3,1.3,0,0,0-.23.582c-.026.2-.01.44-.015.661q0,1.348,0,2.677,0,2.656,0,5.23a1.321,1.321,0,0,0,.55,1.018,1.286,1.286,0,0,0,.542.231,4.1,4.1,0,0,0,.616.022h2.5l4.843,0,16.754.02,11.3.03,3.071.018.8.009c.18,0,.272.01.272.01s-.092.007-.272.01l-.8.009-3.071.018-11.3.03-16.754.02-4.843,0h-2.5a4.207,4.207,0,0,1-.648-.025,1.47,1.47,0,0,1-.618-.262,1.506,1.506,0,0,1-.627-1.159q0-2.575,0-5.238,0-1.329,0-2.677a6.687,6.687,0,0,1,.016-.687,1.493,1.493,0,0,1,.264-.665,1.525,1.525,0,0,1,1.24-.641l37.266.028,1.745,0,.84,0a1.491,1.491,0,0,1,1.541,1.57q0,.758,0,1.469c-.006,1.893-.012,3.524-.016,4.86,0,.666-.006,1.258-.009,1.773a1.478,1.478,0,0,1-.466,1.186,1.409,1.409,0,0,1-.713.355A1.006,1.006,0,0,1,239.51,255.426Z" transform="translate(-198.077 -244.164)"/><rect class="l" width="10.527" height="0.789" transform="translate(12.187 2.997)"/><rect class="l" width="18.443" height="0.79" transform="translate(12.187 7.459)"/><rect class="l" width="26.728" height="0.79" transform="translate(12.187 5.174)"/></g><g transform="translate(44.893 76.261)"><g transform="translate(3.34 2.481)"><path class="l" d="M217.184,314.28a.861.861,0,0,1,.219.031c0-.011.072-.014.2-.029Z" transform="translate(-214.331 -308.23)"/><path class="k" d="M214.127,297.372a2.735,2.735,0,0,0-.618-.612,2.893,2.893,0,0,0-3.429,0,2.92,2.92,0,0,0-1.016,1.346,2.92,2.92,0,0,0,.4,2.761c.035.047.073.089.11.132a2.089,2.089,0,0,1,1.755-1.458,1.4,1.4,0,0,1-.839-1.311,1.319,1.319,0,1,1,2.632.012,1.4,1.4,0,0,1-.836,1.3,2.054,2.054,0,0,1,1.724,1.453c.036-.042.072-.082.106-.127a2.918,2.918,0,0,0,.4-2.761A2.732,2.732,0,0,0,214.127,297.372Z" transform="translate(-208.723 -296.008)"/><path class="l" d="M214.347,297.654a3.078,3.078,0,0,0-1.069-1.436,3.062,3.062,0,0,0-3.648,0,3.075,3.075,0,0,0-1.069,1.436,3.071,3.071,0,0,0-.124,1.617,3.023,3.023,0,0,0,.585,1.285,2.981,2.981,0,0,0,1.693,1.084,2.388,2.388,0,0,0,.548.067.726.726,0,0,0,.192-.009.858.858,0,0,0-.219-.031l.423,0c-.132.016-.2.018-.2.029a.722.722,0,0,0,.192.009,2.386,2.386,0,0,0,.548-.067,2.98,2.98,0,0,0,1.693-1.084,3.022,3.022,0,0,0,.585-1.285A3.073,3.073,0,0,0,214.347,297.654Zm-.03,1.588a2.915,2.915,0,0,1-.537,1.233c-.034.046-.07.085-.106.127a2.054,2.054,0,0,0-1.724-1.453,1.4,1.4,0,0,0,.836-1.3,1.319,1.319,0,1,0-2.632-.012,1.4,1.4,0,0,0,.839,1.311,2.089,2.089,0,0,0-1.755,1.458c-.037-.044-.075-.085-.11-.132a2.92,2.92,0,0,1-.4-2.761,2.92,2.92,0,0,1,1.016-1.347,2.893,2.893,0,0,1,3.429,0,2.913,2.913,0,0,1,1.015,1.346A2.934,2.934,0,0,1,214.318,299.241Z" transform="translate(-208.382 -295.615)"/></g><path class="l" d="M239.51,299.224c0-.008.093,0,.269-.036a1.416,1.416,0,0,0,.69-.363,1.438,1.438,0,0,0,.436-1.159c0-.514-.006-1.106-.009-1.772,0-1.335-.01-2.967-.016-4.859q0-.71,0-1.469a1.377,1.377,0,0,0-.677-1.26,3.237,3.237,0,0,0-1.591-.185l-1.745,0-37.266.028a1.336,1.336,0,0,0-1.086.562,1.3,1.3,0,0,0-.23.582c-.026.2-.01.44-.015.661q0,1.347,0,2.677,0,2.656,0,5.23a1.321,1.321,0,0,0,.55,1.018,1.281,1.281,0,0,0,.542.23,4.05,4.05,0,0,0,.616.023h2.5l4.843,0,16.754.02,11.3.03,3.071.018.8.009c.18,0,.272.01.272.01s-.092.007-.272.01l-.8.009-3.071.017-11.3.03-16.754.02-4.843,0h-2.5a4.205,4.205,0,0,1-.648-.025,1.47,1.47,0,0,1-.618-.262,1.506,1.506,0,0,1-.627-1.159q0-2.576,0-5.238,0-1.329,0-2.677a6.7,6.7,0,0,1,.016-.687,1.493,1.493,0,0,1,.264-.664,1.524,1.524,0,0,1,1.24-.641l37.266.028,1.745,0,.84,0a1.491,1.491,0,0,1,1.541,1.57q0,.759,0,1.469c-.006,1.893-.012,3.524-.016,4.859,0,.666-.006,1.258-.009,1.772a1.476,1.476,0,0,1-.466,1.186,1.407,1.407,0,0,1-.713.355A1.006,1.006,0,0,1,239.51,299.224Z" transform="translate(-198.077 -287.962)"/><rect class="l" width="10.527" height="0.789" transform="translate(12.187 2.997)"/><rect class="l" width="18.443" height="0.789" transform="translate(12.187 7.459)"/><rect class="l" width="26.728" height="0.79" transform="translate(12.187 5.174)"/></g><g transform="translate(84.291 32.117)"><circle class="c" cx="2.16" cy="2.16" r="2.16"/><path class="m" d="M323.025,156.966l.907.8,1.209-1.247" transform="translate(-321.923 -154.98)"/></g><g transform="translate(27.311 34.418)"><g transform="translate(3.182 1.321)"><path class="n" d="M159.05,175.63c.04-.808.124-1.72.124-1.72a2.419,2.419,0,0,0,2.118-2.283c.121-2.063,0-6.821,0-6.821l-3.638-1.852-4,3.158.606,10.315,3.682.234A1.062,1.062,0,0,0,159.05,175.63Z" transform="translate(-153.653 -162.953)"/></g><g transform="translate(8.108 7.189)"><path class="o" d="M169.68,182.228c.006,0,.006.039-.031.089a.283.283,0,0,1-.23.1c-.232-.011-.455-.267-.537-.58a.989.989,0,0,1-.01-.459.393.393,0,0,1,.217-.311.2.2,0,0,1,.154,0,.174.174,0,0,1,.081.083c.027.062.006.1,0,.1s-.006-.034-.036-.073a.133.133,0,0,0-.172-.036.325.325,0,0,0-.149.258.958.958,0,0,0,.017.409c.072.28.266.509.44.53a.26.26,0,0,0,.194-.053C169.659,182.254,169.673,182.225,169.68,182.228Z" transform="translate(-168.849 -181.055)"/></g><g transform="translate(0.614)"><path class="p" d="M154.041,168.515c.028-.076.044-.155.065-.233l.048-.171h0a2.676,2.676,0,0,0,.057-.515.99.99,0,0,1-1.047-.226,1.094,1.094,0,0,1-.247-1.083,1.567,1.567,0,0,1,.933-.88c.4-.169.833-.253,1.227-.44a4.1,4.1,0,0,0,1.809-2.087,2.856,2.856,0,0,0,.294-1.942,2.915,2.915,0,0,0-2.207-1.682,6.971,6.971,0,0,0-4.283-.069c-1.367.5-3.012,1.389-3.011,2.9-.807-.066-1.268.641-1.589,1.517a11.869,11.869,0,0,0-.357,1.66" transform="translate(-145.732 -158.876)"/></g><path class="p" d="M148.762,182.089a7.093,7.093,0,0,1-3.05-6.3c.206-4.331,8.309,3.252,8.309,3.252s-1.551,5.1-5.094,3.045" transform="translate(-145.098 -169.406)"/><g transform="translate(1.26 5.581)"><path class="q" d="M148.924,178.878c-.022-.02.141-.172.273-.487a1.565,1.565,0,0,0-.932-2.131c-.32-.117-.542-.1-.542-.13a.892.892,0,0,1,.579.017,1.6,1.6,0,0,1,1,2.3C149.133,178.767,148.933,178.892,148.924,178.878Z" transform="translate(-147.723 -176.095)"/></g><g transform="translate(0 2.571)"><path class="c" d="M144.63,169.95c0,.008-.082.013-.212-.045a.949.949,0,0,1-.427-.411,1.438,1.438,0,0,1-.141-.867,2.689,2.689,0,0,1,.334-1.015,1.641,1.641,0,0,1,.805-.713,1.153,1.153,0,0,1,.881,0,.972.972,0,0,1,.453.382c.07.123.079.2.07.2a1.168,1.168,0,0,0-.567-.476,1.063,1.063,0,0,0-.779.037,1.54,1.54,0,0,0-.718.655,2.038,2.038,0,0,0-.232,1.742A1.1,1.1,0,0,0,144.63,169.95Z" transform="translate(-143.837 -166.809)"/></g></g><g transform="translate(13.184 36.714)"><path class="n" d="M151.979,170.836c-.145-.149-.5-.079-.5-.079a1.922,1.922,0,0,0,0-.628c-.065-.2-.522-.165-.522-.165a2.134,2.134,0,0,1,.012-.515.182.182,0,0,0-.106-.182,1.683,1.683,0,0,0-.682-.124c-.279-.2.851-1.781,1.27-2.287s.345-.9-.029-.9a10.61,10.61,0,0,0-1.978,2.03c-.4.51-1.482,1.929-1.519.8a2.911,2.911,0,0,0-.776-2.135c-.284-.146-.591.2-.434.511a4.147,4.147,0,0,1,.253,1.114,2.707,2.707,0,0,1-.042.915,10.545,10.545,0,0,1-.487,1.635l-.028-.016s-7.9,7.575-8.469,8.115c-.512.487-10.777-.575-12.834-.793a14.214,14.214,0,0,0-2.116-.144c-.892.039-1.051.166-1.944.178a39.666,39.666,0,0,0-6.339.529c-2.05.347-3.178,1.951-3.813,3.932-2.075,6.477-7.692,21.727-8.529,30.343a35.956,35.956,0,0,0-1.695,3.5c-.582,1.583-.44,1.638-.244,1.674.526.1,1.128-2.746,1.353-2.06s-1.141,3.392-.587,3.472c.723.1,1.3-2.885,1.366-3.135s.43-.16.357.062c-.1.319-1.123,3.7-.415,3.8.393.06.435-.655.435-.655s.72-3.229,1.053-3.167-.021,1.974-.188,2.609.067.962.406.8a10.6,10.6,0,0,0,.937-2.675c.15-.632.531-2.374,1.042-1.363a2.911,2.911,0,0,0,1.6,1.609.355.355,0,0,0,.178-.647,4.129,4.129,0,0,1-.7-.9,2.681,2.681,0,0,1-.348-.847,9.377,9.377,0,0,1-.253-1.832l-.059-.372c.81-4.015,3.558-17.694,6.914-25.22l.97,4.745.6,2.1-3.683,9.1,15.712-.207-2.342-9.026,2.846-9.412h0c3.08.069,10.99.183,12.32-.411,1.657-.74,10.234-11.553,10.234-11.553h0a20.43,20.43,0,0,0,1.6-1.391S152.293,171.159,151.979,170.836Z" transform="translate(-100.254 -165.957)"/></g><g transform="translate(18.752 48.875)"><path class="r" d="M122.335,220.937c.455-1.556,2.8-9.25,2.8-9.25s1.149,6.273.847,7.028a13.327,13.327,0,0,1-.988,1.866c-2.657,4.046-2.308,6.068-2.308,6.068l16.048-.489a40.932,40.932,0,0,0-1.567-8.294c-.278-.831.643-3.56.643-3.56s1.814-1.842,1.744-2.79a15.287,15.287,0,0,0-.316-2.526l11.886.227-1.33-6.462-11.461-.837-3.814-.358c-1.917,1.618-4.792,0-4.792,0-3.657.358-4.192.943-5.693,2.442-1.781,1.779-6.6,15.37-6.6,15.37Z" transform="translate(-117.433 -201.561)"/><g transform="translate(8.669 17.227)"><path class="b" d="M149.9,255.291a3.466,3.466,0,0,1-.846.043c-.523,0-1.244-.036-2.038-.115s-1.508-.192-2.02-.293a3.438,3.438,0,0,1-.82-.21,4.237,4.237,0,0,1,.841.079c.516.067,1.229.157,2.018.237s1.5.133,2.024.17A4.157,4.157,0,0,1,149.9,255.291Z" transform="translate(-144.177 -254.706)"/></g><g transform="translate(9.269 16.441)"><path class="b" d="M152.25,252.287a3.765,3.765,0,0,1-.876.3,15.9,15.9,0,0,1-4.425.525,3.76,3.76,0,0,1-.922-.085,5.647,5.647,0,0,1,.921-.048c.567-.017,1.35-.059,2.209-.161s1.629-.245,2.185-.361A5.617,5.617,0,0,1,152.25,252.287Z" transform="translate(-146.028 -252.282)"/></g><g transform="translate(19.545 10.358)"><path class="b" d="M179.076,233.516a3.485,3.485,0,0,1-.11.819c-.093.5-.24,1.188-.425,1.943s-.373,1.432-.522,1.919a3.453,3.453,0,0,1-.282.776,3.738,3.738,0,0,1,.153-.811l.467-1.93.478-1.926A3.73,3.73,0,0,1,179.076,233.516Z" transform="translate(-177.732 -233.516)"/></g></g><g transform="translate(23.117 72.962)"><path class="s" d="M131.675,278.275l16.048-.489,6.979,27.267-1.285,31.277h-8.494l1.053-30.611-6.208-18.981.942,49.915-8.575.127-.889-46.865a53.34,53.34,0,0,1-.312-5.638Z" transform="translate(-130.897 -277.786)"/><g transform="translate(5.755 8.274)"><path class="c" d="M153.905,304.374a3.051,3.051,0,0,1-.787-.047c-.483-.057-1.147-.159-1.875-.3s-1.38-.31-1.847-.444a3.052,3.052,0,0,1-.744-.261c.014-.052,1.18.23,2.628.52S153.912,304.321,153.905,304.374Z" transform="translate(-148.653 -303.312)"/></g><g transform="translate(14.085 56.735)"><path class="c" d="M182.709,452.91c0,.052-1.923.094-4.295.094a35.663,35.663,0,0,1-4.062-.125c0-.052,1.69-.064,4.062-.064S182.709,452.858,182.709,452.91Z" transform="translate(-174.352 -452.816)"/></g><g transform="translate(1.358 56.829)"><path class="c" d="M143.421,453.2c0,.052-1.865.094-4.166.094s-4.167-.042-4.167-.094,1.865-.094,4.167-.094S143.421,453.148,143.421,453.2Z" transform="translate(-135.088 -453.106)"/></g><g transform="translate(7.816 8.715)"><path class="c" d="M155.839,352.881c-.052,0-.277-10.791-.5-24.1s-.367-24.106-.315-24.107.278,10.789.5,24.1S155.891,352.88,155.839,352.881Z" transform="translate(-155.009 -304.673)"/></g><g transform="translate(15.523 0.489)"><path class="c" d="M184.566,335.635a.855.855,0,0,1,0-.148c0-.107,0-.25.008-.434.011-.391.027-.951.048-1.666.051-1.457.123-3.548.213-6.128.2-5.182.471-12.324.773-20.213,0-.073.006-.146.009-.213l0,.027-4.867-19.491c-.612-2.486-1.107-4.5-1.452-5.9l-.385-1.607c-.041-.177-.072-.316-.1-.419a.874.874,0,0,1-.027-.144.837.837,0,0,1,.045.14l.113.414c.1.375.24.912.42,1.6l1.51,5.889,4.921,19.477,0,.013v.014c0,.067-.006.14-.008.213-.323,7.888-.616,15.029-.829,20.211-.115,2.579-.207,4.669-.272,6.125-.036.715-.064,1.274-.084,1.665-.011.183-.02.326-.027.433A.841.841,0,0,1,184.566,335.635Z" transform="translate(-178.787 -279.296)"/></g><g transform="translate(14.676 27.377)"><path class="c" d="M180.032,362.26a9.882,9.882,0,0,1-1.876.418c-.78.135-1.454.226-1.749.243v-.073c.1.027.15.048.148.061s-.059.017-.16.013l-.219-.009.219-.064c.283-.083.949-.221,1.729-.355A9.853,9.853,0,0,1,180.032,362.26Z" transform="translate(-176.175 -362.246)"/></g><g transform="translate(15 28.12)"><path class="c" d="M180.545,364.848a26.174,26.174,0,0,1-3.371-.263,10.733,10.733,0,0,1,3.371.263Z" transform="translate(-177.174 -364.537)"/></g><g transform="translate(0.706)"><path class="c" d="M133.076,278.851a2.205,2.205,0,0,0,1.584.843,7.171,7.171,0,0,0,1.946-.037,100.929,100.929,0,0,0,12.589-1.872c-5.251.294-10.8.195-16.048.489,0,0-.045.361-.055.448" transform="translate(-133.076 -277.786)"/></g><g transform="translate(6.119 8.467)"><path class="c" d="M149.775,303.908l2.958,11.485-.207-11Z" transform="translate(-149.775 -303.908)"/></g></g><g transform="translate(21.765 40.061)"><g transform="translate(0.103 0.155)"><path class="p" d="M133.816,176.809c-1.141-.3-2.331.912-2.373,2.091-.012.337.037.725-.2.963-.254.253-.67.178-1.028.206a1.632,1.632,0,0,0-1.45,1.424c-.051.526.158,1.089-.062,1.57-.209.458-.729.673-1.083,1.03a2.311,2.311,0,0,0-.568,1.794,6.734,6.734,0,0,0,.5,1.866,2.09,2.09,0,0,0,1.037,1.369h4.794l.361-1.81.585,1.81h.78l-.419-11.745S134.691,177.041,133.816,176.809Z" transform="translate(-127.044 -176.762)"/></g><path class="p" d="M127.046,182.1a.321.321,0,0,0-.128.026.251.251,0,0,0-.115.312.548.548,0,0,0,.433.352.569.569,0,0,0,.631-.759,1.962,1.962,0,0,0-.263-.433,1.545,1.545,0,0,1-.3-1.147,1.464,1.464,0,0,1,.728-1.086,1.546,1.546,0,0,1,1.4-.081,2.556,2.556,0,0,0,1.248.417.571.571,0,0,0,.471-.283,1.2,1.2,0,0,0,.065-.577,2.623,2.623,0,0,1,.757-2.026,1.935,1.935,0,0,1,1.366-.526,1.523,1.523,0,0,1,.4.067.4.4,0,0,1,.128.057,3.053,3.053,0,0,0-.526-.059,1.918,1.918,0,0,0-1.283.547,2.525,2.525,0,0,0-.684,1.934,1.32,1.32,0,0,1-.076.656.734.734,0,0,1-.6.374,1.349,1.349,0,0,1-.7-.125c-.218-.093-.419-.213-.63-.3a1.384,1.384,0,0,0-1.251.068,1.31,1.31,0,0,0-.656.965,1.4,1.4,0,0,0,.258,1.045,2.041,2.041,0,0,1,.27.47.678.678,0,0,1-.025.519.687.687,0,0,1-.331.335.663.663,0,0,1-.416.041.617.617,0,0,1-.478-.427.293.293,0,0,1,.164-.36C127,182.057,127.049,182.094,127.046,182.1Z" transform="translate(-126.727 -176.284)"/></g><g transform="translate(37.252 48.891)"><path class="c" d="M177.912,210.206a1.225,1.225,0,0,1-.37-.008,3.153,3.153,0,0,1-.97-.283,3.654,3.654,0,0,1-1.2-.9,3.324,3.324,0,0,1-.634-3.475,3.652,3.652,0,0,1,.8-1.267,3.163,3.163,0,0,1,.807-.607,1.212,1.212,0,0,1,.343-.137,4.81,4.81,0,0,0-1.063.827,3.694,3.694,0,0,0-.745,1.239,3.246,3.246,0,0,0,.605,3.32,3.7,3.7,0,0,0,1.135.9A4.823,4.823,0,0,0,177.912,210.206Z" transform="translate(-174.508 -203.525)"/></g></g></g></g></svg>