<svg xmlns="http://www.w3.org/2000/svg" width="55.714" height="47.01" viewBox="0 0 55.714 47.01"><defs><style>.a{fill:#ffe8ee;}.b{fill:#fff;}.c{fill:#d52f5f;}</style></defs><g transform="translate(0 -39.922)"><path class="a" d="M97.19,190.463c-7.931,1.753-13.756,7.573-13.756,14.484s5.825,12.731,13.756,14.484c7.931-1.753,13.756-7.573,13.756-14.484S105.121,192.216,97.19,190.463Z" transform="translate(-79.809 -134.128)"/><path class="b" d="M235.121,204.324a15.025,15.025,0,0,1,9.9-18.186,15.025,15.025,0,1,0-.732,28.809q.369-.1.729-.215A15.012,15.012,0,0,1,235.121,204.324Z" transform="translate(-200.796 -129.624)"/><path class="c" d="M337.244,202.514c-1.831-5.108-6.97-8.891-13.231-10.409-10.128,2.439-16.019,10.417-13.235,18.186,1.831,5.107,6.97,8.891,13.231,10.409C334.137,218.261,340.029,210.282,337.244,202.514Z" transform="translate(-283.307 -135.591)"/><path d="M92.894,288.858a1.087,1.087,0,1,0-.319.771A1.1,1.1,0,0,0,92.894,288.858Z" transform="translate(-80.826 -220.824)"/><path d="M185.966,287.769a1.089,1.089,0,1,0,.77.319A1.1,1.1,0,0,0,185.966,287.769Z" transform="translate(-164.72 -220.824)"/><path d="M113.168,345.218a1.088,1.088,0,0,0-1.333.771,2.663,2.663,0,0,1-5.146,0,1.089,1.089,0,0,0-2.1.562,4.84,4.84,0,0,0,9.354,0A1.089,1.089,0,0,0,113.168,345.218Z" transform="translate(-93.15 -271.977)"/><path d="M246.726,49.011a1.089,1.089,0,0,0,1.089-1.089V41.011a1.089,1.089,0,0,0-2.177,0v6.912A1.088,1.088,0,0,0,246.726,49.011Z" transform="translate(-218.855)"/><path d="M246.729,138.6a1.089,1.089,0,1,0,.77.319A1.1,1.1,0,0,0,246.729,138.6Z" transform="translate(-218.858 -87.916)"/><path d="M155.334,106.943a1.089,1.089,0,1,0,1.539-1.54l-2.779-2.777a1.089,1.089,0,1,0-1.539,1.54Z" transform="translate(-135.638 -55.584)"/><path d="M313.047,107.467a1.087,1.087,0,0,0,.77-.319l2.955-2.958a1.089,1.089,0,1,0-1.54-1.539l-2.955,2.958a1.089,1.089,0,0,0,.77,1.858Z" transform="translate(-277.946 -55.606)"/><path d="M55.163,187.381a16.12,16.12,0,0,0-27.314-6.862,16.113,16.113,0,1,0,.012,22.066,16.111,16.111,0,0,0,27.3-15.2Zm-39.05,18.113a13.935,13.935,0,1,1,10.347-23.27q-.433.613-.814,1.271a16.118,16.118,0,0,0,.82,17.392A13.869,13.869,0,0,1,16.113,205.494Zm27.093-.482a13.935,13.935,0,0,1-15.675-20.428,14.122,14.122,0,0,1,1.144-1.688c.018-.021.035-.042.051-.064a13.936,13.936,0,1,1,14.48,22.18Z" transform="translate(0 -120.74)"/><path d="M296.014,289.354a2.361,2.361,0,0,0-4.562,1.222,1.089,1.089,0,0,0,2.1-.563.185.185,0,0,1,.13-.226.185.185,0,0,1,.225.13,1.089,1.089,0,1,0,2.1-.563Z" transform="translate(-259.603 -220.677)"/><path d="M385.294,263.7a2.361,2.361,0,0,0-3.462,2.656,1.089,1.089,0,1,0,2.1-.564.18.18,0,0,1,.019-.139.184.184,0,0,1,.251-.067.18.18,0,0,1,.085.111,1.089,1.089,0,0,0,2.1-.563A2.345,2.345,0,0,0,385.294,263.7Z" transform="translate(-340.129 -199.095)"/><path d="M338.6,334.73a1.088,1.088,0,0,0-.77,1.333,2.6,2.6,0,1,1-5.014,1.344,1.089,1.089,0,0,0-2.1.563,4.779,4.779,0,0,0,4.6,3.54,4.78,4.78,0,0,0,4.619-6.01A1.089,1.089,0,0,0,338.6,334.73Z" transform="translate(-294.62 -262.632)"/></g></svg>