<svg xmlns="http://www.w3.org/2000/svg" width="27" height="27" viewBox="0 0 27 27"><defs><style>.a{fill:#eff6fe;}.b{fill:#0fcaa6;}.c{fill:#fedbab;}.d{fill:#f2b11f;}</style></defs><g transform="translate(-722.388 -662.572)"><g transform="translate(-100.185 -53)"><path class="a" d="M206.3,0H196.134A3.331,3.331,0,0,0,192.8,3.333V18.583a.792.792,0,0,0,1.266.633l3.178-2.384H206.3a3.331,3.331,0,0,0,3.333-3.333V3.333A3.331,3.331,0,0,0,206.3,0Z" transform="translate(639.939 715.572)"/><path class="b" d="M339.656,218.027a1.129,1.129,0,1,1-1.129-1.129A1.129,1.129,0,0,1,339.656,218.027Z" transform="translate(502.5 511.201)"/><path class="b" d="M301.386,72.3a4.15,4.15,0,0,0-4.152,4.152v0a1.129,1.129,0,1,0,2.258,0,1.895,1.895,0,1,1,1.895,1.9,1.129,1.129,0,0,0-1.129,1.129v1.209a1.129,1.129,0,1,0,2.258,0v-.236a4.153,4.153,0,0,0-1.131-8.15Z" transform="translate(539.641 644.913)"/><path class="c" d="M31.9,244.727a3.739,3.739,0,1,1-3.739-3.739A3.739,3.739,0,0,1,31.9,244.727Z" transform="translate(799.434 487.293)"/><path class="d" d="M5.027,382.8A5.027,5.027,0,0,0,0,387.832v.995a.791.791,0,0,0,.791.791H9.264a.791.791,0,0,0,.791-.791v-.995A5.027,5.027,0,0,0,5.027,382.8Z" transform="translate(822.572 352.954)"/></g></g></svg>