<svg xmlns="http://www.w3.org/2000/svg" width="14" height="14" viewBox="0 0 14 14"><defs><style>.a{fill:#ff3e6c;}</style></defs><path class="a" d="M7.563.563a7,7,0,1,0,7,7A7,7,0,0,0,7.563.563Zm0,3.1A1.185,1.185,0,1,1,6.377,4.853,1.185,1.185,0,0,1,7.563,3.667Zm1.581,7.169a.339.339,0,0,1-.339.339H6.321a.339.339,0,0,1-.339-.339v-.677a.339.339,0,0,1,.339-.339h.339V8.014H6.321a.339.339,0,0,1-.339-.339V7a.339.339,0,0,1,.339-.339H8.127A.339.339,0,0,1,8.466,7V9.821H8.8a.339.339,0,0,1,.339.339Z" transform="translate(-0.563 -0.563)"/></svg>