<svg xmlns="http://www.w3.org/2000/svg" width="43.778" height="38.736" viewBox="0 0 43.778 38.736"><defs><style>.a{fill:#d6d6fa;}.b{fill:#a1a1cd;}.c{fill:#ffe278;}.d{fill:#ecb455;}.e{fill:#ff8659;}.f{fill:#ff6378;}.g{fill:#ea1c81;}</style></defs><g transform="translate(0 -29.484)"><path class="a" d="M82.278,383.761a1.283,1.283,0,0,1-.405-2.5l2.052-.684a1.283,1.283,0,0,1,.811,2.434C82.54,383.743,82.556,383.761,82.278,383.761Z" transform="translate(-74.07 -321.013)"/><path class="a" d="M121.214,439.874a1.283,1.283,0,0,1,.356-1.779l2.052-1.368a1.283,1.283,0,1,1,1.423,2.134l-2.052,1.368A1.282,1.282,0,0,1,121.214,439.874Z" transform="translate(-110.653 -372.225)"/><path class="b" d="M380.332,383.762c-.282,0-.214,0-2.458-.75a1.283,1.283,0,0,1,.811-2.434l2.052.684a1.283,1.283,0,0,1-.405,2.5Z" transform="translate(-344.762 -321.014)"/><path class="b" d="M339.622,440.231l-2.052-1.368a1.283,1.283,0,0,1,1.423-2.134l2.052,1.368a1.283,1.283,0,0,1-1.423,2.134Z" transform="translate(-308.184 -372.226)"/><path class="a" d="M202.962,209.129a1.283,1.283,0,0,1-1.217-.877l-.684-2.052a1.283,1.283,0,1,1,2.434-.811l.684,2.052A1.284,1.284,0,0,1,202.962,209.129Z" transform="translate(-183.809 -160.061)"/><path class="b" d="M274.273,209.13a1.284,1.284,0,0,1-1.217-1.688l.684-2.052a1.283,1.283,0,0,1,2.434.811l-.684,2.052A1.283,1.283,0,0,1,274.273,209.13Z" transform="translate(-249.647 -160.063)"/><path class="c" d="M43.778,36.712c0,4.47-2.248,9-6.681,13.474a46.817,46.817,0,0,1-8.548,6.682,1.283,1.283,0,0,1-1.329-2.194,44.156,44.156,0,0,0,8.055-6.294c3.94-3.973,5.937-7.9,5.937-11.668,0-1.8-.445-3.028-1.36-3.746-2.328-1.828-7.632-.533-11.893.509-5.949,1.454-6.2,1.453-12.142,0-4.261-1.041-9.565-2.338-11.894-.509-.915.718-1.36,1.944-1.36,3.746,0,3.769,2,7.695,5.937,11.668a44.152,44.152,0,0,0,8.055,6.294,1.283,1.283,0,0,1-1.329,2.194,46.861,46.861,0,0,1-8.548-6.682C2.248,45.714,0,41.182,0,36.712c0-2.605.787-4.545,2.341-5.764,4.874-3.826,15.324,1.061,19.548,1.061s14.673-4.889,19.548-1.061c1.554,1.219,2.341,3.159,2.341,5.764Z" transform="translate(0 0)"/><path class="d" d="M277.889,36.712c0,4.47-2.248,9-6.681,13.474a46.818,46.818,0,0,1-8.548,6.682,1.283,1.283,0,0,1-1.329-2.194,44.156,44.156,0,0,0,8.055-6.294c3.94-3.973,5.937-7.9,5.937-11.668,0-1.8-.445-3.028-1.36-3.746-3.55-2.788-13.582,1.608-17.964,1.608V32.009c4.229,0,14.673-4.889,19.548-1.061,1.554,1.219,2.341,3.159,2.341,5.764Z" transform="translate(-234.111 0)"/><circle class="d" cx="4.019" cy="4.019" r="4.019" transform="translate(17.87 29.486)"/><path class="e" d="M260.019,33.532A4.023,4.023,0,0,1,256,37.55V29.513A4.023,4.023,0,0,1,260.019,33.532Z" transform="translate(-234.111 -0.027)"/><circle class="d" cx="4.019" cy="4.019" r="4.019" transform="translate(9.662 49.922)"/><circle class="e" cx="4.019" cy="4.019" r="4.019" transform="translate(26.079 49.922)"/><path class="f" d="M182.29,303.706a4.672,4.672,0,0,1-1.377,3.325l-5.32,5.321a1.284,1.284,0,0,1-1.814,0l-5.32-5.321a4.7,4.7,0,0,1,6.227-7.026,4.7,4.7,0,0,1,7.6,3.7Z" transform="translate(-152.796 -246.474)"/><path class="g" d="M262.227,307.024l-5.32,5.321a1.279,1.279,0,0,1-.907.375V300a4.7,4.7,0,0,1,6.227,7.026Z" transform="translate(-234.111 -246.467)"/></g></svg>