<svg xmlns="http://www.w3.org/2000/svg" width="47.72" height="45.613" viewBox="0 0 47.72 45.613"><defs><style>.a{fill:#ef4377;}.b{fill:#eaf3ff;}.c{fill:#9be373;}.d{fill:#9ae59c;}.e{fill:#f5c729;}.f{fill:#ffc344;}.g{fill:#0481bf;}.h{fill:#08375e;}.i{fill:#77b3ec;}.j{fill:#5e9ad8;}.k{fill:#d5eaff;}</style></defs><g transform="translate(-367 -2185)"><g transform="translate(367.001 2173.692)"><path class="a" d="M44.622,288.155l-4.708.932c-1.192.746-1.967,2.164-1.967,4.586,0,3.494,1.611,7.929,3.762,9.048a2.115,2.115,0,0,0,1.026.172c2.644,0,3.855-5.19,3.855-9.22C46.589,291.251,45.814,288.9,44.622,288.155Z" transform="translate(-34.411 -251.044)"/><path class="a" d="M82.154,289.087l-.931-.932-1.12.932c1.192.746,1.967,2.164,1.967,4.586,0,3.494-1.611,7.928-3.762,9.047a2.21,2.21,0,0,0,1.025.266c2.644,0,4.787-5.283,4.787-9.313C84.122,291.251,83.347,289.833,82.154,289.087Z" transform="translate(-71.011 -251.044)"/><g transform="translate(7.624 37.344)"><path class="b" d="M82.508,297.353a.7.7,0,0,1-.7-.7v-5.3a.7.7,0,1,1,1.4,0v5.3A.7.7,0,0,1,82.508,297.353Z" transform="translate(-81.809 -290.655)"/></g><path class="c" d="M378,288.155l-4.708.932c-1.192.746-1.967,2.164-1.967,4.586,0,3.494,1.611,7.929,3.762,9.048a2.115,2.115,0,0,0,1.026.172c2.644,0,3.855-5.19,3.855-9.22C379.971,291.251,379.2,288.9,378,288.155Z" transform="translate(-336.721 -251.044)"/><path class="d" d="M415.537,289.087l-.931-.932-1.12.932c1.192.746,1.967,2.164,1.967,4.586,0,3.494-1.611,7.928-3.762,9.047a2.21,2.21,0,0,0,1.025.266c2.644,0,4.787-5.283,4.787-9.313C417.5,291.251,416.73,289.833,415.537,289.087Z" transform="translate(-373.322 -251.044)"/><g transform="translate(38.697 37.344)"><path class="b" d="M415.892,297.353a.7.7,0,0,1-.7-.7v-5.3a.7.7,0,1,1,1.4,0v5.3A.7.7,0,0,1,415.892,297.353Z" transform="translate(-415.193 -290.655)"/></g><path class="e" d="M211.313,341.562l-4.708.932c-1.192.746-1.967,2.164-1.967,4.586,0,3.494,1.611,7.929,3.762,9.048a2.116,2.116,0,0,0,1.026.172c2.644,0,3.855-5.19,3.855-9.22C213.28,344.658,212.505,342.308,211.313,341.562Z" transform="translate(-185.566 -299.474)"/><path class="f" d="M248.846,342.494l-.931-.932-1.12.932c1.192.746,1.967,2.164,1.967,4.586,0,3.494-1.611,7.928-3.762,9.047a2.209,2.209,0,0,0,1.025.266c2.644,0,4.787-5.283,4.787-9.313C250.813,344.658,250.038,343.24,248.846,342.494Z" transform="translate(-222.167 -299.474)"/><g transform="translate(23.16 42.321)"><path class="b" d="M249.2,350.76a.7.7,0,0,1-.7-.7v-5.3a.7.7,0,1,1,1.4,0v5.3A.7.7,0,0,1,249.2,350.76Z" transform="translate(-248.501 -344.062)"/></g><g transform="translate(23.186 17.709)"><path class="g" d="M249.474,97.678a.7.7,0,0,1-.7-.7V80.691a.7.7,0,0,1,1.4,0V96.979A.7.7,0,0,1,249.474,97.678Z" transform="translate(-248.775 -79.992)"/></g><g transform="translate(7.624 14.995)"><path class="g" d="M82.508,68.286a.7.7,0,0,1-.7-.7V51.565a.7.7,0,1,1,1.4,0V67.587a.7.7,0,0,1-.7.7Z" transform="translate(-81.809 -50.866)"/></g><g transform="translate(38.697 14.995)"><path class="g" d="M415.892,68.286a.7.7,0,0,1-.7-.7V51.565a.7.7,0,0,1,1.4,0V67.587a.7.7,0,0,1-.7.7Z" transform="translate(-415.193 -50.866)"/></g><g transform="translate(-0.001 11.308)"><path class="h" d="M23.859,18.781a47.982,47.982,0,0,1-23.5-6.165A.7.7,0,1,1,1.042,11.4a46.582,46.582,0,0,0,22.818,5.985A46.583,46.583,0,0,0,46.677,11.4a.7.7,0,1,1,.686,1.218A47.983,47.983,0,0,1,23.859,18.781Z" transform="translate(0.001 -11.308)"/></g><path class="i" d="M62.815,208.842H59.968a.932.932,0,0,0-.932.932v2.531l.932.7-.932.7v3.463h4.711v-7.392A.932.932,0,0,0,62.815,208.842Z" transform="translate(-53.534 -179.124)"/><path class="j" d="M91.447,208.842H89.583a.932.932,0,0,1,.932.932v7.392h1.864V213.7l-.093-.7.093-.7v-2.531a.932.932,0,0,0-.932-.932Z" transform="translate(-81.234 -179.124)"/><path class="b" d="M59.036,247.4h3.779l.932-.7-.932-.7H59.036Z" transform="translate(-53.534 -212.817)"/><path class="k" d="M99.583,246h1.864v1.4H99.583Z" transform="translate(-90.302 -212.817)"/><path class="i" d="M396.2,208.842h-2.847a.932.932,0,0,0-.932.932v2.531l.932.7-.932.7v3.463h4.711v-7.392A.932.932,0,0,0,396.2,208.842Z" transform="translate(-355.846 -179.124)"/><path class="j" d="M424.83,208.842h-1.864a.932.932,0,0,1,.932.932v7.392h1.864V213.7l-.093-.7.093-.7v-2.531a.932.932,0,0,0-.932-.932Z" transform="translate(-383.545 -179.124)"/><path class="b" d="M392.419,247.4H396.2l.932-.7-.932-.7h-3.779Z" transform="translate(-355.845 -212.817)"/><path class="k" d="M432.966,246h1.864v1.4h-1.864Z" transform="translate(-392.613 -212.817)"/><path class="i" d="M229.507,262.249H226.66a.932.932,0,0,0-.932.932v2.531l.932.7-.932.7v3.463h4.711v-7.392A.932.932,0,0,0,229.507,262.249Z" transform="translate(-204.69 -227.553)"/><path class="j" d="M258.139,262.249h-1.864a.932.932,0,0,1,.932.932v7.392h1.864V267.11l-.093-.7.093-.7v-2.531A.932.932,0,0,0,258.139,262.249Z" transform="translate(-232.39 -227.553)"/><path class="b" d="M225.728,300.8h3.779l.932-.7-.932-.7h-3.779Z" transform="translate(-204.69 -261.247)"/><path class="k" d="M266.275,299.406h1.864v1.4h-1.864Z" transform="translate(-241.458 -261.247)"/></g></g></svg>