<svg xmlns="http://www.w3.org/2000/svg" xmlns:xlink="http://www.w3.org/1999/xlink" width="44.1" height="57.429" viewBox="0 0 44.1 57.429"><defs><style>.a,.e{fill:#b26088;}.a,.b,.c{clip-rule:evenodd;}.b,.d{fill:#f481b3;}.c,.o{fill:#ef95bd;}.ac,.ad,.ah,.d,.e,.g,.j,.k,.l,.m,.n,.o,.p,.r,.s,.t,.u,.v,.x,.y,.z{fill-rule:evenodd;}.f{clip-path:url(#a);}.g{fill:#8d496b;}.h{fill:#773d5a;}.i{clip-path:url(#b);}.j{fill:#ffafc2;}.k{fill:#ffb0cf;}.l{fill:#907bcf;}.m{fill:#ac4fb9;}.n{fill:#f287b6;}.p{fill:#907bce;}.q{clip-path:url(#c);}.r{fill:#eb7999;}.s{fill:#ca4f89;}.t{fill:#2d1d0e;}.u{fill:#4e3626;}.v{fill:#facce1;}.w{fill:#ffd3cb;}.x{fill:#ffcdba;}.aa,.y{fill:#53230c;}.z{fill:#c1683f;}.ab{clip-path:url(#d);}.ac{fill:#ffd2a0;}.ad{fill:#2b1604;}.ae{fill:#ba491f;}.af{clip-path:url(#e);}.ag{fill:#5f5aa8;}</style><clipPath id="a"><path class="a" d="M1108.5,1575.773a1.711,1.711,0,0,1,1.127.183c.756.454,2.312,2.988,2.016,3.8a6.4,6.4,0,0,1-3.272,3.091,1.864,1.864,0,0,1-1.671-.167,16.345,16.345,0,0,1-1.571-1.369,2.278,2.278,0,0,1-.4-2.266,9.283,9.283,0,0,1,2.476-2.742,4.107,4.107,0,0,1,1.292-.525Z" transform="translate(-1104.573 -1575.75)"/></clipPath><clipPath id="b"><path class="b" d="M1564.717,3138.945c.331.8,1.007,3.644.615,4.192-.853,1.19-4.779,2.229-6.326,1.942a2.234,2.234,0,0,1-1.615-2.957c.778-1.544,2.474-.876,3.28-1.605.362-.327.169-.768.347-1.143a2.482,2.482,0,0,1,2.331-1.031s1.188.167,1.368.6Z" transform="translate(-1557.219 -3138.342)"/></clipPath><clipPath id="c"><path class="c" d="M1562.207,935.068c.67-.609,2.3-.541,3.416-1.411.713-.554.827-2.043,1.4-2.722a8.105,8.105,0,0,1,5.525-2.278c3.1-.049,6.843,4.9,4.957,7.6-1.765,2.529-4.568,2.867-8.251,3.656-.99.212-1.858.629-2.831.8-2.787.5-4.456-.905-4.913-3.244a3.994,3.994,0,0,1,.7-2.408Z" transform="translate(-1561.489 -928.657)"/></clipPath><clipPath id="d"><path class="b" d="M2119.482,3234.13c.331.8,1.008,3.644.615,4.191-.853,1.19-4.779,2.228-6.326,1.941a2.233,2.233,0,0,1-1.615-2.956c.778-1.544,2.475-.876,3.281-1.606.362-.327.169-.768.346-1.143a2.482,2.482,0,0,1,2.332-1.031s1.188.168,1.368.6Z" transform="translate(-2111.984 -3233.527)"/></clipPath><clipPath id="e"><path class="a" d="M1732.381,2284.837a1.707,1.707,0,0,1,.594-.975c.706-.53,3.639-1.017,4.276-.437a6.4,6.4,0,0,1,1.63,4.2,1.863,1.863,0,0,1-.784,1.485,16.343,16.343,0,0,1-1.86.939,2.278,2.278,0,0,1-2.248-.488,9.284,9.284,0,0,1-1.606-3.326,4.085,4.085,0,0,1,0-1.394Z" transform="translate(-1732.321 -2283.163)"/></clipPath></defs><g transform="translate(-1213.877 -1841.714)"><g transform="translate(1213.877 1841.714)"><g transform="translate(0 0)"><g transform="translate(0 17.395)"><g transform="translate(1.496 1.076)"><path class="d" d="M1193.56,1636.106a2.648,2.648,0,0,1-.451,3.193,4.449,4.449,0,0,1-3.852,1.567c-3.286-.734-6-3.395-8.346-5.866a6.7,6.7,0,0,1-1.6-1.974c-.62-1.709.566-3.953,2.594-3.583,1.259.23,2.212,1.421,3.132,2.226a15.573,15.573,0,0,0,3.772,2.389c1.778.8,3.814-.226,4.748,2.048Z" transform="translate(-1179.149 -1629.403)"/></g><path class="e" d="M1108.5,1575.773a1.711,1.711,0,0,1,1.127.183c.756.454,2.312,2.988,2.016,3.8a6.4,6.4,0,0,1-3.272,3.091,1.864,1.864,0,0,1-1.671-.167,16.345,16.345,0,0,1-1.571-1.369,2.278,2.278,0,0,1-.4-2.266,9.283,9.283,0,0,1,2.476-2.742,4.107,4.107,0,0,1,1.292-.525Z" transform="translate(-1104.573 -1575.75)"/><g class="f"><g transform="translate(-1.506 -0.979)"><path class="g" d="M1034.839,1526.964a5.753,5.753,0,0,1,1.684,1.668c.485.892-.527,1.9-1.144,2.443-1.007.886-2.443,2.022-3.845,2.115a2.551,2.551,0,0,1-.846-.072c-1.7-.464-1.265-2.584-.542-3.666l4.692-2.488Z" transform="translate(-1029.508 -1526.964)"/></g></g><g transform="translate(0.502 0.688)"><path class="h" d="M1129.613,1613.584a.285.285,0,0,1,.067-.313,26.058,26.058,0,0,1,3.793-3.164.285.285,0,1,1,.31.477,25.59,25.59,0,0,0-3.71,3.1.284.284,0,0,1-.4-.009A.287.287,0,0,1,1129.613,1613.584Z" transform="translate(-1129.592 -1610.06)"/></g></g><g transform="translate(8.634 33.816)"><path class="d" d="M1545.67,2396.635c.069,1.565.5,4.935-.221,7.338-.315,1.042-2.106,6.8-2.33,7.139a2.354,2.354,0,0,1-3.694-.029c-.817-1.006-.79-2.569-1.392-3.706-2.917-5.51-5.881-10.193,2.391-12.626a6.547,6.547,0,0,1,3.849,0,2.355,2.355,0,0,1,1.4,1.885Z" transform="translate(-1535.03 -2394.463)"/></g><g transform="translate(9.079 48.736)"><path class="d" d="M1564.717,3138.945c.331.8,1.007,3.644.615,4.192-.853,1.19-4.779,2.229-6.326,1.942a2.234,2.234,0,0,1-1.615-2.957c.778-1.544,2.474-.876,3.28-1.605.362-.327.169-.768.347-1.143a2.482,2.482,0,0,1,2.331-1.031s1.188.167,1.368.6Z" transform="translate(-1557.219 -3138.342)"/><g class="i"><g transform="translate(-0.61 3.599)"><path class="e" d="M1526.955,3318.808a1.676,1.676,0,0,1,.952.234c.387.276.588.735,1.03.941a4.021,4.021,0,0,0,2.79-.259,12.962,12.962,0,0,0,2.135-.966c.45-.255.878-.565,1.344-.788.383-.183,1.01-.414,1.252.106.189.406-.185.792-.47,1.026a19.786,19.786,0,0,1-2.466,1.49,8.477,8.477,0,0,1-2.85.927,3.075,3.075,0,0,1-2.212-.1,2.855,2.855,0,0,1-.762-.884c-.283-.388-.606-.751-.909-1.123" transform="translate(-1526.79 -3317.759)"/></g><g transform="translate(-0.046 2.268)"><path class="j" d="M1556.751,3251.646a2.166,2.166,0,0,1,2.011.567c.456.6-.314,1.47-.889,1.614a3.915,3.915,0,0,1-2.509-.406.755.755,0,0,1-.122-1.317,2.355,2.355,0,0,1,.45-.323,4.515,4.515,0,0,1,.874-.367l.186.233Z" transform="translate(-1554.914 -3251.414)"/></g></g></g><g transform="translate(9.875 38.399)"><path class="k" d="M1596.92,2624.565c-.049-.7.558-1.7,1.366-1.562.642.11,1.051.872,1.319,1.36a12.529,12.529,0,0,1,1.3,6.314c-.009.327-.478.514-.74.5-.5-.017-.833-.495-1.038-.887-.169-.322-.295-.666-.465-.986a18.72,18.72,0,0,1-1.466-2.876,8.968,8.968,0,0,1-.276-1.867Z" transform="translate(-1596.918 -2622.989)"/></g><g transform="translate(29.456 31.988)"><path class="l" d="M2586.261,2303.349c-.041-.1.007.22.011.33.007.213,0,.426,0,.64,0,.021,0,.042,0,.063a6.308,6.308,0,0,1-.312,1.974,3.694,3.694,0,0,1-3.218,2.511c0-.015,0-.024-.011-.027a.177.177,0,0,0-.1.029,3.1,3.1,0,0,1-.92-.142c.014-.091.01-.171-.052-.212a.543.543,0,0,0-.23-.032,3.192,3.192,0,0,0-.321-.006,3.824,3.824,0,0,1-.408-.247c.082-.064.166-.126.248-.192.008-.006.11-.1.1-.106a2.155,2.155,0,0,0-1.1-.44c-.029,0-.058,0-.087,0-.127-.138-.249-.281-.368-.427.035-.042.069-.083.1-.119s.114-.142.1-.2-.132-.127-.171-.16a1.894,1.894,0,0,0-.636-.34l-.024-.007c-.068-.089-.137-.177-.206-.264a2.518,2.518,0,0,1,.6-.251c.029-.011.273-.076.279-.114,0-.018-.106-.106-.122-.122-.125-.124-.246-.251-.369-.377a2.328,2.328,0,0,0-1.96-.573,3.373,3.373,0,0,0-.687-.281,7.179,7.179,0,0,0-2.68.107l-.551,3.933a3.154,3.154,0,0,0,1.811-.028,2.265,2.265,0,0,0,1.664.654,1.283,1.283,0,0,0-.032-.212c-.045-.174-.105-.341-.167-.509-.015-.041-.085-.145-.078-.182,0,0,.3.063.327.071a2.428,2.428,0,0,1,.93.455,1.229,1.229,0,0,1,.247.292c.03.049.03.174.083.151.132-.057.126-.378.114-.487a1.113,1.113,0,0,1-.031-.174,1.2,1.2,0,0,1,.11.11q.195.2.38.411a2.518,2.518,0,0,0,1.149.963c.04.011-.027-.078-.041-.118a1.908,1.908,0,0,1-.06-.221.092.092,0,0,0,0-.013l.121.093a2.892,2.892,0,0,0,.359.482,2.443,2.443,0,0,0,.787.45c.129.052.26.09.393.129.018.005.116.049.13.039s-.044-.088-.048-.1c-.053-.106-.112-.21-.164-.317q.089.018.18.031t.175.021a1,1,0,0,0,.092.054,1.854,1.854,0,0,0,.89.176,2.877,2.877,0,0,0,.348-.039c.009,0,.1-.014.1-.017,0-.029-.066-.083-.085-.1-.047-.052-.1-.1-.148-.151q.162-.037.32-.089a2.747,2.747,0,0,0,.556-.006c.022,0,.2-.026.194-.053-.005-.069-.12-.138-.188-.172A5.563,5.563,0,0,0,2586.261,2303.349Z" transform="translate(-2573.154 -2303.329)"/></g><g transform="translate(40.996 30.347)"><path class="m" d="M3149.964,2222.574c.04-.121.064-.258.092-.371a1.129,1.129,0,0,1,.3-.565c.041-.039.123-.136.174-.141,0,0-.041.265-.047.293a3.029,3.029,0,0,0-.111.547,1.047,1.047,0,0,1,.131-.165c.007-.007.1-.1.1-.088s-.009.153-.012.185c-.006.059-.014.118-.022.178l0,0a2.133,2.133,0,0,1,.493-.279c.027-.007.144-.04.162,0,.027.06-.034.178-.056.221-.092.175-.226.307-.321.48a1.7,1.7,0,0,1,.363.034c.012,0,.15.009.151.024,0,.085-.1.219-.14.278l-.06.091c.193.094.444.248.471.431,0,.015-.131.061-.144.065-.137.044-.24.064-.224.28a2.194,2.194,0,0,0,.139.516.936.936,0,0,1,.046.162c-.128.109-.373-.146-.488-.193-.01,0-.052.113-.055.126a1.607,1.607,0,0,0-.047.465c0,.013-.01.2-.013.2-.117-.071-.1-.4-.23-.45-.248-.1-.372.358-.55.46a.578.578,0,0,1-.03-.114c-.019-.111.026-.263-.066-.31-.133-.068-.312.026-.434.1-.041.024-.121.109-.166.093s-.036-.121-.029-.169c.022-.152.125-.223.032-.377a.655.655,0,0,0-.348-.264c-.039-.014-.186-.021-.209-.06-.033-.056.119-.238.145-.263a.537.537,0,0,1,.072-.057c-.1-.04-.209-.083-.314-.122-.049-.019-.1-.044-.145-.064a.391.391,0,0,1-.046-.019c0-.027.043-.07.058-.087a1.484,1.484,0,0,1,.217-.209,3.438,3.438,0,0,1,.349-.281c-.02-.057-.037-.114-.053-.173a2.841,2.841,0,0,1-.066-.3,1.692,1.692,0,0,1-.061-.344c.005-.014.143.043.157.049a1.74,1.74,0,0,1,.353.189.93.93,0,0,1,.053-.469.462.462,0,0,1,.057.045,1.393,1.393,0,0,1,.153.181c.067.086.142.16.2.244Z" transform="translate(-3148.542 -2221.497)"/></g><g transform="translate(15.58 1.159)"><path class="n" d="M1881.372,771.459a10.491,10.491,0,0,1,.072-2.184c.087-.733-.056-2.568.76-2.957.3-.143.739.133.979.283a4.065,4.065,0,0,1,1.569,2.512c.093.269.393.735.291,1.031-.211.609-1.345.883-1.85,1.187l-1.822.129Z" transform="translate(-1881.342 -766.278)"/></g><g transform="translate(7.864 11.903)"><path class="o" d="M1514.556,1305.7c.108,3.008,1.929,5.736,3.241,8.355,2.111,4.214,3.789,10.9,1.617,15.351-2.044,4.189-4.112,4.785-8.435,5.311-7.641.93-13.535-1.942-14.322-8.752a22.592,22.592,0,0,1,1.188-6.651,20.774,20.774,0,0,1,2.476-4.6c.942-1.5,1.909-2.647,2.847-4.158.91-1.465.961-4.448,2.376-5.584,2.183-1.752,6.927-4.9,8.386-1.62l.626,2.344Z" transform="translate(-1496.635 -1301.925)"/></g><g transform="translate(13.429 0)"><path class="p" d="M1775.458,712.009c.586-.32,1.452-.848,2.162-.638.881.26,1.513,1.411,2.568,1.128,1.112-.3,1.361-1.631,2.035-2.393a5.324,5.324,0,0,1,3.566-1.521,4.987,4.987,0,0,1,1.317-.062,2.178,2.178,0,0,1,1.682,1.532,5.344,5.344,0,0,1,.229.706c.021.081.041.162.057.244.009.045.069.14.024.135-.064-.006-.3-.338-.37-.4a1.329,1.329,0,0,0-.887-.242,2.057,2.057,0,0,0-1.123.3,1.737,1.737,0,0,0-.327,2.305c.681.9,1.88,1.146,2.758,1.769a2.021,2.021,0,0,1,.86,1.547,3.009,3.009,0,0,1,.036.555c-.55.17-1.374-.414-1.855-.63a.741.741,0,0,0-.872.042c-.752.827.528,1.619,1.057,2.022a3.3,3.3,0,0,1,.407.34,5.85,5.85,0,0,1,1.024,1.706,5.666,5.666,0,0,1,.417,1.746,1.58,1.58,0,0,1,.047.578c-.124.329-.566.309-.783.528-.483.488-.346,1.083-.267,1.69.19,1.458.574,2.427,1.707,3.045a10.527,10.527,0,0,1,1.658.865,3.4,3.4,0,0,1,.8,1.219c.178.355.425.671.59,1.032.029.062.151.284.125.357-.012.033-.292.008-.319.007-.259-.007-.638-.112-.836.112-.179.2.382,1.323.439,2.634.076,1.742-.318,3.684-.439,2.934-.081-.505-1.516-1.543-2.017-2.294-.631-.944-1.531-2.385-2.14-3.386a36.6,36.6,0,0,1-1.47-3.479c-.656-1.515-1.747-2.7-1.882-4.381-.114-1.42.5-2.837.326-4.248a3.4,3.4,0,0,0-.545-1.464,9.01,9.01,0,0,0-1.085-1.3c-.8-.868-2.025-2.7-3.336-2.642a2.41,2.41,0,0,0-1.383.767c-.383.313-.812.58-1.163.93a8.972,8.972,0,0,1-.724.817,1.478,1.478,0,0,1-.81.311c-.041,0-.29-.006-.3-.058-.021-.158.539-.485.654-.565.611-.43,1.2-.9.821-1.723a2.919,2.919,0,0,0-2.717-1.12,3.022,3.022,0,0,0-.823.249,1.359,1.359,0,0,1-.224.114c-.084-.052.067-.434.094-.5a4.762,4.762,0,0,1,.977-1.177l.256-.049Z" transform="translate(-1774.106 -708.496)"/></g><g transform="translate(9.164 4.416)"><path class="o" d="M1562.207,935.068c.67-.609,2.3-.541,3.416-1.411.713-.554.827-2.043,1.4-2.722a8.105,8.105,0,0,1,5.525-2.278c3.1-.049,6.843,4.9,4.957,7.6-1.765,2.529-4.568,2.867-8.251,3.656-.99.212-1.858.629-2.831.8-2.787.5-4.456-.905-4.913-3.244a3.994,3.994,0,0,1,.7-2.408Z" transform="translate(-1561.489 -928.657)"/><g class="q"><g transform="translate(4.309 2.705)"><path class="r" d="M1788.423,1063.514a15.346,15.346,0,0,1-2.5,4.6,11.4,11.4,0,0,1-3.524,2.169c-1.067.51-2.064,1.158-3.148,1.637-.953.421-1.959.6-2.923.959-.043.016.089.023.134.032s.107.02.161.029c.155.025.312.047.469.062a12.613,12.613,0,0,0,1.723.071,34.1,34.1,0,0,0,4.713-.507,9.634,9.634,0,0,0,3.146-.929,7.661,7.661,0,0,0,2.624-3.256c.366-.969.533-2.018.919-2.978a10.825,10.825,0,0,1,.689-1.171" transform="translate(-1776.319 -1063.514)"/></g></g></g><g transform="translate(20.184 2.319)"><path class="n" d="M2110.913,827.388a10.438,10.438,0,0,1,1.526-1.564c.558-.483,1.69-1.935,2.555-1.672.318.1.456.6.532.869a4.06,4.06,0,0,1-.534,2.913c-.112.261-.205.808-.48.958-.566.308-1.588-.255-2.167-.37l-1.433-1.133Z" transform="translate(-2110.913 -824.12)"/></g><g transform="translate(21.385 3.105)"><path class="s" d="M2170.786,866.749l.129-.183c.181-.26.348-.527.526-.789.138-.2.27-.408.4-.615.084-.135.163-.272.244-.408a4.138,4.138,0,0,1,.924-1.219c.1-.078.31-.239.459-.215s.175.217.18.318a7.368,7.368,0,0,1,0,1.523c-.346.934-.542,1.46-.834,2.231a8.6,8.6,0,0,1-1.795-.461l-.232-.183Z" transform="translate(-2170.786 -863.318)"/></g><g transform="translate(17.452 8.506)"><path class="t" d="M1975.292,1132.586a.837.837,0,1,1-.613.807.731.731,0,0,1,.613-.807Z" transform="translate(-1974.679 -1132.586)"/></g><g transform="translate(14.354 7.181)"><path class="t" d="M1820.818,1066.527a.837.837,0,1,1-.613.807.731.731,0,0,1,.613-.807Z" transform="translate(-1820.205 -1066.527)"/></g><g transform="translate(9.164 10.087)"><path class="u" d="M1563.472,1211.63c2.141-.571,3.708.063,4.432,1.8a7.663,7.663,0,0,1,0,3.643c-.177.525-1.363.724-1.485.746-2.787.5-4.456-.905-4.913-3.244a3.993,3.993,0,0,1,.7-2.408,3.117,3.117,0,0,1,1.266-.535Z" transform="translate(-1561.489 -1211.426)"/></g><g transform="translate(8.664 25.459)"><path class="v" d="M1538.151,1980.549c.368-1.213,2.061-3.2,5.354-2.638a5.975,5.975,0,0,1,1.607.55,3.913,3.913,0,0,1,1.712,1.224,7.02,7.02,0,0,1,.9,2.576c.569,2.628,1.322,7.238-.1,9.583-1.759,2.895-5.67,3-7.341,2.372a7.2,7.2,0,0,1-3.255-3.086c-1.036-1.813-.17-4.667,0-6.192a23.672,23.672,0,0,1,1.126-4.389Z" transform="translate(-1536.525 -1977.813)"/></g><g transform="translate(13.341 15.391)"><path class="t" d="M1777.86,1485.573c.085-1.628-.062-2.528,2.51-2.99.665-.119,2.529-.16,3.024.375a8.178,8.178,0,0,1,1.175,2.615,11.741,11.741,0,0,1,.4,6.191c-.625,2.771-6.4,2.255-8.106.273-.9-1.051-.539-1.988,0-3.061a9.694,9.694,0,0,0,1-3.4Z" transform="translate(-1776.183 -1482.375)"/><path class="w" d="M1775.009,1487.308a8.327,8.327,0,0,1-1.918-.229,5.357,5.357,0,0,1-2.77-1.464c-.952-1.106-.571-2.106-.018-3.207a9.558,9.558,0,0,0,.982-3.351c.006-.11.01-.218.015-.322a3.143,3.143,0,0,1,.4-1.779,3.306,3.306,0,0,1,2.207-1.013c.674-.121,2.6-.175,3.144.415a8.5,8.5,0,0,1,1.205,2.668,15.535,15.535,0,0,1,.622,3.106,10.267,10.267,0,0,1-.219,3.152,2.133,2.133,0,0,1-.757,1.2,3.492,3.492,0,0,1-1.377.648A6.306,6.306,0,0,1,1775.009,1487.308Zm-.054-11.176a6.074,6.074,0,0,0-1,.074c-2.292.411-2.324,1.124-2.386,2.542,0,.1-.009.212-.015.324h0a9.926,9.926,0,0,1-1.01,3.456c-.528,1.05-.864,1.931-.018,2.915a5.1,5.1,0,0,0,2.631,1.379,7.243,7.243,0,0,0,3.306.058,2.394,2.394,0,0,0,1.939-1.652,11.49,11.49,0,0,0-.4-6.125,7.874,7.874,0,0,0-1.146-2.563A3.181,3.181,0,0,0,1774.955,1476.132Zm-3.538,2.933h0Z" transform="translate(-1769.739 -1475.867)"/></g><g transform="translate(14.841 18.197)"><g transform="translate(1.044 0.85)"><path class="x" d="M1897.541,1658.4c.49-.078,1.51-.627,2.245.181a2.73,2.73,0,0,1,.5.949,8.066,8.066,0,0,1,.32,1.354,1.676,1.676,0,0,1-.146,1.138,3.587,3.587,0,0,1-1.973,1.848,1.53,1.53,0,0,1-1.555-.917c-.709-1.162-.06-2.658,0-3.423.022-.278.354-1.09.611-1.131Z" transform="translate(-1896.601 -1658.145)"/></g><g transform="translate(3.224 3.485)"><path class="y" d="M2005.411,1789.477c.088,0,.16.1.16.233s-.072.232-.16.232-.16-.1-.16-.232.072-.233.16-.233Z" transform="translate(-2005.251 -1789.477)"/></g><g transform="translate(1.658 3.485)"><path class="y" d="M1927.335,1789.477c.088,0,.16.1.16.233s-.072.232-.16.232-.16-.1-.16-.232.072-.233.16-.233Z" transform="translate(-1927.175 -1789.477)"/></g><g transform="translate(3.067 3.037)"><path class="z" d="M1997.939,1767.164c.28,0,.507.051.507.115s-.227.115-.507.115-.507-.052-.507-.115.227-.115.507-.115Z" transform="translate(-1997.432 -1767.164)"/></g><g transform="translate(1.344 3.077)"><path class="z" d="M1912.034,1769.177c.28,0,.507.051.507.115s-.227.115-.507.115-.507-.052-.507-.115.227-.115.507-.115Z" transform="translate(-1911.527 -1769.177)"/></g><g transform="translate(2.282 3.779)"><path class="z" d="M1958.55,1804.145a5.366,5.366,0,0,1-.114.576,2.136,2.136,0,0,0-.135.367c0,.041.072.09.1.106a.273.273,0,0,0,.352-.044c.123-.2-.026-.5-.06-.669a1.687,1.687,0,0,0-.144-.336Z" transform="translate(-1958.302 -1804.145)"/></g><g transform="translate(1.937 5.044)"><path class="aa" d="M1941.807,1867.622a.783.783,0,0,1-.188-.023,1.126,1.126,0,0,1-.332-.163l-.011-.007-.051-.031c-.027-.016-.056-.033-.083-.052a.04.04,0,1,1,.046-.065c.025.017.05.033.078.049l.052.032.012.007a1.06,1.06,0,0,0,.307.153.672.672,0,0,0,.74-.3.04.04,0,0,1,.055-.012.04.04,0,0,1,.013.055A.748.748,0,0,1,1941.807,1867.622Z" transform="translate(-1941.125 -1867.204)"/></g><path class="z" d="M1847.58,1618.087a5.14,5.14,0,0,1-.6-.024,10.018,10.018,0,0,1-.988-.194,4.623,4.623,0,0,0-.246,1.183c-.019.6.016.69-.019,1.293-.014.236.077,1.137.019,1.368-.046.183-.164.474-.339.406s-.521-.128-.548-.309a7.044,7.044,0,0,1-.049-1.056,1.065,1.065,0,0,1-.271.458c-.013.01,0-.032,0-.048s0-.057,0-.086c0-.082,0-.165,0-.247a4.142,4.142,0,0,1,.087-.758c.076-.378.157-.787.278-1.18a.329.329,0,0,1-.2.089c-.019,0-.008-.212-.007-.224a2.679,2.679,0,0,1,.191-.74,2.98,2.98,0,0,1,.528-.844,3.265,3.265,0,0,1,.128-.307,1.84,1.84,0,0,1-.253.321c-.017.015.015-.043.023-.064.018-.046.037-.092.057-.137a2.214,2.214,0,0,1,.218-.4,1.33,1.33,0,0,1,.412-.369,1.632,1.632,0,0,1,.827-.41,4.526,4.526,0,0,1,1.542,0,1.729,1.729,0,0,1,.661.243c.067.024.134.05.2.078a2.024,2.024,0,0,1,.45.239c.009.007.11.094.1.109s-.066.019-.079.021a1.612,1.612,0,0,1-.2.019,4.337,4.337,0,0,1,.307.6c.045.068.088.137.13.207a3.848,3.848,0,0,1,.531.68,1.3,1.3,0,0,1,.17.424c.011.052.061.15-.019.153a.217.217,0,0,1-.115-.031c.051.218.079.438.125.657.018.085.034.171.05.256.005.028.011.056.016.085,0,.013.014.048.005.039a2.623,2.623,0,0,1-.309-.4l.016.084c.031.164.068.328.105.494a6.7,6.7,0,0,1,.295.83c.038.133.08.265.118.4.013.047.024.094.035.141.005.024.035.082.012.073a.7.7,0,0,1-.236-.3c0,.024.005.049.008.073.009.09.04.456-.067.5a2.516,2.516,0,0,1-.3.1c-.026-.167-.038-.335-.062-.5a1.154,1.154,0,0,0-.071-.368c-.008-.014,0,.031,0,.047,0,.032,0,.063.007.095a2.432,2.432,0,0,1,.006.3c-.006.158-.015.315-.027.472a3.889,3.889,0,0,1-.562.092c-.075.006-.285.033-.336-.044-.022-.032.006-.161.006-.2a2.806,2.806,0,0,0-.061-.507c-.125-.685-.24-1.384-.4-2.062-.059-.259-.038-.637-.228-.835-.106-.11-.454-.011-.6,0-.105.008-.2.013-.284.018a1.257,1.257,0,0,0-.034-.212.841.841,0,0,0-.045-.124c-.009-.021-.026-.083-.031-.061-.027.133-.058.268-.079.4Z" transform="translate(-1844.529 -1615.745)"/></g><g transform="translate(19.761 35.725)"><path class="d" d="M2100.437,2491.821c.068,1.565.5,4.935-.221,7.337-.315,1.042-2.106,6.8-2.33,7.139a2.354,2.354,0,0,1-3.693-.029c-.817-1.006-.79-2.569-1.392-3.707-2.917-5.51-5.881-10.193,2.391-12.626a6.548,6.548,0,0,1,3.85,0,2.356,2.356,0,0,1,1.4,1.885Z" transform="translate(-2089.797 -2489.648)"/></g><g transform="translate(20.206 50.645)"><path class="d" d="M2119.482,3234.13c.331.8,1.008,3.644.615,4.191-.853,1.19-4.779,2.228-6.326,1.941a2.233,2.233,0,0,1-1.615-2.956c.778-1.544,2.475-.876,3.281-1.606.362-.327.169-.768.346-1.143a2.482,2.482,0,0,1,2.332-1.031s1.188.168,1.368.6Z" transform="translate(-2111.984 -3233.527)"/><g class="ab"><g transform="translate(-0.61 3.599)"><path class="e" d="M2081.726,3413.994a1.674,1.674,0,0,1,.952.234c.387.277.588.735,1.03.941a4.018,4.018,0,0,0,2.79-.258,12.959,12.959,0,0,0,2.135-.966c.45-.255.877-.565,1.343-.788.384-.184,1.01-.414,1.252.106.188.406-.185.792-.47,1.026a19.744,19.744,0,0,1-2.466,1.489,8.459,8.459,0,0,1-2.85.927,3.075,3.075,0,0,1-2.212-.1,2.85,2.85,0,0,1-.761-.885c-.283-.387-.606-.751-.909-1.123" transform="translate(-2081.561 -3412.945)"/></g><g transform="translate(-0.046 2.268)"><path class="j" d="M2111.515,3346.832a2.164,2.164,0,0,1,2.011.566c.456.6-.313,1.47-.889,1.614a3.914,3.914,0,0,1-2.509-.406.755.755,0,0,1-.123-1.317,2.335,2.335,0,0,1,.45-.323,4.507,4.507,0,0,1,.874-.366l.186.233Z" transform="translate(-2109.677 -3346.599)"/></g></g></g><g transform="translate(21.002 40.309)"><path class="k" d="M2151.691,2719.751c-.049-.7.558-1.7,1.366-1.563.642.11,1.052.872,1.32,1.36a12.534,12.534,0,0,1,1.3,6.314c-.009.327-.479.513-.74.505-.5-.017-.833-.5-1.038-.887-.169-.322-.3-.665-.465-.987a18.693,18.693,0,0,1-1.466-2.875,8.941,8.941,0,0,1-.276-1.867Z" transform="translate(-2151.689 -2718.175)"/></g><g transform="translate(17.231 3.704)"><path class="p" d="M1968.205,893.162a7.029,7.029,0,0,0-.534.5c-.4.408-1.185,1.052-1.085,1.715a11.8,11.8,0,0,0,.6,1.447,2.045,2.045,0,0,1-.119,1.132,1.8,1.8,0,0,0-.066.431c0,.019,0,.21,0,.211-.069.02-.378-.326-.43-.376a2.86,2.86,0,0,1-.553-.6,4.64,4.64,0,0,0-.507-.953c-.447-.465-1.235-.463-1.593-1.038-.472-.76-.2-1.351.623-1.709a4.738,4.738,0,0,1,2.416-.172l1.246-.586Z" transform="translate(-1963.688 -893.162)"/></g><g transform="translate(23.357 6.475)"><path class="p" d="M2270.559,1031.419c-.1-.033-.2-.065-.3-.1l.362.031-.062.068a2.62,2.62,0,0,1,.947.47c.612.541.653,1.688.883,2.4a7.145,7.145,0,0,1,.551,2.35,2.41,2.41,0,0,1-.911,1.731c-.1.075-.464.364-.6.3-.005,0,.1-.23.11-.251a2.241,2.241,0,0,0,.189-.542,3.975,3.975,0,0,0-.13-1.5c-.028-.126-.078-.422-.188-.5a2.611,2.611,0,0,0-.155.327,2.863,2.863,0,0,0-.022,1.048,1.463,1.463,0,0,1-.892,1.6c-.128.061-.425.218-.562.174-.068-.022.073-.122.108-.183a2.844,2.844,0,0,0,.188-.38,2.585,2.585,0,0,0,.167-1.265c-.236-1.424-1.579-2.112-.98-3.729a6.043,6.043,0,0,1,.555-1.044,6.726,6.726,0,0,1,.741-1Z" transform="translate(-2269.111 -1031.321)"/></g><g transform="translate(9.165 0)"><path class="ac" d="M1568.762,715.813c-.962-.139-2.159-1.575-3.163-2.466-.592-.526-1.1-1.156-1.65-1.732-.571-.6-1.172-1.168-1.714-1.8-.079-.092-.851-1.178-.732-1.269.361-.275,2.287.639,2.908.916a21.843,21.843,0,0,1,2.393,1.261c1.335.812,2.8,1.376,3.886,2.611.217.246.161.681-.035,1.136-.212.492-.932,1.483-1.894,1.344Z" transform="translate(-1561.491 -708.494)"/></g><g transform="translate(24.588 15.963)"><path class="p" d="M2331.981,1504.368c-.836.926-2.009,2.594-1.344,3.909.431.852,1.344,1.383,1.5,2.384.135.878-.4,1.632-.394,2.492a3.428,3.428,0,0,0,.769,1.771s.027-.1.028-.1c.02-.08.037-.162.052-.244a7.142,7.142,0,0,1,.164-.783c.193-.64.84-.967.7-1.712-.117-.628-.609-1.212-.568-1.867.036-.563.57-1,.795-1.493a7.064,7.064,0,0,0,.394-1.835l-2.1-2.522Z" transform="translate(-2330.44 -1504.368)"/></g><g transform="translate(26.527 19.31)"><path class="p" d="M2427.65,1671.24c.49.532.86,1.161,1.3,1.732.74.958,1.57,1.891,1.353,3.21-.118.718-.688,1.26-.833,1.955a2.364,2.364,0,0,0,.29,1.428c.064.153.285.428.039.45-.753.066-1.259-.991-1.406-1.592a1.922,1.922,0,0,1,.016-1.023c.061-.222.229-.509.167-.746-.081-.31-.349-.545-.443-.858-.124-.416-.683-.851-.879-1.248-.217-.44.053-.67-.068-1.193a5.28,5.28,0,0,1,.068-1.865l.4-.25Z" transform="translate(-2427.125 -1671.24)"/></g><g transform="translate(12.784 12.018)"><path class="ad" d="M1742.4,1307.7c.251,0,.456.295.456.658s-.2.658-.456.658-.456-.295-.456-.658.2-.658.456-.658Z" transform="translate(-1741.947 -1307.703)"/></g><g transform="translate(9.578 11.361)"><path class="ad" d="M1582.384,1274.914c.166,0,.3.294.3.658s-.135.658-.3.658-.3-.295-.3-.658.135-.658.3-.658Z" transform="translate(-1582.083 -1274.914)"/></g><g transform="translate(10.142 25.655)"><path class="ae" d="M1613.971,2005.81a.117.117,0,0,1-.056-.014,6.6,6.6,0,0,1-2.511-2.448,8.574,8.574,0,0,1-1.07-3.3,13.408,13.408,0,0,1,.079-3.661,17.141,17.141,0,0,1,.941-3.537,20.173,20.173,0,0,1,3.218-5.246.115.115,0,0,1,.169.157,19.872,19.872,0,0,0-3.172,5.172,15.223,15.223,0,0,0-1.006,7.086,7.042,7.042,0,0,0,3.464,5.58.115.115,0,0,1-.056.216Z" transform="translate(-1610.244 -1987.562)"/></g><g transform="translate(13.428 25.079)"><path class="d" d="M1785,1958.88a2.647,2.647,0,0,1,2.788,1.621,4.451,4.451,0,0,1,0,4.158c-1.918,2.768-5.4,4.274-8.579,5.521a6.7,6.7,0,0,1-2.43.735c-1.817-.069-3.448-2.013-2.341-3.752.687-1.079,2.15-1.514,3.242-2.063a15.579,15.579,0,0,0,3.634-2.594c1.413-1.345,1.228-3.618,3.686-3.627Z" transform="translate(-1774.078 -1958.88)"/></g><g transform="translate(12.591 31.584)"><path class="e" d="M1732.381,2284.837a1.707,1.707,0,0,1,.594-.975c.706-.53,3.639-1.017,4.276-.437a6.4,6.4,0,0,1,1.63,4.2,1.863,1.863,0,0,1-.784,1.485,16.343,16.343,0,0,1-1.86.939,2.278,2.278,0,0,1-2.248-.488,9.284,9.284,0,0,1-1.606-3.326,4.085,4.085,0,0,1,0-1.394Z" transform="translate(-1732.321 -2283.163)"/><g class="af"><g transform="translate(-0.904 0.449)"><path class="g" d="M1687.225,2306.477a5.752,5.752,0,0,1,2.18-.932c1.009-.113,1.562,1.2,1.832,1.98.441,1.266.953,3.025.51,4.358a2.541,2.541,0,0,1-.385.756c-1.071,1.4-2.87.2-3.6-.879l-.537-5.284Z" transform="translate(-1687.225 -2305.538)"/></g></g></g><g transform="translate(13.478 32.761)"><path class="h" d="M1778.306,2347.109a.284.284,0,0,1-.265-.18,26.052,26.052,0,0,1-1.5-4.706.285.285,0,0,1,.559-.108,25.574,25.574,0,0,0,1.472,4.6.285.285,0,0,1-.264.389Z" transform="translate(-1776.534 -2341.885)"/></g><g transform="translate(24.996 7.322)"><path class="ag" d="M2352.694,1089.166l-.128-.034a2.491,2.491,0,0,0-.195-1.58c-.09-.221-.2-.44-.3-.653a6.425,6.425,0,0,1-.475-4.861,10.47,10.47,0,0,0,.083-3.365,10.182,10.182,0,0,0-.4-1.355,12.193,12.193,0,0,1-.363-1.171,3.025,3.025,0,0,1,.388-2.578l.1.084a2.9,2.9,0,0,0-.361,2.463,12.023,12.023,0,0,0,.359,1.157,10.318,10.318,0,0,1,.407,1.373,10.562,10.562,0,0,1-.082,3.409,8.474,8.474,0,0,0,.087,3.931,8.613,8.613,0,0,0,.375.855c.1.214.211.435.3.66A2.613,2.613,0,0,1,2352.694,1089.166Z" transform="translate(-2350.795 -1073.569)"/></g><g transform="translate(26.427 10.156)"><path class="ag" d="M2427.772,1231.467a26.809,26.809,0,0,0-2.322-4.989c-.184-.286-.383-.569-.575-.844-.282-.4-.573-.817-.826-1.249a5.007,5.007,0,0,1-.783-2.4,6.974,6.974,0,0,1,.393-2.122,6.569,6.569,0,0,0,.384-2.163,3.289,3.289,0,0,0-1.881-2.758l.055-.121a3.424,3.424,0,0,1,1.958,2.872,6.663,6.663,0,0,1-.388,2.208,6.86,6.86,0,0,0-.388,2.082,4.879,4.879,0,0,0,.765,2.333c.25.427.54.84.82,1.24.193.275.393.56.578.848a26.923,26.923,0,0,1,2.334,5.013Z" transform="translate(-2422.162 -1214.825)"/></g><g transform="translate(21.145 1.262)"><path class="ag" d="M2158.927,773.638l-.11-.074a4.843,4.843,0,0,1,5.858-1.767l-.051.122a4.7,4.7,0,0,0-5.7,1.718Z" transform="translate(-2158.817 -771.431)"/></g><g transform="translate(26.886 19.272)"><path class="ag" d="M2446.571,1676.288l-.11-.074a3.141,3.141,0,0,0,.4-2.595,6.346,6.346,0,0,0-.854-1.64c-.086-.133-.175-.27-.26-.406a3.691,3.691,0,0,1-.707-2.247l.132.014a3.575,3.575,0,0,0,.688,2.164c.084.135.173.272.259.4a6.45,6.45,0,0,1,.87,1.675A3.274,3.274,0,0,1,2446.571,1676.288Z" transform="translate(-2445.031 -1669.326)"/></g></g><g transform="translate(32.023 37.824)"><g transform="translate(0 0)"><path class="ah" d="M2701.139,2594.358c.006-.013,0-.027.013-.039a.026.026,0,0,0-.005-.037s0-.008.006-.006a.092.092,0,0,1,.036.049c.008.026-.015.045-.039.048A.011.011,0,0,1,2701.139,2594.358Z" transform="translate(-2701.138 -2594.276)"/></g></g></g></g></svg>