<svg xmlns="http://www.w3.org/2000/svg" width="141.85" height="138.287" viewBox="0 0 141.85 138.287"><defs><style>.a{fill:#fff;}.b{fill:#8cb4f4;}.c{fill:#c0d8fb;}.d{fill:#dfebfd;}.e{fill:#b7d3f3;}.f{fill:#233862;}.g{fill:#ffb27d;}.h{fill:#0f2549;}.i{fill:#2b478b;}.j{fill:#ed975d;}.k{fill:#ebf3ff;}.l{fill:#e275b0;}.m{fill:#182d4f;}.n{fill:#602853;}.o{fill:#ed7d2b;}.p{fill:#1b3051;}.q{fill:#893976;}.r{fill:#fdb945;}.s{fill:#73a2e5;}</style></defs><g transform="translate(-1177 -4830.106)"><path class="a" d="M614.52,509.016c-1.51-18.612-2.264-27.918-5.778-33.939-10.06-17.24-39.306-21.34-57.778-19.768-24.729,2.1-53.02,16.32-65.472,43.768-11.311,24.93-6.1,53.149,10.947,71.609,31.241,33.839,95.686,27.8,111.428,5.593,6.283-8.862,6.735-23.016,7.4-43.808A198.137,198.137,0,0,0,614.52,509.016Z" transform="matrix(-0.017, 1, -1, -0.017, 1782.148, 4361.073)"/><g transform="translate(249.892 4456.714)"><g transform="translate(932.109 435.666)"><g transform="translate(27.04 35.335)"><path class="b" d="M1294.8,1440.368h.052a.706.706,0,0,0,.713-.755l-2.835-28.317-2.474.221,4.071,28.47A.461.461,0,0,0,1294.8,1440.368Z" transform="translate(-1290.26 -1411.295)"/></g><g transform="translate(3.513 35.335)"><path class="b" d="M979.414,1440.368h-.052a.706.706,0,0,1-.713-.755l2.835-28.317,2.474.221-4.072,28.47A.461.461,0,0,1,979.414,1440.368Z" transform="translate(-978.645 -1411.295)"/></g><g transform="translate(47.044 35.335)"><path class="b" d="M1559.755,1440.368h.052a.706.706,0,0,0,.713-.755l-2.835-28.317-2.474.221,4.071,28.47A.461.461,0,0,0,1559.755,1440.368Z" transform="translate(-1555.211 -1411.295)"/></g><path class="b" d="M937.235,974.492,932.2,949.637a5.508,5.508,0,0,1,5.763-6.359l9.707.222a7.668,7.668,0,0,1,7.191,5.535l7.364,25.458Z" transform="translate(-932.109 -943.276)"/><path class="b" d="M977.566,974.492l-5.033-24.855a5.508,5.508,0,0,1,5.763-6.359L988,943.5a7.668,7.668,0,0,1,7.191,5.535l7.364,25.458Z" transform="translate(-969.394 -943.276)"/><path class="b" d="M2.267,0H38.942a2.267,2.267,0,0,1,2.267,2.267V4.533a0,0,0,0,1,0,0H2.267A2.267,2.267,0,0,1,0,2.267v0A2.267,2.267,0,0,1,2.267,0Z" transform="translate(46.336 35.749) rotate(180)"/><rect class="b" width="26.741" height="4.533" rx="2.267" transform="translate(50.162 35.749) rotate(180)"/></g><g transform="translate(987.507 394.212)"><path class="c" d="M7.882,0h.485a7.882,7.882,0,0,1,7.882,7.882v0a7.882,7.882,0,0,1-7.882,7.882H7.882A7.882,7.882,0,0,1,0,7.882v0A7.882,7.882,0,0,1,7.882,0Z" transform="translate(0)"/><path class="d" d="M7.2,0h.443a7.2,7.2,0,0,1,7.2,7.2v0a7.2,7.2,0,0,1-7.2,7.2H7.2A7.2,7.2,0,0,1,0,7.2v0A7.2,7.2,0,0,1,7.2,0Z" transform="translate(0.704 0.683)"/><g transform="translate(1.918 1.785)"><g transform="translate(5.87)"><circle class="e" cx="0.337" cy="0.337" r="0.337"/><path class="e" d="M1804.471,426.495a.337.337,0,1,1,.131.458A.337.337,0,0,1,1804.471,426.495Z" transform="translate(-1801.755 -425.683)"/><path class="e" d="M1833.923,452.442a.337.337,0,1,1-.1.465A.337.337,0,0,1,1833.923,452.442Z" transform="translate(-1828.88 -449.781)"/><path class="e" d="M1846.955,491a.337.337,0,1,1-.337.337A.337.337,0,0,1,1846.955,491Z" transform="translate(-1840.759 -485.477)"/><path class="e" d="M1836.246,533.773a.337.337,0,1,1-.476,0A.337.337,0,0,1,1836.246,533.773Z" transform="translate(-1830.639 -524.93)"/><path class="e" d="M1808.25,561.842a.337.337,0,1,1-.476,0A.337.337,0,0,1,1808.25,561.842Z" transform="translate(-1804.757 -550.88)"/><path class="e" d="M1769.017,573.395a.337.337,0,1,1,.337.337A.337.337,0,0,1,1769.017,573.395Z" transform="translate(-1769.017 -561.34)"/></g><g transform="translate(0 0.639)"><path class="e" d="M1734.092,426.495a.337.337,0,1,0-.131.458A.337.337,0,0,0,1734.092,426.495Z" transform="translate(-1730.276 -426.322)"/><path class="e" d="M1704.641,452.442a.337.337,0,1,0,.1.465A.337.337,0,0,0,1704.641,452.442Z" transform="translate(-1703.152 -450.42)"/><path class="e" d="M1691.61,491a.337.337,0,1,0,.336.337A.337.337,0,0,0,1691.61,491Z" transform="translate(-1691.273 -486.116)"/><path class="e" d="M1702.319,533.773a.337.337,0,1,0,.476,0A.336.336,0,0,0,1702.319,533.773Z" transform="translate(-1701.394 -525.569)"/><circle class="e" cx="0.337" cy="0.337" r="0.337" transform="translate(2.94 10.224)"/></g></g><g transform="translate(8.034 3.439)"><path class="e" d="M1772.273,491.336a.337.337,0,1,1,.336.337A.337.337,0,0,1,1772.273,491.336Z" transform="translate(-1772.273 -487.131)"/><g transform="translate(0.291)"><rect class="e" width="0.092" height="4.205"/></g><g transform="translate(0.209 2.341)"><rect class="e" width="2.834" height="0.276" transform="translate(0 1.75) rotate(-38.132)"/></g></g></g><g transform="translate(934.197 410.669)"><g transform="translate(0)"><path class="f" d="M1252.573,1280.589a13.49,13.49,0,0,1-4.691,5.012h-10.871S1254.158,1277.83,1252.573,1280.589Z" transform="translate(-1216.079 -1229.577)"/><path class="g" d="M1614.067,1664.518c-.118,1.141,1.469,1.435,3.309,1.547s1.28.482,3.8.966,3.536-.2,3.722-.535c.166-.3-1-.786-2.246-1.334-.157-.068-.313-.139-.47-.209-1.4-.634-2.176-1.9-3.26-3.085-1.027-1.119-1.976-4.677-1.976-4.677l-3.42-.769s.928,3.2,1.248,4.57a4.223,4.223,0,0,1-.377,2.377A4.485,4.485,0,0,0,1614.067,1664.518Z" transform="translate(-1564.165 -1577.582)"/><path class="h" d="M1623.958,1751.127c1.84.111,1.28.482,3.8.966s3.536-.2,3.723-.535c.166-.3-1-.786-2.246-1.334l-.02.021a7.186,7.186,0,0,1-3.822,0c-1.664-.471-3.267-1.486-4.413-1.82a4.488,4.488,0,0,0-.328,1.15C1620.532,1750.721,1622.119,1751.015,1623.958,1751.127Z" transform="translate(-1570.748 -1662.645)"/><path class="f" d="M1148.146,1113.588c-1.84-1.292-14.016-3.6-20.229-4.263l-6.867-5.961s-5.845,8.658-5.892,15.281c-.021,3.088,1.4,3.4,1.4,3.4s22.014.163,22.979.263c1.579.163,3.663,4.1,4.184,7.682s9.7,18.161,9.7,18.161a11.512,11.512,0,0,0,2.8.561,2.8,2.8,0,0,0,1.393-.375S1152.3,1116.5,1148.146,1113.588Z" transform="translate(-1103.426 -1066.281)"/><path class="g" d="M1538.646,1664.518c-.118,1.141,1.469,1.435,3.309,1.547s1.28.482,3.8.966,3.536-.2,3.723-.535c.166-.3-1-.786-2.246-1.334-.156-.068-.313-.139-.47-.209-1.4-.634-2.176-1.9-3.26-3.085-1.027-1.119-1.976-4.677-1.976-4.677l-3.42-.769s.928,3.2,1.248,4.57a4.223,4.223,0,0,1-.377,2.377A4.49,4.49,0,0,0,1538.646,1664.518Z" transform="translate(-1494.438 -1577.582)"/><path class="f" d="M1548.538,1751.127c1.84.111,1.28.482,3.8.966s3.536-.2,3.723-.535c.166-.3-1-.786-2.246-1.334l-.02.021a7.186,7.186,0,0,1-3.822,0c-1.664-.471-3.267-1.486-4.413-1.82a4.474,4.474,0,0,0-.328,1.15C1545.111,1750.721,1546.7,1751.015,1548.538,1751.127Z" transform="translate(-1501.021 -1662.645)"/><path class="i" d="M1072.058,1113.588c-1.6-1.123-6.408-1.993-11.717-2.639a3.571,3.571,0,0,1-3.031-2.68h0l-12.348-4.9s-5.845,8.658-5.892,15.281c-.022,3.088,1.4,3.4,1.4,3.4s22.015.163,22.98.263c1.579.163,3.663,4.1,4.184,7.682s9.7,18.161,9.7,18.161a11.511,11.511,0,0,0,2.8.561,2.8,2.8,0,0,0,1.393-.375S1076.208,1116.5,1072.058,1113.588Z" transform="translate(-1033.083 -1066.281)"/><path class="f" d="M982.219,613.3a13.965,13.965,0,0,0-4.7-1.068c-5.019-.674-8.04,6.619-8.218,8.829-.327,4.073-2.482,4.695-5.516,7.246-6.082,5.115-4.3,11.059-.973,13.268,2,1.325,5.512,0,5.512,0,.05.035,9.619-5.349,14.335-7.946C989.734,632.625,986.543,615.572,982.219,613.3Z" transform="translate(-959.767 -612.19)"/><path class="g" d="M1161.1,777.907a6.235,6.235,0,0,1-3.856.5c-1.529-.5-2.877-2.807-2.855-2.81.664-.1,1.339-.751,1.527-4.632l.294.074,4.943,1.249s-.2,1.566-.276,3.046C1160.811,776.577,1160.824,777.76,1161.1,777.907Z" transform="translate(-1139.697 -758.977)"/><path class="j" d="M1181.751,777.3s0,.322-.185,1.779c-2.8-.705-4.028-1.632-4.9-2.693Z" transform="translate(-1160.293 -763.989)"/><path class="g" d="M1162.561,658.657s-6.536,1.064-7.136-3.017-1.848-6.692,2.3-7.544,5.189.586,5.721,1.9S1164.246,658.275,1162.561,658.657Z" transform="translate(-1140.049 -645.149)"/><path class="f" d="M1140.849,640.03s-2.968,4.685-5.618,5.8-3.952.546-3.952.546a11.161,11.161,0,0,0,1.52-4.282,2.009,2.009,0,0,1,1.241-1.615C1135.941,639.713,1139.619,638.512,1140.849,640.03Z" transform="translate(-1118.33 -637.253)"/><path class="f" d="M1223.5,639.623a10.348,10.348,0,0,1,2.456,1.728,7.945,7.945,0,0,1,1.433,3.979s.858-4.711-.929-6.33C1224.561,637.282,1223.5,639.623,1223.5,639.623Z" transform="translate(-1203.585 -636.394)"/><path class="a" d="M1096.87,838.451c-.2,13.286-.054,10.51-1.508,11.77a5.582,5.582,0,0,1-2.63.57c-4.074.27-11.235-.4-11.508-1.154-.94-2.605-.276-3.414-1.06-7.4-.082-.424-.183-.883-.3-1.383-.654-2.739-1.29-3.671,1.029-8.072,2.1-3.986,4.576-7.225,4.773-7.108,5.549,3.294,5.739.533,5.739.533S1096.968,831.97,1096.87,838.451Z" transform="translate(-1070.236 -809.551)"/><path class="a" d="M1240.13,832.766s5.679.963,6.349,3.421,4.616,16.909,4.616,16.909-2.9.521-4.243-.819-4.666-12.44-4.666-12.44Z" transform="translate(-1218.963 -816.113)"/><path class="k" d="M1103.835,985.9c-4.074.27-11.235-.4-11.508-1.154-.94-2.605-.276-3.414-1.06-7.4l1.965-5.533s-.325,6.161,1.492,7.782,7.44,3.128,8.323,4.482A4.956,4.956,0,0,1,1103.835,985.9Z" transform="translate(-1081.339 -944.655)"/><path class="g" d="M1195.909,1116.48s4.019-.9,4.668-.538a9.442,9.442,0,0,1,2.432,2.108c.2.452-1.444-.343-1.978-.486a4.757,4.757,0,0,0-1.707.374,5.674,5.674,0,0,1-3.059.307Z" transform="translate(-1178.081 -1077.831)"/><path class="a" d="M1001.12,825.709s-5.688.332-7.557,2.938c-2.63,3.668-7.847,19.3-4.857,21.385,3.367,2.348,15.324.614,15.324.614a4.856,4.856,0,0,0-.156-2.76c-.554-.9-9.551-2.353-9.966-2.768s5.191-8.1,5.191-9.343S1001.12,825.709,1001.12,825.709Z" transform="translate(-985.692 -809.588)"/><path class="g" d="M1260.31,1131.787a7.77,7.77,0,0,0,1.118,1.216.823.823,0,0,0,.454.1l-.567-1.021Z" transform="translate(-1237.619 -1092.558)"/><path class="g" d="M1257.733,1116.97l2.448,1.189a.437.437,0,0,1-.406.157,5.839,5.839,0,0,1-1.062-.292Z" transform="translate(-1235.237 -1078.859)"/></g></g><g transform="translate(954.341 439.213)"><path class="l" d="M1237.951,1143.2H1226.58a.906.906,0,0,1,.906-.906h10.465Z" transform="translate(-1226.58 -1130.819)"/><path class="l" d="M1323.73,990.267h17.581l-4.217,12.385h-17.7Z" transform="translate(-1312.392 -990.267)"/><path class="l" d="M1344.74,990.264l-4.217,12.385h-17.7l4.331-12.385Z" transform="translate(-1315.561 -990.264)"/><path class="l" d="M1466.251,1060.277a1.143,1.143,0,0,1-1.055.857.66.66,0,0,1-.659-.857,1.143,1.143,0,0,1,1.055-.857A.66.66,0,0,1,1466.251,1060.277Z" transform="translate(-1446.551 -1054.199)"/></g><g transform="translate(947.168 451.598)"><rect class="m" width="78.22" height="2.786" rx="1.393" transform="translate(2.656)"/><g transform="translate(73.454 1.418)"><path class="m" d="M2113.192,1220.346l.033,0a.707.707,0,0,0,.624-.787l-6.866-46.475-2.513.072,8.078,46.726A.578.578,0,0,0,2113.192,1220.346Z" transform="translate(-2104.47 -1173.08)"/></g><g transform="translate(0 1.418)"><path class="m" d="M1132.227,1220.346l-.033,0a.707.707,0,0,1-.624-.787l6.866-46.475,2.514.072-8.078,46.726A.578.578,0,0,1,1132.227,1220.346Z" transform="translate(-1131.564 -1173.08)"/></g><g transform="translate(15.895 1.418)"><path class="m" d="M1342.753,1220.346l-.033,0a.707.707,0,0,1-.624-.787l6.866-46.475,2.514.072-8.078,46.726A.578.578,0,0,1,1342.753,1220.346Z" transform="translate(-1342.09 -1173.08)"/></g></g><g transform="translate(998.209 406.138)"><path class="f" d="M1887.372,1713.309H1901c.655-.8.414-3.75.315-4.714-.021-.194-.035-.307-.035-.307s-4.652-3.721-5.292-.872c-.019.089-.043.177-.069.263-.805,2.665-4.417,3.876-6.5,4.214A2.362,2.362,0,0,0,1887.372,1713.309Z" transform="translate(-1881.351 -1619.203)"/><path class="n" d="M2021.17,1212.259c-.492,0-23.338,4.289-27.117,8.967-1.888,2.337-2.168,29.325-2.168,29.325s2.335,2.9,7.38,1.214c0,0,3.7-18.465,3.425-24.065-.076-1.549,15.609-.224,18.48-.967s9.885-6.988,8.339-10.03S2021.17,1212.259,2021.17,1212.259Z" transform="translate(-1977.973 -1162.423)"/><path class="g" d="M1917.747,1124.727s-4.608.062-5.7.529-3.3,1.539-2.709,1.7,3.415-.068,4.025.026a10.274,10.274,0,0,0,1.736-.026h2.116Z" transform="translate(-1901.569 -1081.5)"/><path class="g" d="M1836.082,903.1a8.419,8.419,0,0,0-3.1-1.341,13.421,13.421,0,0,1-2.228-.46c-1.408-.5-4.225-3.029-4.011-3.326.683-.952,3.972,1.063,4.546.846s-1.1-1.409-.52-1.828c.3-.219,1.018.879,1.6.989.788.149,1.4,1.262,1.642,1.32a18.433,18.433,0,0,1,2.485,1.618Z" transform="translate(-1825.291 -870.934)"/><path class="o" d="M2040.156,804.589s-3.508,1.087-6.964,10.6-4.769,10.031-6.025,10.4-12.284,2.569-12.284,2.569v2.825h16.992s6.371-6.061,8.281-10.141S2040.156,804.589,2040.156,804.589Z" transform="translate(-1999.235 -785.532)"/><path class="p" d="M1807.619,1713.309h13.624c.655-.8.414-3.75.315-4.714-.02-.194-.034-.307-.034-.307s-4.652-3.721-5.292-.872c-.019.089-.043.177-.069.263-.8,2.665-4.416,3.876-6.5,4.214A2.361,2.361,0,0,0,1807.619,1713.309Z" transform="translate(-1807.619 -1619.203)"/><path class="q" d="M1932,1212.259c-.492,0-23.338,4.289-27.117,8.967-1.887,2.337-2.168,29.325-2.168,29.325s2.335,2.9,7.38,1.214c0,0,3.7-18.465,3.425-24.065-.075-1.549,15.609-.224,18.48-.967s9.885-6.988,8.34-10.03S1932,1212.259,1932,1212.259Z" transform="translate(-1895.535 -1162.423)"/><path class="g" d="M2292.027,694.914a22.177,22.177,0,0,0,4.856-1.057c1.862-.6,3.363-1.487,2.4-3.189a17.526,17.526,0,0,1-2.236-7.974l-3.464,2.792-2.353,1.9a28.223,28.223,0,0,0,.267,3.077q.071.536.167,1.155a.839.839,0,0,1-.387.843l-.053.033A1.314,1.314,0,0,0,2292.027,694.914Z" transform="translate(-2254.133 -672.841)"/><path class="j" d="M2298.482,720.826a5.715,5.715,0,0,0,.086,1.9,9.84,9.84,0,0,0,4.059-2.016c-1.068-.293-1.457-1.447-2.252-1.34Z" transform="translate(-2261.39 -706.746)"/><path class="g" d="M2253.926,579.725s8.07,1.341,8.827-3.7,2.309-8.258-2.811-9.327-6.413.7-7.075,2.323S2251.846,579.246,2253.926,579.725Z" transform="translate(-2218.775 -565.302)"/><path class="i" d="M2242.582,553.668a2.82,2.82,0,0,0,2.137,3.177c2.311.722,1.8,3.557,2.84,3.518s1.459-1.629,2.388-.358c.792,1.084-.659,2.37-.56,2.964.172,1.021,1.77,3.109,3.211,3s4.137-6.952,3.6-9.07-2.7-4.352-4.738-4.66-4.876.573-5.531.573S2242.769,553.013,2242.582,553.668Z" transform="translate(-2209.676 -552.177)"/><path class="r" d="M2244.681,779.453c-1.167-4.695-4.39-9.62-6.57-9.616-3.714.007-9.054.987-11.209,6.305-1.588,3.917-3.706,26.448-1.312,28.05,5.471,3.663,18.155,11.141,20.408,3.515C2248.062,800.721,2246.705,787.6,2244.681,779.453Z" transform="translate(-2193.037 -753.404)"/><path class="r" d="M1948.6,800.743a4.4,4.4,0,0,0-6.808-1.9,41.606,41.606,0,0,0-4.669,4.363c-6.931,7.381-8.34,7.335-9.642,7.183s-12.3-2.487-12.3-2.487a3.327,3.327,0,0,0-.895,1.087,2.048,2.048,0,0,0-.22,1.508c-.431-.278,3.9,2.706,6.054,3.9a59.22,59.22,0,0,0,8.843,3.6,2.283,2.283,0,0,0,1.486-.022,63.989,63.989,0,0,0,17.98-10.021C1950.252,806.436,1949.581,803.3,1948.6,800.743Z" transform="translate(-1905.976 -779.365)"/><path class="a" d="M2291.623,747.238l-.841-1.894s-7.527.614-8.792,4.9C2281.989,750.242,2287.824,747.33,2291.623,747.238Z" transform="translate(-2246.175 -730.76)"/></g><g transform="translate(1019.171 435.8)"><g transform="translate(38.217 35.201)"><path class="b" d="M2595.992,1440.368h.052a.706.706,0,0,0,.713-.755l-2.835-28.317-2.474.221,4.071,28.47A.461.461,0,0,0,2595.992,1440.368Z" transform="translate(-2591.447 -1411.295)"/></g><g transform="translate(23.623 35.201)"><path class="b" d="M2402.688,1440.368h.052a.706.706,0,0,0,.713-.755l-2.835-28.317-2.474.221,4.071,28.47A.461.461,0,0,0,2402.688,1440.368Z" transform="translate(-2398.143 -1411.295)"/></g><g transform="translate(0 35.201)"><path class="s" d="M2086.022,1440.368h-.052a.706.706,0,0,1-.713-.755l2.836-28.317,2.474.221-4.071,28.47A.46.46,0,0,1,2086.022,1440.368Z" transform="translate(-2085.253 -1411.295)"/></g><path class="b" d="M2336.151,976.239l2.691-23.651c.353-3.408-.788-6.746-5.706-7l-8.653-.527c-5.128-.212-7.444,4.057-8.093,7.343l-5.137,26Z" transform="translate(-2294.191 -945.05)"/><path class="s" d="M2.267,0H41.209a0,0,0,0,1,0,0V2.267a2.267,2.267,0,0,1-2.267,2.267H2.267A2.267,2.267,0,0,1,0,2.267v0A2.267,2.267,0,0,1,2.267,0Z" transform="translate(0.708 31.082)"/><path class="b" d="M2.267,0H24.854a0,0,0,0,1,0,0V2.266a2.267,2.267,0,0,1-2.267,2.267H2.267A2.267,2.267,0,0,1,0,2.267v0A2.267,2.267,0,0,1,2.267,0Z" transform="translate(17.063 31.082)"/></g></g></g></svg>