<svg xmlns="http://www.w3.org/2000/svg" width="30" height="30" viewBox="0 0 30 30"><defs><style>.a{fill:#ff3e6c;}.b{fill:#fff;}</style></defs><g transform="translate(-348 -28)"><rect class="a" width="30" height="30" rx="3" transform="translate(348 28)"/><g transform="translate(-593.918 -71.29)"><path class="b" d="M14.037,110.142v2.2A1.65,1.65,0,0,1,12.391,114a12.422,12.422,0,0,1-8.577-3.8A12.343,12.343,0,0,1,0,101.646,1.649,1.649,0,0,1,1.654,100h2.2a.55.55,0,0,1,.523.377l1.1,3.3a.552.552,0,0,1-.064.48l-.935,1.4a8.637,8.637,0,0,0,1.7,2.27,8.974,8.974,0,0,0,2.288,1.687l1.4-.935a.552.552,0,0,1,.48-.064l3.307,1.1a.543.543,0,0,1,.369.523Z" transform="translate(949.917 7.29)"/><path class="b" d="M111.017,314.693v1.557a1.165,1.165,0,0,1-1.162,1.167,8.77,8.77,0,0,1-6.055-2.68l1.677-1.677a6.335,6.335,0,0,0,1.616,1.191l.99-.66a.39.39,0,0,1,.339-.045l2.335.778A.384.384,0,0,1,111.017,314.693Z" transform="translate(852.937 -196.127)"/></g></g></svg>