<svg xmlns="http://www.w3.org/2000/svg" width="21.902" height="21.902" viewBox="0 0 21.902 21.902"><defs><style>.a{fill:#d20173;}.b{fill:#ff3d58;}.c{fill:#fe0;}.d{fill:#fc0;}.e{fill:#de225b;}</style></defs><path class="a" d="M20.689,13.561c-.24.9.2,2.081-.252,2.867s-1.712,1-2.359,1.65-.852,1.9-1.65,2.359-1.969.012-2.867.252c-.868.232-1.668,1.214-2.609,1.214s-1.741-.981-2.609-1.214c-.9-.24-2.081.2-2.867-.252s-1-1.712-1.65-2.359-1.9-.852-2.359-1.65-.012-1.969-.252-2.867C.981,12.693,0,11.893,0,10.951S.981,9.21,1.214,8.342c.24-.9-.2-2.081.252-2.867s1.712-1,2.359-1.65.852-1.9,1.65-2.359,1.969-.012,2.867-.252C9.21.981,10.01,0,10.951,0s1.741.981,2.609,1.214c.9.24,2.081-.2,2.867.252s1,1.712,1.65,2.359,1.9.852,2.359,1.65.012,1.969.252,2.867c.232.868,1.214,1.668,1.214,2.609s-.981,1.741-1.214,2.609Z"/><path class="b" d="M265.738,13.561c-.24.9.2,2.081-.252,2.867s-1.712,1-2.359,1.65-.852,1.9-1.65,2.359-1.969.012-2.867.252c-.868.232-1.668,1.214-2.609,1.214V0c.942,0,1.742.981,2.609,1.214.9.24,2.081-.2,2.867.252s1,1.712,1.65,2.359,1.9.852,2.359,1.65.012,1.969.252,2.867c.232.868,1.214,1.668,1.214,2.609S265.97,12.693,265.738,13.561Z" transform="translate(-245.049)"/><circle class="c" cx="7.739" cy="7.739" r="7.739" transform="translate(3.212 3.212)"/><path class="d" d="M263.739,82.829A7.739,7.739,0,0,1,256,90.568V75.09A7.739,7.739,0,0,1,263.739,82.829Z" transform="translate(-245.049 -71.878)"/><circle class="e" cx="1.37" cy="1.37" r="1.37" transform="translate(6.846 6.846)"/><circle class="e" cx="1.37" cy="1.37" r="1.37" transform="translate(12.317 12.313)"/><path class="e" d="M167.605,159.237l-4.178,4.178-3.23,3.23-.907-.907,4.137-4.137,3.271-3.271Z" transform="translate(-152.476 -151.557)"/><path class="e" d="M260.178,159.237,256,163.415V161.6l3.271-3.271Z" transform="translate(-245.049 -151.557)"/></svg>