<svg xmlns="http://www.w3.org/2000/svg" width="26.575" height="26.572" viewBox="0 0 26.575 26.572"><defs><style>.a{fill:#eac092;}.b{fill:#fedbab;}.c{fill:#eaecf0;}.d{fill:#ff3e6c;}.e{fill:#fff;}.f{fill:#ffd36c;}.g{fill:#0fcaa6;}.h{fill:#d72b5d;}</style></defs><g transform="translate(0 -0.023)"><path class="a" d="M107.34,372.017v4.458c2.539.112,1.807.561,6.225,2.547a4.181,4.181,0,0,0,3.253-.055h0l8.68-3.108a1.885,1.885,0,0,0,1.145-2.346c-.657-1.537-2.348-.9-2.489-.85l-4.531,1.253" transform="translate(-103.519 -353.291)"/><g transform="translate(5.226 16.227)"><path class="b" d="M112.468,324.715l5.046,1.6a1.658,1.658,0,0,0,2.048-1.141h0a1.819,1.819,0,0,0-1.27-2.172l-4.477-1.519a3.805,3.805,0,0,0-3.232-1.561,4.075,4.075,0,0,0-3.243,2.178v2.03" transform="translate(-107.341 -319.921)"/></g><path d="M153.312,384.981a.553.553,0,0,1-.11-.011.544.544,0,0,1-.106-.032.572.572,0,0,1-.1-.052.548.548,0,0,1-.155-.155.518.518,0,0,1-.052-.1.528.528,0,0,1-.032-.105.539.539,0,0,1,0-.219.543.543,0,0,1,.032-.106.554.554,0,0,1,.207-.252.564.564,0,0,1,.1-.052.562.562,0,0,1,.325-.032.535.535,0,0,1,.105.032.547.547,0,0,1,.1.052.547.547,0,0,1,.155.155.57.57,0,0,1,.052.1.584.584,0,0,1,.032.106.542.542,0,0,1,0,.219.568.568,0,0,1-.032.105.555.555,0,0,1-.052.1.548.548,0,0,1-.155.155.555.555,0,0,1-.1.052.527.527,0,0,1-.105.032A.552.552,0,0,1,153.312,384.981Z" transform="translate(-144.849 -363.979)"/><rect class="c" width="2.13" height="6.041" transform="translate(3.906 17.903)"/><rect class="d" width="3.343" height="7.089" transform="translate(0.562 17.903)"/><path d="M23.665,314.7l-.006-.017a2.073,2.073,0,0,0-2.9-1.168L17.176,314.6a2.468,2.468,0,0,0-1.455-1.566l-.014-.005-3.94-1.462a3.963,3.963,0,0,0-3.278-1.649,4.076,4.076,0,0,0-3.213,2.106H.514A.54.54,0,0,0,0,312.59v7.089a.54.54,0,0,0,.514.562H3.573a.54.54,0,0,0,.514-.562v-.485H5.522a.54.54,0,0,0,.514-.562v-.162a3.456,3.456,0,0,1,1.879.737,30.268,30.268,0,0,0,3.091,1.725l.023.01a4.279,4.279,0,0,0,1.655.341,3.806,3.806,0,0,0,1.7-.4l7.922-3.1.042-.019A2.457,2.457,0,0,0,23.665,314.7ZM3.059,319.117H1.029v-5.965h2.03Zm1.949-1.048h-.92v-4.917h.92Zm16.934-1.335-7.919,3.1-.023.01-.021.01a3.074,3.074,0,0,1-2.562.048,28.967,28.967,0,0,1-2.987-1.668,4.381,4.381,0,0,0-2.393-.89v-4.529a3.179,3.179,0,0,1,2.453-1.768,2.917,2.917,0,0,1,2.518,1.293.525.525,0,0,0,.273.238l4.089,1.517a1.275,1.275,0,0,1,.839,1.489,1.077,1.077,0,0,1-.476.657.922.922,0,0,1-.755.1l-4.609-1.6a.507.507,0,0,0-.646.366.574.574,0,0,0,.335.706l4.617,1.6.015,0a1.865,1.865,0,0,0,1.544-.2,2.182,2.182,0,0,0,.965-1.332q.018-.068.031-.137l3.863-1.17c.558-.208,1.29-.283,1.616.537A1.337,1.337,0,0,1,21.942,316.734Z" transform="translate(0 -294.688)"/><path class="e" d="M50.985,15.017,45.99,10.023l-6.261,6.261,10.7,10.7,5.909-5.909" transform="translate(-37.495 -9.437)"/><path class="f" d="M146.008,113.955h0v0a2.643,2.643,0,1,0,2.823,2.7" transform="translate(-136.236 -108.126)"/><path class="a" d="M201.582,32.633V28.175c-2.539-.112-1.807-.561-6.225-2.547a4.181,4.181,0,0,0-3.253.055h0l-2.619.938,2.7,2.7" transform="translate(-180.242 -23.877)"/><g transform="translate(2.234 0.586)"><path class="g" d="M39.729,85.751l2.123-2.123a3.005,3.005,0,0,1,0,4.245Z" transform="translate(-39.729 -79.489)"/><path class="g" d="M192.264,259.179a3.005,3.005,0,0,1,4.245,0l-2.123,2.123Z" transform="translate(-183.687 -244.34)"/><path class="g" d="M113.333,12.146l2.123-2.123,2.123,2.123A3.005,3.005,0,0,1,113.333,12.146Z" transform="translate(-109.194 -10.023)"/><path class="g" d="M288.187,182.048a3.006,3.006,0,0,0,.7,3.15l1.77-1.77" transform="translate(-274.047 -172.375)"/></g><g transform="translate(9.065 4.712)"><path class="b" d="M193.348,94.248l-5.046-1.6a1.658,1.658,0,0,0-2.048,1.141h0a1.819,1.819,0,0,0,1.27,2.172L192,97.482h0a3.805,3.805,0,0,0,3.232,1.561,4.075,4.075,0,0,0,3.243-2.178v-2.03" transform="translate(-186.19 -92.585)"/></g><path d="M339.812,124.622a.554.554,0,0,1-.11-.011.568.568,0,0,1-.105-.032.554.554,0,0,1-.1-.052.546.546,0,0,1-.155-.155.552.552,0,0,1-.052-.1.532.532,0,0,1-.032-.105.541.541,0,0,1,0-.219.548.548,0,0,1,.032-.106.568.568,0,0,1,.052-.1.546.546,0,0,1,.155-.155.555.555,0,0,1,.1-.052.53.53,0,0,1,.105-.032.56.56,0,0,1,.325.032.57.57,0,0,1,.1.052.562.562,0,0,1,.207.252.549.549,0,0,1,.033.106.568.568,0,0,1,0,.219.533.533,0,0,1-.033.105.518.518,0,0,1-.052.1.548.548,0,0,1-.155.155.569.569,0,0,1-.1.052.6.6,0,0,1-.105.032A.564.564,0,0,1,339.812,124.622Z" transform="translate(-321.701 -117.088)"/><rect class="c" width="2.13" height="6.041" transform="translate(20.539 3.538)"/><rect class="h" width="3.343" height="7.089" transform="translate(22.669 2.49)"/><path d="M54.079,1.928h-3.07a.541.541,0,0,0-.516.562v.485h-1.44a.541.541,0,0,0-.516.562V3.7a3.477,3.477,0,0,1-1.886-.737,30.392,30.392,0,0,0-3.1-1.725l-.023-.01a4.064,4.064,0,0,0-3.372.058l-2.078.81L36.324.188a.487.487,0,0,0-.73,0l-5.75,6.261a.593.593,0,0,0,0,.8l9.826,10.7a.524.524,0,0,0,.73,0l5.25-5.716c.136.013.278.02.425.02A4.092,4.092,0,0,0,49.3,10.141h4.78a.541.541,0,0,0,.516-.562V2.49A.541.541,0,0,0,54.079,1.928ZM37.269,7.142a2.446,2.446,0,0,0,1.547,1.99l.014.005,1.033.382a2.13,2.13,0,0,1-.514,1.018,1.8,1.8,0,0,1-2.7,0,2.216,2.216,0,0,1,0-2.942A1.907,1.907,0,0,1,37.269,7.142Zm1.033-2.2a2.138,2.138,0,0,0-.841.968,2.873,2.873,0,0,0-1.545.885,3.414,3.414,0,0,0,0,4.533,2.78,2.78,0,0,0,4.163,0,3.271,3.271,0,0,0,.766-1.451l1.743.644a3.846,3.846,0,0,0,.547,2.85L41.956,14.66a3.066,3.066,0,0,0-3.841,0L32.86,8.939a3.833,3.833,0,0,0,0-4.183l1.178-1.283a3.067,3.067,0,0,0,3.842,0L39,4.689A1.928,1.928,0,0,0,38.3,4.947Zm5.577,7.619a2.618,2.618,0,0,1-.33-1.169,3.926,3.926,0,0,0,.911.537ZM35.959,1.381l1.177,1.282a2.1,2.1,0,0,1-2.354,0ZM32.116,5.565a2.639,2.639,0,0,1,0,2.563L30.939,6.847Zm7.919,11.186L38.858,15.47a2.093,2.093,0,0,1,2.353,0Zm6.04-5.629a3.457,3.457,0,0,1-.539-.041h0a2.921,2.921,0,0,1-1.913-1.14c-.011-.017-.055-.081-.062-.091a.528.528,0,0,0-.285-.258L39.169,8.075a1.275,1.275,0,0,1-.843-1.488h0a1.077,1.077,0,0,1,.477-.655.928.928,0,0,1,.758-.1l4.626,1.6a.509.509,0,0,0,.648-.366.573.573,0,0,0-.336-.706l-3.679-1.27-.032-.035h0l-1.9-2.074,1.637-.638.018-.007.005,0,.021-.01a3.1,3.1,0,0,1,2.571-.048,29.1,29.1,0,0,1,3,1.668,4.406,4.406,0,0,0,2.4.89V9.355A3.189,3.189,0,0,1,46.075,11.123ZM49.569,4.1h.923V9.017h-.923Zm3.994,4.917H51.526V3.052h2.037Z" transform="translate(-28.021 0)"/></g></svg>