<svg xmlns="http://www.w3.org/2000/svg" width="141.85" height="138.287" viewBox="0 0 141.85 138.287"><defs><style>.a{fill:#fff;}.b{fill:#ffc727;}.c{fill:#455a64;}.d{opacity:0.3;}.e{fill:#263238;}.f,.k{fill:none;stroke-miterlimit:10;}.f{stroke:#263238;}.g{opacity:0.1;}.h{fill:#e275b0;}.i{fill:#ebebeb;}.j{fill:#dbdbdb;}.k{stroke:#c7c7c7;stroke-width:10px;}.l{fill:#c7c7c7;}</style></defs><g transform="translate(-949 -4827.106)"><path class="a" d="M614.52,509.016c-1.51-18.612-2.264-27.918-5.778-33.939-10.06-17.24-39.306-21.34-57.778-19.768-24.729,2.1-53.02,16.32-65.472,43.768-11.311,24.93-6.1,53.149,10.947,71.609,31.241,33.839,95.686,27.8,111.428,5.593,6.283-8.862,6.735-23.016,7.4-43.808A198.137,198.137,0,0,0,614.52,509.016Z" transform="matrix(-0.017, 1, -1, -0.017, 1554.148, 4358.073)"/><g transform="translate(906.462 4726.917)"><g transform="translate(132.162 152.069)"><path class="b" d="M369.3,190.618l2.239,49.711h40.75l-4.214-20.177-13.58-4.286a2.542,2.542,0,0,1-1.54-1.512l-8.12-20.853Z" transform="translate(-369.303 -190.618)"/><g transform="translate(4.489 5.233)"><path class="c" d="M386.081,210.178l1.017,17.934L401.8,229.49l-6.337-18.656Z" transform="translate(-386.081 -210.178)"/><g class="d" transform="translate(0.12 0.211)"><path class="a" d="M388.161,246.9l.232,4.09L392.8,255.4l4.259.4Z" transform="translate(-387.724 -237.288)"/><path class="a" d="M397.322,210.965l9.432,9.432-.992-2.923-6.364-6.364Z" transform="translate(-394.435 -210.965)"/><path class="a" d="M386.531,218.058l.027.5,15,15-.244-.713Z" transform="translate(-386.531 -216.161)"/><path class="a" d="M389.352,267.834l.027.5,2.208,2.208.517.048Z" transform="translate(-388.597 -252.619)"/></g><path class="e" d="M386.081,210.178l9.387.656L401.8,229.49l-.984-.092-5.99-17.639-8.7-.8Z" transform="translate(-386.081 -210.178)"/></g><line class="f" y2="23.259" transform="translate(24.575 25.695)"/><path class="a" d="M511.855,299.769l-3.313-.525,1.931,6.825,1.708-.181a.7.7,0,0,0,.628-.753l-.362-4.725A.7.7,0,0,0,511.855,299.769Z" transform="translate(-471.288 -270.181)"/><g transform="translate(21.684 18.864)"><path class="b" d="M450.7,261.984c-.792.675-.077,6.764.489,6.662a6.469,6.469,0,0,0,2.263-.72c.489-.386,3.241-5.315,2.572-6.335S451.316,261.462,450.7,261.984Z" transform="translate(-450.351 -261.123)"/><path class="g" d="M450.7,261.984c-.792.675-.077,6.764.489,6.662a6.469,6.469,0,0,0,2.263-.72c.489-.386,3.241-5.315,2.572-6.335S451.316,261.462,450.7,261.984Z" transform="translate(-450.351 -261.123)"/></g><path class="g" d="M397.991,292.9h-5.048v-1.417l5.048.274Z" transform="translate(-386.618 -264.497)"/></g><g transform="translate(49.496 137.987)"><path class="b" d="M144.11,201.779H60.332l4.433-59.74,76.327-4.052Z" transform="translate(-60.332 -137.987)"/><g transform="translate(17.565 41.564)"><path class="e" d="M126.154,298.617a.525.525,0,0,1,.71-.069,2.59,2.59,0,0,0,1.716.739,2.344,2.344,0,0,0,1.252-.355,1.145,1.145,0,0,0,.543-.69.511.511,0,0,0-.03-.306.726.726,0,0,0-.246-.286,3.215,3.215,0,0,0-1.243-.463h-.02a4.74,4.74,0,0,1-1.164-.375,1.623,1.623,0,0,1-.769-.749,1.373,1.373,0,0,1-.079-.779,2.2,2.2,0,0,1,1.025-1.4,3.232,3.232,0,0,1,1.745-.513,3.141,3.141,0,0,1,1.952.769.463.463,0,0,1,.02.681.517.517,0,0,1-.7.138,2.34,2.34,0,0,0-1.439-.6,2.06,2.06,0,0,0-1.144.316,1.01,1.01,0,0,0-.473.611.4.4,0,0,0,.029.266.64.64,0,0,0,.207.247,2.84,2.84,0,0,0,1.134.424h.02a4.63,4.63,0,0,1,1.262.4,1.743,1.743,0,0,1,.809.789,1.376,1.376,0,0,1,.079.828,2.344,2.344,0,0,1-1.075,1.489,3.5,3.5,0,0,1-1.873.542,3.39,3.39,0,0,1-2.3-.966A.489.489,0,0,1,126.154,298.617Z" transform="translate(-125.984 -293.361)"/><path class="e" d="M153.481,297.365l-.414,2.366a.673.673,0,0,1-.641.542.441.441,0,0,1-.444-.542L153,293.914a.694.694,0,0,1,.651-.543.441.441,0,0,1,.444.543l-.414,2.366h2.554l.414-2.366a.692.692,0,0,1,.641-.543.447.447,0,0,1,.454.543l-1.026,5.817a.683.683,0,0,1-.641.542.447.447,0,0,1-.453-.542l.414-2.366Z" transform="translate(-145.019 -293.361)"/><path class="e" d="M180.67,300.31a.447.447,0,0,1-.454-.542l1.026-5.817a.692.692,0,0,1,.641-.543.447.447,0,0,1,.453.543l-1.026,5.817A.683.683,0,0,1,180.67,300.31Z" transform="translate(-165.701 -293.388)"/><path class="e" d="M191.2,299.695l1.026-5.817a.691.691,0,0,1,.641-.542h1.765a1.723,1.723,0,0,1,1.746,2.11,2.644,2.644,0,0,1-2.485,2.12h-1.223l-.375,2.13a.682.682,0,0,1-.641.542A.447.447,0,0,1,191.2,299.695Zm3.244-5.265H193.22l-.355,2.041h1.213a1.28,1.28,0,0,0,1.2-1.026A.829.829,0,0,0,194.442,294.43Z" transform="translate(-173.745 -293.335)"/><path class="e" d="M212.682,299.695l1.025-5.817a.691.691,0,0,1,.641-.542h1.765a1.723,1.723,0,0,1,1.745,2.11,2.644,2.644,0,0,1-2.485,2.12h-1.223l-.375,2.13a.682.682,0,0,1-.641.542A.447.447,0,0,1,212.682,299.695Zm3.244-5.265H214.7l-.355,2.041h1.213a1.28,1.28,0,0,0,1.2-1.026A.829.829,0,0,0,215.926,294.43Z" transform="translate(-189.481 -293.335)"/><path class="e" d="M234.878,300.31a.447.447,0,0,1-.454-.542l1.025-5.817a.692.692,0,0,1,.641-.543.447.447,0,0,1,.453.543l-1.026,5.817A.682.682,0,0,1,234.878,300.31Z" transform="translate(-205.406 -293.388)"/><path class="e" d="M246.451,293.951a.679.679,0,0,1,.315-.463.5.5,0,0,1,.73.118l2.426,4.457.72-4.112a.691.691,0,0,1,.641-.542.447.447,0,0,1,.453.542l-1.025,5.788a.664.664,0,0,1-.641.542.441.441,0,0,1-.375-.187.423.423,0,0,1-.039-.069l-2.406-4.417-.73,4.131a.664.664,0,0,1-.641.542.437.437,0,0,1-.444-.542Z" transform="translate(-213.469 -293.369)"/><path class="e" d="M274.323,296.786a4.344,4.344,0,0,1,4.141-3.451,3,3,0,0,1,2.061.749.526.526,0,0,1-.039.759.568.568,0,0,1-.779.1,2.125,2.125,0,0,0-1.439-.523,2.923,2.923,0,0,0-1.854.7,2.827,2.827,0,0,0-1,1.666,1.959,1.959,0,0,0,.414,1.657,2.049,2.049,0,0,0,1.607.7,2.843,2.843,0,0,0,1.381-.375l.237-1.311h-1.37a.441.441,0,0,1-.444-.542.664.664,0,0,1,.641-.543h1.9a.444.444,0,0,1,.453.543l-.375,2.13a.868.868,0,0,1-.049.148l-.03.059-.01.01a.647.647,0,0,1-.207.227,4.179,4.179,0,0,1-2.317.749h-.01A2.855,2.855,0,0,1,274.323,296.786Z" transform="translate(-234.596 -293.335)"/></g><g transform="translate(14.524 13.237)"><path class="h" d="M167.254,196.968l-11.23-9.506-41.408,3.344,2.522,23.88,39.9-5.243Zm-4.774.159a1.883,1.883,0,1,1-2.282-1.4A1.9,1.9,0,0,1,162.48,197.127Z" transform="translate(-114.615 -187.462)"/><g transform="translate(5.503 5.845)"><path class="a" d="M136.258,232l-1.068-8.841a.827.827,0,0,1,.725-.924l.015,0,.03,0,4.855-.586a.838.838,0,0,1,.2,1.663l-4.061.49.331,2.742,3.491-.422a.838.838,0,0,1,.2,1.663l-3.491.421.434,3.6a.841.841,0,0,1-.74.925A.828.828,0,0,1,136.258,232Z" transform="translate(-135.184 -218.337)"/><path class="a" d="M176.449,227.4a.834.834,0,0,1-.4,1.113,1.341,1.341,0,0,1-.324.085l-.015,0a1.1,1.1,0,0,1-.6-.094,1.479,1.479,0,0,1-.543-.467,4.051,4.051,0,0,1-.532-1.76,1.275,1.275,0,0,0-.258-.622,1.405,1.405,0,0,0-.5-.381,2.87,2.87,0,0,0-.883-.258l-1.768.214.393,3.252a.841.841,0,0,1-.74.925.828.828,0,0,1-.924-.725l-1.068-8.841a.818.818,0,0,1,.725-.924l.015,0,2.667-.322a3.228,3.228,0,0,1,2.724,5.433,2.35,2.35,0,0,1,.591.491,2.862,2.862,0,0,1,.69,1.559,3.81,3.81,0,0,0,.167.877A.814.814,0,0,1,176.449,227.4Zm-2.825-5.77a1.556,1.556,0,0,0-1.731-1.372l-1.843.223.373,3.086,1.843-.223A1.549,1.549,0,0,0,173.623,221.631Z" transform="translate(-159.424 -216.093)"/><path class="a" d="M205.135,223.678l-1.068-8.841a.819.819,0,0,1,.725-.924l.015,0,.03,0,4.855-.586a.837.837,0,0,1,.924.725.851.851,0,0,1-.723.939l-4.061.49.331,2.742,3.491-.422a.838.838,0,0,1,.2,1.663l-3.491.422.333,2.757,4.061-.491a.838.838,0,0,1,.2,1.663l-4.855.587c-.03,0-.032-.011-.032-.011l-.013.017A.828.828,0,0,1,205.135,223.678Z" transform="translate(-185.633 -212.244)"/><path class="a" d="M238.342,219.668l-1.068-8.841A.818.818,0,0,1,238,209.9l.015,0,.03,0,4.855-.586a.837.837,0,0,1,.924.725.85.85,0,0,1-.723.939l-4.061.49.331,2.742,3.491-.422a.838.838,0,0,1,.2,1.663l-3.491.422.333,2.757,4.061-.49a.838.838,0,0,1,.2,1.663l-4.855.586c-.03,0-.032-.012-.032-.012l-.013.017A.828.828,0,0,1,238.342,219.668Z" transform="translate(-209.955 -209.307)"/></g><g transform="translate(46.699 9.569)"><path class="e" d="M289.156,223.267a17.96,17.96,0,0,1,2.292-.007,22.3,22.3,0,0,1,2.292.235,20.312,20.312,0,0,1,4.5,1.217,14.657,14.657,0,0,1,2.128,1.089c.344.21.674.449,1,.693l.472.4c.156.133.3.284.451.426a8.961,8.961,0,0,1,1.516,2.006l.286.571c.083.2.155.4.232.6s.128.4.189.6l.086.3.066.307a9.092,9.092,0,0,1,.2,2.5,9.441,9.441,0,0,1-.495,2.455,11.6,11.6,0,0,1-2.557,4.118,15.753,15.753,0,0,1-3.717,2.888,14.761,14.761,0,0,1-4.316,1.657l-.064-.2a19.817,19.817,0,0,0,3.8-2.331,18.26,18.26,0,0,0,3.116-3.037,11.238,11.238,0,0,0,1.987-3.663,7.808,7.808,0,0,0,.177-3.991l-.05-.249-.069-.246a4.715,4.715,0,0,0-.147-.483c-.059-.154-.112-.31-.174-.463l-.209-.449A7.916,7.916,0,0,0,301,228.562a12.375,12.375,0,0,0-3.382-2.5,25.6,25.6,0,0,0-4.084-1.667A41.285,41.285,0,0,0,289.156,223.267Z" transform="translate(-289.156 -223.227)"/><g transform="translate(3.144 18.559)"><path class="e" d="M304.336,292.593l-1.721,3.367,3.485,1.471-5.194-.849Z" transform="translate(-300.906 -292.593)"/></g></g></g><path class="g" d="M144.112,353.349H60.333l.238-3.208,83.143-5.218Z" transform="translate(-60.333 -289.557)"/></g><g transform="translate(45.539 196.802)"><path class="i" d="M58.747,376.037H186.7V372.23H58.747Z" transform="translate(-55.213 -368.373)"/><path class="j" d="M511.995,365.394l-12.763.784h0v5.43h13.715Z" transform="translate(-377.845 -363.366)"/><path class="j" d="M54.583,371.787v-5.316l-8.055-.832-.99,6.148Z" transform="translate(-45.539 -363.546)"/><g transform="translate(17.56)"><path class="k" d="M131.1,366.628s-1.19-8.815-9.914-8.815-10.015,8.815-10.015,8.815" transform="translate(-111.17 -357.813)"/><g transform="translate(0.6 0.286)"><path class="e" d="M122.777,358.882c-12.476,0-12.5,19.388,0,19.388C135.252,378.27,135.273,358.882,122.777,358.882Z" transform="translate(-113.412 -358.882)"/><path class="l" d="M136.777,378.669c-5.663,0-5.672,8.8,0,8.8S142.449,378.669,136.777,378.669Z" transform="translate(-127.412 -373.375)"/></g></g><g transform="translate(92.294)"><path class="k" d="M410.423,366.628s-1.19-8.815-9.914-8.815-10.014,8.815-10.014,8.815" transform="translate(-390.495 -357.813)"/><g transform="translate(0.647 0.286)"><path class="e" d="M402.277,358.882c-12.475,0-12.5,19.388,0,19.388C414.753,378.27,414.773,358.882,402.277,358.882Z" transform="translate(-392.913 -358.882)"/><path class="l" d="M416.277,378.669c-5.663,0-5.672,8.8,0,8.8S421.949,378.669,416.277,378.669Z" transform="translate(-406.912 -373.375)"/></g></g></g></g></g></svg>