<svg xmlns="http://www.w3.org/2000/svg" xmlns:xlink="http://www.w3.org/1999/xlink" width="77" height="77" viewBox="0 0 77 77"><defs><style>.a{fill:#fff;opacity:0.95;}.b{clip-path:url(#a);}.c,.g{fill:#ee6792;}.c,.e,.h,.k{fill-rule:evenodd;}.d,.f,.h{fill:#220301;}.d{opacity:0.3;mix-blend-mode:overlay;}.d,.l{isolation:isolate;}.e{fill:#f8cfbd;}.i{fill:#f78f20;}.j{fill:#fbbd59;}.k{fill:#6b3937;}.l{opacity:0.2;mix-blend-mode:screen;}.m{fill:#fbeff9;}.n{fill:#5682c2;}.o{fill:#310b09;}</style><clipPath id="a"><circle class="a" cx="38.5" cy="38.5" r="38.5" transform="translate(1036 2169)"/></clipPath></defs><g class="b" transform="translate(-1036 -2169)"><g transform="translate(1048.365 2183)"><path class="c" d="M2.862,289.007c1.287-2.408,2.452-2.675,5.413-3.165s6,1.676,8.743,3.13c.5.263.99.529,1.485.793v25.607c-1.813-.963-3.757-2.1-5.819-3.446C4.735,306.731,1.11,303.352.137,298.49-.517,295.227,1.3,291.922,2.862,289.007Z" transform="translate(46.905 -266.495)"/><path class="d" d="M18.13,297.343a.255.255,0,0,1-.106.044.275.275,0,0,1-.112,0,.265.265,0,0,1-.1-.046.274.274,0,0,1-.073-.08.285.285,0,0,1-.038-.105.294.294,0,0,1,0-.112h0a.283.283,0,0,1,.043-.1.229.229,0,0,1,.083-.072.291.291,0,0,1,.388.093.271.271,0,0,1,.035.21h0a.288.288,0,0,1-.047.1A.232.232,0,0,1,18.13,297.343Zm-1.568-5.223a.29.29,0,0,1-.178-.129.27.27,0,0,1-.035-.21.278.278,0,0,1,.128-.178.3.3,0,0,1,.388.093.278.278,0,0,1,.034.217.3.3,0,0,1-.119.173A.293.293,0,0,1,16.562,292.119Zm-2.937,1.333a.272.272,0,0,1-.171-.126.29.29,0,0,1-.034-.217.274.274,0,0,1,.127-.172.291.291,0,0,1,.388.093.273.273,0,0,1,.035.211.29.29,0,0,1-.126.171A.267.267,0,0,1,13.626,293.452Zm-1.5,7.48a.26.26,0,0,1-.171-.127.241.241,0,0,1-.043-.211.29.29,0,0,1,.128-.178.3.3,0,0,1,.388.093.291.291,0,0,1,.034.217.286.286,0,0,1-.119.173A.291.291,0,0,1,12.129,300.932Zm-5.588,6.585a.3.3,0,0,1,.041.219.262.262,0,0,1-.127.171.269.269,0,0,1-.219.04.283.283,0,0,1-.212-.345.3.3,0,0,1,.127-.171A.3.3,0,0,1,6.541,307.516Zm3.873-16.661a.29.29,0,0,1-.034-.217.272.272,0,0,1,.127-.172.285.285,0,0,1,.389.093.272.272,0,0,1,.034.21.26.26,0,0,1-.126.171.253.253,0,0,1-.211.042A.29.29,0,0,1,10.413,290.856ZM8.341,298.8a.291.291,0,0,1,.033.217.262.262,0,0,1-.126.171.266.266,0,0,1-.217.033.317.317,0,0,1-.173-.119.291.291,0,0,1-.034-.217.261.261,0,0,1,.126-.171A.292.292,0,0,1,8.341,298.8Zm3.349,6.03a.3.3,0,0,1,.034.217.272.272,0,0,1-.126.171.3.3,0,0,1-.218.041.254.254,0,0,1-.169-.134.28.28,0,0,1-.042-.211.312.312,0,0,1,.135-.177A.3.3,0,0,1,11.69,304.831Zm-.13-2.495a.272.272,0,0,1,.034.21.261.261,0,0,1-.126.171.257.257,0,0,1-.219.04.286.286,0,0,1-.171-.126.29.29,0,0,1-.034-.217.273.273,0,0,1,.127-.172A.285.285,0,0,1,11.561,302.336ZM11.4,294a.291.291,0,0,1-.034-.217.261.261,0,0,1,.127-.171.3.3,0,0,1,.39.086.287.287,0,0,1,.033.217.261.261,0,0,1-.126.171.243.243,0,0,1-.211.042A.28.28,0,0,1,11.4,294Zm-2.823,1.377a.3.3,0,0,1,.033.217.261.261,0,0,1-.126.171.28.28,0,0,1-.211.043.327.327,0,0,1-.179-.128.291.291,0,0,1-.034-.217.3.3,0,0,1,.128-.178A.3.3,0,0,1,8.581,295.374Zm2.172,1.828a.272.272,0,0,1-.086.389.288.288,0,0,1-.4-.095.27.27,0,0,1-.035-.21.29.29,0,0,1,.128-.178A.3.3,0,0,1,10.753,297.2Zm-5.476,7.115a.272.272,0,0,1,.034.21.294.294,0,0,1-.345.211.286.286,0,0,1-.171-.126.289.289,0,0,1-.034-.217.271.271,0,0,1,.127-.171A.292.292,0,0,1,5.278,304.317Zm-2.35-5.357a.273.273,0,0,1,.035.209.271.271,0,0,1-.338.214.26.26,0,0,1-.171-.127.255.255,0,0,1-.041-.219.286.286,0,0,1,.127-.171A.291.291,0,0,1,2.928,298.96Zm.389-2.107a.291.291,0,0,1-.034-.217.272.272,0,0,1,.128-.178.3.3,0,0,1,.388.093.3.3,0,0,1,.034.217.293.293,0,0,1-.127.171.3.3,0,0,1-.218.041A.3.3,0,0,1,3.316,296.854Zm3.662-2.585a.281.281,0,0,1,.109-.038.311.311,0,0,1,.112.007.254.254,0,0,1,.167.124.255.255,0,0,1,.043.212h0a.27.27,0,0,1-.046.1.283.283,0,0,1-.081.073.256.256,0,0,1-.107.044.278.278,0,0,1-.212-.05.348.348,0,0,1-.079-.082.3.3,0,0,1-.034-.107.32.32,0,0,1,.008-.108h0a.291.291,0,0,1,.045-.1A.321.321,0,0,1,6.979,294.269Zm.424-3.678a.277.277,0,0,1,.033.217.27.27,0,0,1-.126.171.287.287,0,0,1-.21.036.291.291,0,0,1-.179-.129.269.269,0,0,1-.035-.209.283.283,0,0,1,.517-.085Zm11.255,19.686a.281.281,0,0,1,.033.217.319.319,0,0,1-.119.173.291.291,0,0,1-.4-.095.284.284,0,0,1-.035-.209.315.315,0,0,1,.128-.179A.3.3,0,0,1,18.658,310.278Zm-2.824,5.132a.292.292,0,0,1,.033.217.317.317,0,0,1-.118.173.293.293,0,0,1-.218.034.283.283,0,1,1,.3-.424Zm.736-1.132a.285.285,0,0,1,.217-.027.3.3,0,0,1,.1.044.2.2,0,0,1,.066.073.324.324,0,0,1,.042.1.266.266,0,0,1,0,.116.286.286,0,0,1-.343.2.263.263,0,0,1-.1-.046.292.292,0,0,1-.111-.185.277.277,0,0,1,0-.106.291.291,0,0,1,.047-.1A.279.279,0,0,1,16.57,314.278Zm-5.456-5.225a.29.29,0,0,1,.033.217.285.285,0,0,1-.126.171.277.277,0,0,1-.217.033.284.284,0,0,1-.206-.336.29.29,0,0,1,.128-.179A.3.3,0,0,1,11.114,309.052Zm7.3,7.7a.272.272,0,0,1,.035.211.287.287,0,0,1-.118.173.271.271,0,0,1-.219.04.26.26,0,0,1-.171-.126.268.268,0,0,1-.041-.218.272.272,0,0,1,.127-.172A.291.291,0,0,1,18.415,316.756Zm-6.286-5.284a.289.289,0,0,1,.034.217.3.3,0,0,1-.118.173.294.294,0,0,1-.218.034.289.289,0,0,1-.178-.129.273.273,0,0,1-.035-.209.29.29,0,0,1,.128-.178A.3.3,0,0,1,12.13,311.472Zm5.012-2.138a.274.274,0,0,1,.041.219.271.271,0,0,1-.127.171.29.29,0,0,1-.4-.095.272.272,0,0,1,.091-.381A.286.286,0,0,1,17.142,309.334Zm-.348-7.634a.279.279,0,0,1,.033.218.3.3,0,0,1-.118.172.29.29,0,0,1-.4-.095.272.272,0,0,1-.035-.209.28.28,0,0,1,.128-.179A.3.3,0,0,1,16.793,301.7Zm-1.976-2.649a.271.271,0,0,1,.035.21.29.29,0,0,1-.126.171.267.267,0,0,1-.218.04.272.272,0,0,1-.171-.126.292.292,0,0,1-.034-.217.273.273,0,0,1,.127-.171A.284.284,0,0,1,14.817,299.05Zm2.8-.43a.283.283,0,1,1,.549.132.285.285,0,0,1-.336.206.288.288,0,0,1-.178-.128A.27.27,0,0,1,17.616,298.621Zm-1.571,6.819a.288.288,0,0,1,.033.216.27.27,0,0,1-.125.171.267.267,0,0,1-.218.034.287.287,0,0,1-.171-.127.272.272,0,0,1-.035-.209.291.291,0,0,1,.128-.178A.3.3,0,0,1,16.045,305.44Z" transform="translate(45.803 -269.397)"/><path class="d" d="M48.7,318.9a.291.291,0,0,1,.034.217.284.284,0,0,1-.023.049c0-.014-.007-.027-.01-.04-.017-.084-.025-.168-.039-.252C48.674,318.889,48.693,318.89,48.7,318.9Z" transform="translate(-1.66 -287.134)"/><g transform="translate(10.052 12.92)"><g transform="translate(0 0)"><path class="e" d="M107.6,270.41a2.257,2.257,0,0,0-.146,1.833,2.007,2.007,0,0,0,.807,1.046c2.941,2.471,5.849,3.233,9.616,3.317a2.5,2.5,0,0,0,1.756-.333,1.706,1.706,0,0,0-.868-3.159,12.455,12.455,0,0,1-8.634-3.324,1.3,1.3,0,0,0-1.546-.258,1.579,1.579,0,0,0-.984.878Z" transform="translate(-105.501 -269.201)"/><g transform="translate(0.914 1.28)"><path class="e" d="M110.03,273.314a2.257,2.257,0,0,0-.146,1.833,2.008,2.008,0,0,0,.807,1.046c2.941,2.471,5.849,3.233,9.616,3.317a2.5,2.5,0,0,0,1.756-.332,1.707,1.707,0,0,0-.868-3.159,12.452,12.452,0,0,1-8.634-3.324,1.3,1.3,0,0,0-1.546-.258,1.581,1.581,0,0,0-.984.878Z" transform="translate(-109.754 -272.291)"/></g><path class="e" d="M112.456,276.219a2.256,2.256,0,0,0-.146,1.833,2.009,2.009,0,0,0,.807,1.047c2.941,2.471,5.849,3.232,9.616,3.317a2.5,2.5,0,0,0,1.756-.332,1.707,1.707,0,0,0-.868-3.159,12.456,12.456,0,0,1-8.634-3.325,1.3,1.3,0,0,0-1.546-.258,1.581,1.581,0,0,0-.984.878Z" transform="translate(-112.18 -272.822)"/><g transform="translate(1.623 2.105)"><path class="f" d="M130,274.484a.2.2,0,0,1,.162.2,2.121,2.121,0,0,0,.513,1.171,9.124,9.124,0,0,0,3.828,2.606.208.208,0,0,1,.1.276.218.218,0,0,1-.272.121,9.471,9.471,0,0,1-3.984-2.729,2.458,2.458,0,0,1-.595-1.418.224.224,0,0,1,.2-.226A.185.185,0,0,1,130,274.484Z" transform="translate(-129.756 -274.482)"/></g><g transform="translate(0.607 3.173)"><path class="f" d="M132.7,277.32a.2.2,0,0,1,.163.2,2.112,2.112,0,0,0,.513,1.17,9.105,9.105,0,0,0,3.828,2.606.207.207,0,0,1,.1.276.218.218,0,0,1-.272.121,9.448,9.448,0,0,1-3.985-2.729,2.453,2.453,0,0,1-.595-1.417.225.225,0,0,1,.2-.226A.2.2,0,0,1,132.7,277.32Z" transform="translate(-132.452 -277.318)"/></g><g transform="translate(8.933 9.137)"><path class="f" d="M121.081,293.47a.221.221,0,0,1-.154.1,3.76,3.76,0,0,1-.945,0,.191.191,0,0,1-.161-.231.221.221,0,0,1,.238-.18,3.323,3.323,0,0,0,.845,0,.189.189,0,0,1,.214.18A.219.219,0,0,1,121.081,293.47Z" transform="translate(-119.818 -293.155)"/></g><g transform="translate(1.914)"><path class="f" d="M118.53,274.923a.19.19,0,0,1-.126-.1c-.244-.5-1.653-1.828-2.274-1.828a12.6,12.6,0,0,1-8.755-3.369,1.118,1.118,0,0,0-1.364-.224c-.484.165-.583.32-.874.782a.2.2,0,0,1-.209.091h0l-.015,0a.172.172,0,0,1-.134-.152.2.2,0,0,1,0-.066.217.217,0,0,1,.049-.093,1.731,1.731,0,0,1,1.059-.916,1.484,1.484,0,0,1,1.727.292,12.262,12.262,0,0,0,8.514,3.28c.83,0,2.34,1.485,2.612,2.039a.189.189,0,0,1-.087.252A.193.193,0,0,1,118.53,274.923Z" transform="translate(-104.777 -268.893)"/></g></g><path class="e" d="M105.693,282.272l-9.625,4.865,3.548,6.517,9.4-6.044Z" transform="translate(-89.841 -277.233)"/><path class="c" d="M75.153,290.156a.384.384,0,0,0-.116.536C82.418,302.04,83,306.162,87.725,307.9c1.588.582,4.075-.736,5.346-1.79h0a5.517,5.517,0,0,0,.662-7.808c-1.263-1.53-7.48-11.792-8.667-13.757a.378.378,0,0,0-.522-.125Z" transform="translate(-67.924 -278.534)"/><path class="c" d="M26.085,312.089a6.327,6.327,0,0,0,8.039,3.505L52.3,308.566a5.913,5.913,0,0,0,3.265-7.878h0a6.328,6.328,0,0,0-8.04-3.506L29.35,304.211a5.748,5.748,0,0,0-3.339,7.693l.074.186Z" transform="translate(-10.307 -286.275)"/><path class="d" d="M50.966,304.572a.29.29,0,0,1,.034.217.271.271,0,0,1-.126.171.275.275,0,0,1-.21.036.282.282,0,1,1,.3-.424Zm1.976,2.069a.288.288,0,0,1,.033.216.3.3,0,0,1-.127.178.287.287,0,0,1-.21.035.3.3,0,0,1-.177-.136.274.274,0,0,1-.035-.209.29.29,0,0,1,.128-.178A.3.3,0,0,1,52.941,306.641Zm.921-3.845a.286.286,0,0,1-.3.43.328.328,0,0,1-.179-.128.285.285,0,0,1,.483-.3Zm-1.3-6.12a.3.3,0,0,1,.041.218.293.293,0,0,1-.127.171.3.3,0,0,1-.218.041.3.3,0,0,1-.171-.127.283.283,0,0,1-.035-.169l.466-.18A.247.247,0,0,1,52.563,296.676ZM47.4,303.718a.291.291,0,0,1,.034.217.271.271,0,0,1-.127.171.288.288,0,0,1-.217.034.285.285,0,0,1-.206-.337.282.282,0,0,1,.516-.085Zm1.839-4.06a.267.267,0,0,1,.034.218.27.27,0,0,1-.126.171.284.284,0,0,1-.21.035.3.3,0,0,1-.178-.128.286.286,0,0,1-.035-.21.278.278,0,0,1,.128-.178A.291.291,0,0,1,49.238,299.658Zm1.609-.281a.261.261,0,0,1,.126-.171.288.288,0,0,1,.382.084.294.294,0,0,1,.041.218.291.291,0,0,1-.126.171.3.3,0,0,1-.218.041.307.307,0,0,1-.171-.127A.289.289,0,0,1,50.847,299.378Zm-1.973,8.465a.292.292,0,0,1,.033.217.324.324,0,0,1-.121.18.306.306,0,0,1-.217.033.275.275,0,0,1-.171-.126.3.3,0,0,1-.041-.218.293.293,0,0,1,.127-.172A.3.3,0,0,1,48.874,307.843Zm-4.924,3.615a.283.283,0,0,1,.026.215.3.3,0,0,1-.12.18.3.3,0,0,1-.218.034.272.272,0,0,1-.171-.127.292.292,0,0,1-.033-.217.321.321,0,0,1,.12-.18A.3.3,0,0,1,43.95,311.458Zm21.9-15.084a.3.3,0,0,1,.033.217.261.261,0,0,1-.126.171.28.28,0,0,1-.211.043.327.327,0,0,1-.179-.128.291.291,0,0,1-.034-.217.3.3,0,0,1,.128-.178A.3.3,0,0,1,65.855,296.374Zm-3.3,8.944a.272.272,0,0,1,.034.21.294.294,0,0,1-.345.211.286.286,0,0,1-.171-.126.289.289,0,0,1-.034-.217.271.271,0,0,1,.127-.171A.292.292,0,0,1,62.552,305.317Zm1.7-10.048a.28.28,0,0,1,.109-.038.312.312,0,0,1,.112.007.254.254,0,0,1,.167.124.257.257,0,0,1,.045.1.255.255,0,0,1,0,.109h0a.27.27,0,0,1-.046.1.283.283,0,0,1-.081.073.255.255,0,0,1-.107.044.279.279,0,0,1-.212-.05.349.349,0,0,1-.079-.082.3.3,0,0,1-.034-.107.32.32,0,0,1,.008-.108h0a.292.292,0,0,1,.045-.1A.32.32,0,0,1,64.253,295.269Zm1.362,4.532a.291.291,0,0,1,.033.217.262.262,0,0,1-.126.171.266.266,0,0,1-.217.033.316.316,0,0,1-.173-.119.291.291,0,0,1-.034-.217.261.261,0,0,1,.126-.171A.292.292,0,0,1,65.615,299.8Zm-10.938-.668a.3.3,0,0,1,.128-.178.29.29,0,0,1,.388.093.3.3,0,0,1,.034.217.26.26,0,0,1-.126.171.245.245,0,0,1-.209.035.281.281,0,0,1-.18-.12A.3.3,0,0,1,54.677,299.133Zm3.211,6.028a.29.29,0,0,1,.033.217.255.255,0,0,1-.119.173.274.274,0,0,1-.389-.086.29.29,0,0,1-.034-.217.261.261,0,0,1,.127-.171A.289.289,0,0,1,57.888,305.161Zm2.314-5.2a.273.273,0,0,1,.035.209.271.271,0,0,1-.338.214.26.26,0,0,1-.171-.127.255.255,0,0,1-.041-.219.286.286,0,0,1,.127-.171A.291.291,0,0,1,60.2,299.96Zm.389-2.107a.29.29,0,0,1-.034-.217.272.272,0,0,1,.128-.178.3.3,0,0,1,.388.093.3.3,0,0,1,.034.217.293.293,0,0,1-.127.171.3.3,0,0,1-.218.041A.3.3,0,0,1,60.591,297.854Zm-2.078,4.313a.291.291,0,0,1,.034.217.284.284,0,0,1-.338.213.3.3,0,0,1-.176-.135.273.273,0,0,1-.035-.21.282.282,0,0,1,.516-.085Zm-21.337-3.073a.278.278,0,0,1,.034.217.271.271,0,0,1-.127.171.26.26,0,0,1-.209.035.288.288,0,0,1-.178-.128.284.284,0,0,1-.035-.21.282.282,0,0,1,.516-.086Zm-2.634-5.881a.282.282,0,0,1-.026-.215.265.265,0,0,1,.119-.173.294.294,0,0,1,.4.095.273.273,0,0,1,.035.21.3.3,0,0,1-.128.178.292.292,0,0,1-.4-.095Zm-.469,10.366a.291.291,0,0,1,.034.218.271.271,0,0,1-.291.207l-.23-.4a.282.282,0,0,1,.1-.117A.291.291,0,0,1,34.073,303.578Zm4.475-11.412a.273.273,0,0,1,.035.21.3.3,0,0,1-.128.178.29.29,0,0,1-.217.034.254.254,0,0,1-.169-.134.246.246,0,0,1-.035-.209.279.279,0,0,1,.514-.078Zm-2.992,2.761a.269.269,0,0,1,.041.218.292.292,0,0,1-.127.171.3.3,0,0,1-.218.041.283.283,0,0,1-.2-.343.286.286,0,0,1,.119-.173A.291.291,0,0,1,35.556,294.927Zm-6.012,1.465a.269.269,0,0,1,.041.218.29.29,0,0,1-.114.165c-.1-.155-.2-.316-.3-.474A.289.289,0,0,1,29.544,296.392Zm3.861,2.667a.3.3,0,0,1,.041.218.262.262,0,0,1-.127.171.3.3,0,0,1-.218.041.279.279,0,0,1-.169-.134.272.272,0,0,1-.035-.209.259.259,0,0,1,.127-.171A.288.288,0,0,1,33.4,299.059ZM32.183,296.3a.272.272,0,0,1,.035.21.261.261,0,0,1-.126.171.248.248,0,0,1-.219.04.271.271,0,0,1-.171-.126.289.289,0,0,1-.034-.217.273.273,0,0,1,.127-.171A.285.285,0,0,1,32.183,296.3Zm11.457,1.139a.288.288,0,0,1-.18.021.285.285,0,0,1-.206-.337.288.288,0,0,1,.1-.149Zm-2.6,11.824a.271.271,0,0,1,.035.21.291.291,0,0,1-.126.171.274.274,0,0,1-.389-.086.3.3,0,0,1-.041-.218.254.254,0,0,1,.134-.17A.284.284,0,0,1,41.036,309.265Zm-2.177-13.547a.3.3,0,0,1,.034.216.26.26,0,0,1-.126.171.3.3,0,0,1-.219.041.3.3,0,0,1-.171-.127.289.289,0,0,1-.034-.217.275.275,0,0,1,.127-.171A.283.283,0,0,1,38.859,295.718Zm4.773,5.038a.274.274,0,0,1-.035-.209.282.282,0,1,1,.549.131.284.284,0,0,1-.345.212A.252.252,0,0,1,43.632,300.756Zm2.3.575a.288.288,0,0,1,.034.217.292.292,0,0,1-.128.178.27.27,0,0,1-.21.035.259.259,0,0,1-.171-.126.269.269,0,0,1-.041-.218.263.263,0,0,1,.127-.172A.3.3,0,0,1,45.933,301.33Zm-3.053,3.048a.278.278,0,0,1,.034.217.259.259,0,0,1-.127.171.286.286,0,0,1-.21.036.261.261,0,0,1-.171-.127.242.242,0,0,1-.042-.211.283.283,0,0,1,.516-.085Zm1.638,2.862a.281.281,0,0,1-.093.388.271.271,0,0,1-.209.035.259.259,0,0,1-.171-.126.255.255,0,0,1-.041-.219.271.271,0,0,1,.127-.171A.291.291,0,0,1,44.518,307.241Zm-7.311-4.655a.273.273,0,0,1-.086.39.287.287,0,0,1-.217.034.271.271,0,0,1-.171-.126.259.259,0,0,1-.035-.21.277.277,0,0,1,.128-.179A.282.282,0,0,1,37.207,302.586Zm.9,4.135a.287.287,0,0,1,.041.218.294.294,0,0,1-.127.171.29.29,0,0,1-.217.034.274.274,0,0,1-.171-.127.27.27,0,0,1-.043-.211.315.315,0,0,1,.128-.178A.3.3,0,0,1,38.107,306.721Z" transform="translate(-21.523 -283.317)"/><g transform="translate(22.859 15.864)"><path class="f" d="M84.371,314.418a.189.189,0,0,1-.143-.208l.4-3.027a.19.19,0,0,1,.212-.162.187.187,0,0,1,.162.212l-.4,3.028a.189.189,0,0,1-.212.162Z" transform="translate(-84.227 -311.019)"/></g><rect class="g" width="11.069" height="1.902" rx="0.951" transform="translate(16.617 5.917) rotate(149.482)"/><g transform="translate(6.971 5.74)"><path class="f" d="M102.653,290.195a.188.188,0,0,1-.054-.344l9.4-5.689a.188.188,0,0,1,.2.322l-9.4,5.688A.191.191,0,0,1,102.653,290.195Z" transform="translate(-102.509 -284.135)"/></g></g><path class="h" d="M.018,278.979c.453-.269,3.05.228,6.229,1.22,1.654.516,3.121,1.047,4.137,1.482v.8a43.78,43.78,0,0,1-4.482-1.18C2.723,280.314-.258,279.143.018,278.979Z" transform="translate(55.024 -262.216)"/><g transform="translate(8.091 6.057)"><rect class="i" width="5.483" height="7.922" rx="2.742" transform="translate(22.414 12.829) rotate(-166.535)"/><rect class="i" width="5.483" height="2.006" rx="1.003" transform="matrix(-0.973, -0.233, 0.233, -0.973, 23.515, 5.808)"/><rect class="i" width="6.044" height="5.483" rx="2.583" transform="matrix(-0.973, -0.233, 0.233, -0.973, 18.738, 11.006)"/><rect class="j" width="1.77" height="5.874" rx="0.885" transform="translate(15.753 10.492) rotate(-166.536)"/><path class="j" d="M4.26,0H9.285a4.26,4.26,0,0,1,4.26,4.26v0a4.26,4.26,0,0,1-4.26,4.26H4.26A4.26,4.26,0,0,1,0,4.26v0A4.26,4.26,0,0,1,4.26,0Z" transform="translate(14.032 11.441) rotate(-166.534)"/><g transform="translate(17.153 3.887)"><path class="f" d="M90.3,267.755a.188.188,0,0,1-.139-.227l1.326-5.539a1.3,1.3,0,0,1,1.57-.963l3.166.758a.188.188,0,1,1-.088.366l-3.166-.758a.927.927,0,0,0-1.116.684l-1.326,5.539A.189.189,0,0,1,90.3,267.755Z" transform="translate(-90.16 -260.991)"/></g><g transform="translate(8.387 1.871)"><path class="f" d="M124.091,263.85a.189.189,0,0,1-.139-.227l1.877-7.841a.188.188,0,0,1,.366.088l-1.878,7.841A.189.189,0,0,1,124.091,263.85Z" transform="translate(-123.946 -255.637)"/></g><g transform="translate(6.695 1.643)"><g transform="translate(1.817)"><path class="f" d="M126.563,255.718l-1.317-.315a.188.188,0,0,1,.088-.366l1.317.315a.188.188,0,1,1-.088.366Z" transform="translate(-125.102 -255.031)"/></g><g transform="translate(1.453 1.518)"><path class="f" d="M127.529,259.748l-1.317-.315a.188.188,0,0,1,.088-.366l1.317.316a.188.188,0,1,1-.088.366Z" transform="translate(-126.067 -259.061)"/></g><g transform="translate(1.09 3.036)"><path class="f" d="M128.494,263.779l-1.317-.316a.188.188,0,1,1,.088-.366l1.317.315a.188.188,0,0,1-.088.366Z" transform="translate(-127.032 -263.092)"/></g><g transform="translate(0.727 4.553)"><path class="f" d="M129.459,267.809l-1.317-.315a.188.188,0,0,1,.088-.366l1.317.316a.188.188,0,1,1-.088.366Z" transform="translate(-127.997 -267.122)"/></g><g transform="translate(0.363 6.071)"><path class="f" d="M130.423,271.838l-1.317-.315a.188.188,0,0,1,.088-.366l1.317.315a.188.188,0,1,1-.088.366Z" transform="translate(-128.962 -271.151)"/></g><g transform="translate(0 7.588)"><path class="f" d="M131.388,275.868l-1.317-.315a.188.188,0,0,1,.088-.366l1.317.315a.188.188,0,1,1-.088.366Z" transform="translate(-129.927 -275.182)"/></g></g><rect class="i" width="1.503" height="7.686" rx="0.751" transform="translate(1.462 8.002) rotate(-166.535)"/><g transform="translate(14.151 4.322)"><path class="f" d="M110.309,267.958a.189.189,0,0,1-.139-.227l1.3-5.442a.188.188,0,1,1,.366.088l-1.3,5.442A.189.189,0,0,1,110.309,267.958Z" transform="translate(-110.165 -262.144)"/></g><g transform="translate(0.088 0.211)"><path class="f" d="M146.834,258.328a.189.189,0,0,1-.139-.227l1.611-6.727a.188.188,0,1,1,.366.088l-1.611,6.727A.189.189,0,0,1,146.834,258.328Z" transform="translate(-146.689 -251.229)"/></g></g><g transform="translate(39.296 0)"><path class="f" d="M27.419,268.138a.913.913,0,0,1-.465.284c-1.087.375-2.841-.069-3.986-.3a10.692,10.692,0,0,1-3.511-1.249c-.377-.234-.734-.535-.759-.871-.049-.662,1.032-.551,1.664-.467a24.583,24.583,0,0,1,4.975,1.125C25.951,266.883,27.788,267.6,27.419,268.138Z" transform="translate(-8.396 -253.842)"/><path class="e" d="M37.558,276.735l-3.048-6.25-3.966,1.428-.024,6.452c-.009,2.566,1.018,3.979,2.8,4.143C35.767,282.733,38.711,279.1,37.558,276.735Z" transform="translate(-23.197 -256.966)"/><g transform="translate(7.19 19.57)"><path class="f" d="M32.229,292.587c-1.793-.429-2.109-1.6-2.311-3.777l-.016-1.446a.187.187,0,0,1,.186-.19.184.184,0,0,1,.19.186l.015,1.431c.214,2.3.522,3.269,2.619,3.536a4.055,4.055,0,0,0,3.369-1.976,3.547,3.547,0,0,0,.674-3.527.189.189,0,1,1,.339-.165,3.907,3.907,0,0,1-.707,3.912c-.853,1.188-2.334,2.308-3.723,2.13A6.15,6.15,0,0,1,32.229,292.587Z" transform="translate(-29.902 -286.553)"/></g><g transform="translate(0 3.716)"><path class="e" d="M32.832,248.46c2.029-1.812,5.471-1.06,7.709-.045a5.062,5.062,0,0,1,3.19,4.641A12.1,12.1,0,0,1,41.691,259l-.453.775a7.65,7.65,0,0,1-5.662,3.824,5.956,5.956,0,0,1-4.648-1.312c-2.713-2.338-.2-4.871-.585-7.7a5.687,5.687,0,0,1,.34-2.408A8.239,8.239,0,0,1,32.832,248.46Z" transform="translate(-28.786 -246.266)"/><g transform="translate(7.821 14.977)"><path class="f" d="M38.948,286.544a.188.188,0,0,1,.006-.368,7.4,7.4,0,0,0,3.211-1.9.188.188,0,1,1,.258.273,7.776,7.776,0,0,1-3.393,2A.188.188,0,0,1,38.948,286.544Z" transform="translate(-38.804 -284.223)"/></g><path class="h" d="M62.961,265.034a.366.366,0,0,1,.136.343.411.411,0,0,1-.468.332.376.376,0,0,1-.324-.424.411.411,0,0,1,.468-.332.4.4,0,0,1,.189.082Z" transform="translate(-60.45 -257.23)"/><path class="h" d="M53.668,267.259a.365.365,0,0,1,.136.343.411.411,0,0,1-.468.332.375.375,0,0,1-.324-.424.411.411,0,0,1,.468-.332.394.394,0,0,1,.189.082Z" transform="translate(-47.658 -258.617)"/><g transform="translate(2.311 8.022)"><path class="f" d="M58.352,269.82a2.562,2.562,0,0,1-.355-.114.519.519,0,0,1-.307-.337,2.678,2.678,0,0,1,.516-1.758c.282-.434.42-.627.55-.809.15-.209.291-.406.641-.959a.188.188,0,1,1,.318.2c-.355.564-.5.765-.653.978-.127.178-.264.368-.54.794a2.346,2.346,0,0,0-.471,1.439.141.141,0,0,0,.086.1c.2.08.7.246.962.044a.189.189,0,0,1,.229.3A1.16,1.16,0,0,1,58.352,269.82Z" transform="translate(-57.654 -265.755)"/></g><path class="e" d="M31.008,269.629a1.481,1.481,0,0,1,1.056,1.623,1.575,1.575,0,0,1-1.662,1.486,1.32,1.32,0,0,1-.2-.035l.81-3.074Z" transform="translate(-17.331 -260.148)"/><g transform="translate(13.131 10.514)"><path class="f" d="M32.38,273.491a.182.182,0,0,1-.1-.068.653.653,0,0,1,.57-1.05.188.188,0,1,1-.031.375.276.276,0,0,0-.242.444.188.188,0,0,1-.192.3Z" transform="translate(-32.14 -272.372)"/></g><g transform="translate(5.91 7.194)"><path class="f" d="M50.54,264.468a.181.181,0,0,1-.077-.039,2.471,2.471,0,0,0-1.2-.5.188.188,0,0,1-.069-.371,2.7,2.7,0,0,1,1.513.578.188.188,0,0,1-.165.327Z" transform="translate(-49.037 -263.554)"/></g><g transform="translate(7.876 8.333)"><path class="f" d="M36.211,268.7a.249.249,0,0,0,.162-.22c0-.263-.325-.786-1.558-1.082l-.022-.005c-1.4-.329-5.324-.789-5.49-.808a.188.188,0,0,0-.209.165.194.194,0,0,0,.165.209c.04,0,4.067.476,5.448.8,1.029.238,1.247.611,1.282.7a.193.193,0,0,0,0,.1.187.187,0,0,0,.14.142A.178.178,0,0,0,36.211,268.7Zm-.083-.367Z" transform="translate(-29.093 -266.58)"/></g><g transform="translate(1.809 6.352)"><path class="f" d="M60.53,261.69a.188.188,0,0,1,.041-.371,2.075,2.075,0,0,1,1.311.325.188.188,0,0,1-.244.286,1.707,1.707,0,0,0-1.061-.235A.212.212,0,0,1,60.53,261.69Z" transform="translate(-60.386 -261.318)"/></g><g transform="translate(2.121)"><path class="k" d="M40.678,252.129c.234-.042.3-.325.252-.542a1.887,1.887,0,0,1-.151-.647c.024-.194.167-.384.09-.568a1.618,1.618,0,0,1-.107-.2.528.528,0,0,1,.052-.277.519.519,0,0,0-.4-.672.711.711,0,0,0-.386-.973.524.524,0,0,0-.171-.618,1.44,1.44,0,0,0-.671-.279.337.337,0,0,0-.054-.49.912.912,0,0,0-.556-.178c.073-.284-.322-.573-.6-.441.12-.638-.9-.371-1.21-.566-.213-.134-.242-.367-.51-.465-.071-.026-.687-.085-.657.07a.53.53,0,0,0-.767-.293.513.513,0,0,0-.832-.081.433.433,0,0,0-.7-.229.717.717,0,0,0-1.041,0c-.006-.14-.2-.224-.344-.177a.491.491,0,0,0-.281.306.743.743,0,0,0-.909.327.673.673,0,0,0-.87.354.521.521,0,0,0-.71.451.406.406,0,0,0-.579.14,1.041,1.041,0,0,1-.082.229.141.141,0,0,1-.035.033c-.058.04-.148.046-.183-.012-.148.124-.051.337-.006.535a.807.807,0,0,0-.427.073.685.685,0,0,0-.322.761c.023.105.055.256-.061.319-.138.075-.229-.041-.246.146-.021.227.027.545.324.607a.316.316,0,0,1,.073.019.352.352,0,0,1,.064.047.323.323,0,0,0,.313.041.264.264,0,0,0,.163-.244.362.362,0,0,0,.307-.136.308.308,0,0,0,.029-.316.468.468,0,0,0,.516-.163.667.667,0,0,0,.459.21c.054,0,.491-.044.473-.126a.375.375,0,0,0,.32.255.852.852,0,0,0,.431-.071.213.213,0,0,0,.1-.084.077.077,0,0,1-.018-.095c.043.018.041.057.018.095a.255.255,0,0,0,.106.068.744.744,0,0,0,.766-.19.623.623,0,0,0,.571.239,1.353,1.353,0,0,0,.593-.229.434.434,0,0,0,.251.432.492.492,0,0,0,.52-.067.467.467,0,0,0,.4.262c.126,0,.261-.124.367-.1s.166.187.244.256a.92.92,0,0,0,.468.185c.081.017.193-.059.263-.028s.085.135.156.174a.555.555,0,0,0,.243.053,3.851,3.851,0,0,0,.825-.043.35.35,0,0,0,.107.452.809.809,0,0,0,.513.146.683.683,0,0,0-.3.387c-.054.193.106.286.1.459,0,.233-.2.378-.1.638a.68.68,0,0,0,.561.419.4.4,0,0,0-.08.457.486.486,0,0,0,.43.255.41.41,0,0,0-.064.471.5.5,0,0,0,.45.249.291.291,0,0,0-.13.468.623.623,0,0,0,.571.166.319.319,0,0,0,.015.47.889.889,0,0,0,.517.208c-.083.1.014.265.148.31a.693.693,0,0,0,.413-.034.737.737,0,0,0,.306-.153.2.2,0,0,0-.026-.34.226.226,0,0,1,.139.047.276.276,0,0,0,.268-.135.267.267,0,0,0-.209-.35.476.476,0,0,0,.458-.262.431.431,0,0,0-.124-.492A.527.527,0,0,0,40.678,252.129Z" transform="translate(-27.198 -244.452)"/><g transform="translate(2.904 1.268)"><g class="l" transform="translate(5.362 2.027)"><path class="m" d="M39.819,253.971a.237.237,0,0,1-.171-.117.2.2,0,0,1,.1-.282.442.442,0,0,0,.23-.235.23.23,0,0,1,.294-.121.213.213,0,0,1,.139.274.862.862,0,0,1-.455.464A.245.245,0,0,1,39.819,253.971Z" transform="translate(-39.623 -253.201)"/></g><g class="l" transform="translate(0 0.694)"><path class="m" d="M53.873,250.793a.217.217,0,0,0,.235-.2.142.142,0,0,0,0-.018.61.61,0,0,0,.2-.163.573.573,0,0,0,.055-.623.243.243,0,0,0-.308-.1.2.2,0,0,0-.1.281.182.182,0,0,1-.017.191.218.218,0,0,1-.191.073.235.235,0,0,0-.191.056.2.2,0,0,0-.066.174.407.407,0,0,0,.342.329Zm.008-.424h0Z" transform="translate(-53.479 -249.662)"/></g><g class="l" transform="translate(2.27)"><path class="m" d="M48.453,248.773a.248.248,0,0,1-.083-.029.205.205,0,0,1-.081-.292.141.141,0,0,0,0-.125.164.164,0,0,0-.092-.1.213.213,0,0,1-.146-.271.23.23,0,0,1,.291-.127.618.618,0,0,1,.379.356.521.521,0,0,1-.038.489A.231.231,0,0,1,48.453,248.773Z" transform="translate(-48.042 -247.819)"/></g><g class="l" transform="translate(3.747 1.027)"><path class="m" d="M43.7,251.472a.262.262,0,0,1-.055-.015.358.358,0,0,1-.2-.22.368.368,0,0,1,.052-.33.688.688,0,0,1,.354-.218.442.442,0,0,0,.153-.068.244.244,0,0,1,.324-.025.2.2,0,0,1,.037.3.745.745,0,0,1-.347.194.662.662,0,0,0-.105.041.2.2,0,0,1,.039.222A.228.228,0,0,1,43.7,251.472Z" transform="translate(-43.419 -250.546)"/></g><g class="l" transform="translate(5.865 0.501)"><path class="m" d="M37.722,249.87a.247.247,0,0,1-.085-.031.205.205,0,0,1-.077-.293.953.953,0,0,1,.833-.4.234.234,0,0,1,.224.224.216.216,0,0,1-.236.2.5.5,0,0,0-.427.2A.232.232,0,0,1,37.722,249.87Z" transform="translate(-37.526 -249.15)"/></g><g class="l" transform="translate(7.328 1.671)"><path class="m" d="M34.936,253.156a.243.243,0,0,1-.152-.09.2.2,0,0,1,.052-.294.282.282,0,0,0,.094-.087.234.234,0,0,1-.209-.162.2.2,0,0,1,.162-.255.409.409,0,0,1,.347.081.421.421,0,0,1,.169.351.561.561,0,0,1-.293.423A.241.241,0,0,1,34.936,253.156Z" transform="translate(-34.712 -252.256)"/></g><g class="l" transform="translate(7.265 3.516)"><path class="m" d="M34.076,257.764a.225.225,0,0,1-.2-.22.216.216,0,0,1,.236-.2.659.659,0,0,0,.442-.138.248.248,0,0,1,.326.025.2.2,0,0,1-.017.3,1.144,1.144,0,0,1-.762.238Z" transform="translate(-33.88 -257.155)"/></g><g class="l" transform="translate(9 3.657)"><path class="m" d="M30.318,258.362a.232.232,0,0,1-.184-.148.7.7,0,0,0-.143-.232.237.237,0,0,1-.166,0,.213.213,0,0,1-.144-.273.283.283,0,0,1,.218-.176.481.481,0,0,1,.392.129,1.142,1.142,0,0,1,.279.427.2.2,0,0,1-.146.264A.252.252,0,0,1,30.318,258.362Z" transform="translate(-29.669 -257.531)"/></g><g class="l" transform="translate(8.174 4.799)"><path class="m" d="M32.114,261.189a.7.7,0,0,1-.49-.319.2.2,0,0,1,.093-.284.244.244,0,0,1,.312.093.232.232,0,0,0,.256.085.243.243,0,0,1,.3.114.2.2,0,0,1-.115.278A.689.689,0,0,1,32.114,261.189Z" transform="translate(-31.596 -260.562)"/></g><g class="l" transform="translate(8.732 6.118)"><path class="m" d="M30.444,264.72a.224.224,0,0,1-.2-.227.218.218,0,0,1,.244-.192.327.327,0,0,0,.291-.136.236.236,0,0,1,.315-.066.205.205,0,0,1,.081.292.782.782,0,0,1-.715.332Z" transform="translate(-30.249 -264.065)"/></g></g></g><g transform="translate(2.275 13.033)"><path class="f" d="M58.021,279.634a1.843,1.843,0,0,1-.525-.214.189.189,0,0,1-.064-.259.191.191,0,0,1,.259-.064,1.565,1.565,0,0,0,1.585,0,.327.327,0,0,1,.186-.035.212.212,0,0,1,.16.183.217.217,0,0,1-.112.205.189.189,0,0,1-.12.015A1.971,1.971,0,0,1,58.021,279.634Z" transform="translate(-57.406 -279.059)"/></g><g transform="translate(0 6.546)"><path class="f" d="M62.938,264.47l.414-1.727a.189.189,0,0,0-.139-.227l-2.823-.676a.189.189,0,0,0-.227.139l-.413,1.727a.189.189,0,0,0,.139.227l2.824.676A.189.189,0,0,0,62.938,264.47Zm-2.453-2.22,2.457.588-.326,1.361-2.457-.589Z" transform="translate(-59.743 -261.834)"/></g><g transform="translate(4.241 7.562)"><path class="f" d="M51.018,267.262l.413-1.727a.188.188,0,0,0-.139-.227l-3.221-.771a.188.188,0,0,0-.227.139l-.414,1.727a.189.189,0,0,0,.139.227l3.22.771A.189.189,0,0,0,51.018,267.262Zm-2.85-2.315,2.854.684-.326,1.361-2.854-.683Z" transform="translate(-47.426 -264.531)"/></g><g transform="translate(3.237 7.222)"><path class="f" d="M57.54,264.34,56.122,264a.188.188,0,1,1,.088-.366l1.418.34a.188.188,0,1,1-.088.366Z" transform="translate(-55.977 -263.629)"/></g></g><path class="k" d="M26.893,248.788c.057.014.115.026.172.038.152.032.4-.067.308-.2-.15.034-.11.283,0,.4a.836.836,0,0,0,1.227-.072.579.579,0,0,0,1.086.121.85.85,0,0,0,1.379.388.951.951,0,0,0,1.455.135.575.575,0,0,0,1.008.143.6.6,0,0,0,1.058.2.662.662,0,0,0,1.245.143.661.661,0,0,0,.635.435.7.7,0,0,0,.606-.5c-.233.111-.069.538.184.552s.462-.2.636-.4a.377.377,0,0,0-.034.532.658.658,0,0,0,.525.187,1.484,1.484,0,0,0,.794-.254c-.144.17.076.417.28.48a1.5,1.5,0,0,0,1.34-.247.353.353,0,0,0,.343.443.563.563,0,0,0,.46-.424,1.509,1.509,0,0,0,.008-.677.592.592,0,0,0,.193-.907.64.64,0,0,0-.087-1.031.473.473,0,0,0,.239-.466,1.344,1.344,0,0,0-.18-.523,1.088,1.088,0,0,1-.129-.341,1.987,1.987,0,0,1,.006-.331,1.2,1.2,0,0,0-.815-1.178c.09-.136.005-.319-.084-.453a3.414,3.414,0,0,0-2-1.48,2.073,2.073,0,0,0-2.387.214A3.552,3.552,0,0,0,35,242.229a1.332,1.332,0,0,0-1.671.67c.025.293.28.352.4.092-.923-.963-2.263-.746-3.285.532a5.642,5.642,0,0,1-.56.671c-.55.49-1.056.3-1.6.607a4.53,4.53,0,0,0-1.262.718c-.186.236-.153.679.124.761a.694.694,0,0,0-.784.586,1.129,1.129,0,0,0,.371,1c-.158-.124-.412.019-.457.224a.546.546,0,0,0,.236.534A1.092,1.092,0,0,0,26.893,248.788Z" transform="translate(-25.796 -239.289)"/><g transform="translate(7.085 8.902)"><path class="f" d="M47.965,259.6a1.206,1.206,0,0,1-.606-.33.8.8,0,0,1-.131-.963.191.191,0,0,1,.26-.057.189.189,0,0,1,.057.26.435.435,0,0,0,.087.5.969.969,0,0,0,.6.253.183.183,0,0,1,.167.207.188.188,0,0,1-.207.168A1.84,1.84,0,0,1,47.965,259.6Z" transform="translate(-47.12 -258.224)"/></g><path class="n" d="M6.537,0H8.892a6.536,6.536,0,0,1,6.536,6.536v0a.518.518,0,0,1-.518.518H.518A.518.518,0,0,1,0,6.537v0A6.537,6.537,0,0,1,6.537,0Z" transform="translate(4.426 0) rotate(23.692)"/><g transform="translate(1.53 6.167)"><path class="n" d="M18.364,251.817a.449.449,0,0,1,.357-.824l16.9,7.214h0a.449.449,0,0,1-.357.824l-16.9-7.214Z" transform="translate(-18.112 -250.96)"/></g><g transform="translate(1.912 5.524)"><path class="f" d="M46.507,254.222h0L36.4,249.683a.225.225,0,0,1,.182-.41h0l10.107,4.539a.225.225,0,0,1-.182.41Z" transform="translate(-36.274 -249.255)"/></g><path class="n" d="M.316,0h.819a.316.316,0,0,1,.316.316v0a.316.316,0,0,1-.316.316H.316A.316.316,0,0,1,0,.316v0A.316.316,0,0,1,.316,0Z" transform="matrix(0.916, 0.402, -0.402, 0.916, 10.986, 2.392)"/><g transform="translate(11.584 3.201)"><path class="f" d="M32.246,250.781l.017.008a.222.222,0,0,0,.285-.126c1.914-4.6-1.223-6.909-1.255-6.932l-1.067-.618a.217.217,0,0,0-.3.087.221.221,0,0,0,.075.3l1.051.607c.1.075,2.87,2.13,1.1,6.391A.218.218,0,0,0,32.246,250.781Z" transform="translate(-29.898 -243.086)"/></g><g transform="translate(1.315 7.794)"><path class="f" d="M63.292,256.66a1.218,1.218,0,0,1-.609-.329.8.8,0,0,1-.131-.963.188.188,0,0,1,.318.2.438.438,0,0,0,.087.5.987.987,0,0,0,.6.252.188.188,0,0,1-.041.374A1.8,1.8,0,0,1,63.292,256.66Z" transform="translate(-62.445 -255.281)"/></g><g transform="translate(2.966 7.832)"><path class="f" d="M59.47,256.92a.189.189,0,0,0,.185-.192.876.876,0,0,1,.082-.348.737.737,0,0,0,.021-.642,1.132,1.132,0,0,0-.694-.355.227.227,0,0,0-.213.131.188.188,0,0,0,.094.249.178.178,0,0,0,.15,0,2.163,2.163,0,0,1,.324.137c.053.108.027.183-.035.342a1.236,1.236,0,0,0-.107.492.189.189,0,0,0,.145.179A.217.217,0,0,0,59.47,256.92Zm-.276-1.251h0Z" transform="translate(-58.835 -255.382)"/></g><g transform="translate(4.697 8.896)"><path class="f" d="M53.795,258.966h0a.816.816,0,0,1-.568-.5.188.188,0,0,1,.353-.13.43.43,0,0,0,.7.167.189.189,0,0,1,.256.278A.814.814,0,0,1,53.795,258.966Z" transform="translate(-53.212 -258.207)"/></g><g transform="translate(13.59 12.317)"><path class="f" d="M30.176,268.052a.818.818,0,0,1-.569-.505.188.188,0,0,1,.354-.13.455.455,0,0,0,.7.167.188.188,0,0,1,.254.277A.817.817,0,0,1,30.176,268.052Z" transform="translate(-29.595 -267.293)"/></g></g><path class="c" d="M34.051,284.843q-1.963,1.3-3.8,2.745c-.537.423-1.213.93-1.95.533a.585.585,0,0,1-.2-.162.518.518,0,0,1-.083-.312c.006-.667.623-1.147,1.158-1.571a29.746,29.746,0,0,0,2.336-2.134l1.8-1.762a3.979,3.979,0,0,1,1.015-.8c.951-.461,2.363.312,1.872,1.373A6.017,6.017,0,0,1,34.051,284.843Z" transform="translate(18.567 -263.674)"/><g transform="translate(22.09 10.416)"><g transform="translate(0 0)"><path class="e" d="M78.588,262.948a1.918,1.918,0,0,0,.321,2.627c8.226,6.7,6.589,6.054,7.962,4.246a1.918,1.918,0,0,0-.321-2.627l-5.42-4.541a1.768,1.768,0,0,0-2.542.3Z" transform="translate(-73.386 -262.245)"/><path class="e" d="M74.03,266.046a1.918,1.918,0,0,0-.908,2.487l3.358,7.608c.412.932.894.232,1.806-.208a1.919,1.919,0,0,0,.908-2.487l-2.765-6.508a1.769,1.769,0,0,0-2.4-.892Z" transform="translate(-63.514 -264.503)"/><path class="e" d="M81.24,270.561a1.918,1.918,0,0,0,.321,2.627l6.448,5.253c1.894,1.542,4.115-1.379,2.221-2.923l-6.448-5.252a1.768,1.768,0,0,0-2.542.3Z" transform="translate(-78.085 -266.991)"/><path class="e" d="M87.925,277a1.919,1.919,0,0,0,.321,2.627l5.543,4.464a1.768,1.768,0,0,0,2.542-.3c.613-.806,1.92-.751,1.13-1.395l-6.994-5.7a1.769,1.769,0,0,0-2.542.3Z" transform="translate(-87.358 -271.007)"/><g transform="translate(0 5.105)"><path class="o" d="M108.183,280.36a.189.189,0,0,1-.074-.037l-1.066-.859a2.111,2.111,0,0,1-.353-2.887,1.943,1.943,0,0,1,1.328-.764,1.966,1.966,0,0,1,1.483.436.189.189,0,0,1-.238.293,1.58,1.58,0,0,0-2.273.262,1.731,1.731,0,0,0,.291,2.367l1.065.859a.188.188,0,0,1-.162.33Z" transform="translate(-106.273 -275.8)"/></g><g transform="translate(2.92 5.513)"><path class="o" d="M98.862,280.973a.2.2,0,0,1-.075-.037l-4.564-3.717a.189.189,0,1,1,.238-.293l4.564,3.717a.188.188,0,0,1-.163.329Z" transform="translate(-94.153 -276.884)"/></g><g transform="translate(4.923 2.672)"><path class="o" d="M93.545,273.43a.189.189,0,0,1-.075-.037l-4.564-3.718a.188.188,0,0,1,.238-.293l4.565,3.718a.188.188,0,0,1-.163.329Z" transform="translate(-88.836 -269.34)"/></g><g transform="translate(9.724 2.027)"><path class="o" d="M84.034,270.122a.19.19,0,0,1-.075-.037l-2.608-2.124a.188.188,0,1,1,.238-.292l2.608,2.124a.188.188,0,0,1-.163.329Z" transform="translate(-81.281 -267.627)"/></g></g><path class="e" d="M77.12,286.144l-10.273,3.282,2.473,7L79.56,291.94Z" transform="translate(-61.416 -277.144)"/><path class="c" d="M51.521,292.811a.384.384,0,0,0-.2.511c5.494,12.373,5.415,16.535,9.809,18.994,1.476.826,4.14-.082,5.562-.922h0a5.517,5.517,0,0,0,1.888-7.605c-1.005-1.71-5.521-12.826-6.383-14.954a.378.378,0,0,0-.5-.207Z" transform="translate(-45.373 -278.674)"/><path class="c" d="M13.979,310.016a6.327,6.327,0,0,0,8.77.046l13.92-13.631a5.913,5.913,0,0,0-.111-8.527h0a6.328,6.328,0,0,0-8.771-.046L13.868,301.489a5.748,5.748,0,0,0-.03,8.386l.142.142Z" transform="translate(0.354 -277.125)"/><path class="d" d="M29.828,304.465a.29.29,0,0,1-.034-.217.261.261,0,0,1,.127-.171.275.275,0,0,1,.415.3.255.255,0,0,1-.119.173.274.274,0,0,1-.389-.086Zm3.178-7.612a.291.291,0,0,1-.034-.217.272.272,0,0,1,.128-.178.3.3,0,0,1,.388.093.3.3,0,0,1,.034.217.293.293,0,0,1-.127.171.3.3,0,0,1-.218.041A.3.3,0,0,1,33.006,296.854Zm-.079,9.29a.3.3,0,0,1,.04.219.283.283,0,0,1-.345.211.272.272,0,0,1-.171-.126.292.292,0,0,1-.034-.217.26.26,0,0,1,.127-.171A.29.29,0,0,1,32.927,306.144Zm-3.941,2.549a.265.265,0,0,1,.027.209.254.254,0,0,1-.118.173.269.269,0,0,1-.219.04.29.29,0,0,1-.178-.128.3.3,0,0,1-.034-.217.272.272,0,0,1,.127-.172A.3.3,0,0,1,28.986,308.693ZM25.42,309a.275.275,0,0,1,.034.21.287.287,0,0,1-.118.173.269.269,0,0,1-.219.04.288.288,0,0,1-.178-.127.282.282,0,0,1-.026-.215.265.265,0,0,1,.119-.173A.3.3,0,0,1,25.42,309Zm.754,3.511a.3.3,0,0,1,.039.226.242.242,0,0,1-.125.164.254.254,0,0,1-.218.041.27.27,0,0,1-.171-.127.285.285,0,0,1-.035-.209.278.278,0,0,1,.128-.179A.3.3,0,0,1,26.174,312.512Zm10.4-21.835a.283.283,0,0,1,.517-.085.277.277,0,0,1,.033.217.27.27,0,0,1-.126.171.287.287,0,0,1-.21.036.291.291,0,0,1-.179-.129A.269.269,0,0,1,36.576,290.677ZM28.19,311.988a.273.273,0,0,1,.035.21.29.29,0,0,1-.119.173.267.267,0,0,1-.219.04.261.261,0,0,1-.171-.126.3.3,0,0,1-.041-.218.274.274,0,0,1,.127-.172A.292.292,0,0,1,28.19,311.988Zm4.736-19.777a.246.246,0,0,1,.034.21.254.254,0,0,1-.118.173.27.27,0,0,1-.219.04.3.3,0,0,1-.178-.128.3.3,0,0,1-.034-.217.27.27,0,0,1,.127-.172A.291.291,0,0,1,32.925,292.211Zm3.743,2.058a.281.281,0,0,1,.109-.038.311.311,0,0,1,.112.007.254.254,0,0,1,.167.124.255.255,0,0,1,.043.212h0a.27.27,0,0,1-.046.1.283.283,0,0,1-.081.073.256.256,0,0,1-.107.044.278.278,0,0,1-.212-.05.348.348,0,0,1-.079-.082.3.3,0,0,1-.034-.107.32.32,0,0,1,.008-.108h0a.291.291,0,0,1,.045-.1A.32.32,0,0,1,36.668,294.269ZM41.094,294a.291.291,0,0,1-.034-.217.261.261,0,0,1,.127-.171.3.3,0,0,1,.39.086.287.287,0,0,1,.033.217.261.261,0,0,1-.126.171.243.243,0,0,1-.211.042A.28.28,0,0,1,41.094,294Zm-10.47,7.6a.3.3,0,0,1-.176-.135.273.273,0,0,1-.035-.21.283.283,0,1,1,.549.132.284.284,0,0,1-.338.213Zm9.819-4.394a.272.272,0,0,1-.086.389.288.288,0,0,1-.4-.095.27.27,0,0,1-.035-.21.29.29,0,0,1,.128-.178A.3.3,0,0,1,40.443,297.2Zm3.182-4.171a.273.273,0,0,1,.035.211.29.29,0,0,1-.126.171.267.267,0,0,1-.218.04.272.272,0,0,1-.171-.126.29.29,0,0,1-.034-.217.274.274,0,0,1,.127-.172A.291.291,0,0,1,43.625,293.031ZM40.2,290.467a.285.285,0,0,1,.389.093.272.272,0,0,1,.034.21.26.26,0,0,1-.126.171.253.253,0,0,1-.211.042.283.283,0,0,1-.213-.344A.272.272,0,0,1,40.2,290.467Zm-1.925,4.907a.3.3,0,0,1,.033.217.261.261,0,0,1-.126.171.28.28,0,0,1-.211.043.327.327,0,0,1-.179-.128.291.291,0,0,1-.034-.217.3.3,0,0,1,.128-.178A.3.3,0,0,1,38.271,295.374Zm-3.3,8.943a.272.272,0,0,1,.034.21.294.294,0,0,1-.345.211.286.286,0,0,1-.171-.126.289.289,0,0,1-.034-.217.271.271,0,0,1,.127-.171A.292.292,0,0,1,34.967,304.317Zm3.064-5.516a.291.291,0,0,1,.033.217.262.262,0,0,1-.126.171.266.266,0,0,1-.217.033.317.317,0,0,1-.173-.119.291.291,0,0,1-.034-.217.261.261,0,0,1,.126-.171A.292.292,0,0,1,38.031,298.8Zm-5.413.159a.273.273,0,0,1,.035.209.271.271,0,0,1-.338.214.26.26,0,0,1-.171-.127.255.255,0,0,1-.041-.219.286.286,0,0,1,.127-.171A.291.291,0,0,1,32.617,298.96Zm-14.268,1.37a.288.288,0,0,1,.034.217.292.292,0,0,1-.128.178.271.271,0,0,1-.21.035.259.259,0,0,1-.171-.126.269.269,0,0,1-.041-.218.263.263,0,0,1,.127-.172A.3.3,0,0,1,18.349,300.33Zm-1.415,5.91a.281.281,0,0,1-.093.388.154.154,0,0,1-.018.007c-.066-.165-.13-.327-.2-.5A.275.275,0,0,1,16.934,306.241Zm2.881-3.523a.291.291,0,0,1,.034.217.271.271,0,0,1-.127.171.288.288,0,0,1-.217.034.285.285,0,0,1-.206-.337.282.282,0,0,1,.516-.085Zm-.686-6.84a.283.283,0,0,1,.035.21.3.3,0,0,1-.128.178.288.288,0,0,1-.217.033.283.283,0,0,1-.2-.342.3.3,0,0,1,.119-.174A.294.294,0,0,1,19.129,295.878Zm7.964,2.255a.3.3,0,0,1,.128-.178.29.29,0,0,1,.388.093.3.3,0,0,1,.034.217.26.26,0,0,1-.126.171.245.245,0,0,1-.209.035.281.281,0,0,1-.18-.12A.3.3,0,0,1,27.093,298.133Zm-7.683-5.24a.272.272,0,0,1,.026.215.264.264,0,0,1-.119.173.29.29,0,0,1-.4-.095.3.3,0,0,1-.027-.208.271.271,0,0,1,.121-.181A.3.3,0,0,1,19.41,292.894Zm-3.224,3.147a.29.29,0,0,1,.034.217.271.271,0,0,1-.127.171.289.289,0,0,1-.217.034.285.285,0,0,1-.206-.337.282.282,0,0,1,.516-.085Zm-1.1-3.168a.281.281,0,0,1,.381.091.291.291,0,0,1,.034.217.271.271,0,0,1-.127.171.286.286,0,0,1-.21.036.29.29,0,0,1-.178-.129.272.272,0,0,1,.1-.386Zm1.443,6.588a.286.286,0,0,1-.311.429.252.252,0,0,1-.169-.134.274.274,0,0,1-.035-.209.283.283,0,0,1,.516-.085Zm4.052-8.582a.3.3,0,0,1,0-.111.283.283,0,0,1,.121-.18c.009-.005.02,0,.029,0a.287.287,0,0,1,.17-.023l.026,0a.272.272,0,0,1,.163.116s0,0,0,.006l0,0a.265.265,0,0,1,.027.208.254.254,0,0,1-.118.173.3.3,0,0,1-.219.04.268.268,0,0,1-.1-.049.274.274,0,0,1-.108-.182Zm5.7,10.917a.286.286,0,0,1-.3.43.328.328,0,0,1-.179-.128.285.285,0,0,1,.483-.3Zm-3.884,8.944a.283.283,0,1,1-.389-.093A.289.289,0,0,1,22.394,310.74Zm.988-7.168a.29.29,0,0,1,.034.217.271.271,0,0,1-.126.171.275.275,0,0,1-.21.036.282.282,0,1,1,.3-.424Zm1.976,2.069a.288.288,0,0,1,.033.216.3.3,0,0,1-.127.178.287.287,0,0,1-.21.035.3.3,0,0,1-.177-.136.273.273,0,0,1-.035-.209.29.29,0,0,1,.128-.178A.3.3,0,0,1,25.357,305.641Zm-4.067,1.2a.293.293,0,0,1,.033.217.324.324,0,0,1-.121.18.306.306,0,0,1-.217.033.275.275,0,0,1-.171-.126.3.3,0,0,1-.041-.218.293.293,0,0,1,.127-.172A.3.3,0,0,1,21.29,306.843Zm.364-8.185a.267.267,0,0,1,.034.218.271.271,0,0,1-.126.171.284.284,0,0,1-.21.035.3.3,0,0,1-.178-.128.286.286,0,0,1-.035-.21.279.279,0,0,1,.128-.178A.291.291,0,0,1,21.654,298.658Zm2.942-3.066a.281.281,0,0,1,.382.084.3.3,0,0,1,.041.218.293.293,0,0,1-.127.171.3.3,0,0,1-.218.041.3.3,0,0,1-.171-.127.289.289,0,0,1-.034-.217A.259.259,0,0,1,24.6,295.592Zm-1.739-3.057a.3.3,0,0,1-.034-.217.272.272,0,0,1,.127-.172.293.293,0,0,1,.389.093.272.272,0,0,1,.034.21.289.289,0,0,1-.127.178.272.272,0,0,1-.21.035A.277.277,0,0,1,22.857,292.534Zm.406,5.843a.261.261,0,0,1,.126-.171.288.288,0,0,1,.382.084.294.294,0,0,1,.041.218.291.291,0,0,1-.126.171.3.3,0,0,1-.218.041.307.307,0,0,1-.171-.127A.289.289,0,0,1,23.262,298.378Z" transform="translate(-5.977 -279.813)"/><g transform="translate(18.229 10.544)"><path class="f" d="M41.66,298.459a.189.189,0,0,1-.129-.107c-.943-2.132-1.715-3.932-1.715-3.932a.188.188,0,1,1,.346-.149s.713,1.66,1.6,3.68l7.815-7.654a.188.188,0,0,1,.264.269l-8.01,7.844a.19.19,0,0,1-.167.051Z" transform="translate(-39.801 -290.245)"/></g><g transform="translate(5.76 14.459)"><path class="f" d="M27.683,320.863a6.542,6.542,0,0,1-3.027-1.656h0c-.029-.027-.072-.07-.145-.143a6.113,6.113,0,0,1-1.406-2.039c-.564-.868-2.113-4.646-3.752-8.645-1.088-2.655-2.214-5.4-3.125-7.474a.189.189,0,0,1,.345-.152c.914,2.08,2.039,4.827,3.129,7.484,1.633,3.983,3.175,7.745,3.735,8.613a5.831,5.831,0,0,0,1.338,1.945l.14.14h0a6.144,6.144,0,0,0,8.508.048l13.92-13.632a.19.19,0,0,1,.266,0,.188.188,0,0,1,0,.266L33.69,319.253A6.434,6.434,0,0,1,27.683,320.863Z" transform="translate(-16.214 -300.64)"/></g><g transform="translate(19.516 18.418)"><path class="f" d="M61.28,314.553a.188.188,0,0,1-.143-.208l.4-3.027a.19.19,0,0,1,.212-.162.182.182,0,0,1,.162.212l-.4,3.027a.19.19,0,0,1-.212.162Z" transform="translate(-61.135 -311.154)"/></g><rect class="g" width="11.069" height="1.902" rx="0.951" transform="translate(16.32 9.989) rotate(158.579)"/><g transform="translate(5.893 9.803)"><path class="f" d="M71.476,292.777a.188.188,0,0,1-.027-.357l10.187-4.13a.188.188,0,1,1,.142.348l-10.186,4.13A.183.183,0,0,1,71.476,292.777Z" transform="translate(-71.331 -288.275)"/></g></g><path class="c" d="M.138,281.227c1.906-4.8,8.318-.186,11.422.424.573.113,1.184.164,1.757.288v5.308c-.326-.015-.653-.046-.979-.067a31.056,31.056,0,0,1-5.511-.371c-2.382-.593-4.311-2.235-6.132-3.819a2.053,2.053,0,0,1-.632-.76A1.4,1.4,0,0,1,.138,281.227Z" transform="translate(52.091 -262.317)"/><g transform="translate(62.173 20.602)"><path class="f" d="M.025,289.388a.185.185,0,0,1,.257-.069,14.2,14.2,0,0,0,2.139,1.087,5.714,5.714,0,0,0,.814.232v.387c-.072-.014-.143-.024-.216-.042a6.383,6.383,0,0,1-.729-.224,14.381,14.381,0,0,1-2.194-1.113A.19.19,0,0,1,.025,289.388Z" transform="translate(0 -289.292)"/></g><g transform="translate(52.103 17.941)"><path class="f" d="M27.348,284.16a.189.189,0,0,1-.144-.194,1.344,1.344,0,0,1,.645-.974,3.989,3.989,0,0,1,2.221-.764.186.186,0,0,1,.194.183.188.188,0,0,1-.183.194,3.611,3.611,0,0,0-2.01.692,1,1,0,0,0-.491.691.189.189,0,0,1-.2.178Z" transform="translate(-27.204 -282.228)"/></g><g transform="translate(54.608 19.086)"><path class="f" d="M.157,285.406l.384-.064c2.516-.416,5.008.99,7.418,2.351.489.276.971.548,1.444.8s.931.5,1.4.744v.427q-.787-.419-1.573-.838c-.476-.252-.961-.526-1.452-.8-2.354-1.33-4.787-2.7-7.172-2.308l-.383.064a.188.188,0,0,1-.062-.372Z" transform="translate(0 -285.268)"/></g><g transform="translate(0 4.179)"><g transform="translate(3.029 0)"><path class="f" d="M157.715,250.159a.188.188,0,0,1-.087-.047l-4.273-4.106a.19.19,0,0,1,0-.267.187.187,0,0,1,.267,0l4.273,4.106a.188.188,0,0,1-.175.319Z" transform="translate(-153.297 -245.681)"/></g><g transform="translate(1.877 5.767)"><path class="f" d="M154.5,262.564a.188.188,0,0,1,0-.366l5.027-1.2a.188.188,0,1,1,.088.366l-5.027,1.2A.182.182,0,0,1,154.5,262.564Z" transform="translate(-154.352 -260.996)"/></g><g transform="translate(0 2.754)"><path class="f" d="M162.313,255.211l-.009,0-6.352-1.851a.189.189,0,0,1-.129-.234.207.207,0,0,1,.233-.129l6.352,1.852a.188.188,0,0,1-.1.364Z" transform="translate(-155.817 -252.994)"/></g></g></g></g></svg>