<svg  width="65px" height="50px" xmlns="http://www.w3.org/2000/svg" viewBox="0 0 60.38 43.2"><defs><style>.cls-1{isolation:isolate;}.cls-2,.cls-6{fill:#ee6792;}.cls-10,.cls-2,.cls-4,.cls-7{fill-rule:evenodd;}.cls-3,.cls-5,.cls-7{fill:#220301;}.cls-3{opacity:0.3;mix-blend-mode:overlay;}.cls-4{fill:#f8cfbd;}.cls-8{fill:#f78f20;}.cls-9{fill:#fbbd59;}.cls-10{fill:#6b3937;}.cls-11{fill:#5682c2;}.cls-12{fill:#310b09;}</style></defs><title>1</title><g class="cls-1"><g id="Layer_1" data-name="Layer 1"><path class="cls-2" d="M51.07,36.92c1.19-2.22,2.27-2.47,5-2.92s5.54,1.55,8.07,2.89l1.37.73V61.26c-1.67-.89-3.47-1.94-5.37-3.18-7.34-4.8-10.69-7.92-11.58-12.41C48,42.66,49.63,39.61,51.07,36.92Z" transform="translate(-5.13 -18.06)"/><path class="cls-3" d="M62.22,49.41a.24.24,0,0,1,0,.2.23.23,0,0,1-.11.16.23.23,0,0,1-.2,0,.31.31,0,0,1-.16-.12.21.21,0,0,1,0-.19.26.26,0,0,1,.12-.17A.27.27,0,0,1,62.22,49.41Zm1.45-6.29a.3.3,0,0,1,.12-.17.27.27,0,0,1,.36.09.24.24,0,0,1,0,.2.23.23,0,0,1-.12.15.24.24,0,0,1-.35-.08A.27.27,0,0,1,63.67,43.12Zm-2.58.39a.24.24,0,0,1,0,.2.24.24,0,0,1-.11.15.23.23,0,0,1-.21,0,.25.25,0,0,1-.18-.31.21.21,0,0,1,.11-.16A.27.27,0,0,1,61.09,43.51ZM62.91,46a.27.27,0,0,1,0,.2.31.31,0,0,1-.11.16.28.28,0,0,1-.2,0,.3.3,0,0,1-.17-.12.21.21,0,0,1,0-.19.25.25,0,0,1,.47-.08Zm.33,7a.26.26,0,0,1,0,.2.23.23,0,0,1-.11.16.35.35,0,0,1-.2,0,.3.3,0,0,1-.17-.12.28.28,0,0,1,0-.2.23.23,0,0,1,.12-.15A.26.26,0,0,1,63.24,53Zm-4.63,2a.24.24,0,0,1,0,.2.31.31,0,0,1-.11.16.28.28,0,0,1-.2,0,.25.25,0,0,1-.16-.12.26.26,0,0,1,0-.19.3.3,0,0,1,.12-.17A.28.28,0,0,1,58.61,55Zm5.8,4.88a.21.21,0,0,1,0,.19.24.24,0,0,1-.11.16.28.28,0,0,1-.2,0,.28.28,0,0,1-.16-.12.24.24,0,0,1,0-.2.26.26,0,0,1,.11-.16A.27.27,0,0,1,64.41,59.86Zm-6.74-7.11a.23.23,0,0,1,0,.2.24.24,0,0,1-.11.15.24.24,0,0,1-.2,0,.21.21,0,0,1-.16-.11.24.24,0,0,1,0-.2.25.25,0,0,1,.11-.16A.28.28,0,0,1,57.67,52.75Zm5,4.82a.28.28,0,0,1,.2,0l.09.05a.12.12,0,0,1,.06.06.3.3,0,0,1,0,.1.17.17,0,0,1,0,.1A.25.25,0,0,1,63,58a.24.24,0,0,1-.2,0,.18.18,0,0,1-.09,0l-.07-.07a.19.19,0,0,1,0-.1.17.17,0,0,1,0-.1.25.25,0,0,1,0-.09A.27.27,0,0,1,62.71,57.57Zm-.68,1a.28.28,0,0,1,0,.2A.27.27,0,0,1,62,59a.28.28,0,0,1-.2,0,.3.3,0,0,1-.17-.12.35.35,0,0,1,0-.2.27.27,0,0,1,.48-.08Zm2.61-4.73a.33.33,0,0,1,0,.2.25.25,0,0,1-.31.19.3.3,0,0,1-.17-.12.26.26,0,0,1,0-.19.31.31,0,0,1,.12-.17A.28.28,0,0,1,64.64,53.88ZM54.25,35.7a.34.34,0,0,1,0,.2.25.25,0,0,1-.12.16.27.27,0,0,1-.19,0A.35.35,0,0,1,53.8,36a.26.26,0,0,1,.09-.36A.28.28,0,0,1,54.25,35.7Zm-.4,3.4.11,0h.1a.25.25,0,0,1,.15.11.21.21,0,0,1,0,.1.17.17,0,0,1,0,.1.36.36,0,0,1,0,.09.23.23,0,0,1-.07.07l-.1,0h-.11l-.09,0a.23.23,0,0,1-.07-.07.22.22,0,0,1,0-.1.17.17,0,0,1,0-.1.15.15,0,0,1,0-.09Zm-3.38,2.38a.33.33,0,0,1,0-.2.27.27,0,0,1,.12-.16.28.28,0,0,1,.36.09.28.28,0,0,1,0,.2.3.3,0,0,1-.12.15.23.23,0,0,1-.2,0A.24.24,0,0,1,50.47,41.48Zm-.35,2a.32.32,0,0,1,0,.19.27.27,0,0,1-.11.17.24.24,0,0,1-.2,0,.25.25,0,0,1-.16-.12.23.23,0,0,1,0-.2.31.31,0,0,1,.12-.16A.27.27,0,0,1,50.12,43.43Zm2.16,4.94a.28.28,0,0,1,0,.2.25.25,0,0,1-.12.16.24.24,0,0,1-.2,0,.25.25,0,0,1-.16-.11.24.24,0,0,1,0-.2.25.25,0,0,1,.12-.16A.27.27,0,0,1,52.28,48.37Zm5.06-6.56a.28.28,0,0,1,0,.2.28.28,0,0,1-.12.16.34.34,0,0,1-.2,0,.3.3,0,0,1-.17-.12.34.34,0,0,1,0-.2.31.31,0,0,1,.12-.16A.28.28,0,0,1,57.34,41.81Zm-2-1.69a.24.24,0,0,1,0,.2.21.21,0,0,1-.11.16.34.34,0,0,1-.2,0,.33.33,0,0,1-.16-.12.24.24,0,0,1,0-.2A.25.25,0,0,1,55,40,.27.27,0,0,1,55.33,40.12Zm2.61-1.27a.24.24,0,0,1,0-.2.25.25,0,0,1,.12-.16.28.28,0,0,1,.36.08.34.34,0,0,1,0,.2.25.25,0,0,1-.12.16.27.27,0,0,1-.2,0A.28.28,0,0,1,57.94,38.85Zm.14,7.7a.24.24,0,0,1-.08.35.24.24,0,0,1-.2,0,.25.25,0,0,1-.16-.11.24.24,0,0,1,0-.2.28.28,0,0,1,.12-.16A.25.25,0,0,1,58.08,46.55Zm.12,2.3a.28.28,0,0,1,0,.2.28.28,0,0,1-.12.16.28.28,0,0,1-.2,0,.2.2,0,0,1-.16-.12.27.27,0,0,1,0-.19.36.36,0,0,1,.13-.17A.27.27,0,0,1,58.2,48.85Zm-3.09-5.57a.24.24,0,0,1,0,.2.25.25,0,0,1-.31.19.26.26,0,0,1-.16-.11.24.24,0,0,1,0-.2.21.21,0,0,1,.11-.16A.27.27,0,0,1,55.11,43.28ZM57,36a.29.29,0,0,1,0-.2.25.25,0,0,1,.12-.16.26.26,0,0,1,.36.09.21.21,0,0,1,0,.19.24.24,0,0,1-.11.16.28.28,0,0,1-.2,0A.25.25,0,0,1,57,36ZM53.45,51.33a.28.28,0,0,1,0,.2.25.25,0,0,1-.12.16.24.24,0,0,1-.2,0,.25.25,0,0,1-.17-.11.35.35,0,0,1,0-.2.29.29,0,0,1,.12-.16A.27.27,0,0,1,53.45,51.33Zm5.16-6.08a.25.25,0,0,1-.16-.12.26.26,0,0,1,0-.19.3.3,0,0,1,.12-.17.28.28,0,0,1,.36.09.28.28,0,0,1,0,.2.27.27,0,0,1-.11.16A.28.28,0,0,1,58.61,45.25ZM60,38.34a.23.23,0,0,1-.16-.11.34.34,0,0,1,0-.2.28.28,0,0,1,.12-.16.27.27,0,0,1,.36.09.24.24,0,0,1,0,.19.29.29,0,0,1-.12.16A.24.24,0,0,1,60,38.34Zm2.71-1.23a.24.24,0,0,1-.16-.11.28.28,0,0,1,0-.2.25.25,0,0,1,.12-.16.29.29,0,0,1,.36.08.26.26,0,0,1-.28.39Zm1.45,4.83-.1,0H64a.19.19,0,0,1-.09,0l-.07-.07a.42.42,0,0,1,0-.1.34.34,0,0,1,0-.1.3.3,0,0,1,0-.1l.08-.06a.27.27,0,0,1,.35.08.3.3,0,0,1,0,.1v.1a.41.41,0,0,1,0,.09A.23.23,0,0,1,64.15,41.94Z" transform="translate(-5.13 -18.06)"/><path class="cls-3" d="M48.56,45.47a.33.33,0,0,1,0,.2.08.08,0,0,0,0,0s0,0,0,0a1.57,1.57,0,0,1,0-.23S48.55,45.45,48.56,45.47Z" transform="translate(-5.13 -18.06)"/><path class="cls-4" d="M16.35,29.18a2.08,2.08,0,0,0-.13,1.69,1.86,1.86,0,0,0,.74,1,13.07,13.07,0,0,0,8.88,3.06,2.29,2.29,0,0,0,1.62-.31,1.57,1.57,0,0,0-.8-2.91,11.48,11.48,0,0,1-8-3.07,1.21,1.21,0,0,0-1.43-.24,1.49,1.49,0,0,0-.91.81Z" transform="translate(-5.13 -18.06)"/><path class="cls-4" d="M15.51,30.19a2.08,2.08,0,0,0-.14,1.69,1.83,1.83,0,0,0,.75,1A13,13,0,0,0,25,35.91a2.32,2.32,0,0,0,1.63-.31,1.57,1.57,0,0,0-.81-2.91,11.52,11.52,0,0,1-8-3.07,1.19,1.19,0,0,0-1.42-.24,1.49,1.49,0,0,0-.91.81Z" transform="translate(-5.13 -18.06)"/><path class="cls-4" d="M14.66,31.2a2.08,2.08,0,0,0-.13,1.69,1.86,1.86,0,0,0,.74,1,13.07,13.07,0,0,0,8.88,3.06,2.28,2.28,0,0,0,1.62-.31A1.57,1.57,0,0,0,25,33.7a11.5,11.5,0,0,1-8-3.07,1.21,1.21,0,0,0-1.43-.24,1.52,1.52,0,0,0-.91.81Z" transform="translate(-5.13 -18.06)"/><path class="cls-5" d="M16.14,30a.18.18,0,0,1,.15.18,1.93,1.93,0,0,0,.47,1.08,8.38,8.38,0,0,0,3.53,2.41.19.19,0,0,1,.1.25.2.2,0,0,1-.25.12,8.73,8.73,0,0,1-3.68-2.52,2.25,2.25,0,0,1-.55-1.31A.21.21,0,0,1,16.1,30Z" transform="translate(-5.13 -18.06)"/><path class="cls-5" d="M15.2,31a.18.18,0,0,1,.15.18,2,2,0,0,0,.47,1.08,8.32,8.32,0,0,0,3.54,2.4.2.2,0,0,1,.09.26.2.2,0,0,1-.25.11,8.7,8.7,0,0,1-3.68-2.52A2.22,2.22,0,0,1,15,31.2a.21.21,0,0,1,.19-.21Z" transform="translate(-5.13 -18.06)"/><path class="cls-5" d="M23.82,36.79a.19.19,0,0,1-.14.09,3.17,3.17,0,0,1-.87,0,.18.18,0,0,1-.15-.21.21.21,0,0,1,.22-.17,2.91,2.91,0,0,0,.78,0,.18.18,0,0,1,.2.17A.17.17,0,0,1,23.82,36.79Z" transform="translate(-5.13 -18.06)"/><path class="cls-5" d="M28.87,33.63a.14.14,0,0,1-.11-.09c-.23-.46-1.53-1.69-2.1-1.69a11.61,11.61,0,0,1-8.08-3.11,1,1,0,0,0-1.26-.2c-.45.15-.54.29-.81.72a.18.18,0,0,1-.19.08h0a.17.17,0,0,1-.12-.14v-.06a.41.41,0,0,1,.05-.09,1.56,1.56,0,0,1,1-.84,1.35,1.35,0,0,1,1.59.27,11.32,11.32,0,0,0,7.86,3c.76,0,2.16,1.38,2.41,1.89a.17.17,0,0,1-.08.23A.17.17,0,0,1,28.87,33.63Z" transform="translate(-5.13 -18.06)"/><polygon class="cls-4" points="23.91 14.66 15.03 19.15 18.3 25.17 26.98 19.59 23.91 14.66"/><path class="cls-2" d="M21.08,38.79a.36.36,0,0,0-.1.5c6.81,10.47,7.34,14.28,11.71,15.88,1.47.54,3.76-.68,4.93-1.65a5.1,5.1,0,0,0,.62-7.21c-1.17-1.41-6.91-10.89-8-12.7a.34.34,0,0,0-.48-.12Z" transform="translate(-5.13 -18.06)"/><path class="cls-2" d="M29,51.89a5.83,5.83,0,0,0,7.42,3.24l16.77-6.49a5.46,5.46,0,0,0,3-7.27h0a5.85,5.85,0,0,0-7.42-3.24L32,44.62a5.3,5.3,0,0,0-3.08,7.1Z" transform="translate(-5.13 -18.06)"/><path class="cls-3" d="M29.72,49.67a.34.34,0,0,1,0,.2.29.29,0,0,1-.12.16.24.24,0,0,1-.2,0,.28.28,0,0,1-.16-.12.25.25,0,0,1,0-.19.31.31,0,0,1,.12-.17A.28.28,0,0,1,29.72,49.67Zm-.83-3.82a.3.3,0,0,1,0,.21.26.26,0,0,1-.12.15.24.24,0,0,1-.2,0,.23.23,0,0,1-.16-.11.23.23,0,0,1,0-.2.28.28,0,0,1,.12-.16A.27.27,0,0,1,28.89,45.85Zm6.75,4.3a.21.21,0,0,1,0,.19.25.25,0,0,1-.12.17.25.25,0,0,1-.19,0,.22.22,0,0,1-.16-.12.27.27,0,0,1,0-.2.28.28,0,0,1,.12-.16A.27.27,0,0,1,35.64,50.15Zm-1.51-2.64a.33.33,0,0,1,0,.2.25.25,0,0,1-.12.16.32.32,0,0,1-.19,0,.25.25,0,0,1-.16-.12.19.19,0,0,1,0-.19.3.3,0,0,1,.12-.17A.28.28,0,0,1,34.13,47.51Zm2.81-2.82a.24.24,0,0,1,0,.2.25.25,0,0,1-.11.17.24.24,0,0,1-.2,0,.23.23,0,0,1-.15-.12.21.21,0,0,1,0-.2.26.26,0,0,1,.11-.16A.29.29,0,0,1,36.94,44.69Zm-2.12-.53a.21.21,0,0,1,0-.19.22.22,0,0,1,.12-.16.25.25,0,0,1,.35.08.24.24,0,0,1,0,.2.28.28,0,0,1-.11.17.35.35,0,0,1-.2,0A.23.23,0,0,1,34.82,44.16Zm-4.41-4.65a.25.25,0,0,1,0,.2.21.21,0,0,1-.11.16.29.29,0,0,1-.2,0,.33.33,0,0,1-.16-.12.24.24,0,0,1,0-.2.26.26,0,0,1,.11-.16A.27.27,0,0,1,30.41,39.51Zm2,12.51a.27.27,0,0,1,0,.19.29.29,0,0,1-.12.16.29.29,0,0,1-.2,0,.28.28,0,0,1-.16-.12.28.28,0,0,1,0-.2.26.26,0,0,1,.13-.16A.25.25,0,0,1,32.42,52ZM34.83,41.1a.21.21,0,0,1-.17,0A.23.23,0,0,1,34.5,41a.28.28,0,0,1,0-.2.24.24,0,0,1,.09-.13ZM24.25,40.05a.24.24,0,0,1,0,.2.22.22,0,0,1-.11.15.22.22,0,0,1-.21,0,.25.25,0,0,1-.18-.31.21.21,0,0,1,.11-.16A.27.27,0,0,1,24.25,40.05Zm1.13,2.55a.34.34,0,0,1,0,.2.25.25,0,0,1-.12.16.28.28,0,0,1-.2,0,.24.24,0,0,1-.16-.12.26.26,0,0,1,0-.19.25.25,0,0,1,.12-.16A.27.27,0,0,1,25.38,42.6Zm-3.57-2.46a.2.2,0,0,1,0,.2.25.25,0,0,1-.1.15l-.28-.44A.25.25,0,0,1,21.81,40.14Zm5.55-1.36a.21.21,0,0,1,0,.2.24.24,0,0,1-.11.16.26.26,0,0,1-.21,0,.3.3,0,0,1-.15-.12.28.28,0,0,1,0-.2A.31.31,0,0,1,27,38.7.28.28,0,0,1,27.36,38.78Zm2.77-2.55a.26.26,0,0,1-.09.36.24.24,0,0,1-.2,0,.21.21,0,0,1-.16-.12.26.26,0,0,1,0-.19.3.3,0,0,1,.12-.17A.28.28,0,0,1,30.13,36.23ZM26,46.77a.34.34,0,0,1,0,.2.31.31,0,0,1-.12.16.27.27,0,0,1-.15,0l-.21-.37a.31.31,0,0,1,.09-.11A.27.27,0,0,1,26,46.77Zm.43-9.57a.28.28,0,0,1,0-.2.31.31,0,0,1,.11-.16.28.28,0,0,1,.37.09.22.22,0,0,1,0,.19.26.26,0,0,1-.12.17.34.34,0,0,1-.2,0A.28.28,0,0,1,26.43,37.2Zm2.43,5.43a.24.24,0,0,1,0,.2.28.28,0,0,1-.12.16.21.21,0,0,1-.19,0,.25.25,0,0,1-.16-.12.27.27,0,0,1,0-.19.3.3,0,0,1,.12-.17A.27.27,0,0,1,28.86,42.63Zm19.7,2.84a.33.33,0,0,1,0,.2.31.31,0,0,1-.12.16.28.28,0,0,1-.2,0,.27.27,0,0,1-.16-.12.28.28,0,0,1,0-.2.31.31,0,0,1,.12-.16A.28.28,0,0,1,48.56,45.47Zm1.91-4a.33.33,0,0,1,0-.2.27.27,0,0,1,.12-.16.28.28,0,0,1,.36.09.28.28,0,0,1,0,.2.3.3,0,0,1-.12.15.23.23,0,0,1-.2,0A.24.24,0,0,1,50.47,41.48Zm-.35,2a.32.32,0,0,1,0,.19.27.27,0,0,1-.11.17.24.24,0,0,1-.2,0,.25.25,0,0,1-.16-.12.23.23,0,0,1,0-.2.31.31,0,0,1,.12-.16A.27.27,0,0,1,50.12,43.43ZM48,48.23a.27.27,0,0,1-.08.36.28.28,0,0,1-.2,0,.28.28,0,0,1-.16-.12.24.24,0,0,1,0-.2.25.25,0,0,1,.12-.16A.26.26,0,0,1,48,48.23Zm-3-5.56a.25.25,0,0,1,.11-.17.27.27,0,0,1,.36.09.24.24,0,0,1,0,.2.26.26,0,0,1-.11.16.28.28,0,0,1-.2,0,.27.27,0,0,1-.16-.11A.25.25,0,0,1,45,42.67Zm10.09.61a.24.24,0,0,1,0,.2.25.25,0,0,1-.31.19.26.26,0,0,1-.16-.11.24.24,0,0,1,0-.2.21.21,0,0,1,.11-.16A.27.27,0,0,1,55.11,43.28ZM53.85,39.1l.11,0h.1a.25.25,0,0,1,.15.11.21.21,0,0,1,0,.1.17.17,0,0,1,0,.1.36.36,0,0,1,0,.09.23.23,0,0,1-.07.07l-.1,0h-.11l-.09,0a.23.23,0,0,1-.07-.07.22.22,0,0,1,0-.1.17.17,0,0,1,0-.1.15.15,0,0,1,0-.09Zm-1.57,9.27a.28.28,0,0,1,0,.2.25.25,0,0,1-.12.16.24.24,0,0,1-.2,0,.25.25,0,0,1-.16-.11.24.24,0,0,1,0-.2.25.25,0,0,1,.12-.16A.27.27,0,0,1,52.28,48.37Zm3-8.25a.24.24,0,0,1,0,.2.21.21,0,0,1-.11.16.34.34,0,0,1-.2,0,.33.33,0,0,1-.16-.12.24.24,0,0,1,0-.2A.25.25,0,0,1,55,40,.27.27,0,0,1,55.33,40.12ZM35.11,54a.28.28,0,0,1,0,.2.32.32,0,0,1-.11.17.36.36,0,0,1-.2,0,.25.25,0,0,1-.16-.12.27.27,0,0,1,.08-.36A.27.27,0,0,1,35.11,54Zm4.55-3.33a.27.27,0,0,1,0,.2.36.36,0,0,1-.11.16.24.24,0,0,1-.2,0,.23.23,0,0,1-.16-.11.29.29,0,0,1,0-.2.29.29,0,0,1,.12-.16A.28.28,0,0,1,39.66,50.71Zm1.82-7.82a.25.25,0,0,1,.12-.16.27.27,0,0,1,.35.08.29.29,0,0,1,0,.2.29.29,0,0,1-.12.16.28.28,0,0,1-.2,0,.33.33,0,0,1-.16-.12A.24.24,0,0,1,41.48,42.89ZM40,43.15a.27.27,0,0,1,0,.2.28.28,0,0,1-.12.16.22.22,0,0,1-.19,0,.26.26,0,0,1-.17-.12.21.21,0,0,1,0-.19.25.25,0,0,1,.12-.16A.26.26,0,0,1,40,43.15ZM38.3,46.9a.34.34,0,0,1,0,.2.28.28,0,0,1-.12.16.34.34,0,0,1-.2,0,.28.28,0,0,1-.16-.12.26.26,0,0,1,0-.19.3.3,0,0,1,.12-.17A.27.27,0,0,1,38.3,46.9Zm4.76-6.5a.24.24,0,0,1,0,.2.29.29,0,0,1-.12.16.27.27,0,0,1-.2,0,.26.26,0,0,1-.16-.11.41.41,0,0,1,0-.16l.43-.17Zm1.2,5.65a.23.23,0,0,1,0,.2.29.29,0,0,1-.11.16.24.24,0,0,1-.2,0,.24.24,0,0,1-.16-.11.26.26,0,0,1,0-.21A.29.29,0,0,1,43.9,46,.27.27,0,0,1,44.26,46.05Zm-.85,3.55a.23.23,0,0,1,0,.2.25.25,0,0,1-.11.16.24.24,0,0,1-.2,0,.22.22,0,0,1-.16-.12.24.24,0,0,1,0-.2.29.29,0,0,1,.11-.16A.27.27,0,0,1,43.41,49.6Zm-1.82-1.91a.24.24,0,0,1,0,.2.26.26,0,0,1-.12.15.24.24,0,0,1-.35-.08.27.27,0,0,1,0-.19.3.3,0,0,1,.12-.17A.27.27,0,0,1,41.59,47.69Z" transform="translate(-5.13 -18.06)"/><path class="cls-5" d="M35.65,45.85a.18.18,0,0,1-.14-.19l.37-2.8a.19.19,0,0,1,.2-.15.17.17,0,0,1,.15.2l-.37,2.79a.17.17,0,0,1-.2.15Z" transform="translate(-5.13 -18.06)"/><path class="cls-6" d="M29.3,32.77h0a.83.83,0,0,1,.1.67A.84.84,0,0,1,29,34l-7.29,4.3a.81.81,0,0,1-.66.09.82.82,0,0,1-.54-.4.87.87,0,0,1-.09-.67.83.83,0,0,1,.4-.53l7.29-4.3a.87.87,0,0,1,.67-.09A.83.83,0,0,1,29.3,32.77Z" transform="translate(-5.13 -18.06)"/><path class="cls-5" d="M21,39a.21.21,0,0,1-.11-.08.18.18,0,0,1,.06-.24l8.68-5.25a.17.17,0,0,1,.18.3l-8.68,5.25A.2.2,0,0,1,21,39Z" transform="translate(-5.13 -18.06)"/><path class="cls-7" d="M55.94,31.61c.42-.24,2.82.21,5.75,1.13,1.53.48,2.88,1,3.82,1.37v.74a40.42,40.42,0,0,1-4.14-1.09C58.44,32.85,55.69,31.76,55.94,31.61Z" transform="translate(-5.13 -18.06)"/><path class="cls-8" d="M34.4,28.92l-.52,2.19a2.63,2.63,0,0,1-.41.9,2.6,2.6,0,0,1-.73.67,2.49,2.49,0,0,1-.92.34,2.54,2.54,0,0,1-1,0,2.46,2.46,0,0,1-.9-.41,2.7,2.7,0,0,1-.67-.72,2.61,2.61,0,0,1-.34-.93,2.54,2.54,0,0,1,0-1l.52-2.19a2.51,2.51,0,0,1,.42-.89,2.2,2.2,0,0,1,.72-.67,2.56,2.56,0,0,1,.93-.35,2.49,2.49,0,0,1,1,0h0a2.63,2.63,0,0,1,.9.41,2.46,2.46,0,0,1,.67.73,2.33,2.33,0,0,1,.34.92A2.36,2.36,0,0,1,34.4,28.92Z" transform="translate(-5.13 -18.06)"/><path class="cls-8" d="M34.52,26.19a.89.89,0,0,1-.41.57.87.87,0,0,1-.7.12l-3.12-.75a.92.92,0,0,1-.58-.42.91.91,0,0,1-.11-.7h0a.87.87,0,0,1,.42-.57.9.9,0,0,1,.7-.11l3.12.75a.83.83,0,0,1,.57.41A.87.87,0,0,1,34.52,26.19Z" transform="translate(-5.13 -18.06)"/><path class="cls-8" d="M30.52,29.29l-.07.28a2.27,2.27,0,0,1-.39.85,2.41,2.41,0,0,1-.68.63,2.47,2.47,0,0,1-.87.32,2.25,2.25,0,0,1-.93,0l-.79-.18A2.39,2.39,0,0,1,25,29.2a2.25,2.25,0,0,1,0-.93l.06-.28a2.63,2.63,0,0,1,.39-.85,2.6,2.6,0,0,1,.69-.63,2.29,2.29,0,0,1,.87-.32,2.43,2.43,0,0,1,.93,0l.79.19a2.58,2.58,0,0,1,.84.39,2.27,2.27,0,0,1,.63.68,2.29,2.29,0,0,1,.33.88A2.43,2.43,0,0,1,30.52,29.29Z" transform="translate(-5.13 -18.06)"/><path class="cls-9" d="M28.21,26.94l-.88,3.68a.79.79,0,0,1-.36.51.8.8,0,0,1-.62.09.81.81,0,0,1-.61-1l.89-3.68a.79.79,0,0,1,.36-.51.8.8,0,0,1,.62-.1h0a.8.8,0,0,1,.51.37A.79.79,0,0,1,28.21,26.94Z" transform="translate(-5.13 -18.06)"/><path class="cls-9" d="M26.47,28.47a3.61,3.61,0,0,1-.25.72,4,4,0,0,1-.39.67,3.66,3.66,0,0,1-1.13,1,3.68,3.68,0,0,1-.69.34,3.75,3.75,0,0,1-.75.19,3.29,3.29,0,0,1-.77.05,3.86,3.86,0,0,1-.76-.1L17.22,30.3a3.73,3.73,0,0,1-.73-.26,3.25,3.25,0,0,1-.67-.39,4.17,4.17,0,0,1-1-1.12,4.09,4.09,0,0,1-.33-.7,3.86,3.86,0,0,1-.2-.74,4,4,0,0,1-.05-.77,4.08,4.08,0,0,1,.11-.77h0a3.61,3.61,0,0,1,.25-.72,4,4,0,0,1,.39-.67,3.66,3.66,0,0,1,1.13-1,3.68,3.68,0,0,1,.69-.34,3.75,3.75,0,0,1,.75-.19,3.94,3.94,0,0,1,.77-.05,4,4,0,0,1,.76.11l4.51,1.08a3.78,3.78,0,0,1,1.39.64,3.53,3.53,0,0,1,.58.51,4,4,0,0,1,.47.61,4.47,4.47,0,0,1,.33.7,3.86,3.86,0,0,1,.2.74,4.28,4.28,0,0,1-.06,1.54Z" transform="translate(-5.13 -18.06)"/><path class="cls-5" d="M28.57,31.56a.17.17,0,0,1-.13-.21l1.22-5.11a1.22,1.22,0,0,1,1.45-.89l2.92.7a.17.17,0,0,1,.13.21.18.18,0,0,1-.21.13L31,25.69a.85.85,0,0,0-1,.63l-1.22,5.11A.18.18,0,0,1,28.57,31.56Z" transform="translate(-5.13 -18.06)"/><path class="cls-5" d="M20.48,31a.17.17,0,0,1-.13-.21l1.73-7.24a.17.17,0,0,1,.34.08l-1.73,7.24A.19.19,0,0,1,20.48,31Z" transform="translate(-5.13 -18.06)"/><path class="cls-5" d="M21.81,23.88l-1.22-.29a.18.18,0,0,1-.13-.21.19.19,0,0,1,.21-.13l1.22.29a.18.18,0,0,1,.13.21A.18.18,0,0,1,21.81,23.88Z" transform="translate(-5.13 -18.06)"/><path class="cls-5" d="M21.47,25.28,20.26,25a.17.17,0,0,1-.13-.21.18.18,0,0,1,.21-.13l1.21.29a.18.18,0,0,1,.13.21A.17.17,0,0,1,21.47,25.28Z" transform="translate(-5.13 -18.06)"/><path class="cls-5" d="M21.14,26.68l-1.22-.29a.18.18,0,0,1-.13-.21.18.18,0,0,1,.21-.13l1.22.29a.19.19,0,0,1,.13.21A.17.17,0,0,1,21.14,26.68Z" transform="translate(-5.13 -18.06)"/><path class="cls-5" d="M20.8,28.08l-1.22-.29a.16.16,0,0,1-.12-.21.18.18,0,0,1,.21-.13l1.21.3A.18.18,0,0,1,21,28,.17.17,0,0,1,20.8,28.08Z" transform="translate(-5.13 -18.06)"/><path class="cls-5" d="M20.47,29.48l-1.22-.29a.18.18,0,0,1-.13-.21.17.17,0,0,1,.21-.12l1.22.29a.16.16,0,0,1,.12.21A.16.16,0,0,1,20.47,29.48Z" transform="translate(-5.13 -18.06)"/><path class="cls-5" d="M20.13,30.89l-1.22-.3a.16.16,0,0,1-.12-.2.16.16,0,0,1,.21-.13l1.21.29a.18.18,0,0,1,.13.21A.18.18,0,0,1,20.13,30.89Z" transform="translate(-5.13 -18.06)"/><path class="cls-8" d="M15.44,22.89l-1.33,5.55a.65.65,0,0,1-.31.43.64.64,0,0,1-.52.08h0a.62.62,0,0,1-.43-.31.68.68,0,0,1-.09-.52l1.33-5.55a.69.69,0,0,1,.31-.43.71.71,0,0,1,.53-.09.69.69,0,0,1,.43.32A.67.67,0,0,1,15.44,22.89Z" transform="translate(-5.13 -18.06)"/><path class="cls-5" d="M25.8,31.09a.18.18,0,0,1-.13-.21l1.2-5a.18.18,0,0,1,.21-.13.19.19,0,0,1,.13.21L26,31A.19.19,0,0,1,25.8,31.09Z" transform="translate(-5.13 -18.06)"/><path class="cls-5" d="M12.82,28.48a.17.17,0,0,1-.13-.21l1.48-6.21a.19.19,0,0,1,.21-.13.17.17,0,0,1,.13.21L13,28.35A.19.19,0,0,1,12.82,28.48Z" transform="translate(-5.13 -18.06)"/><path class="cls-5" d="M59,29.34a.9.9,0,0,1-.43.26c-1,.34-2.63-.07-3.68-.28a9.84,9.84,0,0,1-3.24-1.15c-.35-.21-.68-.49-.7-.8-.05-.61.95-.51,1.53-.43A22.5,22.5,0,0,1,57,28C57.61,28.18,59.31,28.84,59,29.34Z" transform="translate(-5.13 -18.06)"/><path class="cls-4" d="M54.66,34.39l-2.81-5.77-3.66,1.32,0,5.95c0,2.37.94,3.68,2.58,3.83C53,39.92,55.73,36.57,54.66,34.39Z" transform="translate(-5.13 -18.06)"/><path class="cls-5" d="M50.19,39.77c-1.65-.39-1.95-1.47-2.13-3.48L48,35a.18.18,0,0,1,.17-.17.17.17,0,0,1,.18.17v1.32c.2,2.12.49,3,2.42,3.26a3.72,3.72,0,0,0,3.11-1.82,3.25,3.25,0,0,0,.62-3.26.18.18,0,0,1,.08-.23.19.19,0,0,1,.24.08,3.61,3.61,0,0,1-.66,3.61c-.78,1.1-2.15,2.13-3.43,2A4.77,4.77,0,0,1,50.19,39.77Z" transform="translate(-5.13 -18.06)"/><path class="cls-4" d="M45.14,21.59c1.87-1.67,5-1,7.12,0a4.68,4.68,0,0,1,2.94,4.29,11.11,11.11,0,0,1-1.88,5.48L52.9,32a7.07,7.07,0,0,1-5.23,3.53,5.55,5.55,0,0,1-4.29-1.21c-2.5-2.16-.18-4.5-.54-7.11A5.26,5.26,0,0,1,43.16,25,7.58,7.58,0,0,1,45.14,21.59Z" transform="translate(-5.13 -18.06)"/><path class="cls-5" d="M48.76,35.54a.19.19,0,0,1-.13-.14.17.17,0,0,1,.13-.2,6.84,6.84,0,0,0,3-1.76.17.17,0,0,1,.24,0,.16.16,0,0,1,0,.24,7.11,7.11,0,0,1-3.14,1.85Z" transform="translate(-5.13 -18.06)"/><path class="cls-7" d="M43.72,26.77a.34.34,0,0,1,.13.32.39.39,0,0,1-.43.31.35.35,0,0,1-.3-.4.38.38,0,0,1,.43-.3A.36.36,0,0,1,43.72,26.77Z" transform="translate(-5.13 -18.06)"/><path class="cls-7" d="M47,27.55a.33.33,0,0,1,.13.31.38.38,0,0,1-.43.31.34.34,0,0,1-.3-.39.37.37,0,0,1,.6-.23Z" transform="translate(-5.13 -18.06)"/><path class="cls-5" d="M44.18,30.73a2,2,0,0,1-.32-.11.47.47,0,0,1-.29-.31,2.46,2.46,0,0,1,.48-1.62c.26-.4.39-.58.51-.75s.26-.37.59-.88a.17.17,0,0,1,.24-.06.18.18,0,0,1,0,.24c-.33.52-.46.71-.6.9s-.24.34-.5.74a2.24,2.24,0,0,0-.44,1.33.14.14,0,0,0,.08.09c.19.07.65.23.89,0a.18.18,0,1,1,.21.28A1.1,1.1,0,0,1,44.18,30.73Z" transform="translate(-5.13 -18.06)"/><path class="cls-4" d="M54,28.32a1.38,1.38,0,0,1,1,1.5,1.46,1.46,0,0,1-1.54,1.37l-.19,0Z" transform="translate(-5.13 -18.06)"/><path class="cls-5" d="M53.75,30.31a.21.21,0,0,1-.1-.06.63.63,0,0,1,0-.66.6.6,0,0,1,.58-.31.18.18,0,0,1,.16.18.17.17,0,0,1-.19.16.29.29,0,0,0-.25.14.26.26,0,0,0,0,.27.19.19,0,0,1,0,.25A.21.21,0,0,1,53.75,30.31Z" transform="translate(-5.13 -18.06)"/><path class="cls-5" d="M48.25,27.05a.09.09,0,0,1-.07,0,2.34,2.34,0,0,0-1.11-.46.17.17,0,0,1-.21-.14.19.19,0,0,1,.14-.2,2.47,2.47,0,0,1,1.4.53.17.17,0,0,1,0,.25A.16.16,0,0,1,48.25,27.05Z" transform="translate(-5.13 -18.06)"/><path class="cls-5" d="M55.17,28.88m.08.33a.22.22,0,0,0,.15-.2c0-.24-.3-.72-1.44-1h0c-1.3-.31-4.92-.73-5.07-.75a.17.17,0,0,0-.19.15.19.19,0,0,0,.15.2s3.75.44,5,.74c1,.22,1.15.56,1.18.64a.14.14,0,0,0,0,.09.16.16,0,0,0,.13.13Z" transform="translate(-5.13 -18.06)"/><path class="cls-5" d="M43.21,25.78a.17.17,0,0,1-.13-.17.17.17,0,0,1,.17-.18,2,2,0,0,1,1.21.3.18.18,0,1,1-.23.27,1.54,1.54,0,0,0-1-.22Z" transform="translate(-5.13 -18.06)"/><path class="cls-10" d="M55.81,26.66c.21,0,.28-.3.23-.5a1.87,1.87,0,0,1-.14-.6c0-.18.15-.36.08-.53s-.08-.11-.09-.18,0-.17,0-.26a.48.48,0,0,0-.36-.62.66.66,0,0,0-.36-.9.49.49,0,0,0-.16-.57,1.31,1.31,0,0,0-.62-.25.32.32,0,0,0,0-.46.88.88,0,0,0-.51-.16c.07-.26-.3-.53-.56-.41.11-.59-.83-.34-1.11-.52s-.23-.34-.47-.43c-.07,0-.64-.08-.61.06a.5.5,0,0,0-.71-.27.48.48,0,0,0-.77-.07.4.4,0,0,0-.65-.21.66.66,0,0,0-1,0c0-.13-.18-.2-.31-.16a.45.45,0,0,0-.26.28.68.68,0,0,0-.84.3.63.63,0,0,0-.8.33.49.49,0,0,0-.66.42.36.36,0,0,0-.53.13,1.31,1.31,0,0,1-.08.21l0,0c-.06,0-.14,0-.17,0-.14.11-.05.31,0,.49a.74.74,0,0,0-.39.07.62.62,0,0,0-.3.7c0,.1.05.24,0,.3s-.22,0-.23.13,0,.5.3.56l.06,0s0,0,.06,0a.3.3,0,0,0,.29,0,.23.23,0,0,0,.15-.22.39.39,0,0,0,.29-.13.28.28,0,0,0,0-.29.45.45,0,0,0,.48-.15.63.63,0,0,0,.42.19c.05,0,.46,0,.44-.11a.35.35,0,0,0,.29.23.89.89,0,0,0,.4-.06.24.24,0,0,0,.09-.08.08.08,0,0,1,0-.09s0,0,0,.09a.27.27,0,0,0,.1.06.7.7,0,0,0,.71-.17.59.59,0,0,0,.53.22,1.17,1.17,0,0,0,.54-.22.41.41,0,0,0,.23.4.44.44,0,0,0,.48-.06.42.42,0,0,0,.38.24c.11,0,.24-.11.33-.09s.16.17.23.24a1,1,0,0,0,.43.17c.08,0,.18-.06.24,0s.08.12.15.16a.44.44,0,0,0,.22.05A3.21,3.21,0,0,0,52,24a.35.35,0,0,0,.1.42.79.79,0,0,0,.48.13.7.7,0,0,0-.28.36c0,.18.1.26.1.42s-.18.35-.1.59a.63.63,0,0,0,.52.39.37.37,0,0,0-.07.42.45.45,0,0,0,.4.24.36.36,0,0,0-.06.43.44.44,0,0,0,.41.23.27.27,0,0,0-.12.43.57.57,0,0,0,.53.16.29.29,0,0,0,0,.43.79.79,0,0,0,.48.19c-.08.1,0,.25.14.29a.63.63,0,0,0,.38,0,.67.67,0,0,0,.28-.14.19.19,0,0,0,0-.32.19.19,0,0,1,.13,0,.27.27,0,0,0,.25-.13.24.24,0,0,0-.19-.32.44.44,0,0,0,.42-.24.41.41,0,0,0-.11-.46A.48.48,0,0,0,55.81,26.66Z" transform="translate(-5.13 -18.06)"/><path class="cls-5" d="M44.07,32.13a1.68,1.68,0,0,1-.48-.2.17.17,0,1,1,.18-.29,1.46,1.46,0,0,0,1.46,0,.28.28,0,0,1,.18,0,.21.21,0,0,1,.14.17.19.19,0,0,1-.1.19.22.22,0,0,1-.11,0A1.85,1.85,0,0,1,44.07,32.13Z" transform="translate(-5.13 -18.06)"/><path class="cls-5" d="M42.09,26l2.27.54-.3,1.25-2.27-.54Zm2.27,2,.38-1.59a.18.18,0,0,0-.13-.21L42,25.62a.17.17,0,0,0-.21.13l-.38,1.59a.18.18,0,0,0,.13.21l2.61.62A.17.17,0,0,0,44.36,28Z" transform="translate(-5.13 -18.06)"/><path class="cls-5" d="M46,26.93l2.63.63-.3,1.26-2.64-.63Zm2.63,2.14L49,27.48a.18.18,0,0,0-.13-.21l-3-.72a.18.18,0,0,0-.21.13l-.38,1.6a.17.17,0,0,0,.12.21l3,.71A.19.19,0,0,0,48.64,29.07Z" transform="translate(-5.13 -18.06)"/><path class="cls-5" d="M45.84,26.89l-1.31-.31a.17.17,0,0,1-.13-.21.18.18,0,0,1,.21-.13l1.31.31a.19.19,0,0,1,.13.21A.18.18,0,0,1,45.84,26.89Z" transform="translate(-5.13 -18.06)"/><path class="cls-10" d="M42.42,24.91l.16,0c.14,0,.36-.06.28-.18s-.1.26,0,.36A.77.77,0,0,0,44,25.06a.57.57,0,0,0,.46.41.58.58,0,0,0,.55-.3.78.78,0,0,0,1.27.36.87.87,0,0,0,1.34.12.53.53,0,0,0,.93.13.56.56,0,0,0,1,.19.64.64,0,0,0,.53.48.66.66,0,0,0,.62-.35.6.6,0,0,0,.58.4.64.64,0,0,0,.56-.46c-.21.1-.06.5.17.51s.43-.19.59-.37a.35.35,0,0,0,0,.49.58.58,0,0,0,.48.17,1.4,1.4,0,0,0,.74-.23c-.14.15.07.38.25.44a1.38,1.38,0,0,0,1.24-.23.33.33,0,0,0,.32.41.52.52,0,0,0,.42-.39,1.44,1.44,0,0,0,0-.62.56.56,0,0,0,.18-.84.6.6,0,0,0-.08-.95.45.45,0,0,0,.22-.43,1.19,1.19,0,0,0-.17-.49A1.17,1.17,0,0,1,56,23.2a1.61,1.61,0,0,1,0-.31,1.1,1.1,0,0,0-.75-1.08c.08-.13,0-.3-.08-.42A3.16,3.16,0,0,0,53.36,20a1.91,1.91,0,0,0-2.2.2,3.26,3.26,0,0,0-1.26-1.37,1.23,1.23,0,0,0-1.54.62c0,.27.26.33.37.09-.86-.89-2.09-.69-3,.49a6.49,6.49,0,0,1-.51.62c-.51.45-1,.27-1.48.56-.33.18-.93.36-1.16.66s-.14.63.11.7a.64.64,0,0,0-.72.54,1,1,0,0,0,.34.93c-.15-.12-.38,0-.42.21a.5.5,0,0,0,.21.49A1.14,1.14,0,0,0,42.42,24.91Z" transform="translate(-5.13 -18.06)"/><path class="cls-5" d="M48.73,25.63a1.16,1.16,0,0,1-.56-.3.74.74,0,0,1-.12-.89.17.17,0,1,1,.29.18.42.42,0,0,0,.08.47.91.91,0,0,0,.55.23.17.17,0,0,1,.16.19.18.18,0,0,1-.19.16Z" transform="translate(-5.13 -18.06)"/><path class="cls-11" d="M43.07,21.66a6.17,6.17,0,0,1,.58-1,5.92,5.92,0,0,1,.77-.9,6.11,6.11,0,0,1,.93-.73,5.74,5.74,0,0,1,1-.53,5.69,5.69,0,0,1,1.14-.32,5.81,5.81,0,0,1,1.18-.09,5.13,5.13,0,0,1,1.17.14,5.71,5.71,0,0,1,1.13.36l2,.88A5.79,5.79,0,0,1,54,20a5.92,5.92,0,0,1,.9.77,5.55,5.55,0,0,1,.73.93,6.5,6.5,0,0,1,.54,1.05,6.43,6.43,0,0,1,.32,1.14,7.72,7.72,0,0,1,.09,1.18,6.56,6.56,0,0,1-.14,1.17,6.49,6.49,0,0,1-.37,1.13h0a.46.46,0,0,1-.26.25.43.43,0,0,1-.37,0L43.31,22.3a.51.51,0,0,1-.25-.27A.44.44,0,0,1,43.07,21.66Z" transform="translate(-5.13 -18.06)"/><path class="cls-11" d="M43.05,22.62a.4.4,0,0,1-.2-.53.42.42,0,0,1,.53-.23L59,28.52h0a.41.41,0,0,1,.2.54.4.4,0,0,1-.53.22l-15.6-6.66Z" transform="translate(-5.13 -18.06)"/><path class="cls-5" d="M52.62,25.82h0l-9.33-4.19a.2.2,0,0,1-.1-.27.21.21,0,0,1,.26-.11h0l9.33,4.19a.19.19,0,0,1,.09.27A.19.19,0,0,1,52.62,25.82Z" transform="translate(-5.13 -18.06)"/><path class="cls-11" d="M51.43,18.61h0a.29.29,0,0,1,.16-.15.28.28,0,0,1,.22,0l.7.31a.26.26,0,0,1,.15.16.28.28,0,0,1,0,.22.31.31,0,0,1-.16.16.27.27,0,0,1-.23,0l-.69-.3a.26.26,0,0,1-.15-.16A.31.31,0,0,1,51.43,18.61Z" transform="translate(-5.13 -18.06)"/><path class="cls-5" d="M54.27,26.2h0a.21.21,0,0,0,.27-.12c1.76-4.25-1.13-6.38-1.16-6.4l-1-.57a.21.21,0,0,0-.2.36l1,.56c.09.07,2.65,2,1,5.9A.21.21,0,0,0,54.27,26.2Z" transform="translate(-5.13 -18.06)"/><path class="cls-5" d="M43.4,24.61a1.14,1.14,0,0,1-.56-.31.73.73,0,0,1-.12-.89.17.17,0,0,1,.29.19.4.4,0,0,0,.08.46.93.93,0,0,0,.56.24.16.16,0,0,1,.15.19.17.17,0,0,1-.19.15Z" transform="translate(-5.13 -18.06)"/><path class="cls-5" d="M44.48,23.63Zm.25,1.16a.17.17,0,0,0,.17-.18.84.84,0,0,1,.08-.32.7.7,0,0,0,0-.59,1,1,0,0,0-.64-.33.2.2,0,0,0-.2.12.17.17,0,0,0,.09.23.15.15,0,0,0,.13,0,1.26,1.26,0,0,1,.3.13c0,.1,0,.17,0,.31a1.37,1.37,0,0,0-.1.46.17.17,0,0,0,.14.16Z" transform="translate(-5.13 -18.06)"/><path class="cls-5" d="M46.28,25.05h0a.76.76,0,0,1-.53-.47.18.18,0,0,1,.11-.22.17.17,0,0,1,.22.1.37.37,0,0,0,.28.25.39.39,0,0,0,.36-.09.18.18,0,0,1,.25,0,.18.18,0,0,1,0,.25A.76.76,0,0,1,46.28,25.05Z" transform="translate(-5.13 -18.06)"/><path class="cls-5" d="M54.49,28.21a.78.78,0,0,1-.53-.47.17.17,0,0,1,.1-.22.19.19,0,0,1,.23.1.42.42,0,0,0,.64.16.18.18,0,0,1,.25,0,.17.17,0,0,1,0,.24A.74.74,0,0,1,54.49,28.21Z" transform="translate(-5.13 -18.06)"/><path class="cls-2" d="M53.7,35.68c-1.2.8-2.38,1.64-3.51,2.53-.49.39-1.12.86-1.8.5a.54.54,0,0,1-.18-.15.51.51,0,0,1-.08-.29c0-.62.58-1.06,1.07-1.45a28.83,28.83,0,0,0,2.16-2L53,33.22a3.66,3.66,0,0,1,.94-.73c.88-.43,2.18.28,1.73,1.26A5.55,5.55,0,0,1,53.7,35.68Z" transform="translate(-5.13 -18.06)"/><path class="cls-4" d="M30.33,26.4a1.77,1.77,0,0,0,.29,2.43C38.22,35,36.7,34.42,38,32.75a1.77,1.77,0,0,0-.29-2.43l-5-4.19A1.63,1.63,0,0,0,30.33,26.4Z" transform="translate(-5.13 -18.06)"/><path class="cls-4" d="M35.23,27.18a1.77,1.77,0,0,0-.84,2.29l3.1,7c.38.86.83.21,1.67-.19A1.78,1.78,0,0,0,40,34l-2.55-6A1.64,1.64,0,0,0,35.23,27.18Z" transform="translate(-5.13 -18.06)"/><path class="cls-4" d="M28.44,29.05a1.77,1.77,0,0,0,.29,2.43l5.95,4.84c1.75,1.43,3.8-1.27,2-2.69l-5.95-4.85A1.62,1.62,0,0,0,28.44,29.05Z" transform="translate(-5.13 -18.06)"/><path class="cls-4" d="M26.05,31.29a1.76,1.76,0,0,0,.29,2.42l5.12,4.13a1.64,1.64,0,0,0,2.35-.28c.56-.74,1.77-.69,1-1.28L28.39,31A1.62,1.62,0,0,0,26.05,31.29Z" transform="translate(-5.13 -18.06)"/><path class="cls-12" d="M27.29,34.68l-.07,0-1-.79a2,2,0,0,1-.32-2.67,1.81,1.81,0,0,1,2.59-.3.18.18,0,0,1,0,.25.18.18,0,0,1-.25,0,1.46,1.46,0,0,0-2.1.24,1.62,1.62,0,0,0,.27,2.19l1,.79a.18.18,0,0,1-.15.31Z" transform="translate(-5.13 -18.06)"/><path class="cls-12" d="M32.57,34.62l-.07,0-4.22-3.43a.17.17,0,0,1,0-.24.17.17,0,0,1,.24,0l4.22,3.43a.18.18,0,0,1-.15.31Z" transform="translate(-5.13 -18.06)"/><path class="cls-12" d="M34.41,32l-.07,0-4.21-3.43a.18.18,0,0,1,0-.25.17.17,0,0,1,.24,0l4.21,3.43a.18.18,0,0,1,0,.25A.19.19,0,0,1,34.41,32Z" transform="translate(-5.13 -18.06)"/><path class="cls-12" d="M37,29.93l-.07,0-2.41-2a.17.17,0,0,1,0-.24.17.17,0,0,1,.24,0l2.41,2a.19.19,0,0,1,0,.25A.21.21,0,0,1,37,29.93Z" transform="translate(-5.13 -18.06)"/><polygon class="cls-4" points="34.89 16.01 25.41 19.04 27.69 25.5 37.14 21.36 34.89 16.01"/><path class="cls-2" d="M31.2,38.8a.37.37,0,0,0-.19.48c5.08,11.42,5,15.26,9.06,17.53,1.36.76,3.82-.08,5.13-.85a5.09,5.09,0,0,0,1.75-7c-.93-1.58-5.1-11.84-5.9-13.81a.34.34,0,0,0-.45-.19Z" transform="translate(-5.13 -18.06)"/><path class="cls-2" d="M38.75,56.12a5.85,5.85,0,0,0,8.1,0L59.7,43.58a5.47,5.47,0,0,0-.1-7.88h0a5.85,5.85,0,0,0-8.1,0c-3.69,3.62-9.15,9-12.85,12.58a5.32,5.32,0,0,0,0,7.75Z" transform="translate(-5.13 -18.06)"/><path class="cls-3" d="M41.48,42.89a.25.25,0,0,1,.12-.16.27.27,0,0,1,.35.08.29.29,0,0,1,0,.2.29.29,0,0,1-.12.16.28.28,0,0,1-.2,0,.33.33,0,0,1-.16-.12A.24.24,0,0,1,41.48,42.89Zm-.37-5.39a.29.29,0,0,1,0-.2.25.25,0,0,1,.12-.16.28.28,0,0,1,.36.08.24.24,0,0,1,0,.2.22.22,0,0,1-.12.16.26.26,0,0,1-.19,0A.25.25,0,0,1,41.11,37.5Zm1.6,2.82a.25.25,0,0,1,.35.08.24.24,0,0,1,0,.2.29.29,0,0,1-.12.16.27.27,0,0,1-.2,0,.26.26,0,0,1-.16-.11.34.34,0,0,1,0-.2A.25.25,0,0,1,42.71,40.32ZM40,43.15a.27.27,0,0,1,0,.2.28.28,0,0,1-.12.16.22.22,0,0,1-.19,0,.26.26,0,0,1-.17-.12.21.21,0,0,1,0-.19.25.25,0,0,1,.12-.16A.26.26,0,0,1,40,43.15Zm-.33,7.56a.27.27,0,0,1,0,.2.36.36,0,0,1-.11.16.24.24,0,0,1-.2,0,.23.23,0,0,1-.16-.11.29.29,0,0,1,0-.2.29.29,0,0,1,.12-.16A.28.28,0,0,1,39.66,50.71Zm3.75-1.11a.23.23,0,0,1,0,.2.25.25,0,0,1-.11.16.24.24,0,0,1-.2,0,.22.22,0,0,1-.16-.12.24.24,0,0,1,0-.2.29.29,0,0,1,.11-.16A.27.27,0,0,1,43.41,49.6Zm-1.82-1.91a.24.24,0,0,1,0,.2.26.26,0,0,1-.12.15.24.24,0,0,1-.35-.08.27.27,0,0,1,0-.19.3.3,0,0,1,.12-.17A.27.27,0,0,1,41.59,47.69Zm-.91,6.61a.35.35,0,0,1,0,.2.3.3,0,0,1-.12.17.32.32,0,0,1-.19,0,.3.3,0,0,1-.17-.12.28.28,0,0,1,0-.2.25.25,0,0,1,.12-.16A.26.26,0,0,1,40.68,54.3Zm3.58-8.25a.23.23,0,0,1,0,.2.29.29,0,0,1-.11.16.24.24,0,0,1-.2,0,.24.24,0,0,1-.16-.11.26.26,0,0,1,0-.21A.29.29,0,0,1,43.9,46,.27.27,0,0,1,44.26,46.05ZM39,36a.31.31,0,0,1,0-.1.25.25,0,0,1,.11-.17s0,0,0,0a.2.2,0,0,1,.15,0h0a.24.24,0,0,1,.15.11h0a.28.28,0,0,1,0,.2.26.26,0,0,1-.11.16.28.28,0,0,1-.2,0l-.1,0L39,36.07A.42.42,0,0,1,39,36Zm-3.74,7.92a.24.24,0,0,1,0,.2.28.28,0,0,1-.11.17.35.35,0,0,1-.2,0,.23.23,0,0,1-.16-.13.21.21,0,0,1,0-.19.22.22,0,0,1,.12-.16A.25.25,0,0,1,35.26,43.89Zm-1.33-6.08a.26.26,0,0,1,.35.08.24.24,0,0,1,0,.2.21.21,0,0,1-.11.16.29.29,0,0,1-.2,0,.28.28,0,0,1-.16-.12.24.24,0,0,1,0-.2A.24.24,0,0,1,33.93,37.81Zm1,2.92a.35.35,0,0,1,0,.2.25.25,0,0,1-.12.16.24.24,0,0,1-.2,0A.23.23,0,0,1,34.5,41a.26.26,0,0,1,.09-.36A.27.27,0,0,1,35,40.73Zm3-2.9a.27.27,0,0,1,0,.2.26.26,0,0,1-.11.16.35.35,0,0,1-.2,0,.3.3,0,0,1-.17-.12.25.25,0,0,1,0-.19.23.23,0,0,1,.11-.17A.27.27,0,0,1,37.92,37.83ZM45,42.67a.25.25,0,0,1,.11-.17.27.27,0,0,1,.36.09.24.24,0,0,1,0,.2.26.26,0,0,1-.11.16.28.28,0,0,1-.2,0,.27.27,0,0,1-.16-.11A.25.25,0,0,1,45,42.67Zm-7.36-2.09a.29.29,0,0,1,0,.2.28.28,0,0,1-.12.16.27.27,0,0,1-.36-.08.24.24,0,0,1,0-.2.27.27,0,0,1,.11-.16A.26.26,0,0,1,37.66,40.58Zm.64,6.32a.34.34,0,0,1,0,.2.28.28,0,0,1-.12.16.34.34,0,0,1-.2,0,.28.28,0,0,1-.16-.12.26.26,0,0,1,0-.19.3.3,0,0,1,.12-.17A.27.27,0,0,1,38.3,46.9Zm-2.66,3.25a.21.21,0,0,1,0,.19.25.25,0,0,1-.12.17h0l-.18-.47A.28.28,0,0,1,35.64,50.15Zm1.3-5.46a.24.24,0,0,1,0,.2.25.25,0,0,1-.11.17.24.24,0,0,1-.2,0,.23.23,0,0,1-.15-.12.21.21,0,0,1,0-.2.26.26,0,0,1,.11-.16A.29.29,0,0,1,36.94,44.69Zm13.18-1.26a.32.32,0,0,1,0,.19.27.27,0,0,1-.11.17.24.24,0,0,1-.2,0,.25.25,0,0,1-.16-.12.23.23,0,0,1,0-.2.31.31,0,0,1,.12-.16A.27.27,0,0,1,50.12,43.43Zm5-.15a.24.24,0,0,1,0,.2.25.25,0,0,1-.31.19.26.26,0,0,1-.16-.11.24.24,0,0,1,0-.2.21.21,0,0,1,.11-.16A.27.27,0,0,1,55.11,43.28Zm-2.83,5.09a.28.28,0,0,1,0,.2.25.25,0,0,1-.12.16.24.24,0,0,1-.2,0,.25.25,0,0,1-.16-.11.24.24,0,0,1,0-.2.25.25,0,0,1,.12-.16A.27.27,0,0,1,52.28,48.37Zm3-8.25a.24.24,0,0,1,0,.2.21.21,0,0,1-.11.16.34.34,0,0,1-.2,0,.33.33,0,0,1-.16-.12.24.24,0,0,1,0-.2A.25.25,0,0,1,55,40,.27.27,0,0,1,55.33,40.12Zm1.78-4.53a.26.26,0,0,1,.36.09.21.21,0,0,1,0,.19.24.24,0,0,1-.11.16.28.28,0,0,1-.2,0A.25.25,0,0,1,57,36a.29.29,0,0,1,0-.2A.25.25,0,0,1,57.11,35.59ZM60.28,38a.24.24,0,0,1,0,.19.29.29,0,0,1-.12.16.24.24,0,0,1-.2,0,.23.23,0,0,1-.16-.11.34.34,0,0,1,0-.2.28.28,0,0,1,.12-.16A.27.27,0,0,1,60.28,38Zm-2.94,3.85a.28.28,0,0,1,0,.2.28.28,0,0,1-.12.16.34.34,0,0,1-.2,0,.3.3,0,0,1-.17-.12.34.34,0,0,1,0-.2.31.31,0,0,1,.12-.16A.28.28,0,0,1,57.34,41.81Zm-9.07,4a.27.27,0,0,1-.16-.12.28.28,0,0,1,0-.2.31.31,0,0,1,.12-.16.28.28,0,0,1,.36.09.33.33,0,0,1,0,.2.31.31,0,0,1-.12.16A.28.28,0,0,1,48.27,45.86Zm9.67-7a.24.24,0,0,1,0-.2.25.25,0,0,1,.12-.16.28.28,0,0,1,.36.08.34.34,0,0,1,0,.2.25.25,0,0,1-.12.16.27.27,0,0,1-.2,0A.28.28,0,0,1,57.94,38.85Zm-4.09.25.11,0h.1a.25.25,0,0,1,.15.11.21.21,0,0,1,0,.1.17.17,0,0,1,0,.1.36.36,0,0,1,0,.09.23.23,0,0,1-.07.07l-.1,0h-.11l-.09,0a.23.23,0,0,1-.07-.07.22.22,0,0,1,0-.1.17.17,0,0,1,0-.1.15.15,0,0,1,0-.09ZM50.4,37.2a.21.21,0,0,1,0,.19.24.24,0,0,1-.11.16.21.21,0,0,1-.2,0,.33.33,0,0,1-.17-.12.34.34,0,0,1,0-.2.26.26,0,0,1,.48-.07ZM46,55.46a.24.24,0,0,1,0,.19.27.27,0,0,1-.11.16.28.28,0,0,1-.2,0,.25.25,0,0,1-.16-.12.29.29,0,0,1,0-.2.25.25,0,0,1,.12-.16A.27.27,0,0,1,46,55.46Zm7.74-19.68a.28.28,0,0,1,.12-.16.28.28,0,0,1,.36.08.34.34,0,0,1,0,.2.25.25,0,0,1-.12.16.27.27,0,0,1-.19,0A.35.35,0,0,1,53.8,36,.28.28,0,0,1,53.77,35.78Zm-9.6,20.16a.3.3,0,0,1,0,.21.19.19,0,0,1-.11.15.28.28,0,0,1-.2,0,.25.25,0,0,1-.16-.12.22.22,0,0,1,0-.19.26.26,0,0,1,.11-.17A.29.29,0,0,1,44.17,55.94Zm-.7-3.24a.21.21,0,0,1,0,.19.24.24,0,0,1-.11.16.28.28,0,0,1-.2,0A.25.25,0,0,1,43,53a.28.28,0,0,1,0-.2.26.26,0,0,1,.11-.16A.28.28,0,0,1,43.47,52.7Zm3.29-.29a.28.28,0,0,1,0,.2.26.26,0,0,1-.11.16.24.24,0,0,1-.2,0,.26.26,0,0,1-.17-.12.28.28,0,0,1,0-.2.26.26,0,0,1,.12-.15A.28.28,0,0,1,46.76,52.41Zm3.64-2.35a.29.29,0,0,1,0,.2.3.3,0,0,1-.12.17.34.34,0,0,1-.2,0,.27.27,0,0,1-.19-.32.25.25,0,0,1,.12-.16A.27.27,0,0,1,50.4,50.06Zm.07-8.58a.33.33,0,0,1,0-.2.27.27,0,0,1,.12-.16.28.28,0,0,1,.36.09.28.28,0,0,1,0,.2.3.3,0,0,1-.12.15.23.23,0,0,1-.2,0A.24.24,0,0,1,50.47,41.48Zm-2.93,7a.24.24,0,0,1,0-.2.25.25,0,0,1,.12-.16.26.26,0,0,1,.35.08.27.27,0,0,1-.08.36.28.28,0,0,1-.2,0A.28.28,0,0,1,47.54,48.51Z" transform="translate(-5.13 -18.06)"/><path class="cls-5" d="M44.07,43.07A.15.15,0,0,1,44,43c-.87-2-1.59-3.63-1.59-3.63a.19.19,0,0,1,.1-.23.17.17,0,0,1,.22.1s.66,1.53,1.48,3.39l7.22-7.06a.16.16,0,0,1,.24,0,.18.18,0,0,1,0,.25L44.23,43a.18.18,0,0,1-.16,0Z" transform="translate(-5.13 -18.06)"/><path class="cls-5" d="M41.43,57.77a6,6,0,0,1-2.8-1.53h0l-.13-.13a5.72,5.72,0,0,1-1.3-1.88c-.52-.81-2-4.29-3.46-8-1-2.46-2-5-2.89-6.9a.19.19,0,0,1,.09-.23.17.17,0,0,1,.23.09c.85,1.91,1.89,4.45,2.89,6.9,1.51,3.68,2.93,7.15,3.45,8a5.44,5.44,0,0,0,1.23,1.8l.13.13h0a5.66,5.66,0,0,0,7.85,0L59.58,43.45a.17.17,0,0,1,.24,0,.18.18,0,0,1,0,.25L47,56.28A5.94,5.94,0,0,1,41.43,57.77Z" transform="translate(-5.13 -18.06)"/><path class="cls-5" d="M43.67,45.89a.18.18,0,0,1-.13-.19l.37-2.79a.17.17,0,0,1,.2-.15.17.17,0,0,1,.15.19l-.37,2.8a.19.19,0,0,1-.2.15Z" transform="translate(-5.13 -18.06)"/><path class="cls-6" d="M40.27,34.16h0a.88.88,0,0,1-.5,1.14l-7.88,3.09a.87.87,0,0,1-.67,0,.78.78,0,0,1-.46-.48.82.82,0,0,1,0-.67.88.88,0,0,1,.48-.47l7.88-3.09a.88.88,0,0,1,1.14.5Z" transform="translate(-5.13 -18.06)"/><path class="cls-5" d="M31.1,39a.15.15,0,0,1-.12-.1.17.17,0,0,1,.09-.23l9.4-3.81a.17.17,0,0,1,.23.09.18.18,0,0,1-.09.23L31.2,39A.12.12,0,0,1,31.1,39Z" transform="translate(-5.13 -18.06)"/><path class="cls-2" d="M53.34,33.6c1.76-4.43,7.68-.18,10.55.39.53.1,1.09.15,1.62.26v4.9l-.9-.06a28.78,28.78,0,0,1-5.09-.34c-2.2-.55-4-2.07-5.66-3.53a1.76,1.76,0,0,1-.58-.7A1.27,1.27,0,0,1,53.34,33.6Z" transform="translate(-5.13 -18.06)"/><path class="cls-5" d="M62.55,35.25a.16.16,0,0,1,.23-.07,13.67,13.67,0,0,0,2,1,6.11,6.11,0,0,0,.75.21v.36l-.2,0a6.41,6.41,0,0,1-.67-.21,12.48,12.48,0,0,1-2-1A.16.16,0,0,1,62.55,35.25Z" transform="translate(-5.13 -18.06)"/><path class="cls-5" d="M53.36,34.48a.16.16,0,0,1-.13-.17,1.25,1.25,0,0,1,.59-.9,3.63,3.63,0,0,1,2-.71.17.17,0,0,1,.18.17.17.17,0,0,1-.17.18,3.26,3.26,0,0,0-1.85.64.9.9,0,0,0-.45.63.19.19,0,0,1-.19.17Z" transform="translate(-5.13 -18.06)"/><path class="cls-5" d="M55.69,33.89l.35-.06c2.32-.39,4.62.91,6.85,2.17.45.25.89.5,1.33.73l1.29.69v.39L64.06,37c-.44-.23-.89-.48-1.34-.74-2.18-1.23-4.42-2.49-6.62-2.13l-.36.06a.18.18,0,0,1-.2-.14A.17.17,0,0,1,55.69,33.89Z" transform="translate(-5.13 -18.06)"/><path class="cls-5" d="M12,24.13a.2.2,0,0,1-.08,0L8,20.3a.18.18,0,0,1,0-.25.16.16,0,0,1,.24,0l3.95,3.79a.16.16,0,0,1,0,.24A.17.17,0,0,1,12,24.13Z" transform="translate(-5.13 -18.06)"/><path class="cls-5" d="M7,26.77a.19.19,0,0,1-.13-.13A.17.17,0,0,1,7,26.43l4.64-1.11a.18.18,0,0,1,.21.13.18.18,0,0,1-.13.21L7.08,26.77Z" transform="translate(-5.13 -18.06)"/><path class="cls-5" d="M11.13,24.59h0L5.26,22.87a.17.17,0,0,1-.12-.21.2.2,0,0,1,.21-.12l5.87,1.71a.19.19,0,0,1,.12.22A.19.19,0,0,1,11.13,24.59Z" transform="translate(-5.13 -18.06)"/></g></g></svg>