<svg xmlns="http://www.w3.org/2000/svg" xmlns:xlink="http://www.w3.org/1999/xlink" width="141.85" height="140.394" viewBox="0 0 141.85 140.394"><defs><style>.a{fill:url(#a);}.b{fill:url(#b);}.c,.j,.m{fill:#fff;}.d{clip-path:url(#d);}.e,.m{mix-blend-mode:soft-light;}.ad,.e,.k,.m,.u{isolation:isolate;}.f{fill:#fcfdfe;}.g{clip-path:url(#f);}.h,.k{fill:#97a6b7;}.i{fill:#d8dee8;}.j{opacity:0.74;}.ad,.k{opacity:0.3;}.ad,.k,.u{mix-blend-mode:multiply;}.l{fill:url(#g);}.m{opacity:0.5;}.n{fill:url(#h);}.o{fill:url(#i);}.p{fill:url(#j);}.q{fill:#26264f;}.r{fill:url(#k);}.s{fill:url(#l);}.t{fill:url(#m);}.u{opacity:0.25;fill:url(#n);}.v{fill:#444b8c;}.w{fill:url(#o);}.x{fill:url(#p);}.y{fill:url(#q);}.z{fill:url(#r);}.aa{fill:url(#s);}.ab{fill:url(#t);}.ac{fill:url(#u);}.ad{fill:url(#v);}.ae{fill:url(#w);}.af{fill:url(#y);}.ag{fill:url(#z);}.ah{fill:url(#aa);}.ai{fill:url(#ab);}.aj{fill:url(#ac);}</style><linearGradient id="a" x1="0.305" y1="0.034" x2="0.869" y2="1.949" gradientUnits="objectBoundingBox"><stop offset="0.004" stop-color="#e38ddd"/><stop offset="1" stop-color="#9571f6"/></linearGradient><linearGradient id="b" x1="0.389" y1="0.001" x2="0.781" y2="2.029" gradientUnits="objectBoundingBox"><stop offset="0" stop-color="#aa80f9"/><stop offset="0.996" stop-color="#6165d7"/></linearGradient><clipPath id="d"><path class="a" d="M583.192,580.708a6.478,6.478,0,0,0,2.981-.67c2.769-2.078,8.2-5.632,8.938-9.218.125-.612-2.42-1.891-2.649-2.545-1.425-1.209-1.994-1.54-2.784-3.354-2.332-5.357,7.89-11.521-.649-16.924-6.254-3.958-12.645-3.144-9.085-13.542s.309-31.944-12.849-27.539c-7.551,2.529-3.437,13.276-8.514,19.04-4.824,5.477-3.533,11.39,2.164,16.969s1.337,7.536-2.214,13.017c-4.265,6.584,6.483,10.819,11.612,12.351C574.274,569.527,583.958,575.455,583.192,580.708Z" transform="translate(-555.614 -506.33)"/></clipPath><clipPath id="f"><path class="b" d="M563.633,1522.854a6.476,6.476,0,0,0,2.514-1.736c1.791-2.963,5.5-8.292,4.843-11.891-.113-.615-2.951-.849-3.409-1.369-1.773-.588-2.425-.682-3.836-2.07-4.166-4.1,3.009-13.636-6.93-15.454-7.28-1.332-12.9,1.812-13.49-9.163s-11.658-29.743-22.214-20.736c-6.058,5.169,1.776,13.6-.777,20.842-2.426,6.883.982,11.885,8.352,14.929s4.058,6.49,2.814,12.9c-1.494,7.7,10.058,7.61,15.388,7.113C551.181,1515.819,562.379,1517.7,563.633,1522.854Z" transform="translate(-518.754 -1458.062)"/></clipPath><linearGradient id="g" y1="0.5" x2="1" y2="0.5" gradientUnits="objectBoundingBox"><stop offset="0" stop-color="#444b8c"/><stop offset="0.996" stop-color="#26264f"/></linearGradient><linearGradient id="h" x1="0.782" y1="0.329" x2="-0.103" y2="0.987" gradientUnits="objectBoundingBox"><stop offset="0" stop-color="#ffc444"/><stop offset="0.996" stop-color="#f36f56"/></linearGradient><linearGradient id="i" x1="0.416" y1="0.207" x2="0.655" y2="0.651" xlink:href="#h"/><linearGradient id="j" x1="-21.313" y1="1.152" x2="-21.313" y2="-0.027" xlink:href="#h"/><linearGradient id="k" x1="-22.318" y1="0.734" x2="-22.318" y2="-0.116" xlink:href="#h"/><linearGradient id="l" x1="-3.026" y1="0.5" x2="-2.026" y2="0.5" gradientUnits="objectBoundingBox"><stop offset="0" stop-color="#311944"/><stop offset="1" stop-color="#893976"/></linearGradient><linearGradient id="m" x1="-3.058" y1="0.129" x2="-2.337" y2="0.731" xlink:href="#l"/><linearGradient id="n" x1="-2.774" y1="0.047" x2="-2.054" y2="0.677" xlink:href="#l"/><linearGradient id="o" y1="0.5" x2="1" y2="0.5" gradientUnits="objectBoundingBox"><stop offset="0" stop-color="#fcb148"/><stop offset="0.052" stop-color="#fdb946"/><stop offset="0.142" stop-color="#fec144"/><stop offset="0.318" stop-color="#ffc444"/><stop offset="0.485" stop-color="#fdb946"/><stop offset="0.775" stop-color="#f99c4c"/><stop offset="0.866" stop-color="#f8924f"/><stop offset="1" stop-color="#f8924f"/></linearGradient><linearGradient id="p" x1="0.5" y1="-0.287" x2="0.5" y2="1.028" xlink:href="#o"/><linearGradient id="q" x1="-10.988" y1="-1.343" x2="-10.444" y2="1.115" xlink:href="#a"/><linearGradient id="r" x1="-13.062" y1="0.292" x2="-13.809" y2="1.155" xlink:href="#h"/><linearGradient id="s" x1="-94.186" y1="-25.293" x2="-97.619" y2="-19.574" xlink:href="#h"/><linearGradient id="t" x1="0.018" y1="-1.017" x2="0.749" y2="1.219" xlink:href="#g"/><linearGradient id="u" x1="0.5" y1="0" x2="0.5" y2="2.439" xlink:href="#o"/><linearGradient id="v" x1="0.053" y1="-0.577" x2="0.546" y2="0.805" xlink:href="#o"/><linearGradient id="w" x1="0" y1="0.5" x2="1" y2="0.5" xlink:href="#l"/><linearGradient id="y" x1="0.422" y1="-0.389" x2="0.624" y2="1.978" gradientUnits="objectBoundingBox"><stop offset="0" stop-color="#ff9085"/><stop offset="1" stop-color="#fb6fbb"/></linearGradient><linearGradient id="z" x1="-0.459" y1="-4.298" x2="1.051" y2="3.284" xlink:href="#y"/><linearGradient id="aa" x1="0.211" y1="0.31" x2="2.342" y2="1.616" gradientUnits="objectBoundingBox"><stop offset="0" stop-color="#ab316d"/><stop offset="1" stop-color="#792d3d"/></linearGradient><linearGradient id="ab" x1="-0.296" y1="0.228" x2="3.258" y2="1.642" xlink:href="#aa"/><linearGradient id="ac" x1="0.202" y1="0.075" x2="1.432" y2="1.827" xlink:href="#y"/></defs><g transform="translate(-499 -4828)"><path class="c" d="M614.52,509.016c-1.51-18.612-2.264-27.918-5.778-33.939-10.06-17.24-39.306-21.34-57.778-19.768-24.729,2.1-53.02,16.32-65.472,43.768-11.311,24.93-6.1,53.149,10.947,71.609,31.241,33.839,95.686,27.8,111.428,5.593,6.283-8.862,6.735-23.016,7.4-43.808A198.137,198.137,0,0,0,614.52,509.016Z" transform="matrix(-0.017, 1, -1, -0.017, 1104.148, 4361.073)"/><g transform="translate(-6.754 4336.866)"><g transform="translate(520.333 501.357)"><g transform="translate(0 0)"><path class="a" d="M583.192,580.708a6.478,6.478,0,0,0,2.981-.67c2.769-2.078,8.2-5.632,8.938-9.218.125-.612-2.42-1.891-2.649-2.545-1.425-1.209-1.994-1.54-2.784-3.354-2.332-5.357,7.89-11.521-.649-16.924-6.254-3.958-12.645-3.144-9.085-13.542s.309-31.944-12.849-27.539c-7.551,2.529-3.437,13.276-8.514,19.04-4.824,5.477-3.533,11.39,2.164,16.969s1.337,7.536-2.214,13.017c-4.265,6.584,6.483,10.819,11.612,12.351C574.274,569.527,583.958,575.455,583.192,580.708Z" transform="translate(-555.614 -506.33)"/><g class="d"><g class="e" transform="translate(-1.119 -1.877)"><path class="f" d="M870.278,533.787l.109-.126c-19.452-16.861-26.793-43.435-19.636-71.087l-.162-.042a77.458,77.458,0,0,0-.361,38.673A64.1,64.1,0,0,0,870.278,533.787Z" transform="translate(-834.306 -462.532)"/><path class="f" d="M574.828,1718.784c7.03-.4,17.857,2.43,24.135,6.3l.088-.142c-6.3-3.886-17.174-6.723-24.232-6.325Z" transform="translate(-572.877 -1664.762)"/><path class="f" d="M1237.463,1503.193l.14-.091c-2.088-3.216-2.469-7.363-1.135-12.327a43.628,43.628,0,0,1,5.533-11.848l-.141-.09a43.8,43.8,0,0,0-5.554,11.894C1234.959,1495.743,1235.348,1499.936,1237.463,1503.193Z" transform="translate(-1205.271 -1435.291)"/><path class="f" d="M545.044,1073.564l.145-.083c-3.623-6.264-10.5-9.516-15.636-11.141l-.05.159C534.607,1064.115,541.447,1067.346,545.044,1073.564Z" transform="translate(-529.502 -1036.639)"/><path class="f" d="M847.291,571.225l.164.031c1.526-8.008,7.893-13.725,11.552-16.42l-.1-.135C855.229,557.412,848.828,563.161,847.291,571.225Z" transform="translate(-833.675 -550.753)"/></g></g></g></g><g transform="translate(518.754 542.135)"><path class="b" d="M563.633,1522.854a6.476,6.476,0,0,0,2.514-1.736c1.791-2.963,5.5-8.292,4.843-11.891-.113-.615-2.951-.849-3.409-1.369-1.773-.588-2.425-.682-3.836-2.07-4.166-4.1,3.009-13.636-6.93-15.454-7.28-1.332-12.9,1.812-13.49-9.163s-11.658-29.743-22.214-20.736c-6.058,5.169,1.776,13.6-.777,20.842-2.426,6.883.982,11.885,8.352,14.929s4.058,6.49,2.814,12.9c-1.494,7.7,10.058,7.61,15.388,7.113C551.181,1515.819,562.379,1517.7,563.633,1522.854Z" transform="translate(-518.754 -1458.062)"/><g class="g"><g class="e" transform="translate(-0.593 -1.31)"><path class="f" d="M676.908,1486.223l.054-.158c-24.345-8.364-41.09-30.266-44.793-58.588l-.166.022a77.458,77.458,0,0,0,14.126,36A64.1,64.1,0,0,0,676.908,1486.223Z" transform="translate(-626.558 -1427.477)"/><path class="f" d="M791.62,2637.612c6.372-3,17.47-4.423,24.74-3.181l.028-.165c-7.3-1.247-18.442.186-24.84,3.195Z" transform="translate(-779.267 -2582.128)"/><path class="f" d="M1435.848,2217.59l.1-.137c-3.139-2.2-5.044-5.906-5.662-11.009a43.63,43.63,0,0,1,.7-13.057l-.164-.031a43.787,43.787,0,0,0-.7,13.108C1430.741,2211.617,1432.669,2215.36,1435.848,2217.59Z" transform="translate(-1390.259 -2160.542)"/><path class="f" d="M523.468,2127.862l.1-.132c-5.7-4.454-13.3-4.9-18.668-4.486l.013.167C510.255,2123,517.807,2123.44,523.468,2127.862Z" transform="translate(-504.903 -2093.317)"/><path class="f" d="M744.478,1455.026l.164-.032c-1.579-8,2.189-15.681,4.575-19.548l-.142-.088C746.676,1439.246,742.889,1446.972,744.478,1455.026Z" transform="translate(-733.851 -1435.019)"/></g></g></g><g transform="translate(532.118 491.134)"><g transform="translate(0 0)"><path class="h" d="M904.971,726.628l-71.195-4.342c-1.64-.084-3.116,1.8-3.116,3.386v96.643c0,2.2,2.128,2.639,3.768,2.462l70.542-7.595A2.775,2.775,0,0,0,907.3,814.4V729.274A2.589,2.589,0,0,0,904.971,726.628Z" transform="translate(-830.661 -712.808)"/><path class="i" d="M932.3,723.029l-71.335-3.7a2.76,2.76,0,0,0-2.975,2.736v97.4a2.584,2.584,0,0,0,2.975,2.568l71.335-7.74a2.79,2.79,0,0,0,2.329-2.8V725.7A2.6,2.6,0,0,0,932.3,723.029Z" transform="translate(-856.819 -709.977)"/><path class="j" d="M891.555,850.262a1.4,1.4,0,0,1-1.606-1.389v-97.19a1.494,1.494,0,0,1,1.606-1.48l71.335,3.552a1.409,1.409,0,0,1,1.262,1.443v85.958a1.51,1.51,0,0,1-1.262,1.514Z" transform="translate(-887.409 -739.529)"/><path class="c" d="M1122.038,989.9l-61.013,6.2V906.434l61.013,2.422Z" transform="translate(-1051.154 -889.068)"/><path class="k" d="M1370.742,759.756l-24.384.322.547-5.8a1.545,1.545,0,0,1,1.238-1.482l4.13-.669a1.5,1.5,0,0,0,1.117-.9l.448-1.025,10.8.7Z" transform="translate(-1324.262 -739.529)"/><path class="l" d="M1383.763,517.6a1.33,1.33,0,0,0-1.242-1.146l-3.9-.184a3.237,3.237,0,0,1-3-3.516l.15-4.446a1.417,1.417,0,0,0-1.295-1.529l-1.28-.081a1.691,1.691,0,0,1-1.489-2.018,3.013,3.013,0,0,0-2.679-3.539,3.561,3.561,0,0,0-3.624,3.133,2.14,2.14,0,0,1-.271.792,1.979,1.979,0,0,1-1.8,1.011l-1.321-.083a1.765,1.765,0,0,0-1.763,1.375l-1.1,4.512a4.228,4.228,0,0,1-4.168,3.272l-4.274-.2a1.845,1.845,0,0,0-1.709,1.071l-2.576,5.388a.624.624,0,0,0,.509.934l37.066,1.3a.715.715,0,0,0,.675-.836Zm-15.257-12.611a.884.884,0,0,1-.791-1.045,1.044,1.044,0,0,1,1.059-.921.884.884,0,0,1,.788,1.045A1.044,1.044,0,0,1,1368.506,504.989Z" transform="translate(-1324.261 -501.134)"/><path class="h" d="M1388.888,520.412a1.33,1.33,0,0,0-1.242-1.146l-3.9-.184a3.237,3.237,0,0,1-3-3.516l.15-4.445a1.417,1.417,0,0,0-1.295-1.529l-1.28-.081a1.691,1.691,0,0,1-1.489-2.018,3.013,3.013,0,0,0-2.679-3.539,3.561,3.561,0,0,0-3.624,3.133,2.136,2.136,0,0,1-.271.792,1.978,1.978,0,0,1-1.8,1.011l-1.32-.083a1.765,1.765,0,0,0-1.763,1.375l-1.1,4.512a4.229,4.229,0,0,1-4.168,3.272l-4.274-.2a1.846,1.846,0,0,0-1.709,1.071l-2.575,5.388a.624.624,0,0,0,.508.934l37.066,1.3a.714.714,0,0,0,.675-.836ZM1373.631,507.8a.884.884,0,0,1-.791-1.045,1.043,1.043,0,0,1,1.059-.921.884.884,0,0,1,.788,1.045A1.044,1.044,0,0,1,1373.631,507.8Z" transform="translate(-1329.167 -503.826)"/><g transform="translate(22.316 7.105)"><path class="m" d="M1382.544,678.909c-3.306-2.152-5.843-.626-7.9-3.053-2.206-2.6-.718-6.018-3-7.632-1.461-1.033-2.765-.122-4.464-.4a4.56,4.56,0,0,1-1.977-.871l-.916,3.763a4.229,4.229,0,0,1-4.168,3.272l-4.274-.2a1.846,1.846,0,0,0-1.709,1.071l-2.575,5.388a.624.624,0,0,0,.508.934l33.685,1.18A10.355,10.355,0,0,0,1382.544,678.909Z" transform="translate(-1351.482 -666.951)"/></g></g><g transform="translate(15.552 25.964)"><path class="i" d="M1215.2,1112.486l-21.584-1.039V1107.1l21.584,1.185Z" transform="translate(-1193.619 -1107.103)"/><path class="i" d="M1879.315,1232.76l-23.033-.977v-4.153l23.033,1.133Z" transform="translate(-1827.889 -1222.466)"/><path class="i" d="M1879.315,1373.239l-23.033-.75v-4.153l23.033.907Z" transform="translate(-1827.889 -1357.143)"/><path class="i" d="M1221.241,1734.36l-20.86-.2v-2.381l20.86.277Z" transform="translate(-1200.091 -1705.014)"/><path class="i" d="M1251.517,1825.856l-51.136-.178V1823.3l51.136.367Z" transform="translate(-1200.091 -1792.611)"/><path class="i" d="M1228.484,1910.6l-28.1.061v-2.381l28.1.042Z" transform="translate(-1200.091 -1873.951)"/><path class="i" d="M1216.9,2044.955l-16.514.186v-2.381l16.514-.125Z" transform="translate(-1200.091 -2002.551)"/><path class="i" d="M1251.517,2355.369l-51.136,2.8v-16.245l51.136-1.511Z" transform="translate(-1200.091 -2287.57)"/></g></g><g transform="translate(585.164 540.231)"><g transform="translate(0 0)"><path class="n" d="M2085.935,1417.856a3.166,3.166,0,0,0,.515-1.622,3.1,3.1,0,0,0-1.227-2.612c-.081.036.022.477.079.673.12.407.249.446.238.633-.022.385-.577.4-.87.91a1.377,1.377,0,0,0,0,1.306A1.556,1.556,0,0,0,2085.935,1417.856Z" transform="translate(-2083.827 -1413.62)"/><path class="o" d="M2664.838,2203.5l-.429-1.476,1.791-1.328,1.117-.417-.661,2.066Z" transform="translate(-2638.885 -2166.572)"/><path class="p" d="M2622.673,2963.941s.98,2.465.722,3.558a11,11,0,0,0,1.733-.155,11.938,11.938,0,0,1-.505-1.681,16.527,16.527,0,0,1-.1-1.97Z" transform="translate(-2598.937 -2897.278)"/><path class="q" d="M2300.541,3103.745a.77.77,0,0,1,.185.453.732.732,0,0,1-.055.3c-.167.439-.429.5-.713.964-.173.285-.14.371-.3.5a1.039,1.039,0,0,1-.681.182,12.059,12.059,0,0,1-1.574-.089q.527-.68,1.123-1.378.262-.306.522-.6l1.034-.349Z" transform="translate(-2287.606 -3031.317)"/><path class="r" d="M2306.68,2986.872s-.591,3.084.161,3.947c.64.864-.31.247-.31.247l-1.134.99-.681,1.176a19.453,19.453,0,0,0,.459-4.215c-.167-1.2-.251-2.005-.251-2.005Z" transform="translate(-2294.605 -2919.463)"/><path class="s" d="M2263.074,2186.13s-1.588,1.421-1.588,7.269.752,18.549.752,18.549l1.2,9.093a7.96,7.96,0,0,0,2.083-.206c.752-3.426,1.977-9.221,1.392-14.067-.25-5.264,2.089-11.865,2.089-11.865s2.005,6.684,3.426,10.026,4.125,13.813,4.375,14.565a4.119,4.119,0,0,0,2.372-.289s-1.066-11.268-2.068-15.529-.919-14.538-2.59-17.462C2270.761,2184.71,2263.074,2186.13,2263.074,2186.13Z" transform="translate(-2253.227 -2152.45)"/><path class="t" d="M2263.074,2186.13s-1.588,1.421-1.588,7.27.752,18.549.752,18.549l1.2,9.093a7.954,7.954,0,0,0,2.083-.206c.752-3.426,1.977-9.221,1.393-14.067-.251-5.264,2.089-11.865,2.089-11.865s2.005,6.684,3.426,10.026,4.125,13.813,4.375,14.564a4.12,4.12,0,0,0,2.372-.289s-1.066-11.267-2.068-15.529-.919-14.538-2.59-17.463C2270.761,2184.71,2263.074,2186.13,2263.074,2186.13Z" transform="translate(-2253.227 -2152.449)"/><path class="u" d="M2271.321,2196.847a10.541,10.541,0,0,0,3.96,7.178c1.98,1.485.495,4.7,1.238,7.178.248.742.99,1.485,1.238,2.228.921,1.842.061,4.1.479,6.046a2.652,2.652,0,0,0,.945-.271s-1.066-11.267-2.068-15.529-.919-14.538-2.59-17.463c-3.76-1.5-11.447-.083-11.447-.083s-1.588,1.421-1.588,7.27c0,.474.005.995.014,1.549a6.018,6.018,0,0,0,7.1.166.985.985,0,0,1,.4-.18l.011-.031.009.029C2269.962,2194.76,2271.107,2195.988,2271.321,2196.847Z" transform="translate(-2253.227 -2152.449)"/><g transform="translate(23.975 69.33)"><path class="q" d="M2628.479,3074.341s-.244,0-.224.315-.11,1.4,1.131,1.451a3.788,3.788,0,0,0,1.473-.088,10.139,10.139,0,0,0-.325-1.038l-.4-.509-1.068-.112Z" transform="translate(-2628.254 -3072.514)"/><path class="v" d="M2632.168,3034.62a3.951,3.951,0,0,0-.32-1.006c-.219-.493-.04-.677-.249-1.127a1.344,1.344,0,0,0-.3-.448,1.284,1.284,0,0,0-.876-.334.891.891,0,0,0-.413.1.967.967,0,0,0-.372.392,4.4,4.4,0,0,0-.3.887,2.232,2.232,0,0,0-.078.3,2.164,2.164,0,0,0-.033.271,5.8,5.8,0,0,1,1.842.244,1.037,1.037,0,0,1,.4.845c0,.325.163.478.326.468A.534.534,0,0,0,2632.168,3034.62Z" transform="translate(-2629.191 -3031.704)"/></g><path class="v" d="M2296.483,3068.877c.28,0,.485.227.64.763s.9,1.011.031.9-1.5,1.114-1.8,1.567-1.14.857-1.119.414.387-.651.49-1.1S2295.846,3068.867,2296.483,3068.877Z" transform="translate(-2284.566 -2997.955)"/><path class="w" d="M2449.138,1766.2a9.41,9.41,0,0,0-.585-7.75,9.228,9.228,0,0,0-5.054-3.841c-2.55-.753-3.827.214-4.632-.676-1.365-1.511.181-6.657,3.172-7.687,3.372-1.162,7.416,3.306,9.055,6.24a13.533,13.533,0,0,1,1.5,8.464,13.215,13.215,0,0,1-1.632,4.569Z" transform="translate(-2422.528 -1731.817)"/><path class="x" d="M2234.066,1732.537c-3.01-.12-5.331-.073-6.641,1.238-1.385,1.384.014,2.946-.286,6.566-.46,5.542-3.992,6.9-4.257,12.518a14.348,14.348,0,0,0,.48,4.375,15.107,15.107,0,0,0,3.916,3.466c2.724,1.657,4.3,1.369,8.217,2.439,6.4,1.751,6.969,3.837,10.142,3.306,3.207-.537,6.021-3.236,5.681-4.718-.2-.888-1.5-.636-2.985-1.99-1.918-1.745-1.178-3.41-2.637-5.285-2.095-2.693-5.014-1.047-6.8-3.381-1.806-2.361-1.09-7.014.433-9.55.994-1.656,1.42-3.6,2.266-5.334a1.206,1.206,0,0,0,.116-.677c-.137-1.131-2.023-1.745-3.451-2.195A17.019,17.019,0,0,0,2234.066,1732.537Z" transform="translate(-2216.26 -1718.831)"/><path class="y" d="M2425.111,1726.523l.594-.183s.155.8,2.063.9a2.851,2.851,0,0,0,1.744-.594l.406.3a3.118,3.118,0,0,1-2.3,1.083A2.84,2.84,0,0,1,2425.111,1726.523Z" transform="translate(-2409.84 -1712.942)"/><g transform="translate(15.839 8.054)"><path class="z" d="M2439.006,1624.1a2.544,2.544,0,0,1,.965-1.569c.637-.507.767-.558.986-.6l.3-.045h.033a2.97,2.97,0,0,1,.795.282c.305.214.081,1.732-.843,3.619l-.109.479c.805.141,1,.287,1.011.4.014.251-.868.572-1.685.593-1.024.026-2.112-.415-2.091-.744.008-.133.2-.3.945-.459l.349-.49A2.242,2.242,0,0,1,2439.006,1624.1Z" transform="translate(-2438.366 -1621.016)"/><path class="aa" d="M2472.239,1665.007c.232-.139.409.16.3.421a.516.516,0,0,1-.7.269C2471.615,1665.541,2471.927,1665.194,2472.239,1665.007Z" transform="translate(-2470.332 -1662.256)"/><path class="ab" d="M2489.635,1604.346c-3.059-3.319-10.175-2.409-14.123.257-1.834,1.239-2.776,2.7-4.943,2.824a7.076,7.076,0,0,1-5.649-2.311c-.174-.225-.869-1.168-1.914-2.357a2.8,2.8,0,0,0-1.628-1.127,1.374,1.374,0,0,0-1.177.262,1.388,1.388,0,0,0-.305,1.253c.057.235.13.26.12.414-.03.433-.818.621-.774.839.031.156.441.1.512.294.077.214-.373.4-.567.937a2.265,2.265,0,0,0-.671,1.655,7.359,7.359,0,0,0,.228,2.881c1.084,3.5,1.859,6.005,3.736,7.4,2.484,1.851,4.721.142,11.041-.128,8.654-.37,10.811,2.563,13.921.556C2491.328,1615.492,2492.811,1607.792,2489.635,1604.346Z" transform="translate(-2457.611 -1601.6)"/></g><path class="ac" d="M2071.179,1504.418a8.674,8.674,0,0,0,7.4,9.746c2.629.4,3.762-.736,4.681.036,1.559,1.31.731,6.619-2.091,8.049-3.181,1.612-7.8-2.261-9.823-4.943a13.53,13.53,0,0,1-2.64-8.18,13.2,13.2,0,0,1,.992-4.749,2.346,2.346,0,0,1,1.479.042Z" transform="translate(-2068.706 -1500.392)"/><path class="ad" d="M2245.732,2070.229c-.77-.789.078-2.38-1.059-3.562-1.055-1.1-2.25-.211-3.948-1.156-2.178-1.211-1.578-3.429-3.659-4.622-1.5-.858-2.2.064-4.526-.385a9.418,9.418,0,0,1-6.548-4.911,8.442,8.442,0,0,1-.842-3.5,13.647,13.647,0,0,0-2.27,6.672,14.349,14.349,0,0,0,.48,4.375,15.111,15.111,0,0,0,3.916,3.466c2.724,1.657,4.3,1.368,8.217,2.439,6.4,1.751,6.969,3.837,10.142,3.306a8.59,8.59,0,0,0,4.942-2.8C2247.62,2070.867,2246.29,2070.8,2245.732,2070.229Z" transform="translate(-2216.26 -2024.733)"/></g></g><g transform="translate(586.522 506.931)"><path class="ae" d="M2136.9,891.685l-34.162,1.2a2.407,2.407,0,0,1-2.355-2.441l0-16.556a2.345,2.345,0,0,1,2.356-2.392l34.09,1.077a2.3,2.3,0,0,1,2.14,2.374l-.019,15.749C2138.949,891.972,2138.082,891.68,2136.9,891.685Z" transform="translate(-2100.383 -871.422)"/><path class="ae" d="M2731.646,1321.692l.015,6.424.629.285,4.512-6.486Z" transform="translate(-2704.598 -1302.33)"/><path class="af" d="M2149.47,891.435l-34.207-.132a2.417,2.417,0,0,1-2.363-2.452l0-16.634a2.355,2.355,0,0,1,2.364-2.4l34.231,1.076a2.315,2.315,0,0,1,2.148,2.385l-.019,15.827A2.257,2.257,0,0,1,2149.47,891.435Z" transform="translate(-2112.362 -869.813)"/><path class="ag" d="M2746.665,1320.7l-.006,6.751,5.18-6.529Z" transform="translate(-2718.969 -1301.38)"/><g transform="translate(11.54 4.649)"><path class="c" d="M2387.385,978.985l-16.507-.667a1.007,1.007,0,0,0-.734.267.963.963,0,0,0-.312.7l-.116,10.383a1.275,1.275,0,0,0,.4.944,1.333,1.333,0,0,0,.909.372h.057l16.2-.144a1.263,1.263,0,0,0,1.226-1.252l.111-9.3A1.3,1.3,0,0,0,2387.385,978.985Zm.068,1.533-5.886,5.105a2.027,2.027,0,0,1-1.372.5,2.073,2.073,0,0,1-1.179-.4l-7.792-5.641a.286.286,0,0,1-.066-.4.3.3,0,0,1,.411-.057l7.783,5.644a1.472,1.472,0,0,0,1.836-.071l5.893-5.1a.283.283,0,0,1,.371.428Z" transform="translate(-2369.716 -978.317)"/></g></g><g transform="translate(524.13 574.015)"><g transform="translate(0 0)"><path class="ah" d="M675.919,2231.769a3.155,3.155,0,0,0,2.848-5.609c-.074-.038-.15-.069-.226-.1a18.153,18.153,0,0,0,.6-2.585c.082,0,.164,0,.248-.009a3.291,3.291,0,0,0,2.893-3.35,2.787,2.787,0,0,0-3.017-2.823c-.085.007-.169.021-.252.036a16.626,16.626,0,0,0-.7-2.468c.075-.044.15-.09.223-.141a3.291,3.291,0,0,0,1-4.312,2.787,2.787,0,0,0-4.059-.77c-.072.051-.139.1-.205.159a14.739,14.739,0,0,0-1.811-1.69c.046-.076.091-.152.132-.232.786-1.549,1.814-3.241.372-3.945-3.335-1.628-4.766-.234-5.553,1.314-.041.081-.076.162-.11.243a14.785,14.785,0,0,0-2.433-.464c.005-.086.009-.173.007-.26-.034-1.7.472-2.627-1.167-2.659-3.572-.069-4.778,1.481-4.744,3.186,0,.089.009.176.018.263a16.611,16.611,0,0,0-2.405.893c-.037-.076-.076-.152-.12-.225a2.787,2.787,0,0,0-4.059-.77,3.291,3.291,0,0,0-1,4.312c.043.072.091.139.139.206a18.129,18.129,0,0,0-1.732,2.01c-.069-.043-.139-.085-.214-.123a3.155,3.155,0,0,0-2.848,5.609c.074.038.15.069.226.1a18.149,18.149,0,0,0-.6,2.585c-.082,0-.164,0-.248.009a3.292,3.292,0,0,0-2.893,3.35,2.787,2.787,0,0,0,3.017,2.823c.085-.007.169-.021.252-.036a16.635,16.635,0,0,0,.7,2.469c-.075.044-.15.089-.223.14a3.291,3.291,0,0,0-1,4.313,4.083,4.083,0,0,0,5.042,1.077c.072-.05-.843-.412-.777-.467a14.771,14.771,0,0,0,1.811,1.69c-.046.075-.091.152-.132.232a2.914,2.914,0,1,0,5.18,2.63c.041-.081.076-.162.11-.243a14.76,14.76,0,0,0,2.433.464c-.005.086-.009.173-.007.26a2.787,2.787,0,0,0,3.017,2.823,3.291,3.291,0,0,0,2.893-3.35c0-.089-.009-.177-.018-.263a16.666,16.666,0,0,0,2.405-.892c.037.076.076.152.12.225a2.787,2.787,0,0,0,4.059.77,3.292,3.292,0,0,0,1-4.313c-.043-.072-.091-.139-.139-.205a18.151,18.151,0,0,0,1.732-2.01C675.775,2231.688,675.845,2231.73,675.919,2231.769Zm-17.832.226c-5.194-2.637-7.089-9.333-4.234-14.957s9.38-8.045,14.574-5.408,7.09,9.333,4.234,14.957S663.28,2234.632,658.086,2231.995Z" transform="translate(-644.23 -2202.102)"/><path class="ai" d="M1019.526,2295.164a3.291,3.291,0,0,0,2.893-3.35,2.787,2.787,0,0,0-3.017-2.823c-.085.008-.169.021-.252.036a16.629,16.629,0,0,0-.7-2.469c.075-.044.15-.089.223-.14,1.4-.978,3.124-3.342,2.139-4.651-1.87-2.485-3.8-1.409-5.2-.431-.072.05-.139.1-.205.159a14.746,14.746,0,0,0-1.811-1.69c.046-.075.091-.152.132-.232a3.25,3.25,0,0,0,.183-2.563q-2.023,3.561-3.986,7.154c4.143,3.036,5.462,9.02,2.873,14.121a11.436,11.436,0,0,1-10.817,6.446c-.19.493-.377.989-.58,1.476-.552,1.325-1.18,2.622-1.808,3.917q.593.112,1.19.175c-.005.086-.009.172-.007.26.034,1.7,1.069,3.153,4.027,3,1.636-.086,1.917-1.818,1.883-3.523,0-.089-.009-.176-.018-.263a16.6,16.6,0,0,0,2.405-.892c.037.076.076.151.12.225.846,1.4,3.779,2,5.175,1.021s.727-3.16-.119-4.564c-.043-.072-.091-.139-.139-.205a18.142,18.142,0,0,0,1.733-2.01c.069.043.139.086.213.124a3.155,3.155,0,0,0,2.848-5.609c-.074-.037-.15-.069-.226-.1a18.154,18.154,0,0,0,.6-2.585C1019.36,2295.173,1019.442,2295.171,1019.526,2295.164Z" transform="translate(-984.366 -2273.8)"/><path class="aj" d="M715.3,2223.678a3.291,3.291,0,0,0,2.893-3.35,2.787,2.787,0,0,0-3.017-2.823c-.085.008-.169.021-.252.036a16.624,16.624,0,0,0-.7-2.469c.075-.044.15-.089.223-.141a3.29,3.29,0,0,0,1-4.312,2.787,2.787,0,0,0-4.059-.77c-.072.05-.139.1-.205.159a14.73,14.73,0,0,0-1.811-1.69c.046-.075.091-.152.132-.232a2.914,2.914,0,1,0-5.18-2.63c-.041.08-.076.162-.11.243a14.732,14.732,0,0,0-2.433-.464c.005-.086.009-.173.007-.26a2.787,2.787,0,0,0-3.017-2.823,3.292,3.292,0,0,0-2.893,3.35c0,.089.009.176.018.263a16.618,16.618,0,0,0-2.405.892c-.037-.076-.076-.152-.12-.225a2.787,2.787,0,0,0-4.059-.77,3.292,3.292,0,0,0-1,4.313c.043.072.091.139.139.205a18.119,18.119,0,0,0-1.732,2.01c-.069-.043-.139-.086-.214-.124a3.155,3.155,0,0,0-2.848,5.609c.074.038.15.07.226.1a18.128,18.128,0,0,0-.6,2.585c-.082,0-.164,0-.248.009a3.291,3.291,0,0,0-2.893,3.35,2.787,2.787,0,0,0,3.017,2.823c.085-.008.169-.021.252-.036a16.653,16.653,0,0,0,.7,2.469c-.075.044-.15.089-.223.14a3.291,3.291,0,0,0-1,4.313,2.787,2.787,0,0,0,4.059.77c.071-.05.139-.1.205-.159a14.708,14.708,0,0,0,1.811,1.69c-.046.075-.091.152-.132.232a2.914,2.914,0,1,0,5.18,2.63c.041-.08.076-.161.11-.243a14.787,14.787,0,0,0,2.433.465c-.005.086-.009.172-.007.26a2.787,2.787,0,0,0,3.017,2.823,3.291,3.291,0,0,0,2.893-3.35c0-.089-.009-.176-.018-.263a16.64,16.64,0,0,0,2.405-.892c.037.076.076.151.12.225a2.787,2.787,0,0,0,4.059.77,3.291,3.291,0,0,0,1-4.312c-.043-.072-.091-.139-.139-.206a18.171,18.171,0,0,0,1.733-2.01c.069.043.139.086.214.123a3.155,3.155,0,0,0,2.848-5.609c-.074-.037-.15-.069-.226-.1a18.126,18.126,0,0,0,.6-2.585C715.132,2223.687,715.214,2223.686,715.3,2223.678Zm-6.063,3.459c-3.058,6.023-10.045,8.615-15.607,5.792s-7.592-10-4.534-16.018,10.045-8.615,15.607-5.791S712.293,2221.115,709.235,2227.137Z" transform="translate(-678.599 -2202.14)"/></g></g></g></g></svg>