<svg width="70px" height="70px" xmlns="http://www.w3.org/2000/svg" xmlns:xlink="http://www.w3.org/1999/xlink" viewBox="0 0 60.38 43.2"><defs><style>.a,.aa{fill:#fff;}.b{fill:none;}.c{clip-path:url(#a);}.d{opacity:0.8;}.e,.r{fill:#5bb7f6;}.f{fill:#15af1d;}.g,.o{fill:#f0c500;}.h,.u{fill:#cb080c;}.i{fill:#231f20;}.j,.n{fill:#149917;}.ai,.k{fill:#808285;}.ah,.k,.o,.r,.u{mix-blend-mode:multiply;}.aa,.ah,.k,.o,.r,.u{isolation:isolate;}.l{clip-path:url(#b);}.m{fill:#353535;}.ad,.ah,.n,.q,.t,.w{opacity:0.7;}.p{clip-path:url(#c);}.q,.y{fill:#e1a415;}.s{clip-path:url(#d);}.ae,.t{fill:#4c99d1;}.v{clip-path:url(#e);}.ab,.w{fill:#af040d;}.x{clip-path:url(#f);}.z{clip-path:url(#g);}.aa{mix-blend-mode:lighten;}.ac{clip-path:url(#h);}.af{clip-path:url(#i);}.ag{clip-path:url(#j);}.aj{clip-path:url(#k);}.ak{clip-path:url(#l);}</style><clipPath id="a"><circle class="a" cx="38.5" cy="38.5" r="38.5" transform="translate(1266 2169)"/></clipPath><clipPath id="b"><path class="b" d="M216.836,195.971a.815.815,0,0,0,1.461.6c0-.006,0-.011.006-.017h0l.637-1.544-1.461-.6-.637,1.544h0Zm.754.245c.206.085.334.248.286.365s-.254.141-.46.056-.334-.248-.286-.364S217.384,196.131,217.59,196.216Z" transform="translate(-216.799 -194.411)"/></clipPath><clipPath id="c"><path class="b" d="M390.4,196.2a.815.815,0,0,0,1.578-.094c0-.006,0-.012,0-.018h0l-.1-1.667-1.578.094.1,1.667h0C390.4,196.185,390.4,196.191,390.4,196.2Zm.785-.108c.223-.013.409.078.417.2s-.167.238-.389.251-.409-.078-.417-.2S390.966,196.1,391.189,196.089Z" transform="translate(-390.303 -194.418)"/></clipPath><clipPath id="d"><path class="b" d="M180.037,169.316a.815.815,0,0,0,.717-1.409l-.016-.007h0l-1.488-.758-.717,1.408,1.488.758h0Zm.3-.732c.1-.2.274-.313.386-.256s.121.264.02.463-.274.313-.386.256S180.241,168.782,180.341,168.584Z" transform="translate(-178.533 -167.141)"/></clipPath><clipPath id="e"><path class="b" d="M98.132,188.409a.815.815,0,0,0,1.578-.094c0-.006,0-.012,0-.018h0l-.1-1.667-1.578.094.1,1.667h0C98.132,188.4,98.132,188.4,98.132,188.409Zm.785-.108c.223-.013.409.078.417.2s-.167.238-.389.251-.409-.078-.417-.2S98.7,188.315,98.918,188.3Z" transform="translate(-98.032 -186.63)"/></clipPath><clipPath id="f"><path class="b" d="M451.176,162.267a.815.815,0,0,0,1.08-1.155l-.014-.011h0l-1.22-1.141-1.08,1.155,1.22,1.141h0Zm.5-.619c.152-.163.35-.225.442-.139s.043.288-.109.45-.35.225-.442.139S451.519,161.811,451.671,161.648Z" transform="translate(-449.943 -159.959)"/></clipPath><clipPath id="g"><path class="b" d="M143.527,191.148a1.158,1.158,0,0,0-2.157.628c0,.008.006.016.009.024h0l.664,2.279,2.157-.628-.664-2.279h0C143.531,191.165,143.529,191.156,143.527,191.148Zm-1.054.4c-.3.088-.591.021-.641-.15s.156-.382.46-.471.591-.022.641.15S142.777,191.457,142.473,191.546Z" transform="translate(-141.343 -190.565)"/></clipPath><clipPath id="h"><path class="b" d="M262.2,209.8a1.158,1.158,0,0,0-2.243.123c0,.009,0,.017,0,.025h0l.13,2.37,2.243-.123-.13-2.37h0C262.2,209.819,262.2,209.811,262.2,209.8Zm-1.117.148c-.317.017-.581-.113-.591-.292s.239-.337.555-.354.58.113.59.292S261.4,209.933,261.079,209.95Z" transform="translate(-259.952 -208.987)"/></clipPath><clipPath id="i"><path class="b" d="M433.282,183.118h0l.886,2.2,2.084-.839-.886-2.2h0c0-.008,0-.016-.008-.024a1.158,1.158,0,0,0-2.084.839C433.274,183.1,433.279,183.11,433.282,183.118Zm.411-.448c-.067-.166.117-.4.411-.514s.586-.08.653.086-.117.4-.411.514S433.759,182.835,433.693,182.669Z" transform="translate(-433.221 -181.761)"/></clipPath><clipPath id="j"><path class="b" d="M54.727,186.062a1.24,1.24,0,0,0-2.406-.006c0,.009,0,.018,0,.027h0l-.006,2.542,2.406.006.006-2.542h0C54.725,186.08,54.726,186.071,54.727,186.062Zm-1.2.09c-.339,0-.614-.157-.613-.348s.276-.346.615-.345.614.156.613.348S53.863,186.152,53.524,186.152Z" transform="translate(-52.315 -185.121)"/></clipPath><clipPath id="k"><path class="b" d="M348.644,203.673a1.24,1.24,0,0,0-2.406-.006c0,.009,0,.018,0,.027h0l-.006,2.541,2.406.006.006-2.542h0C348.643,203.691,348.644,203.682,348.644,203.673Zm-1.2.089c-.339,0-.613-.156-.613-.348s.276-.346.615-.345.614.156.613.348S347.78,203.763,347.44,203.762Z" transform="translate(-346.232 -202.732)"/></clipPath><clipPath id="l"><path class="b" d="M303.022,179.935a.815.815,0,0,0,1.217-1.009l-.012-.013h0l-1.066-1.286-1.217,1.009,1.066,1.286h0Zm.569-.552c.172-.142.376-.179.456-.082s.007.291-.165.433-.376.179-.457.082S303.42,179.526,303.591,179.384Z" transform="translate(-301.944 -177.627)"/></clipPath></defs><g class="c" transform="translate(-1266 -2169)"><g transform="translate(1209.611 2052.036)"><g class="d" transform="translate(37.762 143.964)"><path class="e" d="M156.252,152.382a3.846,3.846,0,0,1-5.028,2.074l-.457-.19c-.4-.327-.613-.173-.465.343a4.551,4.551,0,0,0,2.1,2.694,3.846,3.846,0,0,0,5.028-2.074,4.552,4.552,0,0,0-.413-3.389c-.259-.47-.517-.432-.572.085Z" transform="translate(-123.529 -149.671)"/><path class="f" d="M220.781,170.823a3.938,3.938,0,0,1-2.526-4.962l.157-.482c.3-.439.126-.64-.388-.447a4.661,4.661,0,0,0-2.579,2.359,3.938,3.938,0,0,0,2.527,4.962,4.66,4.66,0,0,0,3.425-.7c.458-.3.4-.562-.133-.576Z" transform="translate(-172.681 -159.765)"/><path class="g" d="M384.694,169.053a3.928,3.928,0,0,1-4.426-3.357l-.069-.5c.079-.525-.165-.629-.543-.233a4.649,4.649,0,0,0-1.29,3.24,3.928,3.928,0,0,0,4.426,3.357,4.65,4.65,0,0,0,2.772-2.115c.28-.471.114-.678-.37-.46Z" transform="translate(-296.02 -159.662)"/><path class="e" d="M285.86,161.6a3.847,3.847,0,0,1-5.439-.087l-.344-.355c-.241-.46-.495-.4-.564.131a4.553,4.553,0,0,0,.859,3.3,3.846,3.846,0,0,0,5.438.087,4.553,4.553,0,0,0,.964-3.276c-.051-.534-.3-.6-.558-.149Z" transform="translate(-221.258 -156.731)"/><path class="h" d="M92.337,162.153a3.793,3.793,0,0,1-4.274-3.242L88,158.427c.077-.507-.159-.608-.524-.224a4.49,4.49,0,0,0-1.246,3.129,3.793,3.793,0,0,0,4.274,3.242,4.49,4.49,0,0,0,2.677-2.042c.271-.455.11-.655-.357-.444Z" transform="translate(-75.092 -154.556)"/><path class="h" d="M432.048,144.679a3.793,3.793,0,0,1-5.332.59l-.381-.3c-.293-.42-.534-.331-.535.2a4.488,4.488,0,0,0,1.25,3.126,3.793,3.793,0,0,0,5.332-.59,4.49,4.49,0,0,0,.535-3.324c-.117-.516-.371-.551-.565-.076Z" transform="translate(-331.909 -143.964)"/><path class="g" d="M137.005,205.458c-.387.042-.538-.2-.337-.528l.889-1.468a1.513,1.513,0,0,0,.076-1.251l-.705-1.564c-.16-.355.02-.573.4-.484l1.671.392a1.511,1.511,0,0,0,1.212-.314l1.271-1.154c.288-.262.55-.159.583.229l.143,1.711a1.513,1.513,0,0,0,.673,1.056l1.49.852c.338.193.321.474-.038.625l-1.582.665a1.513,1.513,0,0,0-.8.967l-.349,1.68c-.079.381-.352.451-.606.157l-1.121-1.3a1.513,1.513,0,0,0-1.166-.458Z" transform="translate(-113.187 -185.541)"/><path class="h" d="M249.826,221.345c-.047-.37.178-.519.5-.331l1.422.827a1.45,1.45,0,0,0,1.2.052l1.487-.7c.337-.159.549.009.47.373l-.348,1.609a1.448,1.448,0,0,0,.322,1.156l1.128,1.2c.256.272.161.525-.21.562l-1.637.166a1.451,1.451,0,0,0-1,.663l-.791,1.443c-.179.327-.449.316-.6-.026l-.664-1.505a1.449,1.449,0,0,0-.94-.747l-1.617-.306c-.366-.069-.439-.33-.161-.579l1.227-1.1a1.45,1.45,0,0,0,.42-1.125Z" transform="translate(-197.614 -202.171)"/><path class="e" d="M438.876,193.4c.324-.183.309-.452-.034-.6l-1.509-.642a1.445,1.445,0,0,1-.757-.928l-.326-1.607c-.074-.365-.335-.434-.579-.153l-1.078,1.237a1.445,1.445,0,0,1-1.116.433l-1.63-.186c-.369-.042-.515.184-.324.5l.844,1.407a1.448,1.448,0,0,1,.067,1.2l-.681,1.493c-.154.338.016.547.379.464l1.6-.368a1.445,1.445,0,0,1,1.158.306l1.209,1.108c.274.252.525.154.558-.216l.144-1.634a1.446,1.446,0,0,1,.649-1.007Z" transform="translate(-336.172 -178.25)"/><path class="f" d="M48.792,203.443c.28.273.193.544-.195.6l-1.71.249a1.527,1.527,0,0,0-1.021.742l-.763,1.551c-.174.352-.458.352-.631,0l-.766-1.55a1.525,1.525,0,0,0-1.021-.741l-1.711-.248c-.388-.056-.476-.326-.2-.6l1.237-1.207a1.523,1.523,0,0,0,.39-1.2l-.293-1.7c-.067-.386.163-.553.51-.371l1.531.8a1.522,1.522,0,0,0,1.262,0l1.529-.805c.347-.183.577-.016.511.371l-.291,1.7a1.526,1.526,0,0,0,.39,1.2Z" transform="translate(-40.613 -185.5)"/><path class="f" d="M342.229,221.227c.28.274.193.543-.195.6l-1.71.25a1.524,1.524,0,0,0-1.021.742l-.764,1.551c-.173.351-.458.351-.631,0l-.766-1.55a1.524,1.524,0,0,0-1.021-.741l-1.711-.248c-.388-.056-.476-.326-.2-.6l1.238-1.208a1.523,1.523,0,0,0,.389-1.2l-.293-1.7c-.067-.386.164-.553.51-.371l1.531.8a1.524,1.524,0,0,0,1.262,0l1.53-.806c.347-.183.576-.016.511.371l-.291,1.7a1.524,1.524,0,0,0,.391,1.2Z" transform="translate(-262.523 -198.949)"/></g><g transform="translate(36.843 144.153)"><path class="i" d="M55.966,172.944a39.152,39.152,0,0,0,17.1-3.656l0,.007.055-.03.041-.021c.04-.02.1-.049.168-.087l.1-.046.127-.061.064.066c.078.085.146.156.22.224A27.743,27.743,0,0,0,77.9,172.7a24.622,24.622,0,0,0,6.391,3.118,21.774,21.774,0,0,0,6.525,1.01,25.615,25.615,0,0,0,12.339-3.43l0,0,.355-.2c.125-.071.25-.143.375-.216.117.05.238.1.37.144l.029.01a35.048,35.048,0,0,0,12.521,2.3,33.643,33.643,0,0,0,3.827-.217,32.878,32.878,0,0,0,15.426-5.989A38.964,38.964,0,0,0,140.018,166l.019-.018v-.5l-.1.1a32.735,32.735,0,0,1-23.132,9.533,34.4,34.4,0,0,1-12.563-2.347,2.164,2.164,0,0,0,.976-1.384,1.217,1.217,0,0,0-.545-1.038,1.418,1.418,0,0,0-1.285-.261,1.386,1.386,0,0,0-.923.888c-.168.507-.115,1.232,1.056,1.846l-.324.184a25.309,25.309,0,0,1-12.349,3.471c-8.684,0-14.764-5.3-16.974-7.573l-.039-.043a1.313,1.313,0,0,0,.6-.737.751.751,0,0,0-.539-.874.668.668,0,0,0-.9.624,1.745,1.745,0,0,0,.343.9c-.057.033-.111.064-.162.092a38.7,38.7,0,0,1-17.215,3.751,55.1,55.1,0,0,1-11.988-1.38,67.821,67.821,0,0,1-7.056-2l-.08-.028v.352l.041.014a67.671,67.671,0,0,0,7.016,1.983A55.491,55.491,0,0,0,55.966,172.944Zm17.7-5.407a.426.426,0,0,1,.127.022.415.415,0,0,1,.316.5c-.016.1-.114.268-.48.526a1.472,1.472,0,0,1-.29-.724.343.343,0,0,1,.142-.266A.311.311,0,0,1,73.664,167.537Zm29.116,3.537a1.062,1.062,0,0,1,.7-.676,1.053,1.053,0,0,1,.983.205.9.9,0,0,1,.418.752c-.04.583-.8,1.118-1.018,1.259C102.946,172.191,102.581,171.673,102.78,171.074Z" transform="translate(-36.843 -160.425)"/><g transform="translate(43.442 5.374)"><g transform="translate(1.096 6.003)"><rect class="j" width="0.66" height="1.688" transform="translate(0 0.61) rotate(-67.572)"/><rect class="k" width="0.66" height="0.844" transform="translate(0.78 0.932) rotate(-67.579)"/></g><path class="i" d="M216.836,195.971a.815.815,0,0,0,1.461.6c0-.006,0-.011.006-.017h0l.637-1.544-1.461-.6-.637,1.544h0Zm.754.245c.206.085.334.248.286.365s-.254.141-.46.056-.334-.248-.286-.364S217.384,196.131,217.59,196.216Z" transform="translate(-216.375 -187.677)"/><g transform="translate(0.424 6.734)"><g class="l"><rect class="m" width="2.915" height="1.353" transform="matrix(0.381, -0.924, 0.924, 0.381, -0.862, 2.264)"/></g></g><rect class="i" width="0.236" height="1.969" transform="translate(0.918 6.678) rotate(-67.571)"/><rect class="m" width="0.216" height="0.985" transform="translate(0.925 6.659) rotate(-67.579)"/><path class="f" d="M220.169,172.295a3.637,3.637,0,0,1-2.333-4.583l.145-.445c.278-.4.117-.591-.359-.413a4.3,4.3,0,0,0-2.382,2.179,3.637,3.637,0,0,0,2.333,4.583,4.3,4.3,0,0,0,3.163-.644c.423-.279.368-.519-.123-.533Z" transform="translate(-215.061 -166.786)"/><path class="n" d="M217.965,173.542a3.636,3.636,0,0,1-2.333-4.583,4.2,4.2,0,0,1,2.326-2.157.776.776,0,0,0-.335.062,4.3,4.3,0,0,0-2.382,2.179,3.637,3.637,0,0,0,2.333,4.583,3.054,3.054,0,0,0,1.72-.015A2.806,2.806,0,0,1,217.965,173.542Z" transform="translate(-215.061 -166.797)"/><path class="a" d="M224.459,174.307a3.669,3.669,0,0,0,2.019,3.546,2.461,2.461,0,0,1-1.795-1.533A3.445,3.445,0,0,1,224.459,174.307Z" transform="translate(-222.106 -172.474)"/></g><g transform="translate(83.348 5.346)"><g transform="translate(2.71 5.993)"><g transform="translate(0 0)"><g transform="translate(0 0)"><rect class="g" width="1.688" height="0.66" transform="translate(0 0.1) rotate(-3.408)"/></g><rect class="o" width="0.844" height="0.66" transform="translate(0.842 0.05) rotate(-3.41)"/></g></g><path class="i" d="M390.4,196.2a.815.815,0,0,0,1.578-.094c0-.006,0-.012,0-.018h0l-.1-1.667-1.578.094.1,1.667h0C390.4,196.185,390.4,196.191,390.4,196.2Zm.785-.108c.223-.013.409.078.417.2s-.167.238-.389.251-.409-.078-.417-.2S390.966,196.1,391.189,196.089Z" transform="translate(-387.494 -187.655)"/><g transform="translate(2.809 6.763)"><g class="p"><rect class="m" width="1.353" height="2.915" transform="translate(-0.576 -0.106) rotate(-3.409)"/></g></g><rect class="i" width="1.969" height="0.236" transform="translate(2.603 6.652) rotate(-3.402)"/><rect class="m" width="0.985" height="0.217" transform="matrix(0.998, -0.06, 0.06, 0.998, 2.603, 6.653)"/><path class="g" d="M384.657,170.682a3.637,3.637,0,0,1-4.1-3.108l-.063-.464c.073-.486-.152-.582-.5-.215a4.305,4.305,0,0,0-1.194,3A3.637,3.637,0,0,0,382.9,173a4.3,4.3,0,0,0,2.566-1.958c.26-.436.105-.627-.342-.426Z" transform="translate(-378.778 -166.672)"/><path class="q" d="M383.212,172.819a3.637,3.637,0,0,1-4.1-3.109,4.2,4.2,0,0,1,1.154-2.955.778.778,0,0,0-.275.2,4.305,4.305,0,0,0-1.194,3,3.637,3.637,0,0,0,4.1,3.108,3.052,3.052,0,0,0,1.542-.763A2.8,2.8,0,0,1,383.212,172.819Z" transform="translate(-378.778 -166.736)"/><path class="a" d="M386.152,174.477a3.67,3.67,0,0,0,3.363,2.313,2.461,2.461,0,0,1-2.284-.6A3.443,3.443,0,0,1,386.152,174.477Z" transform="translate(-384.354 -172.574)"/></g><g transform="translate(27.964 1.957)"><g transform="translate(5.865 3.106)"><g transform="translate(0 0)"><g transform="translate(0 0)"><rect class="e" width="1.688" height="0.66" transform="translate(0 1.504) rotate(-63.012)"/></g><rect class="r" width="0.844" height="0.66" transform="translate(0.383 0.752) rotate(-63.005)"/></g></g><path class="i" d="M180.037,169.316a.815.815,0,0,0,.717-1.409l-.016-.007h0l-1.488-.758-.717,1.408,1.488.758h0Zm.3-.732c.1-.2.274-.313.386-.256s.121.264.02.463-.274.313-.386.256S180.241,168.782,180.341,168.584Z" transform="translate(-171.959 -163.638)"/><g transform="translate(6.574 3.503)"><g class="s"><rect class="m" width="1.353" height="2.916" transform="translate(-0.464 1.804) rotate(-63.012)"/></g></g><rect class="i" width="1.969" height="0.236" transform="matrix(0.454, -0.891, 0.891, 0.454, 6.293, 4.986)"/><rect class="m" width="0.985" height="0.217" transform="matrix(0.454, -0.891, 0.891, 0.454, 6.293, 4.986)"/><path class="e" d="M157.235,153.594a3.637,3.637,0,0,1-4.754,1.961l-.432-.179c-.382-.309-.58-.163-.44.324a4.3,4.3,0,0,0,1.983,2.548,3.637,3.637,0,0,0,4.754-1.961,4.3,4.3,0,0,0-.39-3.2c-.245-.444-.488-.408-.541.08Z" transform="translate(-151.564 -152.771)"/><path class="t" d="M158.3,161.472a3.637,3.637,0,0,1-4.754,1.961,4.2,4.2,0,0,1-1.965-2.49.775.775,0,0,0,.036.339,4.3,4.3,0,0,0,1.983,2.547,3.637,3.637,0,0,0,4.754-1.961,3.053,3.053,0,0,0,.121-1.716A2.8,2.8,0,0,1,158.3,161.472Z" transform="translate(-151.572 -158.354)"/><path class="a" d="M158.9,160.847a3.669,3.669,0,0,0,3.7-1.73,2.461,2.461,0,0,1-1.671,1.667A3.444,3.444,0,0,1,158.9,160.847Z" transform="translate(-157.112 -157.57)"/></g><g transform="translate(12.106 3.447)"><g transform="translate(2.71 5.993)"><g transform="translate(0 0)"><rect class="h" width="1.688" height="0.66" transform="translate(0 0.1) rotate(-3.403)"/><rect class="u" width="0.844" height="0.66" transform="translate(0.842 0.05) rotate(-3.411)"/></g></g><path class="i" d="M98.132,188.409a.815.815,0,0,0,1.578-.094c0-.006,0-.012,0-.018h0l-.1-1.667-1.578.094.1,1.667h0C98.132,188.4,98.132,188.4,98.132,188.409Zm.785-.108c.223-.013.409.078.417.2s-.167.238-.389.251-.409-.078-.417-.2S98.7,188.315,98.918,188.3Z" transform="translate(-95.223 -179.867)"/><g transform="translate(2.809 6.763)"><g class="v"><rect class="m" width="1.353" height="2.915" transform="matrix(0.998, -0.059, 0.059, 0.998, -0.576, -0.106)"/></g></g><rect class="i" width="1.969" height="0.236" transform="translate(2.602 6.652) rotate(-3.402)"/><rect class="m" width="0.985" height="0.217" transform="matrix(0.998, -0.06, 0.06, 0.998, 2.602, 6.653)"/><path class="h" d="M92.387,162.894a3.637,3.637,0,0,1-4.1-3.109l-.063-.464c.074-.486-.153-.582-.5-.215a4.3,4.3,0,0,0-1.194,3,3.637,3.637,0,0,0,4.1,3.109,4.3,4.3,0,0,0,2.566-1.958c.26-.436.106-.628-.342-.426Z" transform="translate(-86.508 -158.884)"/><path class="w" d="M90.941,165.031a3.637,3.637,0,0,1-4.1-3.109A4.2,4.2,0,0,1,88,158.968a.773.773,0,0,0-.275.2,4.3,4.3,0,0,0-1.194,3,3.637,3.637,0,0,0,4.1,3.109,3.052,3.052,0,0,0,1.542-.763A2.809,2.809,0,0,1,90.941,165.031Z" transform="translate(-86.508 -158.948)"/><path class="a" d="M93.881,166.69A3.669,3.669,0,0,0,97.244,169a2.46,2.46,0,0,1-2.284-.6A3.443,3.443,0,0,1,93.881,166.69Z" transform="translate(-92.084 -164.787)"/></g><g transform="translate(94.972)"><g transform="translate(5.126 3.146)"><g transform="translate(0 0)"><g transform="translate(0 0)"><rect class="h" width="1.688" height="0.66" transform="matrix(0.683, -0.73, 0.73, 0.683, 0, 1.233)"/></g><rect class="u" width="0.844" height="0.66" transform="matrix(0.683, -0.73, 0.73, 0.683, 0.576, 0.616)"/></g></g><path class="i" d="M451.176,162.267a.815.815,0,0,0,1.08-1.155l-.014-.011h0l-1.22-1.141-1.08,1.155,1.22,1.141h0Zm.5-.619c.152-.163.35-.225.442-.139s.043.288-.109.45-.35.225-.442.139S451.519,161.811,451.671,161.648Z" transform="translate(-444.22 -156.249)"/><g transform="translate(5.723 3.71)"><g class="x"><rect class="m" width="1.353" height="2.915" transform="translate(-0.555 1.406) rotate(-46.91)"/></g></g><rect class="i" width="1.969" height="0.237" transform="translate(5.432 4.858) rotate(-46.908)"/><rect class="m" width="0.985" height="0.217" transform="translate(5.432 4.858) rotate(-46.91)"/><path class="h" d="M432.455,145.427a3.637,3.637,0,0,1-5.112.566l-.365-.292c-.281-.4-.511-.317-.512.19a4.3,4.3,0,0,0,1.2,3,3.636,3.636,0,0,0,5.112-.566,4.3,4.3,0,0,0,.514-3.187c-.112-.495-.356-.528-.542-.073Z" transform="translate(-426.465 -144.741)"/><path class="w" d="M432.834,150.45a3.636,3.636,0,0,1-5.112.566,4.2,4.2,0,0,1-1.2-2.937.776.776,0,0,0-.06.336,4.3,4.3,0,0,0,1.2,3,3.636,3.636,0,0,0,5.112-.566,3.051,3.051,0,0,0,.593-1.615A2.808,2.808,0,0,1,432.834,150.45Z" transform="translate(-426.465 -147.265)"/><path class="a" d="M432.939,150.833a3.67,3.67,0,0,0,4.031-.638,2.462,2.462,0,0,1-2.069,1.138A3.443,3.443,0,0,1,432.939,150.833Z" transform="translate(-431.361 -148.866)"/></g><g transform="translate(24.87 11.17)"><g transform="translate(1.271 3.013)"><rect class="g" width="2.399" height="0.938" transform="translate(0 0.671) rotate(-16.241)"/><rect class="y" width="1.199" height="0.938" transform="translate(0 0.671) rotate(-16.239)"/></g><path class="i" d="M143.527,191.148a1.158,1.158,0,0,0-2.157.628c0,.008.006.016.009.024h0l.664,2.279,2.157-.628-.664-2.279h0C143.531,191.165,143.529,191.156,143.527,191.148Zm-1.054.4c-.3.088-.591.021-.641-.15s.156-.382.46-.471.591-.022.641.15S142.777,191.457,142.473,191.546Z" transform="translate(-140.74 -190.565)"/><g transform="translate(0.603)"><g class="z"><rect class="m" width="1.923" height="4.143" transform="translate(0.711 -0.458) rotate(-16.242)"/></g></g><rect class="i" width="2.798" height="0.336" transform="translate(1.028 3.565) rotate(-16.245)"/><rect class="m" width="1.399" height="0.308" transform="translate(2.38 3.201) rotate(-16.243)"/><path class="g" d="M139.237,206.674c-.333.036-.463-.168-.29-.455l.765-1.263a1.3,1.3,0,0,0,.066-1.077l-.607-1.347c-.137-.305.017-.493.343-.416l1.439.338a1.3,1.3,0,0,0,1.044-.271l1.094-.994c.248-.225.473-.137.5.2l.123,1.473a1.3,1.3,0,0,0,.58.909l1.283.733c.291.166.276.409-.033.538l-1.362.572a1.3,1.3,0,0,0-.685.832l-.3,1.446c-.068.328-.3.389-.522.136l-.965-1.119a1.3,1.3,0,0,0-1-.395Z" transform="translate(-138.87 -198.505)"/><g transform="translate(0 2.559)"><path class="q" d="M139.237,206.674l.066-.007c-.555-.015.708-1.492.853-1.906a1.8,1.8,0,0,0-.109-1.409c-.243-.423.039-.736.473-.574a2.277,2.277,0,0,0,2.441-1.024c.553-.72.634-.293.645-.187l-.015-.179c-.028-.333-.254-.422-.5-.2l-1.094.994a1.3,1.3,0,0,1-1.044.271l-1.439-.338c-.326-.076-.48.111-.343.416l.607,1.347a1.3,1.3,0,0,1-.066,1.077l-.765,1.263C138.774,206.506,138.9,206.71,139.237,206.674Z" transform="translate(-138.87 -201.065)"/><path class="y" d="M158.307,203.208Z" transform="translate(-153.569 -202.686)"/></g><g transform="translate(0.423 2.914)"><path class="aa" d="M158.5,217.169s-.771.275-1.23.461a1.173,1.173,0,0,0-.748.8c-.088.312-.234,1.221-.234,1.221s-.1-1.4.264-1.857S158.5,217.169,158.5,217.169Z" transform="translate(-152.454 -213.598)"/><path class="aa" d="M142.829,222.263a1.431,1.431,0,0,0-.7-.146c-.342,0-1.526.205-1.526.205S142.519,221.524,142.829,222.263Z" transform="translate(-140.606 -217.213)"/><path class="aa" d="M157.621,204.7a1.434,1.434,0,0,1-.292-.65c-.068-.335-.125-1.535-.125-1.535S156.834,204.56,157.621,204.7Z" transform="translate(-153.093 -202.52)"/></g></g><g transform="translate(51.889 15.66)"><g transform="translate(2.56 3.36)"><rect class="h" width="2.399" height="0.938" transform="translate(0 0.132) rotate(-3.143)"/><rect class="ab" width="1.199" height="0.938" transform="matrix(0.998, -0.055, 0.055, 0.998, 0, 0.132)"/></g><path class="i" d="M262.2,209.8a1.158,1.158,0,0,0-2.243.123c0,.009,0,.017,0,.025h0l.13,2.37,2.243-.123-.13-2.37h0C262.2,209.819,262.2,209.811,262.2,209.8Zm-1.117.148c-.317.017-.581-.113-.591-.292s.239-.337.555-.354.58.113.59.292S261.4,209.933,261.079,209.95Z" transform="translate(-257.457 -208.987)"/><g transform="translate(2.495)"><g class="ac"><rect class="m" width="1.923" height="4.143" transform="matrix(0.998, -0.055, 0.055, 0.998, 1.045, -0.533)"/></g></g><rect class="i" width="2.798" height="0.336" transform="translate(2.351 3.32) rotate(-3.146)"/><rect class="m" width="1.399" height="0.308" transform="translate(3.749 3.272) rotate(-3.145)"/><g transform="translate(0 3.364)"><path class="h" d="M251.16,223.156c-.042-.332.16-.466.449-.3l1.277.743a1.3,1.3,0,0,0,1.078.047l1.336-.631c.3-.143.493.008.422.335l-.312,1.444a1.3,1.3,0,0,0,.289,1.039l1.013,1.076c.229.243.145.471-.188.5l-1.471.149a1.3,1.3,0,0,0-.9.6l-.71,1.3c-.161.294-.4.283-.539-.023l-.6-1.352a1.3,1.3,0,0,0-.844-.671l-1.452-.275c-.329-.063-.394-.3-.145-.52l1.1-.985a1.3,1.3,0,0,0,.377-1.01Z" transform="translate(-249.716 -222.786)"/><path class="aa" d="M255.172,242.414s-.289-.766-.482-1.222a1.174,1.174,0,0,0-.812-.734c-.313-.082-1.225-.212-1.225-.212s1.4-.127,1.861.232S255.172,242.414,255.172,242.414Z" transform="translate(-251.937 -235.974)"/><path class="aa" d="M256.337,226.749a1.433,1.433,0,0,0,.134-.7c-.011-.341-.233-1.522-.233-1.522S257.07,226.426,256.337,226.749Z" transform="translate(-254.648 -224.103)"/><path class="aa" d="M268.564,241.26a1.436,1.436,0,0,1,.644-.3c.334-.074,1.532-.152,1.532-.152S268.695,240.47,268.564,241.26Z" transform="translate(-263.97 -236.359)"/><g transform="translate(1.438 0)"><g class="ad"><path class="ab" d="M255.621,223.157l.008.066c0-.555,1.5.681,1.921.82a1.8,1.8,0,0,0,1.407-.134c.419-.25.736.026.582.463a2.277,2.277,0,0,0,1.068,2.423c.729.54.3.629.2.642l.179-.018c.333-.034.418-.261.188-.5l-1.013-1.076a1.3,1.3,0,0,1-.289-1.039l.312-1.444c.07-.327-.119-.478-.422-.335l-1.336.631a1.3,1.3,0,0,1-1.078-.047l-1.277-.743C255.781,222.691,255.579,222.825,255.621,223.157Z" transform="translate(-255.615 -222.786)"/></g><path class="ab" d="M276.818,241.868Z" transform="translate(-271.65 -237.217)"/></g></g></g><g transform="translate(96.566 9.024)"><g transform="translate(0.986 2.834)"><rect class="e" width="2.398" height="0.938" transform="matrix(0.928, -0.373, 0.373, 0.928, 0, 0.896)"/><rect class="ae" width="1.199" height="0.938" transform="matrix(0.928, -0.374, 0.374, 0.928, 1.113, 0.448)"/></g><path class="i" d="M433.282,183.118h0l.886,2.2,2.084-.839-.886-2.2h0c0-.008,0-.016-.008-.024a1.158,1.158,0,0,0-2.084.839C433.274,183.1,433.279,183.11,433.282,183.118Zm.411-.448c-.067-.166.117-.4.411-.514s.586-.08.653.086-.117.4-.411.514S433.759,182.835,433.693,182.669Z" transform="translate(-433.167 -181.761)"/><g transform="translate(0.054)"><g class="af"><rect class="m" width="1.923" height="4.143" transform="translate(-1.219 0.323) rotate(-21.928)"/></g></g><rect class="i" width="2.798" height="0.336" transform="matrix(0.928, -0.373, 0.373, 0.928, 0.733, 3.636)"/><rect class="m" width="1.399" height="0.308" transform="translate(0.744 3.662) rotate(-21.929)"/><path class="e" d="M439.7,194.606c.292-.165.278-.407-.031-.538l-1.359-.578a1.3,1.3,0,0,1-.682-.835l-.294-1.448c-.067-.328-.3-.39-.521-.138l-.971,1.115a1.3,1.3,0,0,1-1.005.39l-1.468-.168c-.332-.038-.464.166-.292.453l.76,1.267a1.3,1.3,0,0,1,.06,1.077l-.614,1.344c-.139.3.015.493.341.418l1.441-.331a1.3,1.3,0,0,1,1.043.275l1.089,1c.247.226.473.139.5-.195l.13-1.472a1.3,1.3,0,0,1,.584-.907Z" transform="translate(-433.001 -188.682)"/><path class="aa" d="M436.136,213.055s.787-.227,1.267-.345a1.174,1.174,0,0,1,1.074.211c.254.2.9.855.9.855s-.736-1.2-1.3-1.352S436.136,213.055,436.136,213.055Z" transform="translate(-435.372 -204.934)"/><path class="aa" d="M452.366,206.966a1.433,1.433,0,0,1,.48-.526c.28-.2,1.359-.724,1.359-.724S452.186,206.186,452.366,206.966Z" transform="translate(-447.637 -199.877)"/><path class="aa" d="M434.948,200.574a1.436,1.436,0,0,0-.143-.7c-.141-.312-.8-1.319-.8-1.319S435.5,200,434.948,200.574Z" transform="translate(-433.764 -194.463)"/><g transform="translate(0 2.231)"><path class="t" d="M439.7,194.607l-.058.032c.442-.336-1.446-.8-1.806-1.049a1.794,1.794,0,0,1-.735-1.208c-.05-.485-.461-.575-.719-.189a2.277,2.277,0,0,1-2.58.595c-.869-.261-.686.132-.633.225l-.093-.154c-.172-.287-.04-.491.292-.453l1.468.168a1.3,1.3,0,0,0,1.005-.39l.971-1.115c.22-.252.455-.191.521.138l.294,1.448a1.3,1.3,0,0,0,.682.836l1.359.578C439.977,194.2,439.991,194.442,439.7,194.607Z" transform="translate(-433.001 -190.913)"/><path class="ae" d="M433.737,199.6Z" transform="translate(-433.558 -197.484)"/></g></g><g transform="translate(1.157 9.843)"><g transform="translate(2.53 3.668)"><rect class="j" width="1.004" height="2.568" transform="translate(0 1.004) rotate(-89.859)"/><rect class="k" width="1.004" height="1.285" transform="translate(0 1.004) rotate(-89.852)"/></g><path class="i" d="M54.727,186.062a1.24,1.24,0,0,0-2.406-.006c0,.009,0,.018,0,.027h0l-.006,2.542,2.406.006.006-2.542h0C54.725,186.08,54.726,186.071,54.727,186.062Zm-1.2.09c-.339,0-.614-.157-.613-.348s.276-.346.615-.345.614.156.613.348S53.863,186.152,53.524,186.152Z" transform="translate(-49.7 -185.121)"/><g transform="translate(2.615)"><g class="ag"><rect class="m" width="4.436" height="2.06" transform="translate(1.202 3.863) rotate(-89.858)"/></g></g><rect class="i" width="0.36" height="2.997" transform="translate(2.318 3.832) rotate(-89.859)"/><rect class="m" width="0.329" height="1.498" transform="translate(3.817 3.836) rotate(-89.858)"/><path class="f" d="M49.074,203.988c.256.251.176.5-.178.549l-1.565.228a1.4,1.4,0,0,0-.935.679l-.7,1.419c-.159.322-.419.322-.578,0l-.7-1.419a1.4,1.4,0,0,0-.935-.678l-1.566-.227c-.355-.051-.436-.3-.179-.549l1.133-1.105a1.394,1.394,0,0,0,.357-1.1l-.269-1.56c-.061-.353.149-.506.467-.34l1.4.736a1.394,1.394,0,0,0,1.155,0l1.4-.737c.318-.167.528-.014.468.339l-.266,1.56a1.4,1.4,0,0,0,.358,1.1Z" transform="translate(-41.588 -196.236)"/><path class="aa" d="M49.541,200.948s.753.45,1.218.7a1.257,1.257,0,0,0,1.17.075c.318-.139,1.168-.639,1.168-.639s-1.088,1.039-1.714,1.046S49.541,200.948,49.541,200.948Z" transform="translate(-47.602 -197.09)"/><path class="aa" d="M65.067,209.768a1.535,1.535,0,0,0,.354.675c.237.279,1.209,1.121,1.209,1.121S64.668,210.527,65.067,209.768Z" transform="translate(-59.303 -203.76)"/><path class="aa" d="M44.356,209.959a1.537,1.537,0,0,1-.338.684c-.23.284-1.183,1.149-1.183,1.149S44.773,210.709,44.356,209.959Z" transform="translate(-42.531 -203.905)"/><g class="ah" transform="translate(0 7.605)"><g class="ad" transform="translate(0 0.017)"><path class="j" d="M49.074,216.517l-.051-.049c.366.469-1.715.431-2.156.594a1.923,1.923,0,0,0-1.091,1.051c-.184.489-.634.469-.8,0a2.438,2.438,0,0,0-2.51-1.319c-.971.034-.674-.324-.594-.405l-.138.134c-.257.25-.176.5.179.549l1.566.227a1.394,1.394,0,0,1,.935.678l.7,1.419c.159.322.419.322.578,0l.7-1.419a1.4,1.4,0,0,1,.935-.68l1.565-.228C49.251,217.015,49.331,216.768,49.074,216.517Z" transform="translate(-41.588 -216.387)"/></g><path class="ai" d="M42.837,216.318Z" transform="translate(-42.533 -216.318)"/></g></g><g transform="translate(72.8 14.136)"><g transform="translate(2.53 3.668)"><rect class="j" width="1.004" height="2.568" transform="matrix(0.002, -1, 1, 0.002, 0, 1.004)"/><rect class="k" width="1.004" height="1.285" transform="matrix(0.003, -1, 1, 0.003, 0, 1.004)"/></g><path class="i" d="M348.644,203.673a1.24,1.24,0,0,0-2.406-.006c0,.009,0,.018,0,.027h0l-.006,2.541,2.406.006.006-2.542h0C348.643,203.691,348.644,203.682,348.644,203.673Zm-1.2.089c-.339,0-.613-.156-.613-.348s.276-.346.615-.345.614.156.613.348S347.78,203.763,347.44,203.762Z" transform="translate(-343.617 -202.732)"/><g transform="translate(2.615)"><g class="aj"><rect class="m" width="4.436" height="2.059" transform="translate(1.202 3.863) rotate(-89.858)"/></g></g><rect class="i" width="0.36" height="2.996" transform="translate(2.318 3.832) rotate(-89.861)"/><rect class="m" width="0.329" height="1.498" transform="translate(3.817 3.836) rotate(-89.869)"/><path class="f" d="M342.991,221.6c.256.251.176.5-.179.549l-1.565.229a1.4,1.4,0,0,0-.935.679l-.7,1.419c-.159.322-.419.322-.578,0l-.7-1.418a1.394,1.394,0,0,0-.935-.678l-1.566-.227c-.355-.051-.436-.3-.179-.549l1.133-1.105a1.394,1.394,0,0,0,.356-1.1l-.268-1.56c-.061-.353.149-.507.467-.34l1.4.735a1.393,1.393,0,0,0,1.155,0l1.4-.737c.318-.167.528-.014.468.339l-.267,1.56a1.4,1.4,0,0,0,.358,1.1Z" transform="translate(-335.505 -213.848)"/><path class="aa" d="M343.457,218.559s.753.45,1.219.7a1.256,1.256,0,0,0,1.17.075c.317-.139,1.167-.639,1.167-.639s-1.088,1.039-1.713,1.046S343.457,218.559,343.457,218.559Z" transform="translate(-341.519 -214.701)"/><path class="aa" d="M358.984,227.378a1.534,1.534,0,0,0,.354.676c.237.279,1.209,1.121,1.209,1.121S358.585,228.137,358.984,227.378Z" transform="translate(-353.22 -221.37)"/><path class="aa" d="M338.274,227.57a1.537,1.537,0,0,1-.338.684c-.23.284-1.183,1.149-1.183,1.149S338.691,228.32,338.274,227.57Z" transform="translate(-336.449 -221.516)"/><g class="ah" transform="translate(0 7.605)"><g class="ad" transform="translate(0 0.017)"><path class="j" d="M342.991,234.128l-.051-.049c.366.469-1.715.432-2.156.594a1.923,1.923,0,0,0-1.09,1.051c-.184.489-.634.469-.8,0a2.44,2.44,0,0,0-2.51-1.319c-.971.034-.674-.324-.594-.405l-.138.134c-.257.251-.176.5.179.549l1.566.227a1.393,1.393,0,0,1,.935.678l.7,1.418c.159.321.419.321.577,0l.7-1.419a1.4,1.4,0,0,1,.935-.68l1.565-.228C343.167,234.626,343.248,234.379,342.991,234.128Z" transform="translate(-335.505 -233.998)"/></g><path class="ai" d="M336.756,233.93Z" transform="translate(-336.451 -233.93)"/></g></g><g transform="translate(59.383 4.202)"><g transform="translate(4.706 3.188)"><g transform="translate(0 0)"><g transform="translate(0 0)"><rect class="e" width="1.688" height="0.66" transform="translate(0 1.078) rotate(-39.678)"/></g><rect class="r" width="0.844" height="0.66" transform="matrix(0.77, -0.638, 0.638, 0.77, 0.649, 0.539)"/></g></g><path class="i" d="M303.022,179.935a.815.815,0,0,0,1.217-1.009l-.012-.013h0l-1.066-1.286-1.217,1.009,1.066,1.286h0Zm.569-.552c.172-.142.376-.179.456-.082s.007.291-.165.433-.376.179-.457.082S303.42,179.526,303.591,179.384Z" transform="translate(-296.707 -173.813)"/><g transform="translate(5.237 3.814)"><g class="ak"><rect class="m" width="1.353" height="2.915" transform="translate(-0.582 1.189) rotate(-39.679)"/></g></g><rect class="i" width="1.969" height="0.237" transform="translate(4.949 4.78) rotate(-39.669)"/><rect class="m" width="0.985" height="0.217" transform="translate(4.949 4.781) rotate(-39.678)"/><path class="e" d="M286.488,162.692a3.636,3.636,0,0,1-5.142-.082l-.325-.336c-.228-.435-.468-.379-.532.124a4.3,4.3,0,0,0,.811,3.125,3.637,3.637,0,0,0,5.143.082,4.3,4.3,0,0,0,.911-3.1c-.049-.505-.286-.568-.528-.141Z" transform="translate(-280.46 -161.98)"/><path class="t" d="M286.549,165.5a3.636,3.636,0,0,1-5.142-.083,4.2,4.2,0,0,1-.818-3.064.772.772,0,0,0-.1.326,4.3,4.3,0,0,0,.811,3.125,3.637,3.637,0,0,0,5.143.082,3.053,3.053,0,0,0,.791-1.528A2.8,2.8,0,0,1,286.549,165.5Z" transform="translate(-280.46 -162.264)"/><path class="a" d="M286.574,167.447a3.67,3.67,0,0,0,4.079-.125,2.462,2.462,0,0,1-2.2.868A3.445,3.445,0,0,1,286.574,167.447Z" transform="translate(-285.084 -166.02)"/></g></g></g></g></svg>