<svg width="75" height="38"  xmlns="http://www.w3.org/2000/svg" xmlns:xlink="http://www.w3.org/1999/xlink" viewBox="0 0 75 38"><defs><style>.cls-1{fill:none;}.cls-2{isolation:isolate;}.cls-10,.cls-3{fill:#149917;}.cls-4{fill:#808285;}.cls-13,.cls-18,.cls-4{mix-blend-mode:multiply;}.cls-5{fill:#231f20;}.cls-6{clip-path:url(#clip-path);}.cls-7{clip-path:url(#clip-path-2);}.cls-8{fill:#353535;}.cls-9{fill:#15af1d;}.cls-10,.cls-16,.cls-21{opacity:0.7;}.cls-11,.cls-25{fill:#fff;}.cls-12,.cls-13{fill:#f0c500;}.cls-14{clip-path:url(#clip-path-3);}.cls-15{clip-path:url(#clip-path-4);}.cls-16,.cls-22{fill:#e1a415;}.cls-17,.cls-18{fill:#5bb7f6;}.cls-19{clip-path:url(#clip-path-5);}.cls-20{clip-path:url(#clip-path-6);}.cls-21{fill:#4c99d1;}.cls-23{clip-path:url(#clip-path-7);}.cls-24{clip-path:url(#clip-path-8);}.cls-25{mix-blend-mode:lighten;}.cls-26{fill:#cb080c;}.cls-27{fill:#af040d;}.cls-28{clip-path:url(#clip-path-9);}.cls-29{clip-path:url(#clip-path-10);}.cls-30{clip-path:url(#clip-path-11);}.cls-31{clip-path:url(#clip-path-12);}.cls-32{clip-path:url(#clip-path-13);}.cls-33{clip-path:url(#clip-path-14);}</style><clipPath id="clip-path" transform="translate(-0.35 -4.44)"><path class="cls-1" d="M31.93,16.4c.2.09.33.25.28.37s-.25.14-.46.05-.33-.25-.28-.36S31.72,16.32,31.93,16.4Zm-.76-.25a.82.82,0,0,0,1.47.61v0h0l.64-1.54-1.46-.61-.64,1.55h0Z"/></clipPath><clipPath id="clip-path-2" transform="translate(-0.35 -4.44)"><rect class="cls-1" x="30.94" y="14.55" width="2.5" height="2.75"/></clipPath><clipPath id="clip-path-3" transform="translate(-0.35 -4.44)"><path class="cls-1" d="M74.32,16.27c.22,0,.4.08.41.2s-.16.24-.39.25-.41-.08-.41-.2S74.09,16.28,74.32,16.27Zm-.79.11a.82.82,0,0,0,1.58-.1v0h0L75,14.6l-1.58.09.1,1.67h0Z"/></clipPath><clipPath id="clip-path-4" transform="translate(-0.35 -4.44)"><rect class="cls-1" x="73.19" y="14.55" width="2" height="2.5"/></clipPath><clipPath id="clip-path-5" transform="translate(-0.35 -4.44)"><path class="cls-1" d="M23.62,9.39c.1-.2.27-.31.38-.26s.13.27,0,.47-.27.31-.38.25S23.52,9.59,23.62,9.39Zm-.31.73a.71.71,0,0,0,.91-.42.73.73,0,0,0-.19-1h0L22.53,8l-.72,1.41,1.49.75h0Z"/></clipPath><clipPath id="clip-path-6" transform="translate(-0.35 -4.44)"><rect class="cls-1" x="21.69" y="7.8" width="2.75" height="2.5"/></clipPath><clipPath id="clip-path-7" transform="translate(-0.35 -4.44)"><path class="cls-1" d="M13.87,14.64c-.3.09-.59,0-.64-.15s.16-.38.46-.47.59,0,.64.15S14.18,14.55,13.87,14.64Zm1.06-.4a1,1,0,0,0-1.32-.53,1,1,0,0,0-.84,1.16v0h0l.66,2.28,2.16-.63-.66-2.27h0Z"/></clipPath><clipPath id="clip-path-8" transform="translate(-0.35 -4.44)"><rect class="cls-1" x="12.44" y="13.3" width="3.25" height="4"/></clipPath><clipPath id="clip-path-9" transform="translate(-0.35 -4.44)"><path class="cls-1" d="M42.78,19.11c-.31,0-.58-.11-.59-.29s.24-.34.56-.36.58.12.59.3S43.1,19.09,42.78,19.11ZM43.9,19a1,1,0,0,0-1.17-.81,1,1,0,0,0-1.07.94v0h0l.13,2.37L44,21.36,43.9,19h0Z"/></clipPath><clipPath id="clip-path-10" transform="translate(-0.35 -4.44)"><rect class="cls-1" x="41.44" y="18.05" width="2.75" height="3.5"/></clipPath><clipPath id="clip-path-11" transform="translate(-0.35 -4.44)"><path class="cls-1" d="M63.9,17.65c-.34,0-.62-.15-.62-.34s.28-.35.62-.35.61.16.61.35S64.24,17.65,63.9,17.65Zm1.2-.09a1.24,1.24,0,0,0-2.41,0v0h0v2.54h2.4V17.59h0Z"/></clipPath><clipPath id="clip-path-12" transform="translate(-0.35 -4.44)"><rect class="cls-1" x="62.44" y="16.55" width="2.75" height="3.75"/></clipPath><clipPath id="clip-path-13" transform="translate(-0.35 -4.44)"><path class="cls-1" d="M53.54,12.26c.17-.14.38-.18.46-.08s0,.29-.17.43-.38.18-.46.08S53.37,12.4,53.54,12.26Zm-.57.55a.72.72,0,0,0,1,0,.73.73,0,0,0,.22-1h0L53.11,10.5l-1.22,1L53,12.8h0Z"/></clipPath><clipPath id="clip-path-14" transform="translate(-0.35 -4.44)"><rect class="cls-1" x="51.69" y="10.3" width="2.75" height="3"/></clipPath></defs><title>2</title><g class="cls-2"><g id="Layer_1" data-name="Layer 1"><rect class="cls-3" x="32.39" y="13.65" width="0.66" height="1.69" transform="translate(6.49 34.76) rotate(-67.57)"/><rect class="cls-4" x="32.78" y="14.23" width="0.66" height="0.84" transform="translate(6.59 35.22) rotate(-67.58)"/><path class="cls-5" d="M31.93,16.4c.2.09.33.25.28.37s-.25.14-.46.05-.33-.25-.28-.36S31.72,16.32,31.93,16.4Zm-.76-.25a.82.82,0,0,0,1.47.61v0h0l.64-1.54-1.46-.61-.64,1.55h0Z" transform="translate(-0.35 -4.44)"/><g class="cls-6"><g class="cls-2"><g class="cls-7"><rect class="cls-8" x="30" y="15.09" width="2.92" height="1.35" transform="translate(4.54 34.39) rotate(-67.58)"/></g></g></g><rect class="cls-5" x="32.47" y="13.82" width="0.24" height="1.97" transform="translate(6.12 34.83) rotate(-67.57)"/><rect class="cls-8" x="32.03" y="14.12" width="0.22" height="0.98" transform="translate(6.03 34.3) rotate(-67.58)"/><path class="cls-9" d="M35.82,13.37a3.63,3.63,0,0,1-2.33-4.58l.14-.45c.28-.4.12-.59-.36-.41a4.29,4.29,0,0,0-2.38,2.18,3.64,3.64,0,0,0,2.34,4.58,4.29,4.29,0,0,0,3.16-.64c.42-.28.37-.52-.12-.54Z" transform="translate(-0.35 -4.44)"/><path class="cls-10" d="M33.62,14.61A3.65,3.65,0,0,1,31.28,10a4.16,4.16,0,0,1,2.33-2.15.83.83,0,0,0-.34.06,4.29,4.29,0,0,0-2.38,2.18,3.64,3.64,0,0,0,2.34,4.58,3,3,0,0,0,1.72,0A2.87,2.87,0,0,1,33.62,14.61Z" transform="translate(-0.35 -4.44)"/><path class="cls-11" d="M33.07,9.69a3.67,3.67,0,0,0,2,3.55,2.46,2.46,0,0,1-1.8-1.53A3.41,3.41,0,0,1,33.07,9.69Z" transform="translate(-0.35 -4.44)"/><rect class="cls-12" x="73.35" y="13.88" width="1.69" height="0.66" transform="translate(-1.06 -0.01) rotate(-3.41)"/><rect class="cls-13" x="74.19" y="13.85" width="0.84" height="0.66" transform="translate(-1.06 0.02) rotate(-3.41)"/><path class="cls-5" d="M74.32,16.27c.22,0,.4.08.41.2s-.16.24-.39.25-.41-.08-.41-.2S74.09,16.28,74.32,16.27Zm-.79.11a.82.82,0,0,0,1.58-.1v0h0L75,14.6l-1.58.09.1,1.67h0Z" transform="translate(-0.35 -4.44)"/><g class="cls-14"><g class="cls-2"><g class="cls-15"><rect class="cls-8" x="72.94" y="14.45" width="1.35" height="2.92" transform="translate(-1.16 -0.04) rotate(-3.41)"/></g></g></g><rect class="cls-5" x="73.23" y="14.43" width="1.97" height="0.24" transform="translate(-1.08 -0.02) rotate(-3.4)"/><rect class="cls-8" x="73.23" y="14.46" width="0.98" height="0.22" transform="translate(-1.08 -0.03) rotate(-3.42)"/><path class="cls-12" d="M76.5,11.84a3.64,3.64,0,0,1-4.1-3.1l-.06-.47c.07-.48-.15-.58-.5-.21a4.29,4.29,0,0,0-1.2,3,3.63,3.63,0,0,0,4.1,3.1,4.3,4.3,0,0,0,2.57-1.95c.26-.44.1-.63-.35-.43Z" transform="translate(-0.35 -4.44)"/><path class="cls-16" d="M75.05,13.92A3.63,3.63,0,0,1,71,10.81a4.22,4.22,0,0,1,1.15-3,.76.76,0,0,0-.27.21,4.29,4.29,0,0,0-1.2,3,3.63,3.63,0,0,0,4.1,3.1,3,3,0,0,0,1.54-.76A2.89,2.89,0,0,1,75.05,13.92Z" transform="translate(-0.35 -4.44)"/><path class="cls-11" d="M72.42,9.74a3.67,3.67,0,0,0,3.36,2.31,2.46,2.46,0,0,1-2.28-.6A3.41,3.41,0,0,1,72.42,9.74Z" transform="translate(-0.35 -4.44)"/><rect class="cls-17" x="20.93" y="8.12" width="1.69" height="0.66" transform="translate(4.02 19.58) rotate(-63.01)"/><rect class="cls-18" x="21.55" y="7.75" width="0.84" height="0.66" transform="translate(4.45 19.54) rotate(-63.01)"/><path class="cls-5" d="M23.62,9.39c.1-.2.27-.31.38-.26s.13.27,0,.47-.27.31-.38.25S23.52,9.59,23.62,9.39Zm-.31.73a.71.71,0,0,0,.91-.42.73.73,0,0,0-.19-1h0L22.53,8l-.72,1.41,1.49.75h0Z" transform="translate(-0.35 -4.44)"/><g class="cls-19"><g class="cls-2"><g class="cls-20"><rect class="cls-8" x="22.28" y="8.35" width="1.35" height="2.92" transform="translate(3.45 21.37) rotate(-63.01)"/></g></g></g><rect class="cls-5" x="21.1" y="8.49" width="1.97" height="0.24" transform="translate(4.04 19.93) rotate(-63.01)"/><rect class="cls-8" x="21.36" y="8.93" width="0.98" height="0.22" transform="translate(3.53 19.96) rotate(-63.01)"/><path class="cls-17" d="M20.91,5.27a3.64,3.64,0,0,1-4.76,2l-.43-.18c-.38-.31-.58-.16-.44.32a4.3,4.3,0,0,0,2,2.55A3.64,3.64,0,0,0,22,8a4.3,4.3,0,0,0-.39-3.2c-.25-.45-.49-.41-.54.08Z" transform="translate(-0.35 -4.44)"/><path class="cls-21" d="M22,7.56a3.63,3.63,0,0,1-4.75,2,4.23,4.23,0,0,1-2-2.49.67.67,0,0,0,0,.33,4.3,4.3,0,0,0,2,2.55A3.64,3.64,0,0,0,22,8a3.08,3.08,0,0,0,.12-1.72A2.72,2.72,0,0,1,22,7.56Z" transform="translate(-0.35 -4.44)"/><path class="cls-11" d="M17,7.72A3.66,3.66,0,0,0,20.72,6a2.48,2.48,0,0,1-1.67,1.67A3.49,3.49,0,0,1,17,7.72Z" transform="translate(-0.35 -4.44)"/><rect class="cls-12" x="13.5" y="16.99" width="2.4" height="0.94" transform="translate(-4.64 0.36) rotate(-16.24)"/><rect class="cls-22" x="13.52" y="17.15" width="1.2" height="0.94" transform="translate(-4.71 0.21) rotate(-16.24)"/><path class="cls-5" d="M13.87,14.64c-.3.09-.59,0-.64-.15s.16-.38.46-.47.59,0,.64.15S14.18,14.55,13.87,14.64Zm1.06-.4a1,1,0,0,0-1.32-.53,1,1,0,0,0-.84,1.16v0h0l.66,2.28,2.16-.63-.66-2.27h0Z" transform="translate(-0.35 -4.44)"/><g class="cls-23"><g class="cls-2"><g class="cls-24"><rect class="cls-8" x="14" y="12.85" width="1.92" height="4.14" transform="translate(-3.92 0.33) rotate(-16.24)"/></g></g></g><rect class="cls-5" x="13.16" y="16.82" width="2.8" height="0.34" transform="translate(-4.52 0.31) rotate(-16.25)"/><rect class="cls-8" x="14.54" y="16.66" width="1.4" height="0.31" transform="translate(-4.44 0.49) rotate(-16.24)"/><path class="cls-12" d="M12.51,21.83c-.33,0-.46-.17-.29-.46L13,20.11A1.28,1.28,0,0,0,13.05,19l-.61-1.35c-.14-.3,0-.49.34-.41l1.44.34a1.33,1.33,0,0,0,1-.28l1.09-1c.25-.22.47-.14.5.2L17,18a1.3,1.3,0,0,0,.58.91l1.28.73c.29.17.28.41,0,.54l-1.37.57a1.34,1.34,0,0,0-.68.84L16.47,23c-.07.33-.3.39-.52.14l-1-1.12a1.3,1.3,0,0,0-1-.39Z" transform="translate(-0.35 -4.44)"/><path class="cls-16" d="M12.51,21.83h.06c-.55,0,.71-1.49.86-1.91a1.84,1.84,0,0,0-.11-1.41c-.24-.42,0-.73.47-.57a2.28,2.28,0,0,0,2.44-1c.56-.72.64-.3.65-.19l0-.18c0-.34-.25-.42-.5-.2l-1.09,1a1.33,1.33,0,0,1-1,.28l-1.44-.34c-.32-.08-.48.11-.34.41L13.05,19A1.28,1.28,0,0,1,13,20.11l-.76,1.26C12.05,21.66,12.18,21.86,12.51,21.83Z" transform="translate(-0.35 -4.44)"/><path class="cls-22" d="M16.88,16.74Z" transform="translate(-0.35 -4.44)"/><path class="cls-25" d="M18.61,20.14l-1.23.46a1.19,1.19,0,0,0-.75.8c-.09.31-.23,1.22-.23,1.22s-.1-1.4.26-1.85S18.61,20.14,18.61,20.14Z" transform="translate(-0.35 -4.44)"/><path class="cls-25" d="M14.79,21.62a1.43,1.43,0,0,0-.7-.14c-.34,0-1.53.2-1.53.2S14.48,20.88,14.79,21.62Z" transform="translate(-0.35 -4.44)"/><path class="cls-25" d="M17.09,18.76a1.55,1.55,0,0,1-.29-.65c-.07-.34-.12-1.54-.12-1.54S16.31,18.61,17.09,18.76Z" transform="translate(-0.35 -4.44)"/><rect class="cls-26" x="41.75" y="21.57" width="2.4" height="0.94" transform="translate(-1.49 -2.06) rotate(-3.14)"/><rect class="cls-27" x="41.75" y="21.61" width="1.2" height="0.94" transform="translate(-1.49 -2.09) rotate(-3.14)"/><path class="cls-5" d="M42.78,19.11c-.31,0-.58-.11-.59-.29s.24-.34.56-.36.58.12.59.3S43.1,19.09,42.78,19.11ZM43.9,19a1,1,0,0,0-1.17-.81,1,1,0,0,0-1.07.94v0h0l.13,2.37L44,21.36,43.9,19h0Z" transform="translate(-0.35 -4.44)"/><g class="cls-28"><g class="cls-2"><g class="cls-29"><rect class="cls-8" x="42.81" y="17.56" width="1.92" height="4.14" transform="translate(-1.36 -2.01) rotate(-3.15)"/></g></g></g><rect class="cls-5" x="41.52" y="21.39" width="2.8" height="0.34" transform="translate(-1.46 -2.06) rotate(-3.15)"/><rect class="cls-8" x="42.92" y="21.38" width="1.4" height="0.31" transform="translate(-1.46 -2.02) rotate(-3.15)"/><path class="cls-26" d="M40.6,21.88c0-.33.16-.46.45-.3l1.28.75a1.28,1.28,0,0,0,1.08,0l1.33-.63c.31-.14.5,0,.43.34l-.32,1.44a1.3,1.3,0,0,0,.29,1l1,1.08c.23.24.14.47-.19.5l-1.47.15a1.31,1.31,0,0,0-.9.6l-.71,1.29c-.16.3-.4.29-.54,0l-.6-1.35a1.26,1.26,0,0,0-.84-.67l-1.45-.28c-.33-.06-.4-.29-.15-.52l1.1-1a1.32,1.32,0,0,0,.38-1Z" transform="translate(-0.35 -4.44)"/><path class="cls-25" d="M42.4,28s-.29-.76-.49-1.22A1.15,1.15,0,0,0,41.1,26c-.31-.09-1.22-.22-1.22-.22s1.4-.12,1.86.24S42.4,28,42.4,28Z" transform="translate(-0.35 -4.44)"/><path class="cls-25" d="M40.85,24.16a1.41,1.41,0,0,0,.13-.7c0-.34-.23-1.52-.23-1.52S41.58,23.83,40.85,24.16Z" transform="translate(-0.35 -4.44)"/><path class="cls-25" d="M43.76,26.41a1.34,1.34,0,0,1,.64-.3c.33-.07,1.53-.15,1.53-.15S43.89,25.62,43.76,26.41Z" transform="translate(-0.35 -4.44)"/><path class="cls-27" d="M45.77,26.16Z" transform="translate(-0.35 -4.44)"/><rect class="cls-3" x="63.39" y="19.51" width="1" height="2.57" transform="translate(42.59 80.19) rotate(-89.86)"/><rect class="cls-4" x="62.74" y="20.15" width="1" height="1.28" transform="translate(41.95 79.54) rotate(-89.86)"/><path class="cls-5" d="M63.9,17.65c-.34,0-.62-.15-.62-.34s.28-.35.62-.35.61.16.61.35S64.24,17.65,63.9,17.65Zm1.2-.09a1.24,1.24,0,0,0-2.41,0v0h0v2.54h2.4V17.59h0Z" transform="translate(-0.35 -4.44)"/><g class="cls-30"><g class="cls-2"><g class="cls-31"><rect class="cls-8" x="62.71" y="17.24" width="4.44" height="2.06" transform="translate(46.15 78.7) rotate(-89.86)"/></g></g></g><rect class="cls-5" x="63.71" y="18.78" width="0.36" height="3" transform="translate(43.11 79.67) rotate(-89.86)"/><rect class="cls-8" x="64.47" y="19.55" width="0.33" height="1.5" transform="translate(43.85 80.44) rotate(-89.87)"/><path class="cls-9" d="M67.56,24.37c.26.26.17.5-.18.55l-1.57.23a1.4,1.4,0,0,0-.93.68l-.7,1.42c-.16.32-.42.32-.58,0l-.7-1.42a1.43,1.43,0,0,0-.93-.68l-1.57-.22c-.35-.05-.43-.3-.18-.55l1.14-1.11a1.4,1.4,0,0,0,.35-1.09l-.27-1.56c-.06-.36.15-.51.47-.34l1.4.73a1.38,1.38,0,0,0,1.16,0l1.4-.74c.31-.16.52,0,.46.34l-.26,1.56a1.41,1.41,0,0,0,.35,1.1Z" transform="translate(-0.35 -4.44)"/><path class="cls-25" d="M62,20.48s.75.45,1.22.7a1.24,1.24,0,0,0,1.17.08c.32-.14,1.17-.64,1.17-.64s-1.09,1-1.72,1.05S62,20.48,62,20.48Z" transform="translate(-0.35 -4.44)"/><path class="cls-25" d="M65.84,22.63a1.56,1.56,0,0,0,.35.68c.24.28,1.21,1.12,1.21,1.12S65.44,23.39,65.84,22.63Z" transform="translate(-0.35 -4.44)"/><path class="cls-25" d="M61.9,22.68a1.6,1.6,0,0,1-.34.68c-.23.29-1.18,1.15-1.18,1.15S62.31,23.43,61.9,22.68Z" transform="translate(-0.35 -4.44)"/><rect class="cls-17" x="51.38" y="10.34" width="1.69" height="0.66" transform="translate(4.87 31.36) rotate(-39.68)"/><rect class="cls-18" x="52.12" y="10.07" width="0.84" height="0.66" transform="translate(5.11 31.49) rotate(-39.67)"/><path class="cls-5" d="M53.54,12.26c.17-.14.38-.18.46-.08s0,.29-.17.43-.38.18-.46.08S53.37,12.4,53.54,12.26Zm-.57.55a.72.72,0,0,0,1,0,.73.73,0,0,0,.22-1h0L53.11,10.5l-1.22,1L53,12.8h0Z" transform="translate(-0.35 -4.44)"/><g class="cls-32"><g class="cls-2"><g class="cls-33"><rect class="cls-8" x="52.08" y="10.92" width="1.35" height="2.92" transform="translate(3.9 32.09) rotate(-39.68)"/></g></g></g><rect class="cls-5" x="51.45" y="10.81" width="1.97" height="0.24" transform="translate(4.75 31.55) rotate(-39.67)"/><rect class="cls-8" x="51.56" y="11.13" width="0.98" height="0.22" transform="translate(4.47 31.38) rotate(-39.68)"/><path class="cls-17" d="M52.68,7.4a3.63,3.63,0,0,1-5.14-.08L47.22,7c-.23-.43-.47-.38-.54.13a4.3,4.3,0,0,0,.81,3.12,3.65,3.65,0,0,0,5.15.08,4.32,4.32,0,0,0,.91-3.09c0-.51-.29-.57-.53-.14Z" transform="translate(-0.35 -4.44)"/><path class="cls-21" d="M52.74,9.93a3.63,3.63,0,0,1-5.14-.08,4.21,4.21,0,0,1-.82-3.07.92.92,0,0,0-.1.33,4.3,4.3,0,0,0,.81,3.12,3.65,3.65,0,0,0,5.15.08,3.14,3.14,0,0,0,.79-1.52A2.76,2.76,0,0,1,52.74,9.93Z" transform="translate(-0.35 -4.44)"/><path class="cls-11" d="M48.15,8.12A3.65,3.65,0,0,0,52.22,8,2.43,2.43,0,0,1,50,8.86,3.41,3.41,0,0,1,48.15,8.12Z" transform="translate(-0.35 -4.44)"/><path class="cls-5" d="M83.22,12.94A32,32,0,0,1,71,17a34.34,34.34,0,0,1-3.81.21,34.41,34.41,0,0,1-12.56-2.34,2.18,2.18,0,0,0,1-1.39,1.2,1.2,0,0,0-.54-1,1.44,1.44,0,0,0-1.29-.26,1.39,1.39,0,0,0-.92.89c-.17.51-.11,1.23,1.06,1.85l-.33.18a25.32,25.32,0,0,1-12.34,3.47c-8.69,0-14.77-5.3-17-7.57l0,0a1.34,1.34,0,0,0,.61-.74.76.76,0,0,0-.54-.88.68.68,0,0,0-.62.09.69.69,0,0,0-.28.54,1.81,1.81,0,0,0,.34.9l-.16.09A38.64,38.64,0,0,1,6.4,14.67a51.88,51.88,0,0,1-6-.36c0,.11,0,.22,0,.33A52.09,52.09,0,0,0,6.4,15a39.1,39.1,0,0,0,17.1-3.66h0l.05,0,.05,0,.16-.09.1-.05.13-.06.06.07.22.22a27.92,27.92,0,0,0,4.06,3.36,24.24,24.24,0,0,0,6.39,3.12,21.81,21.81,0,0,0,6.53,1,25.59,25.59,0,0,0,12.34-3.43h0l.35-.2.38-.22.37.15h0a35.2,35.2,0,0,0,12.52,2.3,34.52,34.52,0,0,0,3.82-.22,32.44,32.44,0,0,0,12.12-3.91C83.19,13.23,83.21,13.08,83.22,12.94Zm-59.45-3a.33.33,0,0,1,.14-.27.3.3,0,0,1,.18-.06l.13,0a.42.42,0,0,1,.32.5c0,.1-.12.27-.48.53A1.46,1.46,0,0,1,23.77,9.93Zm30.52,4.75c-.91-.43-1.28-.94-1.08-1.54a1.06,1.06,0,0,1,.7-.68,1.13,1.13,0,0,1,.3,0,1,1,0,0,1,.68.25.87.87,0,0,1,.42.75C55.27,14,54.51,14.54,54.29,14.68Z" transform="translate(-0.35 -4.44)"/></g></g></svg>