<svg xmlns="http://www.w3.org/2000/svg" width="13.79" height="10.029" viewBox="0 0 13.79 10.029"><defs><style>.a{fill:#2c1950;opacity:0.6;}</style></defs><path class="a" d="M13.41,8.507h-1.88V6H2.754A1.257,1.257,0,0,0,1.5,7.254v6.9H2.754a1.88,1.88,0,1,0,3.761,0h3.761a1.88,1.88,0,1,0,3.761,0H15.29V11.015ZM4.634,15.089a.94.94,0,1,1,.94-.94A.939.939,0,0,1,4.634,15.089ZM13.1,9.448l1.229,1.567h-2.8V9.448Zm-.94,5.641a.94.94,0,1,1,.94-.94A.939.939,0,0,1,12.156,15.089Z" transform="translate(-1.5 -6)"/></svg>