<svg xmlns="http://www.w3.org/2000/svg" width="30.796" height="30.796" viewBox="0 0 30.796 30.796"><defs><style>.a{fill:#fff;opacity:1;}.b{fill:#282b45;}</style></defs><g transform="translate(-1219.138 -5420)"><ellipse class="a" cx="15.398" cy="15.398" rx="15.398" ry="15.398" transform="translate(1219.138 5420)"/><path class="b" d="M7.446,1.928,6.3,4.21,5.145,1.928H3.677L5.751,5.541l.012-.007V8.313H6.827V5.534l.012.007L8.913,1.928Zm3.106,2.128a.539.539,0,0,1,.532.532V6.717a.532.532,0,1,1-1.064,0V4.588A.539.539,0,0,1,10.552,4.056Zm0-1.064a1.6,1.6,0,0,0-1.6,1.6V6.717a1.6,1.6,0,1,0,3.192,0V4.588a1.6,1.6,0,0,0-1.6-1.6Zm4.789,0V7.182c-.464.387-1.064.621-1.064-.759V2.992H13.212V6.639h0c.016.88.2,2.464,2.127,1.176v.5H16.4V2.992H15.34Zm1.6,10.641a.533.533,0,0,0-.532.532V14.7h1.064v-.532A.533.533,0,0,0,16.936,13.633Zm-4.789.532v2.793c.36.36,1.064.4,1.064-.133V14.332C13.212,13.8,12.68,13.633,12.148,14.165ZM19.51,11.6a2.213,2.213,0,0,0-2.176-2.134c-1.16-.058-3.815-.087-6.147-.087s-5.176.029-6.336.087A2.213,2.213,0,0,0,2.675,11.6c-.07,1.249-.1,1.7-.1,2.326s.035,1.561.1,2.81a2.213,2.213,0,0,0,2.176,2.134c1.16.058,4,.087,6.336.087s4.987-.029,6.147-.087a2.213,2.213,0,0,0,2.176-2.134q.087-1.561.087-2.81c0-.833-.029-1.285-.087-2.326ZM5.763,17.89H4.7V12.569H3.635V11.505H6.827v1.064H5.763Zm4.256,0H8.955v-.5c-2.023,1.136-2.11.037-2.127-.843h0V13.633H7.891v2.932c0,.643.6.581,1.064.193V13.633H10.02Zm4.256-1.079c0,1.112-1.139,1.437-2.128.572v.508H11.084V11.505h1.064v1.729c1.064-1.064,2.128-.665,2.128.4ZM18.533,14.7v.532H16.4v1.064a.532.532,0,1,0,1.064,0v-.532h1.064v.532a1.6,1.6,0,1,1-3.192,0V14.165a1.6,1.6,0,0,1,3.192,0Z" transform="translate(1223.602 5424.304)"/></g></svg>