<svg xmlns="http://www.w3.org/2000/svg" width="30.796" height="30.796" viewBox="0 0 30.796 30.796"><defs><style>.a{fill:#fff;opacity:1;}.b{fill:#282b45;}</style></defs><g transform="translate(-1297.396 -5420)"><ellipse class="a" cx="15.398" cy="15.398" rx="15.398" ry="15.398" transform="translate(1297.396 5420)"/><path class="b" d="M11.025,2.25a8.43,8.43,0,0,0-8.462,8.4,8.31,8.31,0,0,0,1.214,4.336L2.25,19.488,6.935,18a8.477,8.477,0,0,0,12.553-7.353A8.43,8.43,0,0,0,11.025,2.25Zm4.208,11.586a2.186,2.186,0,0,1-1.5.965c-.4.021-.408.308-2.572-.632A8.829,8.829,0,0,1,7.6,10.8a4.15,4.15,0,0,1-.8-2.249,2.4,2.4,0,0,1,.824-1.759.829.829,0,0,1,.586-.247c.17,0,.281-.005.407,0s.315-.026.479.409S9.65,8.455,9.7,8.564a.392.392,0,0,1,0,.376,1.47,1.47,0,0,1-.229.349c-.113.121-.238.271-.338.364s-.23.214-.112.434a6.476,6.476,0,0,0,1.146,1.529,5.9,5.9,0,0,0,1.7,1.128c.212.116.339.1.47-.036s.563-.606.716-.815.295-.168.49-.09,1.237.637,1.45.752.354.174.4.265A1.777,1.777,0,0,1,15.233,13.836Z" transform="translate(1302.18 5424.785)"/></g></svg>