<svg xmlns="http://www.w3.org/2000/svg" width="30.796" height="30.796" viewBox="0 0 30.796 30.796"><defs><style>.a{fill:#fff;opacity:1;}.b{fill:#282b45;}</style></defs><g transform="translate(-1179.718 -5420)"><ellipse class="a" cx="15.398" cy="15.398" rx="15.398" ry="15.398" transform="translate(1179.718 5420)"/><path class="b" d="M47.242,5877.479l.033.533-.54-.064a8.783,8.783,0,0,1-5.13-2.526l-.711-.706-.183.522a3.14,3.14,0,0,0,.669,3.22c.431.455.334.522-.41.249a1.258,1.258,0,0,0-.506-.119,3.907,3.907,0,0,0,.387,1.458,3.477,3.477,0,0,0,1.477,1.393l.529.25-.626.009c-.6,0-.625.012-.56.24a3.256,3.256,0,0,0,2.015,1.785l.668.229-.583.349a6.039,6.039,0,0,1-2.888.805,3.058,3.058,0,0,0-.884.088,8.3,8.3,0,0,0,2.079.957,9.1,9.1,0,0,0,7.071-.806,9.467,9.467,0,0,0,3.589-4.221,11.236,11.236,0,0,0,.733-3.263c0-.5.032-.567.636-1.166a6.981,6.981,0,0,0,.754-.838c.108-.206.1-.206-.453-.021-.915.327-1.045.282-.593-.206a3.188,3.188,0,0,0,.733-1.164c0-.033-.161.021-.344.118a5.95,5.95,0,0,1-.948.371l-.583.184-.527-.357a4.412,4.412,0,0,0-.917-.481,3.7,3.7,0,0,0-1.885.044A3.116,3.116,0,0,0,47.242,5877.479Z" transform="translate(1147.402 -444.956)"/></g></svg>