<svg xmlns="http://www.w3.org/2000/svg" width="30.796" height="30.796" viewBox="0 0 30.796 30.796"><defs><style>.a{fill:#fff;opacity:1;}.b{fill:#282b45;}</style></defs><g transform="translate(-1258.706 -5420)"><g transform="translate(1258.706 5420)"><ellipse class="a" cx="15.398" cy="15.398" rx="15.398" ry="15.398" transform="translate(0)"/><path class="b" d="M15.644,1.928H5.173a2.61,2.61,0,0,0-2.6,2.6V15a2.61,2.61,0,0,0,2.6,2.6H15.644a2.61,2.61,0,0,0,2.6-2.6V4.53A2.61,2.61,0,0,0,15.644,1.928ZM7.589,8.786h5.639a2.985,2.985,0,1,1-5.639,0Zm8.7,0v5.877a.983.983,0,0,1-.98.98H5.51a.983.983,0,0,1-.98-.98V8.786H6.063a4.455,4.455,0,1,0,8.692,0Zm0-3.43a.491.491,0,0,1-.49.49h-.98a.491.491,0,0,1-.49-.49v-.98a.491.491,0,0,1,.49-.49h.98a.491.491,0,0,1,.49.49Z" transform="translate(5.343 5.986)"/></g></g></svg>