<svg xmlns="http://www.w3.org/2000/svg" width="34.372" height="43.543" viewBox="0 0 34.372 43.543"><defs><style>.a,.c{fill:#de225b;}.b{fill:#ffcb00;}.c,.d{stroke:#3c122c;stroke-width:0.5px;}.d{fill:#7cd9ea;}</style></defs><g transform="translate(0 0)"><path class="a" d="M120.782,29.956c0,9.492-14.73,26.357-17.186,26.357S86.41,39.448,86.41,29.956a17.186,17.186,0,0,1,34.372,0Z" transform="translate(-86.41 -12.77)"/><circle class="b" cx="11.563" cy="11.563" r="11.563" transform="translate(0.828 16.961) rotate(-45)"/><path class="c" d="M244.948,167.9s5.28-4.165,4.861-6.773a2.526,2.526,0,0,0-4.868-.775,2.526,2.526,0,0,0-4.889.739C239.612,163.626,244.948,167.9,244.948,167.9Z" transform="translate(-224.396 -143.857)"/><path class="d" d="M179.159,140.57s5.28-4.165,4.861-6.773a2.526,2.526,0,0,0-4.868-.775,2.526,2.526,0,0,0-4.889.739c-.44,2.536,4.9,6.809,4.9,6.809Z" transform="translate(-165.302 -119.31)"/><path class="a" d="M159.992,71.958a12.177,12.177,0,1,0-12.177,12.177A12.191,12.191,0,0,0,159.992,71.958Zm-23.129,0A10.952,10.952,0,1,1,147.815,82.91a10.964,10.964,0,0,1-10.952-10.952Z" transform="translate(-130.627 -54.998)"/></g></svg>