<svg xmlns="http://www.w3.org/2000/svg" width="25.189" height="18.565" viewBox="0 0 25.189 18.565"><defs><style>.a{fill:#21201f;}.a,.b,.c,.d,.f,.g,.h{fill-rule:evenodd;}.b,.h{fill:#e52c6f;}.b,.c,.d,.e{stroke:#21201f;stroke-miterlimit:10;stroke-width:0.25px;}.c{fill:#45c1e9;}.d{fill:#ffe14b;}.e{fill:#ffd7a8;}.f{fill:#9dc86d;}.g{fill:#f8a43b;}</style></defs><g transform="translate(-0.412 -3.836)"><path class="a" d="M13.341,20.891l-.27-.561Zm.108.225-.05-.1Zm-.59-.786h0Zm.067,0h0Zm.145,0h0Zm-1.267.05-.007,0-.544.07Zm.309-.041-.308.041Zm.118-.015-.046.006Zm.271-.036-.034,0Zm.029,0-.028,0Zm1.678.057V20.33h-.063Zm-.039,1.735v-.036l-.719-.957.051.1Zm-2.917-1.625-.308.439Zm2.942.54h-.787l.044.092.719.957ZM12.53,20.33v.05l-.016-.05Zm-.733.052v0Zm1.563.509H14.2l.012-.549-.062-.012H13.088Zm-5.454,0h.805l.031-.11Zm.841-.11-.032.11H10.9l.306-.434Zm2.158.11H8.715l-.029.1h2.147Zm.963,0H11.8v.1h.079Zm.749,0h-.089v.1h.109Zm1.58,0H13.36l.048.1h.787Zm-1.319,1.387h.2l-.361-1.183-.037.113Zm-.355,0h.014l-.014-.087Zm-.191,0h.085l-.028-.175.08-.25.054.339,0-.51-.056.171-.012-.084-.082.248.014.086Zm-.3,0h.253l.085-.26-.159-1.021h.119l.122.773.068-.211v.124l.152-.47-.014-.074.033-.1-.014-.042h.027l.006-.016.005.016h.026l-.014.043-.012-.043h-.011l-.013.042.018.061.018-.06.385,1.243h.476l-.2-1.285.01.021-.015-.021h-.028l.093.124.284.592-.457-.716h-.117l.817,1.278H14l-.27-.562.27.562.022,0-.208-.43.274.429-.274-.429-.314-.65.667.889-.005.188a13.311,13.311,0,0,0,2.269-.253c.378-.077,1.83-.454,1.83-1.02V14.548A3.07,3.07,0,0,0,17,12.282a4.853,4.853,0,0,0-2.585-.9c-.029.36-.141.768-.2,1.126-.334,2.115-.865,4.563-1.221,6.715l-.148.865c-.047.26.057.118-.11.247l-.043-.066-.162.021v.045h.323l.049.076,0-.014.024.032.01-.025-.025-.033-.009.026-.046-.062h.027l.028.036.012-.036h.035l-.022.069.368.492h.034l.048.1h-.005l-.077-.1h-.028l.077.1h-.08l-.065-.1h-.117l.065.1h-.413l.033-.1h.315l-.209-.328-.106.328h-.036l-.028.085-.026-.085h-.038l-.089-.291-.032-.173v.065l.032.108.055.291h.034l.031.1h-.046l.027.142-.138.42,0-.562h-.192l-.016-.1H12.2l.017.1h-.335ZM7.254,14.548v6.343a.571.571,0,0,0,.007.084l.645-.084h.805l-.028.1h0l-.234.837.237-.837h2.147l-.814,1.149.042.006.812-1.155-.812,1.155a16.09,16.09,0,0,0,1.734.125l0-1.381h-.852l-.072.1H11.8v1.28l.005-1.28H11.8v-.1H11.8V20.38h0l.063.511H12.2l-.086-.552.072-.009h.046l.088.561h.209l0-.4-.05-.162h-.249v-.006l.237-.031.012.037h.031l-.005-.024,0-.018h0l0,.018.008.024h0l.019.1V20.38l.159.511h.054l.118-.364.024.036.04-.121.286.449h.068l-.35-.467,0,.018-.023-.036-.041.121-.125-.2a5.353,5.353,0,0,0-.153-.917l-1.44-7.408c-.022-.1-.056-.375-.088-.476-.059-.2-.127-.131-.343-.1a4.417,4.417,0,0,0-1.665.532A3.15,3.15,0,0,0,7.254,14.548Z"/><path class="b" d="M7.254,14.548v6.343c0,1.177,3.83,1.381,4.543,1.381a21.751,21.751,0,0,0,4.637-.26c.378-.077,1.83-.454,1.83-1.02V14.548A3.07,3.07,0,0,0,17,12.282a4.853,4.853,0,0,0-2.585-.9c-.029.36-.141.768-.2,1.126-.334,2.115-.865,4.563-1.221,6.715l-.148.865c-.047.26.057.118-.11.247a5.353,5.353,0,0,0-.153-.917l-1.44-7.408c-.022-.1-.056-.375-.088-.476-.059-.2-.127-.131-.343-.1a4.417,4.417,0,0,0-1.665.532,3.15,3.15,0,0,0-1.793,2.59"/><path class="c" d="M16.884,11.173a3.908,3.908,0,0,1,1.568,1.391,4.154,4.154,0,0,1,.653,2.343v3.784a22.891,22.891,0,0,0,4.664-.129c.542-.1,1.707-.39,1.707-.945V12.4c0-1.637-1.857-2.658-3.161-2.658-.022.27-.112.6-.161.906-.044.268-.128.63-.171.9l-1,5.56L19.535,9.744a4.2,4.2,0,0,0-1.585.439c-.343.183-.967.61-1.066.99"/><path class="d" d="M.537,12.3v5.268c0,1.27,4.656,1.177,5.965,1.177V14.907a3.969,3.969,0,0,1,2.277-3.616,2.059,2.059,0,0,1,.6-.27c-.094-.356-.742-.707-1.072-.878a4.505,4.505,0,0,0-1.6-.4L5.465,16.23c-.024.152-.061.321-.092.472l-.414.4L3.77,11.671a13.14,13.14,0,0,1,.008-1.929,4.366,4.366,0,0,0-2.142.735A2.507,2.507,0,0,0,.537,12.3"/><path class="e" d="M9.676,7.079a3.228,3.228,0,0,0,3.069,3.475A3.239,3.239,0,0,0,15.85,7.439a3.369,3.369,0,0,0-.876-2.518,2.853,2.853,0,0,0-2.433-.96A3.185,3.185,0,0,0,9.676,7.079Z"/><path class="e" d="M2.76,6.672a2.536,2.536,0,0,0,.656,1.981,2.315,2.315,0,0,0,3.375-.006,2.639,2.639,0,0,0-.017-3.522,2.267,2.267,0,0,0-3.752.591A2.4,2.4,0,0,0,2.76,6.672Z"/><path class="e" d="M18.614,6.825a2.5,2.5,0,0,0,.641,1.794,2.306,2.306,0,0,0,3.375.063A2.653,2.653,0,0,0,22.6,5.1,2.331,2.331,0,0,0,18.614,6.825Z"/><path class="f" d="M11.944,12.027c.048.181.048.115.153.251l.59.671c-.1.161-.743.749-.743.87,0,.307.725,3.892.792,4.191l.84-4.191c-.177-.274-.573-.605-.744-.87l.363-.446c.133-.169.322-.249.381-.476-.236-.064-.466-.357-.84-.564a6.23,6.23,0,0,1-.792.564"/><path class="g" d="M4.382,10.773c.051.206.346.391.59.768-.709,1.1-.735.009-.265,2.426l.317,1.718c.138-.106.152-.468.218-.8l.52-2.629a6.674,6.674,0,0,1-.64-.716c.171-.264.5-.431.592-.768a2.117,2.117,0,0,1-.331-.217c-.068-.054-.068-.051-.144-.109-.043-.034-.045-.032-.085-.063a.4.4,0,0,1-.081-.07,4.513,4.513,0,0,1-.691.459"/><path class="h" d="M20.36,10.824c.17.34.408.434.59.717a9.089,9.089,0,0,0-.605.73,8.247,8.247,0,0,0,.2,1.125,10.051,10.051,0,0,0,.5,2.289l.646-3.428c-.159-.238-.409-.429-.6-.716.187-.287.437-.477.592-.717L21,10.314Z"/></g></svg>