<svg xmlns="http://www.w3.org/2000/svg" xmlns:xlink="http://www.w3.org/1999/xlink" width="26" height="26" viewBox="0 0 26 26"><defs><style>.a,.c,.e,.g,.h{fill:none;}.b{clip-path:url(#a);}.c,.e,.g,.h{stroke:#21201f;}.c,.d,.e,.f,.g,.h{stroke-miterlimit:10;}.c{stroke-width:0.21px;}.d{fill:#ffb050;}.d,.f{stroke:#030504;stroke-width:0.25px;fill-rule:evenodd;}.e{stroke-width:0.2px;}.f{fill:#e52c6f;}.g{stroke-width:0.185px;}.h{stroke-width:0.195px;}</style><clipPath id="a"><rect class="a" width="26" height="26" transform="translate(0 -0.135)"/></clipPath></defs><g transform="translate(0 0.135)"><g class="b"><path class="c" d="M3.515,18.793l3.178.015a27.41,27.41,0,0,1,2.3-3.763l.018,4.92c1.435.71.652.874,2.845.874,1.181,0,2.668.082,3.815,0a.9.9,0,0,0,.67-.256c1.119-.81,1.009-.4,1-1.773,0-1.177-.06-2.5.016-3.658.369.146.976,1.423,1.177,1.773.364.634.777,1.259,1.115,1.867l3.235.013c-.052-.43-2.937-5.105-3.374-5.922-1.563-2.906-2.267-3.14-6.3-3.138-4.445,0-4.747.232-6.343,3.1C6.454,13.592,3.564,18.369,3.515,18.793Z"/><path class="d" d="M3.515,18.793l3.178.016A27.425,27.425,0,0,1,9,15.045l.017,4.92c1.435.71.652.874,2.846.874,1.181,0,2.667.083,3.815,0a.9.9,0,0,0,.67-.257c1.119-.81,1.009-.4,1-1.773,0-1.176-.06-2.495.016-3.658.37.147.977,1.424,1.177,1.773.364.635.778,1.26,1.115,1.868l3.235.013c-.051-.43-2.937-5.1-3.374-5.922-1.563-2.906-2.267-3.14-6.3-3.137-4.444,0-4.746.231-6.342,3.1-.417.748-3.307,5.524-3.357,5.948"/><path class="e" d="M.97,24.977,25.134,25l.022-3.848c0-1.116-1.232-.812-2.253-.812s-2.078,0-3.115,0c-1.833-.012-2.421,1.8-4.412,1.8H10.791a2,2,0,0,1-1.5-.553c-.4-.262-.836-.516-1.258-.781-1.307-.826-1.871-.576-3.653-.576-1.706,0-3.309-.293-3.448.767A35.912,35.912,0,0,0,.97,24.977Z"/><path class="f" d="M.97,24.976,25.135,25l.023-3.847c0-1.117-1.232-.813-2.253-.813-1.036,0-2.078,0-3.115,0-1.833-.011-2.421,1.8-4.413,1.8H10.792A2,2,0,0,1,9.3,21.579c-.4-.263-.836-.517-1.258-.781-1.308-.827-1.871-.577-3.654-.577-1.706,0-3.309-.293-3.448.767A35.912,35.912,0,0,0,.97,24.976"/><path class="g" d="M12.344,3.474A2.678,2.678,0,0,0,10.3,6.68,2.779,2.779,0,0,0,13.676,8.7C17.211,7.849,15.978,2.687,12.344,3.474Z"/><path class="d" d="M12.345,3.473A2.677,2.677,0,0,0,10.3,6.679,2.779,2.779,0,0,0,13.677,8.7c3.535-.855,2.3-6.018-1.332-5.23"/><path class="h" d="M8.13,4.76C6.94,4.742,6.869,5.523,7,6.672c.109.966,1.454,1.088,1.953.607.312-.5-.38-2.093.842-3.756a4.049,4.049,0,0,1,7.151,1.635c.2,1.194-.535,2.751,1.412,2.323,1.064-.234.581-2.257.579-2.261-.19-.407-.584-.421-1.08-.5A5.044,5.044,0,0,0,8.13,4.76Z"/><path class="f" d="M8.13,4.76C6.939,4.743,6.868,5.524,7,6.673c.109.966,1.454,1.087,1.952.607.312-.5-.38-2.093.842-3.756a4.049,4.049,0,0,1,7.151,1.635c.2,1.193-.535,2.751,1.411,2.323,1.064-.234.581-2.257.579-2.261-.19-.407-.583-.422-1.08-.5A5.042,5.042,0,0,0,8.13,4.76"/></g></g></svg>