<svg xmlns="http://www.w3.org/2000/svg" width="23.483" height="23.467" viewBox="0 0 23.483 23.467"><defs><style>.a{fill:#e52c6f;}.a,.b,.c,.d,.e{stroke:#21201f;stroke-miterlimit:10;stroke-width:0.25px;}.a,.b,.d,.e,.f{fill-rule:evenodd;}.b{fill:#e9699b;}.c,.d{fill:#45c1e9;}.e{fill:#ffe14b;}.f{fill:#ed869d;}</style></defs><g transform="translate(-1.262 -0.689)"><path class="a" d="M7.078,24.005l11.831.012L18.9,11.431l-11.82-.007Z"/><path class="a" d="M2.439,8.207l21.129.005a4.944,4.944,0,0,0-.717-.4c-.243-.134-.472-.257-.724-.394A46.906,46.906,0,0,1,17.2,4.5c-.113-.086-.188-.156-.3-.241L14.772,2.442c-.181-.19-.405-.329-.59-.52-.211-.215-.369-.346-.578-.533A7.857,7.857,0,0,0,13,.841a3.746,3.746,0,0,0-.578.542l-1.45,1.311a35.636,35.636,0,0,1-2.792,2.26c-.889.573-1.869,1.129-2.841,1.659Z"/><path class="b" d="M1.388,10.745l23.229,0,0-1.853H1.4Z"/><rect class="c" width="1.545" height="12.604" transform="translate(21.026 11.424)"/><path class="d" d="M3.438,24.028h1.54L4.987,11.44,3.44,11.424Z"/><path class="e" d="M19.64,24.024l.659.005.013-12.6-.67-.006Z"/><path class="e" d="M23.284,24.023l.659.006.013-12.6-.67,0Z"/><path class="e" d="M2.053,24.021l.659.008.014-12.6H2.055Z"/><path class="e" d="M5.7,24.019l.658.01.014-12.6-.67,0Z"/><path class="f" d="M7.078,24l.047.026a.707.707,0,0,0,.282.021c2.031-.024,11.3.057,11.523-.029.052-.373,0-10.546.011-12.227l0-.276c-.02-.112.016-.025-.034-.089l.006,12.586Z"/></g></svg>