<svg xmlns="http://www.w3.org/2000/svg" width="19.331" height="24.494" viewBox="0 0 19.331 24.494"><defs><style>.a{fill:#ffe14b;stroke:#1a1818;stroke-miterlimit:10;stroke-width:0.25px;}.a,.b,.c{fill-rule:evenodd;}.b{fill:#e52c6f;}.c{fill:#e9699b;}</style></defs><g transform="translate(-3.678 -0.47)"><path class="a" d="M12.041.731a9.4,9.4,0,0,0-6.1,3.426A9.528,9.528,0,1,0,22.788,8.911a9.546,9.546,0,0,0-3.4-6.112A9.378,9.378,0,0,0,12.041.731"/><path class="a" d="M11.189,22.4l-1.745.005c-.268.305-1.709,2.384-1.721,2.433H18.981c-.075-.188-1.394-1.976-1.714-2.429L15.689,22.4l-1.025-2.536c-.675-.009-1.9-.018-2.536,0Z"/><path class="b" d="M12.035,8.07a6.061,6.061,0,0,1,.958-.312,6.879,6.879,0,0,1,1.154.071A9.578,9.578,0,0,1,16.5,5.156c.336-.289,1.221-.742.6-1.484-1.235-1.471-4.98-1.343-5.521,0-.449,1.114.233,3.324.462,4.4"/><path class="b" d="M12.529,12.483a9.7,9.7,0,0,1-2.346,2.686c-.385.324-1.232.774-.569,1.5,1.395,1.522,5.029,1.264,5.51-.059.448-1.232-.264-3.215-.478-4.373a4.475,4.475,0,0,1-.9.317,3.681,3.681,0,0,1-1.213-.068"/><path class="b" d="M11.249,11.429a2.612,2.612,0,0,1-.227-2.021c-.164-.159-.521-.327-.742-.5A10.876,10.876,0,0,1,8.348,7.013c-.313-.384-.768-1.192-1.479-.619a3.335,3.335,0,0,0-.912,1.66,4.946,4.946,0,0,0-.084,2.255,2.366,2.366,0,0,0,.958,1.606,5.179,5.179,0,0,0,2.351.016,10.7,10.7,0,0,0,2.067-.5"/><path class="b" d="M15.422,8.847a4.734,4.734,0,0,1,.323.963,4.98,4.98,0,0,1-.072,1.128,8.913,8.913,0,0,1,2.075,1.69c.861.885,1.249,1.975,2.123,1.25,1.288-1.072,1.414-4.929-.063-5.493-1.293-.493-3.184.289-4.386.462"/><path class="c" d="M12.913,8.211a2,2,0,1,0,2.381,1.466,1.975,1.975,0,0,0-2.381-1.466"/><path class="b" d="M12.479,24.429H14.06c.437,0,.692-.391.4-.707-.189-.2-.806-.127-1.16-.127-.294,0-1.009-.065-1.2.092-.328.272-.131.742.378.742"/></g></svg>