<svg xmlns="http://www.w3.org/2000/svg" width="21.635" height="23.26" viewBox="0 0 21.635 23.26"><defs><style>.a{fill:#e52c6f;}.a,.b,.d,.e{stroke:#1a1818;}.a,.b,.c,.d,.e{stroke-miterlimit:10;stroke-width:0.25px;}.b{fill:#ffe14b;}.c{fill:#e9699b;stroke:#030504;}.d{fill:#45c1e9;}.e{fill:#f8a43b;}</style></defs><g transform="translate(-1.278 -0.416)"><path class="a" d="M22.781,23.551H1.437c-.008-.152-.024-.305-.024-.457q0-8.655-.011-17.308A.654.654,0,0,1,1.881,5.1Q6.8,2.89,11.7.638a.808.808,0,0,1,.77-.016Q17.41,2.9,22.374,5.134c.287.13.415.265.414.572q-.015,8.75-.007,17.5ZM21.9,13.574a2.223,2.223,0,0,0,.032-.245c0-2.4,0-4.8.011-7.193,0-.3-.168-.411-.421-.525Q17.04,3.576,12.565,1.523a.987.987,0,0,0-.926,0Q7.188,3.563,2.719,5.57a.656.656,0,0,0-.472.694c.018,2.269.009,4.54.011,6.809,0,.168.019.335.028.49h4.85c0-.944-.009-1.852,0-2.76A2.317,2.317,0,0,1,9.557,8.5c1.71-.023,3.421-.025,5.131,0a2.306,2.306,0,0,1,2.394,2.22c.012.8,0,1.6,0,2.4,0,.153.016.306.025.458ZM12.084,21.48c1.092,0,2.184.005,3.277,0,.674,0,.964-.271.967-.871,0-1.022,0-2.045,0-3.066,0-.685-.293-.955-1.046-.956-1.427,0-2.855.008-4.281-.008-.315,0-.771.192-.855-.341-.005-.034-.161-.082-.233-.067-.366.079-.918-.277-1.057.362-.006.032-.157.038-.24.055a.814.814,0,0,0-.757.884c.016,1.038,0,2.077.006,3.114,0,.632.286.892.993.9C9.935,21.484,11.01,21.48,12.084,21.48ZM8.846,13.536c.392.106.573.072.568-.26C9.4,12.64,9.43,12,9.4,11.368c-.007-.143-.2-.278-.31-.417-.08.142-.225.283-.229.427C8.834,12.091,8.846,12.806,8.846,13.536Zm6.54.043c0-.8.012-1.544-.012-2.288,0-.116-.169-.227-.26-.341-.086.083-.244.166-.245.251-.019.787-.012,1.576-.012,2.378Z"/><path class="b" d="M12.757,23.106c-1.074,0-2.149,0-3.224,0-.707,0-.992-.264-.993-.9,0-1.038.01-2.077-.006-3.114a.814.814,0,0,1,.757-.884c.083-.017.234-.024.24-.055.139-.639.691-.283,1.057-.362.072-.015.227.034.233.067.084.533.54.338.855.341,1.426.016,2.854,0,4.281.008.753,0,1.044.272,1.046.956,0,1.022,0,2.044,0,3.066,0,.6-.293.868-.967.871C14.941,23.112,13.849,23.106,12.757,23.106Zm.025-4.053a1.759,1.759,0,0,0-1.88,1.679,1.792,1.792,0,0,0,1.855,1.673,1.793,1.793,0,0,0,1.88-1.7A1.757,1.757,0,0,0,12.782,19.054Zm2.925.5c.105,0,.176-.006.245,0,.333.038.474-.078.474-.4s-.17-.415-.491-.382a1.664,1.664,0,0,1-.368,0c-.416-.053-.511.13-.491.471C15.1,19.733,15.5,19.487,15.707,19.557Z" transform="translate(-0.673 -1.626)"/><path class="c" d="M9.622,14.622c0-.73-.013-1.444.011-2.158,0-.144.149-.284.229-.427.109.139.3.273.31.417.034.635.007,1.272.018,1.908C10.195,14.694,10.014,14.728,9.622,14.622Z" transform="translate(-0.775 -1.086)"/><path class="c" d="M16.789,14.665H16.26c0-.8-.007-1.591.012-2.378,0-.085.159-.168.245-.251.091.114.255.225.26.341C16.8,13.121,16.789,13.865,16.789,14.665Z" transform="translate(-1.402 -1.086)"/><path class="a" d="M15,6.467A1.866,1.866,0,0,1,13.041,8.28a1.89,1.89,0,0,1-2.031-1.8,1.841,1.841,0,0,1,1.954-1.8A1.866,1.866,0,0,1,15,6.467Z" transform="translate(-0.907 -0.392)"/><path class="d" d="M13.029,19.188a1.757,1.757,0,0,1,1.855,1.653A1.793,1.793,0,0,1,13,22.54a1.792,1.792,0,0,1-1.855-1.673A1.759,1.759,0,0,1,13.029,19.188ZM13,19.722A1.143,1.143,0,1,0,13.007,22,1.146,1.146,0,1,0,13,19.722Z" transform="translate(-0.92 -1.761)"/><path d="M16.389,19.662c-.2-.071-.6.176-.63-.308-.02-.341.075-.524.491-.471a1.664,1.664,0,0,0,.368,0c.321-.033.49.051.491.382s-.14.436-.474.4C16.565,19.656,16.494,19.662,16.389,19.662Z" transform="translate(-1.355 -1.731)"/><path class="e" d="M13.061,19.778a1.146,1.146,0,1,1,.009,2.275,1.143,1.143,0,1,1-.009-2.275Z" transform="translate(-0.982 -1.816)"/></g></svg>