<svg xmlns="http://www.w3.org/2000/svg" width="24.422" height="17.972" viewBox="0 0 24.422 17.972"><defs><style>.a{fill:#45c1e9;}.a,.b{stroke:#030504;stroke-miterlimit:10;stroke-width:0.25px;fill-rule:evenodd;}.b{fill:#e52c6f;}</style></defs><g transform="translate(-9.143 -7.283)"><path class="a" d="M9.387,21.46h8.032a24.87,24.87,0,0,0-.609-4.861A3.771,3.771,0,0,0,10,16.6a22.96,22.96,0,0,0-.614,4.855" transform="translate(0.048 3.273)"/><path class="b" d="M17.54,11.919l2.563.06-.81,3.033c1.6.018,1.008-.094,1.8.669a3.035,3.035,0,0,0,3.78.086c.791-.647.227-.782,1.8-.732a18.71,18.71,0,0,0-.779-3.027l2.657.006c0-.006.022-1.145-.127-.908L17.54,11.026Z" transform="translate(3.843 1.681)"/><path class="b" d="M19.109,15.51l-.031,6.116h6.451l.009-6.071-1.261-.61L24.248,16l-.792.008-.081.869-2.043.018-.112-.861-.815-.03-.021-.985Z" transform="translate(4.557 3.501)"/><path class="a" d="M11.721,8.879c-.943-.47-2.367-.639-2.452.737-.056.9.811,1.138,2.078,2.018l.05,1.873,4.089.029.051-1.9c1.131-.77,2.084-1.116,2.1-1.9.047-1.522-1.539-1.321-2.46-.858-1.115-1.961-2.348-1.961-3.461,0" transform="translate(0)"/><path class="b" d="M19.1,11.725H25.5c-.25-4.47-6.1-4.506-6.391,0" transform="translate(4.57 0.443)"/><path class="a" d="M10.208,14.2l1.21.01c.8,1.752,2.074,2.05,3.193,0H15.8l-.819-2.491-3.938-.012Z" transform="translate(0.437 1.998)"/><path class="b" d="M16.793,21.273h1.759l.948,0V15.7c-1.412.678-2.66,3.1-2.707,5.573" transform="translate(3.496 3.852)"/><path class="b" d="M23.951,21.261h2.668a6.746,6.746,0,0,0-.769-3.322,5.125,5.125,0,0,0-1.886-2.211Z" transform="translate(6.821 3.865)"/></g></svg>