<svg xmlns="http://www.w3.org/2000/svg" width="17.525" height="24.174" viewBox="0 0 17.525 24.174"><defs><style>.a{fill:#c6e873;}.a,.b,.c,.d,.e{stroke:#000;stroke-width:0.5px;}.b{fill:#b5e245;}.c{fill:#eaaa89;}.d{fill:#e4936b;}.e{fill:#e27d47;}</style></defs><g transform="translate(-69.904 -0.107)"><g transform="translate(70.154 0.357)"><g transform="translate(1.497)"><g transform="translate(0 4.526)"><path class="a" d="M109.386,102.632a.38.38,0,0,0-.646.234c-.094,2,.125,7.224,4.608,9.747,2.656,1.5,2.588-.1,2.588-.1l-.154-3.582Z" transform="translate(-108.725 -102.522)"/><g transform="translate(6.82)"><path class="a" d="M258.451,102.632a.38.38,0,0,1,.646.234c.094,2-.125,7.224-4.608,9.747-2.656,1.5-2.588-.1-2.588-.1l.154-3.582Z" transform="translate(-251.902 -102.522)"/></g></g><g transform="translate(4.499)"><path class="b" d="M206,7.7a.349.349,0,0,0-.635,0c-.677,1.571-2.2,5.46-2.2,8.628a9.869,9.869,0,0,0,2.517,6.577,9.869,9.869,0,0,0,2.517-6.577c0-3.169-1.523-7.057-2.2-8.628Z" transform="translate(-203.166 -7.5)"/></g></g><g transform="translate(0 13.615)"><path class="c" d="M105.93,316.911l1.878,8.054a1.141,1.141,0,0,0,1.111.882h8.319a1.141,1.141,0,0,0,1.111-.882l1.878-8.054Z" transform="translate(-104.566 -315.787)"/><path class="d" d="M280.644,316.911l-1.878,8.054a1.141,1.141,0,0,1-1.111.882h3.128a1.141,1.141,0,0,0,1.111-.882l1.878-8.054Z" transform="translate(-268.111 -315.787)"/><path class="d" d="M93.3,295.363H78.319a1.022,1.022,0,0,1,0-2.043H93.3a1.022,1.022,0,0,1,0,2.043Z" transform="translate(-77.297 -293.32)"/><path class="e" d="M350.435,293.32h-3.142a1.022,1.022,0,0,1,0,2.043h3.142a1.022,1.022,0,1,0,0-2.043Z" transform="translate(-334.432 -293.32)"/></g></g></g></svg>