<svg xmlns="http://www.w3.org/2000/svg" width="25.224" height="25.248" viewBox="0 0 25.224 25.248"><defs><style>.a{fill:#f8a43b;}.a,.b,.d{stroke:#1a1818;}.a,.b,.c,.d{stroke-miterlimit:10;stroke-width:0.25px;}.b{fill:#ffe14b;}.c{fill:#45c1e9;stroke:#21201f;}.d{fill:#e52c6f;}</style></defs><g transform="translate(-0.375 -1.026)"><path class="a" d="M4.647,3.2V2.485H21.3V3.2Z"/><path class="b" d="M2.548,26.109l-.72.034V10.349l.72-.033Z"/><path class="b" d="M24.148,26.122h-.717V10.352h.717Z"/><path class="c" d="M24.308,9.437c-3.182.316-5.418-1.912-5.424-5.478.212.184.41.271.46.411a4.373,4.373,0,0,0,4.667,3.161.633.633,0,0,1,.157.051v.565C22.327,8.586,24,8.977,24.308,9.437ZM22.171,7.666c-.187.231-.4.383-.385.5a.617.617,0,0,0,.353.423c.093.03.389-.2.387-.315C22.523,8.107,22.342,7.939,22.171,7.666Z"/><path class="c" d="M1.8,7.972v-.4a9.531,9.531,0,0,0,1.536-.112A4.379,4.379,0,0,0,6.594,4.531a3.223,3.223,0,0,1,.312-.523l.27.1c-.107.608-.168,1.23-.33,1.823A4.578,4.578,0,0,1,2.307,9.5a1.9,1.9,0,0,1-.517-.151c.135-.1.278-.187.4-.3s.263-.264.393-.4Zm2.567.216c-.239-.168-.42-.38-.52-.347-.169.056-.287.266-.426.411.155.122.3.315.469.34C4,8.609,4.147,8.384,4.366,8.188Z"/><path class="a" d="M23.787,4.465a2.888,2.888,0,0,1-1.625-1.616,2.943,2.943,0,0,1,1.63-1.7,3.063,3.063,0,0,1,1.682,1.667A2.932,2.932,0,0,1,23.787,4.465Zm.123-2.079L23.593,2.2c-.066.186-.207.385-.177.555s.226.32.35.478c.14-.134.35-.249.4-.41C24.194,2.711,24,2.535,23.91,2.386Z"/><path class="a" d="M3.815,2.831A2.74,2.74,0,0,1,2.141,4.469,3.249,3.249,0,0,1,.5,2.848a3.067,3.067,0,0,1,1.655-1.7C2.613,1.145,3.815,2.36,3.815,2.831ZM2.162,3.4c.191-.269.379-.425.395-.6.01-.107-.267-.358-.363-.334a.611.611,0,0,0-.381.393C1.788,2.978,1.988,3.144,2.162,3.4Z"/><path class="d" d="M5.784,4.1A3.276,3.276,0,0,1,3.529,6.525C3.165,4.383,3.414,3.845,5.784,4.1Z"/><path class="d" d="M22.525,6.568A3.6,3.6,0,0,1,20.146,4.12C22.429,3.886,22.733,4.172,22.525,6.568Z"/><path class="b" d="M11.994,4.125a2.317,2.317,0,0,1-3.419,0Z"/><path class="b" d="M13.988,4.1h3.35A2.213,2.213,0,0,1,13.988,4.1Z"/><path class="d" d="M2.552,6.659c-.849.1-.874.058-.734-1.336l.734-.039Z"/><path class="d" d="M23.407,6.693V5.324h.678C24.428,6.35,24.269,6.719,23.407,6.693Z"/><path class="c" d="M22.171,7.666c.171.273.352.441.355.611,0,.111-.294.345-.387.315a.617.617,0,0,1-.353-.423C21.77,8.049,21.984,7.9,22.171,7.666Z"/><path class="c" d="M4.366,8.188c-.219.2-.366.421-.477.4-.17-.025-.314-.218-.469-.34.139-.145.257-.355.426-.411C3.946,7.808,4.127,8.02,4.366,8.188Z"/><path class="a" d="M23.91,2.386c.092.149.284.325.252.438-.046.161-.256.276-.4.41-.124-.158-.32-.3-.35-.478s.111-.369.177-.555Z"/><path d="M2.162,3.4c-.174-.253-.374-.419-.349-.538a.611.611,0,0,1,.381-.393c.1-.024.373.227.363.334C2.541,2.972,2.353,3.128,2.162,3.4Z"/></g></svg>