<svg xmlns="http://www.w3.org/2000/svg" width="26.25" height="26" viewBox="0 0 26.25 26"><defs><style>.a,.b{fill:#faee91;}.b,.f,.j,.k{fill-rule:evenodd;}.c,.e,.g,.h,.i,.l{fill:none;}.c,.e,.h{stroke:#21201f;}.c,.d,.e,.f,.g{stroke-miterlimit:10;}.c{stroke-width:0.217px;}.d,.f,.j{fill:#e52c6f;}.d,.f,.g{stroke:#1a1818;stroke-width:0.25px;}.e{stroke-width:0.216px;}.h,.i{stroke-miterlimit:22.926;stroke-width:0.216px;}.i{stroke:#030504;}.k{fill:#ffe14b;}</style></defs><g transform="translate(0.25)"><path class="a" d="M12.094,3.538l.63.989c-.242.417,1.339,5.021,6.949,6.191a10.488,10.488,0,0,0,2.4.629c1.07-.194,1.277-1.408.2-.376.924-.337.764,1.041.32,1.038L20.826,23.9l1.855.3,1.1,0-.169,1.467h.18c0-.388-.05-1.123-.011-1.467.078-.69-.061.085.2-.42.489-.951-.075-8.421.352-10.8l-.15-.381c.027-.167.175-.027,0,0-.541.235-.043.327-.187-.139.16-.375-.771-.067-.361.113.175.026.138.061.111-.1l.57-.308-.217-.577-.088-.862c-.579.053-.871.016-.708-.591l-.147.023-.851.014c-.164-.7.292.172,1.061.5l.33-.105.071-.174c.493-.3-.558-2.55-.791-3A9.809,9.809,0,0,0,20.313,4.1a10.7,10.7,0,0,0-5.656-2.513l-1.78-.263c.031,1.066,1.323.909.75,1.473-.386.381-.83.961-1.533.745"/><path class="b" d="M1.643,8.775l.1.045c.133.435-.291.327-.4.729l.448.1c-.4.6-.2.969.873.694l-.906-.071-.045.047c.231.745.416.77-.415.359L.963,13.05c.54.19.552-.657.344-.107l.015-.228c.272.255.2.458.939.093l-.189-.053c-.136-.253-.29-.51-.472-.018l-.278-.022c.193.551.19.155-.359.335.006.892-.4,10.5-.1,11.028.268.476.3-.354.414.308.045.259,0,1.145,0,1.471H1.4V24.092l.942-.01,1.731-.3C3.83,21.92,3.1,12.2,2.486,11.847c.043-.4.09.193.276-.055l.3-.171c.477.425-.142-.13.538-.348.426.3.047-.511,0,0A29.316,29.316,0,0,0,6.37,10.161c1.579-.943,5.109-2.913,5.849-5.405l-.257-1.115c-.245-.262-.284-.192-.555-.448-.191-.182-.351-.353-.514-.526-.471-.5,1.817.152,1.831-.662l-2.037-.618A10.9,10.9,0,0,0,5.44,3.844a11.226,11.226,0,0,0-3.8,4.931"/><path class="c" d="M10.485,24.676h1.049a1.064,1.064,0,0,1,2.059,0h1.048c-.146-.965-.6-1.213-1.557-1.585V20.246c.918-.4,1.413-.572,1.557-1.593a3,3,0,0,0-1.071.133,1.092,1.092,0,0,1-2.014,0,3,3,0,0,0-1.071-.133c.145,1.042.635,1.188,1.559,1.6v2.836C11.16,23.423,10.569,23.764,10.485,24.676Z"/><path class="d" d="M10.485,24.676h1.048a1.064,1.064,0,0,1,2.059,0H14.64c-.146-.965-.6-1.213-1.557-1.585V20.245c.918-.4,1.413-.572,1.557-1.593a3.019,3.019,0,0,0-1.07.132,1.092,1.092,0,0,1-2.014,0,3.025,3.025,0,0,0-1.071-.132c.144,1.042.634,1.188,1.559,1.6v2.837c-.884.332-1.476.673-1.559,1.585"/><path class="e" d="M10.564,18.265a14.359,14.359,0,0,0,1.809,0l.706.03a1.364,1.364,0,0,0,.267.038,6.433,6.433,0,0,0,.96-.068c.443.013,1.392.058,1.794.012.756-.085.677-.738.112-.87l-7.448-.014c-.695.094-.723.747-.1.873C8.93,18.319,10.217,18.275,10.564,18.265Z"/><path class="d" d="M10.562,18.266a14.359,14.359,0,0,0,1.809,0l.706.031a1.453,1.453,0,0,0,.267.037,6.3,6.3,0,0,0,.96-.068c.443.013,1.392.058,1.794.012.756-.085.677-.737.112-.869l-7.447-.015c-.695.1-.723.747-.1.873a18.767,18.767,0,0,0,1.9,0"/><path class="f" d="M22.693,25.767h1.069l.189-1.564H22.681Z"/><path class="f" d="M1.155,25.767H2.173L2.229,24l-1.075.01Z"/><path class="g" d="M2.407,11.61S10.1,9.69,11.857,5.4C15.1-2.52,2.819,2.514,1.209,9.887"/><path class="h" d="M22.388,11.289c.509.386-7.467-.648-9.348-5.526-3.078-7.985,9.947-3.5,11.187,5.583"/><path class="d" d="M10.688,1.713A1.837,1.837,0,0,0,11.2,3.27c.147.17.287.335.46.513.244.249.275.181.5.437.616.211,1-.355,1.341-.729a2.01,2.01,0,0,0,.72-1.821c-.246-.494-.329-.458-.7-.776h-2.13c-.32.269-.543.336-.7.819"/><path class="i" d="M22.063,10,22.7,12.05,20.826,24l3.126.2.33-13.552"/><path class="j" d="M23.882,11.952c.139-.082-.006-.26.633.007.9-1.324-1.4-1.913-.633-.007"/><path class="j" d="M21.988,9.939c.167-.1-.009-.321.787.009,1.119-1.653-1.742-2.387-.787-.009"/><path class="j" d="M24.568,12.609l-.352.171-.327-.153c-.442,1.355.52,1.056.638.958.247-.2.085-.726.041-.976"/><path class="j" d="M22.841,10.764l-.441.211-.408-.19c-.551,1.692.653,1.318.8,1.2.305-.251.1-.907.046-1.217"/><path class="j" d="M22.823,9.948c.212.467-.446.768.043.875,2.116.462,1.837-1.218-.043-.875"/><path class="j" d="M23.386,12.742l.5-.115c-.015-.028-.033-.1-.037-.083,0,0,.127-.048.1-.651-1.6-.6-1.522,1.028-.561.849"/><path class="j" d="M21.364,10.928l.628-.143c-.013-.034-.04-.126-.045-.1,0,0,.161-.058.118-.812-2-.746-1.9,1.285-.7,1.059"/><path class="j" d="M23.882,11.952c-.249.42-.03.592-.03.592,0-.018.022.055.037.083l.327.153.352-.171.02.049c.149-.374.14-.328-.033-.7-.639-.267-.534-.089-.673-.007"/><path class="j" d="M21.988,9.939c-.316.527-.041.742-.041.742,0-.022.032.07.045.1l.408.19.441-.211.025.059c.186-.466.169-.408-.043-.875-.8-.33-.668-.11-.835-.009"/><path class="k" d="M24.2,11.639a.558.558,0,1,1,0,1.116.558.558,0,1,1,0-1.116"/><path class="j" d="M21.837,13.29c.115-.07,0-.217.53.005.756-1.113-1.172-1.608-.53-.005"/><path class="j" d="M22.415,13.844l-.3.143-.277-.129c-.372,1.141.435.887.539.8.206-.168.07-.613.035-.818"/><path class="j" d="M22.4,13.3c.147.31.153.274.028.586,1.329.193,1.129-.954-.028-.586"/><path class="j" d="M21.42,13.955l.421-.1c-.011-.025-.022-.085-.031-.073s.109-.038.082-.545c-1.349-.5-1.286.865-.472.715"/><path class="j" d="M21.837,13.29c-.21.351-.027.495-.027.495s.02.048.031.073l.277.129.3-.143.013.037c.125-.312.119-.276-.028-.586-.534-.222-.448-.075-.563-.005"/><path class="k" d="M22.1,13.024a.471.471,0,1,1-.478.471.474.474,0,0,1,.478-.471"/><path class="k" d="M22.382,9.548a.7.7,0,1,1-.714.7.7.7,0,0,1,.714-.7"/><path class="i" d="M4.192,11.165l-1.581.728L4.075,23.784l-3.213.294L1.24,10.161"/><path class="j" d="M3.6,11.9c.142-.084-.005-.266.646.007C5.165,10.55,2.827,9.95,3.6,11.9"/><path class="j" d="M1.671,9.84c.171-.1-.009-.326.8.011C3.617,8.163.7,7.414,1.671,9.84"/><path class="j" d="M4.3,12.564l-.358.177-.333-.156c-.453,1.383.529,1.076.652.975.249-.205.084-.739.039-1"/><path class="j" d="M2.543,10.681l-.45.216L1.676,10.7c-.562,1.726.665,1.346.818,1.222.314-.258.1-.926.049-1.245"/><path class="j" d="M4.29,11.9c.178.379.186.331.034.714,1.61.233,1.369-1.159-.034-.714"/><path class="j" d="M2.524,9.851c.217.475.235.417.044.893,2.013.287,1.71-1.45-.044-.893"/><path class="j" d="M3.1,12.7l.513-.116c-.016-.03-.035-.1-.037-.086,0,0,.128-.048.1-.665-1.636-.608-1.553,1.051-.571.867"/><path class="j" d="M1.037,10.851l.639-.147c-.014-.034-.042-.13-.046-.105,0,0,.165-.06.121-.829-2.043-.763-1.941,1.311-.714,1.081"/><path class="j" d="M3.6,11.9c-.253.429-.028.6-.028.6,0-.017.021.056.037.086l.333.156.358-.177.02.052c.152-.383.144-.335-.034-.714-.651-.273-.544-.091-.686-.007"/><path class="j" d="M1.671,9.84c-.319.538-.041.759-.041.759,0-.025.032.071.046.105l.417.193.45-.216.025.063c.191-.476.173-.418-.044-.893-.814-.337-.682-.113-.853-.011"/><path class="k" d="M3.929,11.575a.57.57,0,1,1-.581.57.575.575,0,0,1,.581-.57"/><path class="j" d="M1.516,13.261c.118-.073,0-.224.543,0,.77-1.135-1.195-1.641-.543,0"/><path class="j" d="M2.107,13.826l-.3.145-.283-.13c-.379,1.163.444.9.548.818.213-.17.073-.625.037-.833"/><path class="j" d="M2.093,13.265c.15.318.157.28.028.6,1.355.2,1.151-.973-.028-.6"/><path class="j" d="M1.093,13.939l.429-.1c-.012-.025-.022-.087-.032-.077s.112-.037.084-.555c-1.378-.513-1.311.883-.481.73"/><path class="j" d="M1.516,13.261c-.211.358-.026.5-.026.5s.02.052.032.077l.283.13.3-.145.014.038c.129-.319.122-.281-.028-.6-.547-.228-.459-.077-.577,0"/><path class="k" d="M1.786,12.989a.481.481,0,1,1-.487.48.484.484,0,0,1,.487-.48"/><path class="k" d="M2.074,9.443a.712.712,0,1,1-.73.713.719.719,0,0,1,.73-.713"/><rect class="l" width="26.25" height="26" transform="translate(-0.25 0)"/></g></svg>