<svg xmlns="http://www.w3.org/2000/svg" width="24.555" height="17.612" viewBox="0 0 24.555 17.612"><defs><style>.a{fill:#f8a43b;}.a,.b{stroke:#1a1818;stroke-miterlimit:10;stroke-width:0.25px;}.b{fill:#ffe14b;}</style></defs><g transform="translate(0.125 -4.004)"><path class="a" d="M23.087,16.673a2.25,2.25,0,0,1,.123,1.541,2.148,2.148,0,0,1-2.788,1.443.3.3,0,0,0-.385.1,2.222,2.222,0,0,0-.4.655,1.587,1.587,0,0,1-1.527,1.069c-4.379.013-8.756.006-13.135.006-.036,0-.07,0-.106-.007,0-.022-.012-.046,0-.055a3.02,3.02,0,0,0,.6-1.978c-.013-3.075,0-6.151-.007-9.226a4.249,4.249,0,0,0-1.51-3.3L3.806,6.8a.389.389,0,0,1-.034-.05H5.458V6.3A2.164,2.164,0,0,1,7.63,4.131c1.71,0,3.419,0,5.129,0A2.169,2.169,0,0,1,15,6.37c0,.108,0,.216,0,.366.17,0,.328,0,.487,0a9.7,9.7,0,0,1,1.352.051,3.356,3.356,0,0,1,2.786,2.422.544.544,0,0,0,.3.335c.3.17.579.392.875.579a.411.411,0,0,0,.294.071,1.687,1.687,0,0,1,1.852.4,1.664,1.664,0,0,1,.38,1.876c-.016.042-.028.086-.047.146a2.19,2.19,0,0,1-.194,4.054ZM16.411,12.5c-.1-.494-.233-.607-.614-.561a.856.856,0,0,0-.752,1.052,1.307,1.307,0,0,0,.315.516c.2.217.439.4.7.632l-4.522.379v1.018l3.629.391-.1.84-.851-.074a1.246,1.246,0,0,0,1.251,1.621l.02-.248H16.3c.017.089.034.176.05.264a1.637,1.637,0,0,0,1.2,1.338,1.685,1.685,0,0,0,1.782-.4.255.255,0,0,0,.033-.41,1.8,1.8,0,0,1-.392-1.243c.206,0,.394.01.58,0s.253.056.291.251a1.241,1.241,0,0,0,.968,1.021,1.274,1.274,0,0,0,1.383-.515,1.234,1.234,0,0,0,.05-1.426.613.613,0,0,0-.29-.2c-.194-.08-.4-.136-.629-.211l.413-.749c.1.034.18.06.257.083a1.321,1.321,0,0,0,1.7-1.346,1.339,1.339,0,0,0-1.319-1.23c-.342-.017-.683-.041-1.1-.065l.523-.387c.16-.119.326-.229.478-.357a.855.855,0,0,0,.223-1.056.887.887,0,0,0-.976-.471.863.863,0,0,0-.681.779c-.007.061-.018.122-.029.194l-.9.069.306-1.218a1.669,1.669,0,0,0-1.857-.483c-.8.277-1.14.866-1.17,2.029ZM14.122,6.728a1.375,1.375,0,0,0-1.506-1.743c-1.646,0-3.292,0-4.939,0A1.345,1.345,0,0,0,6.355,6.728Zm-.831,10.711A2.641,2.641,0,0,1,10.2,16.369a2.586,2.586,0,0,1,.191-3.035,2.551,2.551,0,0,1,1.8-.945,2.613,2.613,0,0,1,1.945.65c.02-.2.026-.349.052-.5s.074-.309.11-.458a3.471,3.471,0,0,0-4.566,5.13,3.368,3.368,0,0,0,3.875,1Zm-6.76-8.1a.658.658,0,1,0,.642-.665A.661.661,0,0,0,6.532,9.343Zm2.819-.665a.657.657,0,1,0,.033,1.314.657.657,0,0,0-.033-1.314Zm1.525.654a.657.657,0,1,0,.652-.654A.661.661,0,0,0,10.876,9.333Z" transform="translate(-0.246)"/><path class="a" d="M4.329,15.114v4.775a1.721,1.721,0,0,1-1.778,1.78,6.9,6.9,0,0,1-1.214-.056A1.667,1.667,0,0,1,0,19.958q0-6.05,0-12.1a.866.866,0,0,1,.95-.938,3.472,3.472,0,0,1,3.378,3.448c0,1.583,0,3.165,0,4.748Z" transform="translate(0 -0.182)"/><path class="b" d="M15.674,7.044H7.16A1.474,1.474,0,0,1,8.61,5.136c1.805-.007,3.609,0,5.414,0C15.224,5.132,15.817,5.808,15.674,7.044Z" transform="translate(-0.463 -0.065)"/><path class="b" d="M13.65,17.953l.318.771a3.368,3.368,0,0,1-3.875-1,3.471,3.471,0,0,1,4.566-5.13c-.036.149-.082.3-.11.458s-.033.3-.052.5a2.613,2.613,0,0,0-1.945-.65,2.551,2.551,0,0,0-1.8.945,2.586,2.586,0,0,0-.191,3.035A2.641,2.641,0,0,0,13.65,17.953Z" transform="translate(-0.605 -0.514)"/><path class="b" d="M6.724,9.661a.658.658,0,1,1,.659.65A.659.659,0,0,1,6.724,9.661Z" transform="translate(-0.438 -0.317)"/><path class="b" d="M9.695,9a.657.657,0,1,1-.647.659A.662.662,0,0,1,9.695,9Z" transform="translate(-0.59 -0.317)"/><path class="b" d="M11.371,9.65a.657.657,0,1,1,.648.66A.658.658,0,0,1,11.371,9.65Z" transform="translate(-0.741 -0.317)"/><path class="b" d="M19.681,14.16l-.663-.466a1.481,1.481,0,0,1,1.8-.551,1.536,1.536,0,0,1,.908,1.773,1.456,1.456,0,0,1-1.478,1.132c0-.229-.007-.462.006-.693a.2.2,0,0,1,.122-.14.653.653,0,0,0,.528-.637.63.63,0,0,0-.362-.617C20.272,13.816,20.035,13.87,19.681,14.16Z" transform="translate(-1.24 -0.58)"/><path class="b" d="M16.89,17.918l.7-.414a.709.709,0,0,0,.883.237.615.615,0,0,0,.372-.612.687.687,0,0,0-.607-.661l.045-.8A1.428,1.428,0,0,1,19.659,16.8a1.518,1.518,0,0,1-.952,1.769A1.482,1.482,0,0,1,16.89,17.918Z" transform="translate(-1.101 -0.752)"/></g></svg>