<svg xmlns="http://www.w3.org/2000/svg" width="25.059" height="24.848" viewBox="0 0 25.059 24.848"><defs><style>.a,.e{fill:#ff80ab;}.a,.b,.c,.g,.h,.i{fill-rule:evenodd;}.b,.d{fill:#faee91;}.c,.f{fill:#b3e2a1;}.g{fill:#ff4081;}.h{fill:#fbe863;}.i{fill:#9fdd83;}.j{stroke:#fff;stroke-width:0.2px;}</style></defs><g transform="translate(-132.613 -108.322)"><g transform="translate(132.713 108.5)"><g transform="translate(0.368 0.65)"><path class="a" d="M7.507,24.168,12.876,18.1A17.061,17.061,0,0,1,7.51,16.246Z" transform="translate(-7.507 -16.246)"/><path class="b" d="M119.6,59.645l4.363-5.015a35.9,35.9,0,0,1-6.8-.618Z" transform="translate(-111.857 -52.163)"/><path class="c" d="M260.363,59.646l2.436-5.633a35.9,35.9,0,0,1-6.8.618Z" transform="translate(-243.979 -52.164)"/><path class="b" d="M400.208,24.167l0-7.922a17.062,17.062,0,0,1-5.367,1.849Z" transform="translate(-376.085 -16.245)"/><path class="b" d="M96.863,304.588a1.1,1.1,0,0,0-2.2,0v1.1a2.96,2.96,0,0,1,2.2,0Z" transform="translate(-90.433 -289.557)"/><circle class="d" cx="2.938" cy="2.938" r="2.938" transform="translate(2.431 15.841)"/><path class="a" d="M235.7,183.866a1.1,1.1,0,0,0-2.2,0v1.1a2.96,2.96,0,0,1,2.2,0Z" transform="translate(-222.54 -174.689)"/><circle class="e" cx="2.938" cy="2.938" r="2.938" transform="translate(9.124 10.02)"/><path class="c" d="M374.542,342.087a1.1,1.1,0,1,0-2.2,0v1.1a2.96,2.96,0,0,1,2.2,0Z" transform="translate(-354.646 -325.238)"/><circle class="f" cx="2.938" cy="2.938" r="2.938" transform="translate(15.816 17.677)"/><path class="g" d="M7.507,24.167l1.1-1.247,0-6.106a10.261,10.261,0,0,1-1.1-.57Z" transform="translate(-7.507 -16.245)"/><path class="h" d="M119.6,59.646l.736-.846-1.98-4.58q-.611-.094-1.191-.207Z" transform="translate(-111.845 -52.164)"/><path class="i" d="M260.363,71.36l.366-.846-3.637-4.183q-.54.015-1.092.015Z" transform="translate(-243.964 -63.878)"/><path class="h" d="M400.208,56.2V54.951l-4.433-5.024q-.456.106-.936.2Z" transform="translate(-376.085 -48.278)"/><path class="h" d="M96.313,303.64a1.1,1.1,0,0,0-1.653.953v1.1a2.939,2.939,0,0,1,1.1-.212v-.885A1.1,1.1,0,0,1,96.313,303.64Z" transform="translate(-90.432 -289.562)"/><path class="h" d="M60.649,344.073a2.938,2.938,0,1,0,0,5.772A2.943,2.943,0,0,1,60.649,344.073Z" transform="translate(-54.73 -328.18)"/><path class="g" d="M235.152,182.905a1.1,1.1,0,0,0-1.653.953v1.1a2.939,2.939,0,0,1,1.1-.213v-.885A1.1,1.1,0,0,1,235.152,182.905Z" transform="translate(-222.536 -174.683)"/><path class="g" d="M199.489,223.338a2.938,2.938,0,1,0,0,5.772A2.943,2.943,0,0,1,199.489,223.338Z" transform="translate(-186.865 -213.266)"/><path class="i" d="M373.991,341.126a1.1,1.1,0,0,0-1.653.953v1.1a2.94,2.94,0,0,1,1.1-.213v-.885A1.1,1.1,0,0,1,373.991,341.126Z" transform="translate(-354.641 -325.231)"/><path class="i" d="M338.329,381.559a2.938,2.938,0,1,0,0,5.772A2.943,2.943,0,0,1,338.329,381.559Z" transform="translate(-318.976 -363.83)"/></g><path class="j" d="M193.275,177.595v-.862a1.469,1.469,0,0,0-2.938,0v.862A3.3,3.3,0,0,0,189,182.3l.623-.389a2.572,2.572,0,1,1,.405.5l-.508.531a3.3,3.3,0,1,0,3.753-5.349Zm-2.2-.262v-.6a.734.734,0,1,1,1.469,0v.6a3.28,3.28,0,0,0-1.469,0Z" transform="translate(-179.377 -166.937)"/><path class="j" d="M5.324,16.588h.728V7.248L8,11.787l4.066-4.714v3.6h.728v-3.6l1.285,1.49.549-.482L13.222,6.45a36.109,36.109,0,0,0,5.344-.492L16.65,10.425l-1.544-1.79-.549.482,2.3,2.67,1.946-4.539V18.424h.728V6.443l5.324,6.074,0-4.564h-.728v2.624L19.859,5.7a17.718,17.718,0,0,0,4.269-1.456v2.97h.728l0-4.244-.552.335a16.461,16.461,0,0,1-5.2,1.8h0a35.181,35.181,0,0,1-6.669.611c-1.024,0-2.046-.04-3.037-.119l-.058.732c.754.06,1.525.1,2.3.114L8.208,10.425,6.293,5.958c.743.128,1.517.233,2.309.313l.072-.731c-1.012-.1-1.992-.245-2.914-.426h0a16.462,16.462,0,0,1-5.2-1.8L0,2.974v3.08H.731V4.248A17.716,17.716,0,0,0,5,5.7L.729,10.576V6.788H0l0,5.728L5.324,6.443Z" transform="translate(0 -2.974)"/><path class="j" d="M54.436,298.317v-.862a1.469,1.469,0,0,0-2.938,0v.862a3.3,3.3,0,0,0-1.2,4.905l.593-.433a2.571,2.571,0,1,1,.44.468l-.469.566a3.3,3.3,0,1,0,3.576-5.506Zm-2.2-.262v-.6a.734.734,0,0,1,1.469,0v.6a3.279,3.279,0,0,0-1.469,0Z" transform="translate(-47.23 -281.848)"/><path class="j" d="M332.115,335.815v-.862a1.469,1.469,0,0,0-2.938,0v.862a3.3,3.3,0,0,0-1.335,4.709l.623-.389a2.572,2.572,0,1,1,.405.5l-.508.531a3.3,3.3,0,1,0,3.753-5.349Zm-2.2-.262v-.6a.734.734,0,1,1,1.469,0v.6a3.281,3.281,0,0,0-1.469,0Z" transform="translate(-311.524 -317.51)"/></g></g></svg>