<svg xmlns="http://www.w3.org/2000/svg" width="24.167" height="21.035" viewBox="0 0 24.167 21.035"><defs><style>.a{fill:#f8a43b;}.a,.b{stroke:#1a1818;stroke-miterlimit:10;stroke-width:0.25px;}.b{fill:#45c1e9;}</style></defs><g transform="translate(-0.911 -3.161)"><path class="a" d="M24.951,12.7a9.72,9.72,0,0,1-3.957,7.324,8.038,8.038,0,0,1-2.8,1.266c-1.334.35-1.895-.368-1.671-1.73a9.992,9.992,0,0,0,.19-3.125,1.913,1.913,0,0,0-2.461-1.582c-.557.082-1.114.167-1.672.238A2.957,2.957,0,0,1,9.1,13.006c-2-5.091,1.441-9.9,6.974-9.714a14.843,14.843,0,0,1,2.9.375C22.731,4.56,25.019,7.724,24.951,12.7Zm-5.17-6.526a1.511,1.511,0,0,0-1.5-1.538,1.579,1.579,0,0,0-1.551,1.511,1.572,1.572,0,0,0,1.525,1.533A1.491,1.491,0,0,0,19.781,6.171Zm1.882,2.063a1.575,1.575,0,0,0-1.548,1.512,1.5,1.5,0,0,0,1.512,1.52,1.458,1.458,0,0,0,1.529-1.48A1.54,1.54,0,0,0,21.663,8.234ZM13.607,4.972a1.425,1.425,0,0,0-1.54,1.449A1.5,1.5,0,0,0,13.511,8,1.6,1.6,0,0,0,15.094,6.52,1.531,1.531,0,0,0,13.607,4.972ZM21.7,15.781a1.507,1.507,0,1,0,.053-3.014,1.448,1.448,0,0,0-1.524,1.472A1.479,1.479,0,0,0,21.7,15.781Z"/><path class="b" d="M7.222,12.541a2.724,2.724,0,0,1,.576.528q2.892,5.037,5.735,10.1c.115.206-.047.567-.08.855-.321-.116-.764-.137-.945-.365-1.781-2.25-3.518-4.535-5.269-6.809q-.839-1.09-1.681-2.178c-.357-.46-.359-.851.18-1.179C6.213,13.2,6.675,12.893,7.222,12.541Z"/><path class="b" d="M5.564,11.9a2.384,2.384,0,0,1-3.1-1.12,9.563,9.563,0,0,1-1.413-5.2c.241.2.37.26.435.362a5.91,5.91,0,0,0,3,2.384A2.458,2.458,0,0,1,6.055,9.907a2.169,2.169,0,0,1-.523,2.029Z"/><path class="b" d="M5.532,11.936,6.6,11.393l.554.754L4.9,13.655l-.523-.775L5.563,11.9Z"/></g></svg>