<svg xmlns="http://www.w3.org/2000/svg" width="13.079" height="23.75" viewBox="0 0 13.079 23.75"><defs><style>.a{fill:#e52c6f;}.a,.b,.d,.e{stroke:#21201f;stroke-miterlimit:10;stroke-width:0.25px;}.b{fill:#ffe14b;}.c{fill:#fff;}.d{fill:#45c1e9;}.e{fill:#9dc86d;}</style></defs><g transform="translate(-4.645 0.1)"><path class="a" d="M6.391,8.578l-.9.7A6.3,6.3,0,0,1,6.919,1.659a6.385,6.385,0,0,1,8.525,0,6.3,6.3,0,0,1,1.431,7.639,4.481,4.481,0,0,0-.445-.406,4.208,4.208,0,0,1-.445-.286,7.39,7.39,0,0,0-.351-1.145,1.347,1.347,0,0,0-.987-.643,1.488,1.488,0,0,0-.663-1.862,1.445,1.445,0,0,0-1.8.259,1.557,1.557,0,0,0-2.215,0,1.454,1.454,0,0,0-1.9-.209A1.47,1.47,0,0,0,7.5,6.814C6.548,7.32,6.3,7.724,6.391,8.578Z" transform="translate(0 0)"/><path class="a" d="M9.406,15.5v.354q0,1.925,0,3.849a1.024,1.024,0,0,0,1.108,1.121c.539,0,1.078,0,1.616,0a1.042,1.042,0,0,0,1.2-1.181V15.495h1.815l.9,7.143H6.691l.9-7.141Z" transform="translate(-0.181 -1.46)"/><path class="b" d="M17.581,25.826H4.817v-1.4c.107-.005.2-.016.3-.016q6.078,0,12.156-.006c.232,0,.334.049.318.307C17.564,25.067,17.581,25.429,17.581,25.826Z" transform="translate(-0.004 -2.3)"/><path class="b" d="M6.465,14.357v-1.18h9.753v1.18Z" transform="translate(-0.159 -1.241)"/><path class="c" d="M10.677,17.886h2.128c0,.714,0,1.414-.009,2.114,0,.053-.13.146-.2.148-.576.013-1.154.014-1.73,0a.256.256,0,0,1-.181-.168C10.672,19.289,10.677,18.6,10.677,17.886Z" transform="translate(-0.557 -1.685)"/><path class="c" d="M10.694,15.5h2.1V16.74h-2.1Z" transform="translate(-0.558 -1.46)"/><path class="d" d="M9.95,11.077a.594.594,0,0,1-.59.573.583.583,0,0,1,.018-1.166A.6.6,0,0,1,9.95,11.077Z" transform="translate(-0.379 -0.987)"/><path class="d" d="M16.644,10.485a.583.583,0,0,1-.008,1.166.583.583,0,0,1,.008-1.166Z" transform="translate(-1.065 -0.987)"/><path class="d" d="M12.375,11.078a.6.6,0,0,1-.586.571.59.59,0,0,1-.577-.608.582.582,0,0,1,1.163.036Z" transform="translate(-0.607 -0.987)"/><path class="d" d="M14.178,11.649a.583.583,0,1,1,.613-.542A.578.578,0,0,1,14.178,11.649Z" transform="translate(-0.836 -0.987)"/><path class="b" d="M12.917,9.657a.571.571,0,0,1-.542-.609.582.582,0,1,1,.542.609Z" transform="translate(-0.717 -0.8)"/><path class="e" d="M11.681,7.387a.573.573,0,1,1,.565-.588A.576.576,0,0,1,11.681,7.387Z" transform="translate(-0.595 -0.587)"/><path class="b" d="M15.373,9.657a.578.578,0,0,1-.581-.578.586.586,0,0,1,.588-.571.576.576,0,0,1,.575.581A.568.568,0,0,1,15.373,9.657Z" transform="translate(-0.945 -0.8)"/><path class="b" d="M8.11,9.657A.574.574,0,1,1,8.1,8.509.574.574,0,1,1,8.11,9.657Z" transform="translate(-0.259 -0.801)"/><path class="d" d="M7.521,11.069a.581.581,0,0,1-.577.581.583.583,0,1,1,0-1.166A.579.579,0,0,1,7.521,11.069Z" transform="translate(-0.15 -0.987)"/><path class="e" d="M9.825,6.816a.589.589,0,0,1-.587.573.565.565,0,0,1-.572-.579.584.584,0,0,1,.579-.58A.6.6,0,0,1,9.825,6.816Z" transform="translate(-0.367 -0.586)"/><path class="e" d="M14.081,7.391a.577.577,0,1,1,.014-1.155.577.577,0,0,1-.014,1.155Z" transform="translate(-0.824 -0.586)"/><path class="b" d="M10.524,9.656A.574.574,0,1,1,11.1,9.09.561.561,0,0,1,10.524,9.656Z" transform="translate(-0.488 -0.8)"/></g></svg>