<svg xmlns="http://www.w3.org/2000/svg" width="20.41" height="24.989" viewBox="0 0 20.41 24.989"><defs><style>.a{fill:#feb756;}.a,.b,.c,.d,.e{stroke:#000;stroke-miterlimit:10;stroke-width:0.5px;}.b{fill:#4dbbeb;}.c{fill:#fd3c65;}.d{fill:#fff5cd;}</style></defs><g transform="translate(-848.25 -468.908)"><g transform="translate(792.5 459.158)"><path class="a" d="M398.986,349.508v3.136H396V344.82A5.2,5.2,0,0,1,398.986,349.508Z" transform="translate(-323.077 -318.155)"/><path class="b" d="M128.941,133a1,1,0,0,1,0,1.991H117A1,1,0,0,1,117,133Z" transform="translate(-57.014 -116.878)"/><path class="a" d="M139.982,11.244v-.1a1.134,1.134,0,0,1,1-1.145h1.991a1.134,1.134,0,0,1,1,1.145v.1a4.98,4.98,0,0,1,3.982,4.878H136A4.98,4.98,0,0,1,139.982,11.244Z" transform="translate(-76.018)"/><path class="c" d="M127.946,336h-1.991l-2.986,3.136L119.982,336h-1.991a4.739,4.739,0,0,0-1.991.439v7.824h13.937v-7.824A4.739,4.739,0,0,0,127.946,336Z" transform="translate(-57.014 -309.774)"/><path class="d" d="M128.444,173h-10.95a1.493,1.493,0,1,0,0,2.986h.6a5.239,5.239,0,0,0,1.359,2.6,5.1,5.1,0,0,0,.559.5l-.026.034v1.99l2.986,3.136,2.986-3.136v-1.99l-.026-.034a5.239,5.239,0,0,0,1.919-3.1h.6a1.493,1.493,0,0,0,0-2.986Z" transform="translate(-57.014 -154.887)"/><path class="a" d="M58.986,344.82v7.824H56v-3.136A5.2,5.2,0,0,1,58.986,344.82Z" transform="translate(0 -318.155)"/><path class="e" d="M346.5,430a.5.5,0,1,0-.5-.5A.5.5,0,0,0,346.5,430Z" transform="translate(-275.566 -398.145)"/><path class="e" d="M146.5,429a.5.5,0,1,0,.5.5A.5.5,0,0,0,146.5,429Z" transform="translate(-85.52 -398.145)"/></g></g></svg>