<svg xmlns="http://www.w3.org/2000/svg" width="25.39" height="25.672" viewBox="0 0 25.39 25.672"><defs><style>.a{fill:#9dc86d;}.a,.b,.c,.d,.e{stroke:#1a1818;stroke-miterlimit:10;stroke-width:0.25px;}.b{fill:#f8a43b;}.c{fill:#45c1e9;}.d{fill:#e52c6f;}.e{fill:#ffe14b;}.f{fill:#fff;}</style></defs><g transform="translate(-0.735 -0.403)"><path class="a" d="M.86,23.974a11.207,11.207,0,0,1,.624-1c.851-1.1,1.719-2.188,2.59-3.273a.537.537,0,0,0,.117-.476q-.321-1.779-.632-3.56a.9.9,0,0,1,0-.134c.433.36.84.7,1.246,1.034.668.557,1.339,1.112,2,1.678a.666.666,0,0,1,.206.339c.078.346.116.7.183,1.049a1.386,1.386,0,0,1-.3,1.162q-1.7,2.157-3.407,4.306a1.4,1.4,0,0,1-1.393.585A1.4,1.4,0,0,1,.9,24.624C.9,24.6.875,24.588.86,24.57Z"/><path class="b" d="M9.974.528l.352.11A3.434,3.434,0,0,0,9.258,1.949a.293.293,0,0,1-.2.109,1.061,1.061,0,0,0-.922.961,1.041,1.041,0,0,0,.71,1.053.353.353,0,0,1,.243.264c.164.462.361.913.563,1.412a6.833,6.833,0,0,1-.9-.185A2.588,2.588,0,0,1,9.14.577.9.9,0,0,0,9.277.528Z"/><path class="a" d="M2.264,11.411l1.43,1.283c.369.332.744.659,1.1,1a5.561,5.561,0,0,1,.392.469.986.986,0,0,0,.186.2c.243.167.486.336.743.479a1.192,1.192,0,0,0,1.442-.172l1.279,1.063c.6.5,1.193,1,1.8,1.5a1.8,1.8,0,0,1,.587.841Q12.206,21,13.2,23.931a1.443,1.443,0,0,1-1.253,2A1.4,1.4,0,0,1,10.507,25c-.358-.993-.684-2-1.022-3-.287-.852-.568-1.706-.86-2.556a.655.655,0,0,0-.188-.278q-2.5-2.091-5-4.172a2.022,2.022,0,0,0-.254-.2,2.2,2.2,0,0,1-1.042-2.158C2.154,12.249,2.217,11.864,2.264,11.411Z"/><path class="c" d="M17.57,7.086h.642v3.136a10.189,10.189,0,0,1-1.035-.013c-.109-.011-.214-.166-.3-.272a.273.273,0,0,0-.322-.109c-.44.113-.882.224-1.326.321a3.1,3.1,0,0,1-.614.073c-.838.009-1.676.005-2.515.006h-.267V9.709h-.85V7.629h.828l.025-.533h2.324c-.195-.448-.3-.887-.8-1.1a13.134,13.134,0,0,1-1.3-.735l.379-.659,3.036,1.749L15.109,7l-.394-.2a.317.317,0,0,0,.29.317c.5.1,1,.23,1.5.359a.224.224,0,0,0,.318-.16c.116-.3.258-.589.394-.892A.783.783,0,0,0,17.1,6.35a.382.382,0,0,1-.249-.48.4.4,0,0,1,.425-.311c.473-.006.946,0,1.419,0l2.241,0c.2,0,.38.06.436.258a.465.465,0,0,1-.049.383.681.681,0,0,1-.431.179c-.9.015-1.793.019-2.689,0a.405.405,0,0,0-.468.316A4.194,4.194,0,0,1,17.57,7.086Z"/><path class="d" d="M4.056,10.18l2.063,1.859c.388.349.781.693,1.165,1.047a.93.93,0,1,1-1.241,1.377Q4.072,12.7,2.107,10.921a.922.922,0,0,1-.018-1.47Q3.574,8.019,5.067,6.594A.931.931,0,1,1,6.351,7.933c-.625.605-1.257,1.2-1.884,1.807C4.33,9.872,4.207,10.018,4.056,10.18Z"/><path class="d" d="M3.424,7.814A6.465,6.465,0,0,1,4.583,5.845,2.552,2.552,0,0,1,7,5.048a1.586,1.586,0,0,1,1.018.7c.61.866,1.23,1.725,1.83,2.6a.375.375,0,0,0,.448.187c.126-.029.258-.038.417-.06V9.949h.834c.061.18.029.263-.154.288-.583.076-1.162.179-1.746.244a.849.849,0,0,1-.816-.38c-.309-.43-.614-.863-.921-1.3-.047-.066-.1-.131-.182-.245-.24.588-.477,1.137-.688,1.694s-.4,1.118-.606,1.717L4.364,10.114a1.666,1.666,0,0,0,.246-.161c.66-.629,1.327-1.251,1.972-1.9a1.169,1.169,0,0,0-.459-1.977,1.153,1.153,0,0,0-1.21.309Q4.167,7.1,3.424,7.814Z"/><path class="c" d="M18.507,9.753V7.564h1.3q1.293,0,2.588,0c.1,0,.224.038.24-.135,0-.029.089-.064.141-.074q1.559-.31,3.117-.614a.633.633,0,0,1,.107,0v3.846c-.6-.116-1.179-.228-1.761-.343-.439-.086-.877-.174-1.313-.267-.126-.026-.293.015-.33-.19-.005-.024-.151-.032-.232-.032q-1.779,0-3.559,0Zm2.079-1.867c-.513,0-1.026,0-1.539,0-.053,0-.105.044-.158.067.053.033.1.095.157.1q1.526.008,3.053,0c.058,0,.115-.053.173-.081-.058-.028-.115-.08-.172-.081C21.595,7.883,21.09,7.886,20.586,7.886Z"/><path class="b" d="M14.919,25.95h-.463V13.3c-.365-.09-.386-.08-.5.224l-1.917,5.232c-.031.083-.066.165-.119.3a1.315,1.315,0,0,1-.129-1.014c.578-1.493,1.114-3,1.664-4.506.028-.077.049-.156.079-.254l-.267-.039v-.48H16.1v.479l-.281.042,4.5,12.277-.449.136c-.229-.622-.451-1.224-.672-1.826q-1.905-5.2-3.8-10.4c-.1-.263-.253-.226-.471-.191Z"/><path class="b" d="M9.392,4.136A1.08,1.08,0,0,0,9.777,2.2,2.429,2.429,0,0,1,10.8,1.029a.341.341,0,0,1,.427.035,2.522,2.522,0,0,1,.966,2.508,2.5,2.5,0,0,1-1.839,2.044.27.27,0,0,1-.341-.1A3.283,3.283,0,0,1,9.392,4.136Z"/><path class="b" d="M7.865,14.232c.012-.158.03-.289.029-.42s-.023-.243-.04-.4c.395,0,.789,0,1.182,0,.029,0,.076.022.083.044.084.256.295.183.474.184.514,0,1.029.006,1.543,0a.317.317,0,0,0,.23-.092c.56-.78,1.11-1.566,1.661-2.352.008-.011,0-.031,0-.066l-.328-.021v-.485h4.1v.49H15.332l-.025.268.269.043v.92H13.93v-.924l.236-.025c.072-.194.019-.266-.2-.283a.668.668,0,0,0-.688.343c-.532.8-1.1,1.571-1.651,2.36a.364.364,0,0,1-.343.181c-.622-.009-1.245-.01-1.867,0-.084,0-.168.083-.25.131-.054.032-.1.1-.157.1C8.628,14.236,8.248,14.232,7.865,14.232Z"/><path class="e" d="M9.831,3.1a.641.641,0,0,1-.647.643.671.671,0,0,1-.645-.655A.644.644,0,0,1,9.2,2.453.625.625,0,0,1,9.831,3.1Z"/><path d="M9.5,25.694l-.449-.139.659-1.8c.136.363.321.658.129,1.033A8.01,8.01,0,0,0,9.5,25.694Z"/><path class="e" d="M10.857,6.511a3.84,3.84,0,0,1-.568-.233.3.3,0,0,1-.091-.264.264.264,0,0,1,.222-.135,2.1,2.1,0,0,1,.548.207.267.267,0,0,1,.086.245C11.028,6.41,10.917,6.46,10.857,6.511Z"/><path class="f" d="M20.586,7.886c.5,0,1.009,0,1.514,0,.057,0,.114.053.172.081-.058.028-.115.08-.173.081q-1.527.008-3.053,0c-.052,0-.1-.063-.157-.1.053-.023.1-.067.158-.067C19.56,7.884,20.073,7.886,20.586,7.886Z"/></g></svg>