<svg xmlns="http://www.w3.org/2000/svg" width="24.734" height="13.384" viewBox="0 0 24.734 13.384"><defs><style>.a{fill:#e52c6f;stroke:#030504;}.a,.b{stroke-miterlimit:10;stroke-width:0.25px;}.b{fill:#ffe14b;stroke:#1a1818;}</style></defs><g transform="translate(-1061.875 -307.826)"><g transform="translate(1062 309.353)"><path class="a" d="M.667,14.957a7.278,7.278,0,0,0,1.575.291,12.8,12.8,0,0,0,1.493.01,7.8,7.8,0,0,0,2.946-.814,8.978,8.978,0,0,0,3.988-3.777,5.41,5.41,0,0,0,.605-1.719.46.46,0,0,1,.075.016,7.016,7.016,0,0,1,2.241,1.257.151.151,0,0,1,.056.168A11.094,11.094,0,0,1,11.43,14.91a8.942,8.942,0,0,1-2.727,2.3,6.656,6.656,0,0,1-3.616.819,5.553,5.553,0,0,1-2.562-.7A4.042,4.042,0,0,1,.9,15.664c-.108-.219-.176-.457-.262-.687Z" transform="translate(-0.498 -8.431)"/><path class="a" d="M12.959,10.5a4.35,4.35,0,0,1,.95,1.707,4.641,4.641,0,0,1-.574,4,2.934,2.934,0,0,1-1.944,1.322,3.254,3.254,0,0,1-1.923-.254c-.255-.109-.5-.245-.761-.375A11.769,11.769,0,0,0,12.959,10.5Z" transform="translate(0.629 -8.215)"/><path class="a" d="M7.686,13.119c-.073.052-.134.1-.2.142-.311.186-.622.372-.937.55a.482.482,0,0,1-.205.05,6.475,6.475,0,0,1-1.871-.2,8.327,8.327,0,0,1-3.325-1.657c-.333-.277-.309-.157-.1-.533A5.082,5.082,0,0,1,2.585,9.829,8.115,8.115,0,0,0,7.686,13.119Z" transform="translate(-0.462 -8.308)"/><path class="a" d="M2.748,9.684c.256-.129.495-.271.75-.37.452-.176.914-.325,1.372-.487A.1.1,0,0,1,5,8.869a8.026,8.026,0,0,0,3.782,3.124c.009,0,.018.01.042.023-.156.158-.307.312-.458.465-.056.056-.117.108-.176.162-.226.2-.226.207-.524.147a8.311,8.311,0,0,1-3.482-1.558A6.013,6.013,0,0,1,2.827,9.806C2.8,9.772,2.782,9.737,2.748,9.684Z" transform="translate(-0.203 -8.45)"/><path class="a" d="M5.15,8.73a10.788,10.788,0,0,1,5.033.13c-.077.285-.139.566-.232.836a6.737,6.737,0,0,1-1.061,1.886c-.048.062-.089.049-.146.028a6.763,6.763,0,0,1-1.781-.976A7.561,7.561,0,0,1,5.245,8.9q-.043-.062-.082-.123A.272.272,0,0,1,5.15,8.73Z" transform="translate(0.132 -8.495)"/><path class="a" d="M.736,11.98a8.985,8.985,0,0,0,4.545,2.042l0,.028c-.3.066-.594.142-.893.2a7.489,7.489,0,0,1-2.018.091,7.99,7.99,0,0,1-1.737-.344A.142.142,0,0,1,.547,13.9,4.374,4.374,0,0,1,.718,12.03Z" transform="translate(-0.515 -8.008)"/></g><g transform="translate(1073.228 308)"><path class="b" d="M21.561,13.574c-.4-.476-.792-.3-1.187-.015a6.36,6.36,0,0,1-.619.377.522.522,0,0,0-.286.52c.01.36.011.723,0,1.084a.567.567,0,0,0,.255.568,4.051,4.051,0,0,1-2.041.872c-1.091.092-2.188.084-3.314.121v-.267c0-.789,0-1.578,0-2.367a2.756,2.756,0,0,1,2.645-2.837c1.589-.024,3.178-.006,4.768-.006a.514.514,0,0,1,.06.009A4.056,4.056,0,0,1,21.561,13.574Z" transform="translate(-14.367 -6.706)"/><path class="b" d="M14.368,17.907c.357,0,.686,0,1.014,0,.717-.011,1.437.01,2.149-.052a5.164,5.164,0,0,0,2.749-1.136c.146-.115.259-.163.417-.031a.455.455,0,0,0,.587.007c.317-.205.64-.4.965-.588a.5.5,0,0,0,.267-.485c-.006-.361-.007-.723,0-1.084a.567.567,0,0,0-.218-.561,6.589,6.589,0,0,0,.394-2.353c.54,0,1.064,0,1.59.008.042,0,.111.1.119.157a7,7,0,0,1-4.122,7.524,6.289,6.289,0,0,1-2.388.476c-.809,0-1.617,0-2.426,0a1.043,1.043,0,0,1-1.1-1.141Z" transform="translate(-14.367 -6.706)"/><path class="b" d="M24.223,11.616a5.407,5.407,0,0,1,.769.246,2.739,2.739,0,0,1,1.632,2.57c.024,1.415.008,2.831,0,4.247a1.016,1.016,0,0,1-1.018,1.085,12.032,12.032,0,0,1-3.815-.631c-.112-.041-.222-.087-.354-.139A8.085,8.085,0,0,0,24.223,11.616Z" transform="translate(-13.38 -6.706)"/><path class="b" d="M19.712,7.51a5.994,5.994,0,0,1,3.142.014c-.149.48-.3.96-.448,1.44-.23.742-.463,1.483-.684,2.227-.043.144-.1.195-.248.195-.565,0-.564.007-.736-.55q-.48-1.554-.962-3.107C19.755,7.659,19.736,7.589,19.712,7.51Z" transform="translate(-13.621 -7.308)"/><path class="b" d="M23.285,7.7a6.277,6.277,0,0,1,1.81,1.086c.169.142.33.3.487.456a.4.4,0,0,1,.016.621c-.442.474-.891.941-1.341,1.407a.222.222,0,0,1-.141.073c-.618,0-1.236-.013-1.854-.022a.483.483,0,0,1-.09-.024Z" transform="translate(-13.278 -7.253)"/><path class="b" d="M20.456,11.326c-.495,0-.953-.03-1.405.008a1.12,1.12,0,0,1-1.078-.459c-.28-.357-.622-.66-.933-.99a.413.413,0,0,1-.008-.638,6.474,6.474,0,0,1,2.207-1.511.987.987,0,0,1,.1-.026Z" transform="translate(-14.016 -7.252)"/><path class="b" d="M20.968,14.727c.115.342-.091.475-.334.639a.58.58,0,0,1-.729,0,.672.672,0,0,1-.362-.67.655.655,0,0,1,.37-.663.6.6,0,0,1,.716,0C20.905,14.205,21.07,14.377,20.968,14.727Z" transform="translate(-13.645 -6.385)"/></g></g></svg>