<svg xmlns="http://www.w3.org/2000/svg" width="25.428" height="17.141" viewBox="0 0 25.428 17.141"><defs><style>.a{fill:#45c1e9;}.a,.c{stroke:#21201f;}.a,.b,.c,.d{stroke-miterlimit:10;stroke-width:0.25px;}.b{fill:#9dc86d;}.b,.d{stroke:#1a1818;}.c{fill:#ffe97a;}.d{fill:#f8a43b;}</style></defs><g transform="translate(-0.129 -6.594)"><path class="a" d="M.254,21.548a1.81,1.81,0,0,1,2.047-1.3,4.966,4.966,0,0,0,1.568-.124c-.273-.217-.538-.446-.82-.648a2.663,2.663,0,0,1-.987-3.641A12.992,12.992,0,0,1,6.3,10.358a2.977,2.977,0,0,1,3.3-.423,1.013,1.013,0,0,1,.443.645,3.983,3.983,0,0,0,1.89,2.821c.411.259.679.76,1.052,1.1a1.876,1.876,0,0,0,.827.494c.93.176,1.874.268,2.811.409a1.149,1.149,0,0,1,1.051,1.3,1.125,1.125,0,0,1-1.408.924,24.8,24.8,0,0,0-3.053-.408,2.133,2.133,0,0,1-1.956-1.532c-.557-1.277-1.058-2.58-1.584-3.873a1.489,1.489,0,0,0-1.114-1.058A1.435,1.435,0,0,0,7.07,12.822c.353.928.747,1.838,1.112,2.73L6.414,17.983c1.037.856,2,1.657,2.974,2.455a1.781,1.781,0,0,1,.735,2,1.643,1.643,0,0,1-1.757,1.162c-2.017,0-4.034-.028-6.051.014A1.914,1.914,0,0,1,.254,22.317Z"/><path class="a" d="M10.359,10.013a3.256,3.256,0,0,1,3.2-3.293,3.306,3.306,0,0,1,3.157,3.475,3.276,3.276,0,0,1-3.3,3.258A3.3,3.3,0,0,1,10.359,10.013Z"/><path class="a" d="M13.451,22.1a1.143,1.143,0,0,1-.723,1.143.933.933,0,0,1-1.173-.381,3.742,3.742,0,0,1-.374-.8q-1.873-4.6-3.742-9.212c-.316-.778-.146-1.4.446-1.681s1.16-.009,1.478.767q1.968,4.8,3.924,9.615A5.143,5.143,0,0,1,13.451,22.1Z"/><path class="b" d="M25.432,13.1v1.969h-7.46V13.1Z"/><path class="c" d="M25.416,20.781H17.975V18.77h7.441Z"/><path class="b" d="M19.854,15.915v1.991H17.972V15.915Z"/><path class="b" d="M20.75,15.9h1.874v2.008H20.75Z"/><path class="d" d="M17.968,21.591h1.866v1.981H17.968Z"/><path class="d" d="M20.734,23.566V21.595h1.9v1.971Z"/><path class="d" d="M23.517,23.57V21.6H25.41v1.97Z"/></g></svg>