<svg xmlns="http://www.w3.org/2000/svg" width="25.65" height="20.416" viewBox="0 0 25.65 20.416"><defs><style>.a{fill:#45c1e9;}.a,.b,.c,.d,.e{stroke:#1a1818;stroke-miterlimit:10;stroke-width:0.25px;}.b{fill:#e52c6f;}.c{fill:#ffe14b;}.d{fill:#9dc86d;}.e{fill:#fff;}</style></defs><g transform="translate(-0.361 -3.251)"><path class="a" d="M.486,14.483l1.042-.632.1.14-.773.616,1.5,2.224,2.885-1.95c-.721-.692-.886-1.782-1.868-2.2.648-.721.168-1.661.341-2.515l-.212-.034a19.746,19.746,0,0,0-.325,2.018c-.058.912-.027,1.83-.014,2.745.006.48-.1.881-.653.9s-.717-.38-.731-.85a15.255,15.255,0,0,1,.379-4.876A6.178,6.178,0,0,1,2.9,8.527,1.776,1.776,0,0,1,4.526,7.7c.937.022,1.876.041,2.81,0A1.944,1.944,0,0,1,9.378,8.926a11.934,11.934,0,0,1,.784,2.926,25.615,25.615,0,0,1,.043,3.125c0,.5-.18.855-.734.813-.519-.04-.6-.419-.61-.875-.045-1.356-.116-2.712-.2-4.067a1.382,1.382,0,0,0-.365-.787v.672q0,5.813,0,11.626c0,.468-.126.9-.577,1.029a1.367,1.367,0,0,1-1.049-.1,1.37,1.37,0,0,1-.426-.976c-.036-2.3-.016-4.6-.025-6.9a2.985,2.985,0,0,0-.123-.6l-.235.04c-.01.222-.029.444-.029.667q0,3.131,0,6.26c0,.149,0,.3,0,.447-.018.8-.454,1.32-1.09,1.3-.612-.015-1.035-.524-1.039-1.287-.008-1.491,0-2.981,0-4.472V16.259l-1.38.9L.486,14.611ZM5.65,9.506A19.412,19.412,0,0,1,5.3,12c-.226.839.2,1.3.777,1.875.247-.43.668-.823.657-1.2a31.241,31.241,0,0,0-.376-3.169Zm.8-.334.126-.219a3.609,3.609,0,0,0-.523-.564c-.061-.045-.345.08-.393.187-.067.149-.051.493.005.511A3.624,3.624,0,0,0,6.447,9.172Z"/><path class="b" d="M8.825,19.952V16.177a1.36,1.36,0,0,0,1.723-.4.632.632,0,0,1,.45-.136q6.125-.01,12.248,0a2.984,2.984,0,0,1,.327.045V19.5l1.3.094.032.231a3.17,3.17,0,0,1-.6.117c-1.977.008-3.955,0-5.932,0H8.825Z"/><path class="c" d="M17.634,5.928a8.615,8.615,0,0,0-.447,1.08.776.776,0,0,1-.884.625c-.214-.021-.439-.3-.587-.52a13.5,13.5,0,0,1-.655-1.185c-.349.62-.61,1.139-.928,1.62a2.616,2.616,0,0,1-.591.489,3.223,3.223,0,0,1-.392-.528c-.242-.514-.452-1.043-.734-1.7L10.693,8.2,9.816,5.513C8.971,5.907,8.8,7.058,7.762,7.24l.83-2.077a26.1,26.1,0,0,0,16.76-1.327c-.13.534-.364.713-1.788,1.418l-.639-.472a1.813,1.813,0,0,1-1.077,1.326c-.857.489-1.026-.333-1.5-.632-.37.569-.234,1.342-1.156,1.542C18.14,7.245,18.324,6.191,17.634,5.928Z"/><path class="d" d="M25.937,4.189c-1.04.765-.26,1.875-.6,2.839-.553-.307-1.116-.624-1.685-.933-.55-.3-.837-.156-.926.45-.093.628-.189,1.256-.3,1.991L20.842,7.3c-.495-.387-.766-.3-.945.316s-.352,1.222-.582,2.023c-.464-.518-.887-.934-1.244-1.4-.457-.6-.963-.527-1.2.279-.161.542-.388,1.064-.621,1.691-.473-.562-.888-1.063-1.311-1.557-.381-.446-.562-.429-.821.087-.3.586-.576,1.179-.909,1.866a17.384,17.384,0,0,1-.994-1.464.97.97,0,0,0-1.09-.54,3.419,3.419,0,0,1-.933-.047C15.777,8.327,21.162,7.4,25.937,4.189Z"/><path class="a" d="M7.9,5.268A1.871,1.871,0,0,1,6.036,7.2,1.938,1.938,0,0,1,4.087,5.322,1.975,1.975,0,0,1,5.982,3.376,1.9,1.9,0,0,1,7.9,5.268Z"/><path class="b" d="M22.411,15.291H18.664V14.4h3.747Z"/><path class="b" d="M10.763,14.39h2.554v.882H10.763Z"/><path class="e" d="M5.65,9.506h.713a31.241,31.241,0,0,1,.376,3.169c.011.381-.41.774-.657,1.2-.573-.573-1-1.036-.777-1.875A19.412,19.412,0,0,0,5.65,9.506Z"/><path class="e" d="M6.447,9.172a3.624,3.624,0,0,1-.785-.085c-.056-.018-.072-.362-.005-.511.048-.107.332-.232.393-.187a3.609,3.609,0,0,1,.523.564Z"/></g></svg>