<svg xmlns="http://www.w3.org/2000/svg" width="26.031" height="22.573" viewBox="0 0 26.031 22.573"><defs><style>.a{fill:#ffe14b;}.a,.b,.c{stroke:#1a1818;stroke-miterlimit:10;stroke-width:0.25px;}.b{fill:#45c1e9;}.c{fill:#e52c6f;}</style></defs><g transform="translate(-0.117 -0.537)"><path class="a" d="M.242,13.644V12.277c.938,0,1.865,0,2.793,0,.183,0,.42.057.536-.034.186-.148.453-.475.4-.587a.908.908,0,0,0-.632-.46c-1-.049-2.007-.021-3.06-.021V10.08c1,0,2,.028,3-.019.251-.012.491-.264.735-.406-.253-.134-.5-.371-.76-.385-.934-.047-1.872-.018-2.888-.018a3.419,3.419,0,0,1,.9-1.89A4.119,4.119,0,0,1,6.225,6.58a1.769,1.769,0,0,0,.832.2c2.561.014,5.123,0,7.685.01a3.972,3.972,0,0,1,4.147,4.136q.007,3.052,0,6.107a3.974,3.974,0,0,1-1.5,3.369c.329.148.763.215.959.467a1.74,1.74,0,0,1,.251,1.075,1.018,1.018,0,0,1-1.071,1.025c-.777.032-1.555.01-2.333.008-.561,0-.81-.364-.922-.846a5.731,5.731,0,0,1-.075-.766H7.542c-.053.284-.084.554-.156.812a.991.991,0,0,1-1.047.8c-.663-.006-1.328-.023-1.99,0-.682.03-1.079-.3-1.085-.942a1.214,1.214,0,0,0-.9-1.233,3.478,3.478,0,0,1-1.8-1.943,18.047,18.047,0,0,0,1.886-.015c.547-.06,1.508.379,1.51-.52,0-.971-.988-.489-1.545-.55a20.1,20.1,0,0,0-2.145-.018V16.669H2.632a2.059,2.059,0,0,0,.614-.012,5.242,5.242,0,0,0,.765-.389c-.245-.143-.482-.389-.736-.408-.751-.055-1.509-.02-2.263-.02H.28V14.747c.856,0,1.718.011,2.58,0,.453-.008,1.12.168,1.127-.53.008-.759-.692-.552-1.159-.563C1.987,13.63,1.145,13.644.242,13.644Zm5.423.431a5.91,5.91,0,1,0,6.144-5.8A5.856,5.856,0,0,0,5.665,14.075Z"/><path class="b" d="M20.729,15.543a30.6,30.6,0,0,1,1.884-3.866c.28-.423,1.21-.417,1.843-.607l.105.17-1.246,2.589H25.89l.11.228L21.192,19.77l-.114-.061,1.874-4.069Z"/><path class="b" d="M4.2.667A17.245,17.245,0,0,1,5.248,2.855,1.262,1.262,0,0,1,3.683,4.592a1.276,1.276,0,0,1-.765-1.833c.274-.716.671-1.386,1.014-2.076Z"/><path class="c" d="M11.561,8.983A5.213,5.213,0,1,1,6.328,14.2,5.229,5.229,0,0,1,11.561,8.983ZM7.339,14.221a4.224,4.224,0,1,0,4.249-4.28A4.24,4.24,0,0,0,7.339,14.221Z"/><path class="c" d="M11.916,11.7v-.878a3.175,3.175,0,0,1,3.106,2.9h-.9l-.489-.744A10.226,10.226,0,0,0,13,13.86a.54.54,0,0,0,.006.466,8.769,8.769,0,0,0,.632.816l.555-.714h.8a3.219,3.219,0,0,1-3.067,3.242v-.839l.731-.558c-.3-.2-.589-.419-.9-.6a.388.388,0,0,0-.333,0c-.309.184-.6.4-.9.6l.7.579v.809A3.375,3.375,0,0,1,8.092,14.42H9.1c.021.138-.011.357.077.428.146.119.431.255.548.189a1.366,1.366,0,0,0,.062-1.892c-.379-.3-.581-.13-.692.588H8.1a3.26,3.26,0,0,1,3.136-2.941v.915l-.7.2c-.1.648.368.78.817.846.487.072,1.011.021,1.2-.514.048-.134-.327-.418-.508-.633Zm.367,2.313c-.385-.2-.588-.391-.769-.373-.157.016-.29.271-.434.42.165.151.32.4.5.423C11.741,14.5,11.93,14.258,12.283,14.009Z"/></g></svg>