<svg xmlns="http://www.w3.org/2000/svg" width="25.176" height="14.564" viewBox="0 0 25.176 14.564"><defs><style>.a,.c{fill:none;stroke:#21201f;}.a,.b,.c,.d,.e{stroke-miterlimit:10;}.a{stroke-width:0.203px;}.b{fill:#ffe14b;}.b,.d,.e{stroke:#1a1818;stroke-width:0.25px;}.b,.e{fill-rule:evenodd;}.c{stroke-width:0.198px;}.d,.e{fill:#e52c6f;}</style></defs><g transform="translate(-0.413 -5.719)"><path class="a" d="M.559,18.839l1.046.024.008,1.29,1.048,0,0-1.3H23.31l.018,1.285,1.046.015,0-1.283,1.055-.023c0-.868.1-6.233-.078-6.576-.211-.42-.6-.549-1.3-.548-1.875,0-1.777.307-1.777,1.862,0,.524.039,1.154-.008,1.664H3.766c-.115-.7.134-2.7-.238-3.143-.345-.418-.83-.383-1.548-.384s-1.135.1-1.348.548C.469,12.615.559,17.98.559,18.839Z"/><path class="b" d="M.559,18.842l1.046.024.008,1.29,1.049,0,0-1.3H23.319l.018,1.284,1.046.015,0-1.283,1.056-.022c0-.868.095-6.231-.078-6.573-.211-.42-.6-.549-1.3-.548-1.876,0-1.778.307-1.778,1.861,0,.524.04,1.153-.008,1.663H3.768c-.116-.7.133-2.694-.239-3.141-.345-.419-.83-.383-1.548-.384s-1.135.1-1.349.548c-.163.342-.073,5.7-.073,6.563"/><path class="c" d="M21.055,11.614a2.245,2.245,0,0,0,1.384-.692,1.972,1.972,0,0,0,.4-1.558c0-1.4.259-2.461-.812-3.161a3.024,3.024,0,0,0-1.814-.346c-2.092,0-4.772-.058-6.732,0l0,8.113h7.511l0-2.123C20.984,11.585,21,11.666,21.055,11.614Z"/><path class="d" d="M21.062,11.621a2.245,2.245,0,0,0,1.384-.692,1.969,1.969,0,0,0,.4-1.557c0-1.4.258-2.46-.813-3.159a3.025,3.025,0,0,0-1.815-.347c-2.092,0-4.773-.057-6.734,0l0,8.109H21l0-2.122c0-.266.014-.184.07-.236"/><path class="c" d="M5.166,11.6l.008,2.388L12.558,14l.024-8.139c-2.038-.052-4.54,0-6.663,0a2.884,2.884,0,0,0-1.8.364c-1.042.7-.788,1.749-.788,3.143a1.956,1.956,0,0,0,.4,1.56A2.075,2.075,0,0,0,5.166,11.6Z"/><path class="e" d="M5.168,11.611,5.176,14,12.562,14l.024-8.134c-2.038-.052-4.541,0-6.665,0a2.876,2.876,0,0,0-1.8.365c-1.043.7-.789,1.747-.789,3.141a1.949,1.949,0,0,0,.4,1.559,2.068,2.068,0,0,0,1.428.68"/></g></svg>