<svg xmlns="http://www.w3.org/2000/svg" width="24.555" height="24.933" viewBox="0 0 24.555 24.933"><defs><style>.a{fill:#e52c6f;}.a,.c{stroke:#030504;}.a,.b,.c,.d,.e,.f{stroke-miterlimit:10;stroke-width:0.25px;}.b{fill:#ffe14b;}.b,.e{stroke:#1a1818;}.c,.f{fill:#45c1e9;}.d{fill:#9dc86d;stroke:#0c0d0d;}.e{fill:#f8a43b;}.f{stroke:#21201f;}</style></defs><g transform="translate(-0.625 -0.711)"><path class="a" d="M25.055,6.392c-.534,1.125-1.489,1.524-2.365.945a4.565,4.565,0,0,1-.733-.767,1.557,1.557,0,0,1-1.508,1A1.591,1.591,0,0,1,18.983,6.53C18,7.951,16.729,7.955,15.938,6.512A1.627,1.627,0,0,1,14.412,7.57a1.541,1.541,0,0,1-1.495-1.088,1.647,1.647,0,0,1-1.54,1.088,1.584,1.584,0,0,1-1.5-1.079,1.628,1.628,0,0,1-1.507,1.08A1.579,1.579,0,0,1,6.849,6.494a1.653,1.653,0,0,1-1.5,1.077A1.607,1.607,0,0,1,3.809,6.5,1.649,1.649,0,0,1,2.5,7.564C1.686,7.656,1.157,7.3.75,6.392V2.225A2.276,2.276,0,0,1,2.2.836H23.6a2.266,2.266,0,0,1,1.45,1.389Z"/><path class="b" d="M6.325,25.519c-.247-.072-.5-.133-.74-.216a3.358,3.358,0,0,1-2.254-3.739,3.527,3.527,0,0,1,6.883-.029,3.378,3.378,0,0,1-2.586,3.874,3,3,0,0,0-.3.11Zm1.6-6.117-.755,2,.081.041,1.411-1.611Zm-2.05,2.506.03-.124L4.057,20.77l-.282.766Zm1.543-.337.06.079,1.892-1.06-.533-.637Zm.054,1.088-.066.069,1.435,1.635.527-.647Zm-2.752,1.7,1.395-1.611-.067-.072L4.164,23.726Zm.161.117.744.434.744-2-.085-.034ZM5.92,22.515l-.039-.108-2.109.368.287.768Zm1.764-.109-.04.114,1.844,1.021.3-.765Zm-.384.5-.11.033L7.925,24.9l.738-.418Zm2.488-1.382-.32-.76-1.83,1.036.049.1ZM4.176,20.6l1.9,1.046.053-.073-1.414-1.61ZM9.8,21.738l-2.133.373,0,.091,2.136.36ZM7,23.059l-.08.03v2.043l.794-.195Zm-1.128-.853,0-.1-2.1-.347v.8Zm1.059-3v2.053l.07,0,.713-1.913Zm-2.047.633,1.42,1.614.076-.055-.772-1.989Zm1.754,3.185L6.566,23,5.83,24.962l.811.139Zm.005-3.833-.816.17.744,1.966.072-.022Z"/><path class="b" d="M18.477,25.519a10.323,10.323,0,0,1-1.9-1.014A3.171,3.171,0,0,1,16,20.492a3.551,3.551,0,0,1,3.9-1.588A3.366,3.366,0,0,1,22.5,22.058a3.321,3.321,0,0,1-2.728,3.366.78.78,0,0,0-.18.095Zm-.6-.616.745-2-.09-.034-1.391,1.611Zm1.863-2.237-.071.062,1.423,1.63.535-.636Zm-2.765,1.69,1.412-1.628-.062-.07L16.42,23.727Zm1.346-2.711.065-.068-1.425-1.631-.524.659ZM16,22.562l2.131-.365-.008-.1L16,21.752Zm2.178-.055-.042-.1-2.122.376.311.76Zm-2.16-.967,2.116.361.039-.1-1.862-1.032Zm5.724-.788-1.855,1.056.045.1,2.093-.368Zm-4.6-.916,1.376,1.572.1-.048-.752-1.96Zm3.038-.424-.756,2,.082.04,1.408-1.62Zm-.26,3-.039.107,1.881,1.032.244-.781Zm-.241-.838.067.074,1.89-1.063-.554-.621ZM19.5,22.857l-.084.042.769,2.012.719-.437Zm-.633,2.252V23.081l-.08-.007-.7,1.878Zm1.043-2.994,0,.089,2.108.349v-.808Zm-1.02-2.938-.807.206.724,1.874.083-.026Zm.34,3.812L19.167,23v2.106l.806-.157Zm.748-3.649-.8-.125V21.3l.062.008Z"/><path class="b" d="M2.879,23.353H1.866V22.182c0-1.549.018-3.1-.01-4.648a11.571,11.571,0,0,0-.219-1.4,2.838,2.838,0,0,1,.02-.475H3.286V8.174h.961v.633c0,2.083.014,4.167-.012,6.25-.006.469.126.6.621.6q9.533-.025,19.065-.012h.647v1.169l-.625.089v6.454H22.926a3.832,3.832,0,0,0-1.88-4.57,3.951,3.951,0,0,0-4.307.149c-1.468.934-1.981,2.4-1.614,4.446H10.662a3.815,3.815,0,0,0-1.731-4.515,3.875,3.875,0,0,0-4.3-.008A3.832,3.832,0,0,0,2.879,23.353Z"/><path class="c" d="M23.25,8.506V14.8H15.512V8.506Zm-.46.373H15.9V11.4H22.79Zm.01,3.005H15.923v2.558H22.8Z"/><path class="d" d="M5.628,14.683c.11-.055.22-.158.33-.159q3.93-.013,7.859,0a1.247,1.247,0,0,1,.331.1l-.033.155H5.676Z"/><path class="a" d="M22.366,10.165v.9H19.538v-.9Z"/><path class="c" d="M18.224,10.559H16.27v-.132h1.943Z"/><path class="c" d="M18.224,10.106H16.275l0-.111h1.951Z"/><path class="c" d="M18.225,11.051H16.276l0-.153a16.026,16.026,0,0,1,1.948-.03Z"/><path class="e" d="M22.18,9.884H20.844l0-.108h1.337Z"/><path class="a" d="M19.269,14.346c-.118-.505-.24-.984-.333-1.468-.016-.082.09-.186.14-.279.061.071.156.133.178.214.1.374.186.753.282,1.158h1.215v-.613a2.385,2.385,0,0,1,.7.031c.06.019.009.355.009.608.407,0,.241-.436.35-.658a6.461,6.461,0,0,0,.275-.774l.235.073c-.113.508-.213,1.019-.352,1.519-.024.086-.216.179-.332.181C20.861,14.354,20.085,14.346,19.269,14.346Z"/><path class="e" d="M17.411,14.251H16.5l.316-1.812.289,0Z"/><path class="e" d="M18.461,14.256h-.843l.261-1.8h.3Z"/><path class="e" d="M21.55,12.7a3.659,3.659,0,0,1-.734.4c-.074.02-.218-.2-.33-.306a2.623,2.623,0,0,1,.545-.412C21.108,12.353,21.285,12.535,21.55,12.7Z"/><path class="f" d="M20.012,14.049c-.192-.228-.4-.425-.375-.452a1.948,1.948,0,0,1,.525-.452c.033-.019.33.242.307.293A3.364,3.364,0,0,1,20.012,14.049Z"/><path class="f" d="M19.787,13.236c-.167-.265-.342-.445-.305-.505a1.281,1.281,0,0,1,.469-.431c.043-.024.35.244.329.289A3.933,3.933,0,0,1,19.787,13.236Z"/></g></svg>