<svg xmlns="http://www.w3.org/2000/svg" width="24.581" height="15.664" viewBox="0 0 24.581 15.664"><defs><style>.a,.c{fill:none;stroke:#21201f;}.a,.b,.c,.d{stroke-miterlimit:10;}.a{stroke-width:0.199px;}.b{fill:#e52c6f;}.b,.d{stroke:#1a1818;stroke-width:0.25px;}.b,.d,.e,.f,.g{fill-rule:evenodd;}.c{stroke-width:0.2px;}.d{fill:#f8a43b;}.e{fill:#e9699b;}.f{fill:#ffe97a;}.g{fill:#ffb050;}</style></defs><g transform="translate(-0.437 -5.47)"><g transform="translate(0 -3.032)"><path class="a" d="M8.524,13.4c-.24-.059-.286-.158-.524-.224-.259-.072-.361.03-.689.032-.862.007-1.037.085-1.037.781,0,.357.188.473.484.519a6.064,6.064,0,0,0,.976.064c-.163.151-1.7.9-1.7,2.281v4.3a.629.629,0,0,0,.549.649A7.942,7.942,0,0,0,6.6,23.071c.188.695,1.068.549,1.738.549.87,0,.73-1.2.73-1.825H20.5c0,1.91.068,1.825,1.7,1.825,1.051,0,.788-1.254.788-1.825a.629.629,0,0,0,.549-.649v-4.3a2.774,2.774,0,0,0-1.4-2.083l-.3-.2c1.189,0,1.461-.034,1.461-.781,0-.549-.459-.585-.972-.585a4.706,4.706,0,0,0-.707-.042c-.24.049-.33.178-.57.237l-.74-1.549c-.75-1.248-1.6-1.458-3.031-1.446l-2.856-.064a14.971,14.971,0,0,0-4.035.367c-.969.512-1.047,1.075-1.5,1.908A2.922,2.922,0,0,0,8.524,13.4Zm.362.979a17.994,17.994,0,0,1,1.421-2.717c.649-.7,2.482-.605,3.384-.605,1.219,0,2.836-.034,4.009.07a2.033,2.033,0,0,1,1.517.525c.012.01.052.05.065.062s.021.024.03.03a.381.381,0,0,0,.03.036,6.084,6.084,0,0,1,.67,1.168l.675,1.431A80.1,80.1,0,0,0,8.886,14.375Zm-2,3.317c0-.665-.106-1.051.291-1.184a13.034,13.034,0,0,1,2.651.509c.509.291.651,1.329.157,1.329H8.827c-.366,0-.443-.065-.786-.068C7.438,18.271,6.883,18.345,6.883,17.692Zm13.071.654c-.274,0-.67.071-.67-.392,0-1.193,1.162-1.121,2.539-1.383.972-.186.867.025.867,1.122,0,.625-.512.585-1.094.585-.367,0-.443.066-.788.072C20.523,18.353,20.236,18.345,19.954,18.345Z" transform="translate(1.34 0.415)"/><path class="b" d="M8.527,13.392c-.24-.06-.285-.159-.524-.224-.259-.072-.361.029-.689.032-.862.006-1.038.083-1.038.779,0,.357.188.474.486.52a6.064,6.064,0,0,0,.976.064c-.163.151-1.7.905-1.7,2.281v4.3a.628.628,0,0,0,.549.649,7.961,7.961,0,0,0,.025,1.277c.188.695,1.068.549,1.738.549.872,0,.731-1.2.731-1.827H20.509c0,1.911.068,1.827,1.7,1.827,1.052,0,.788-1.254.788-1.827a.629.629,0,0,0,.55-.649v-4.3a2.777,2.777,0,0,0-1.406-2.083l-.3-.2c1.19,0,1.462-.034,1.462-.782,0-.549-.461-.585-.974-.585a5.036,5.036,0,0,0-.706-.042c-.24.049-.331.178-.572.238l-.74-1.55c-.75-1.248-1.6-1.459-3.032-1.446l-2.858-.065a15.031,15.031,0,0,0-4.037.367c-.969.513-1.047,1.076-1.5,1.91a2.869,2.869,0,0,0-.364.783m.364.979a17.991,17.991,0,0,1,1.419-2.718c.65-.7,2.483-.606,3.387-.606,1.219,0,2.838-.032,4.011.071a2.03,2.03,0,0,1,1.518.527.742.742,0,0,1,.064.062c.009.006.021.022.031.029s.02.026.029.036a6,6,0,0,1,.671,1.169l.675,1.431A80.151,80.151,0,0,0,8.891,14.37ZM6.885,17.688c0-.665-.1-1.052.293-1.185a13.048,13.048,0,0,1,2.652.51c.508.291.651,1.33.157,1.33H8.831c-.367,0-.445-.066-.787-.07C7.441,18.267,6.885,18.343,6.885,17.688Zm13.078.655c-.274,0-.67.07-.67-.393,0-1.194,1.162-1.122,2.539-1.383.974-.186.868.025.868,1.122,0,.625-.513.585-1.1.585-.367,0-.442.066-.788.072C20.531,18.35,20.244,18.343,19.962,18.343Z" transform="translate(1.341 0.413)"/><path class="c" d="M2.752,11.4a1.7,1.7,0,0,0-.425-.2c-.024-.007-1.522-.133-1.522.4,0,.665-.086.844,1.275.844L1.8,12.6A2.443,2.443,0,0,0,.562,14.462v3.709c0,.413.125.621.486.652a9.286,9.286,0,0,0,.015,1.092c.121.692.818.537,1.569.537s.605-.933.605-1.564H6.765c0-1.844-.107-2.083.788-3.517a1.365,1.365,0,0,1,.326-2.317,5.756,5.756,0,0,1,1.681-.024,3.046,3.046,0,0,0,.425-.977c-1.173,0-2.35,0-3.526,0-.374,0-.472.059-.787.072-.3.01-.615-.006-.916-.006l-1.64.132a8.26,8.26,0,0,1,.547-1.172c.1-.22.194-.39.3-.588a1.6,1.6,0,0,1,1.523-1.1,42.624,42.624,0,0,1,5.908.052c1.23.153.755.828,1.508.8.142-.007.281-.007.426-.007a2.214,2.214,0,0,0-1.594-1.418,43.512,43.512,0,0,0-4.853-.146L5.123,8.8C3.728,8.916,3.31,10.269,2.752,11.4ZM1.294,15.047a1.572,1.572,0,0,1,.121-.847,4.779,4.779,0,0,1,1.849.232,1.692,1.692,0,0,1,.753.238c.269.234.7,1.3-.315,1.124C2.592,15.6,1.294,16.134,1.294,15.047Z" transform="translate(0 0.002)"/><path class="d" d="M2.753,11.394a1.7,1.7,0,0,0-.425-.2c-.025-.007-1.523-.133-1.523.4,0,.666-.086.844,1.276.844l-.279.158A2.45,2.45,0,0,0,.562,14.457v3.71c0,.413.125.621.486.652a9.307,9.307,0,0,0,.015,1.093c.122.691.819.535,1.57.535s.605-.933.605-1.563h3.53c0-1.847-.107-2.086.788-3.52a1.367,1.367,0,0,1,.327-2.318,5.756,5.756,0,0,1,1.681-.024,3.076,3.076,0,0,0,.426-.977c-1.174,0-2.352,0-3.529,0-.374,0-.471.059-.787.072-.3.01-.615-.006-.916-.006l-1.641.132a8.26,8.26,0,0,1,.547-1.172c.1-.222.194-.39.3-.588A1.6,1.6,0,0,1,5.49,9.376a42.662,42.662,0,0,1,5.911.052c1.23.153.755.828,1.508.8.142-.006.281-.006.427-.006a2.215,2.215,0,0,0-1.6-1.419,43.535,43.535,0,0,0-4.855-.146l-1.761.132c-1.4.118-1.814,1.473-2.372,2.6M1.294,15.042a1.59,1.59,0,0,1,.121-.848,4.784,4.784,0,0,1,1.85.233,1.692,1.692,0,0,1,.753.238c.27.234.7,1.3-.315,1.124C2.593,15.6,1.294,16.131,1.294,15.042Z" transform="translate(0 0)"/><path class="e" d="M7.116,15.651l2.467.395-.015.689L7,16.554Z" transform="translate(1.579 1.717)"/><path class="f" d="M1.37,13.383l2.317.371-.039.509-2.14.039Z" transform="translate(0.198 1.161)"/><path class="e" d="M19.573,15.536l-2.468.4.015.688,2.564-.18Z" transform="translate(4.055 1.689)"/><path class="e" d="M18.149,11.357H9.985l-.964,2.2H19.207Z" transform="translate(2.074 0.665)"/><path class="g" d="M4.138,9.671l6.733-.035.543.494-.386.165L9.667,11.407l-6.436.024Z" transform="translate(0.654 0.243)"/></g></g></svg>