<svg xmlns="http://www.w3.org/2000/svg" width="24.46" height="17.546" viewBox="0 0 24.46 17.546"><defs><style>.a{fill:#030504;}.a,.b,.d{fill-rule:evenodd;}.b{fill:#ffe14b;}.c{fill:none;stroke:#21201f;stroke-width:0.297px;}.c,.d,.e{stroke-miterlimit:10;}.d,.e{fill:#45c1e9;stroke:#1a1818;stroke-width:0.25px;}</style></defs><g transform="translate(-679.885 -162.867)"><g transform="translate(679.007 159.041)"><path class="a" d="M18.894,9.906c-.109.785-.579,3.536-1.175,4.01a10.274,10.274,0,0,1-1.212-.062c-1.111-.165-2.706,1.087-3.765.724-.258.52-.7,3.07-.963,3.9l4.888,1.427c-.031.362-.334.774-.324,1.175.019.008.067,0,.061.02s.048.016.061.019a4.912,4.912,0,0,0,.981.15L18,19.646a17.92,17.92,0,0,0,2.1-.779.384.384,0,0,0,.1-.467c.339-.322.277-.5.143-.881.5-.349.435-.577.4-1.006,1.26-.279.939-1.281.44-1.6-.129-.084-.822-.33-.988-.393-1.228-.466-1.236-.127-.673-2.4a14.907,14.907,0,0,1,.5-2.012,5.251,5.251,0,0,0,.713.185c.23.057.489.132.789.185,2.631.46,3.185,1.4,3.725-1.215.3-1.475-.153-1.458-1.913-1.915l-3.093-.7c-.6-.135-4.15-1.009-4.6-1.015-.74-.011-.965.628-1.089,1.23-.305,1.472-.622,1.891,1.278,2.31.931.206,2.219.459,3.063.736"/><path class="b" d="M12.943,15.023,12.2,18.157c1.438.172,3.681,1.3,4.745,1.249a6.81,6.81,0,0,0,.955-.169c.354-.075.616-.147.957-.235,1.354-.353.743-.488-.185-.51-.336-.007-.126.057-.3-.065.143-.232.1-.164.422-.2.5-.055,1.234.038,1.318-.377.165-.825-1.312-.071-1.623-.57.372-.333,1.163.151,1.626-.11a.608.608,0,0,0,.207-.793A8.308,8.308,0,0,1,18.44,15.9c.547-.472,2.387.884,2.78-.1.234-.582-.568-.781-1.009-.933a8.055,8.055,0,0,0-2.921-.617,5.094,5.094,0,0,0-1.439.018L13,15.017a.325.325,0,0,0-.056.006"/><path class="c" d="M2.537,9.351l4.082-.008L6.633,8.02a4.556,4.556,0,0,0,1.391.645,2.2,2.2,0,0,0,.258-.759c-.325-.242-.836-.372-1.144-.654-.475-.434-.535-.429-.507-1.311h1.86l0-1.931c-1.84.075-5.327-.4-6.6.6a2.429,2.429,0,0,0-.819,1c-.2.478-.051.4.46,1.161.267.4.444.658.735,1.067C2.654,8.366,2.477,8.6,2.537,9.351Z"/><path class="d" d="M2.537,9.351l4.082-.009L6.633,8.02a4.532,4.532,0,0,0,1.391.644,2.193,2.193,0,0,0,.258-.758c-.325-.242-.836-.373-1.144-.654-.475-.434-.535-.429-.507-1.312h1.86l0-1.931c-1.84.075-5.327-.4-6.6.6a2.429,2.429,0,0,0-.819,1c-.2.478-.051.4.46,1.161.267.4.444.658.735,1.068.38.534.2.77.263,1.519"/><path class="b" d="M15.057,7.083c.687.229,1.61.362,2.346.541l6.054,1.392a5.258,5.258,0,0,1,1.219.323c.267-.492.4-1.025-.3-1.266L15.885,6.167c-.486-.085-.719.085-.807.571,0,.005-.02.171-.02.174a.748.748,0,0,0,0,.171"/><path class="e" d="M9.022,5.989c.853.032,1.809.065,1.8-1.009-.008-1.033-.884-1.006-1.766-.991Z"/><path class="d" d="M1.407,21.239l7.645.008a9.683,9.683,0,0,0,1.072-2.755c.432-2.185-.9-3.126-2.667-4.641-1.206-1.318-.93-1.664-1.06-3.584H3.978c-.253,1.21.347,6.287.913,7.151l4.846.019A4.529,4.529,0,0,1,8.91,20.5c-.051.071-.2.337-.305.342-.13.006-.294-.018-.64-.021-1.994-.021-3.81-.009-5.805,0l.166-3.307,1.7-.013c-.068-.453-.391-.979-.477-1.446a19.168,19.168,0,0,1-.36-3.834,14.439,14.439,0,0,1,.154-1.949H2.557c-1.011,2.107-1.162,8.459-1.15,10.972"/></g></g></svg>