<svg xmlns="http://www.w3.org/2000/svg" width="24.981" height="26.463" viewBox="0 0 24.981 26.463"><defs><style>.a{fill:#f8a43b;}.a,.b,.c{stroke:#1a1818;stroke-miterlimit:10;stroke-width:0.25px;}.b{fill:#ffe14b;}.c{fill:#fff;}</style></defs><g transform="translate(-0.625 0.119)"><path class="a" d="M13.143,11.82c-3.516,0-7.033-.023-10.549.015-.808.009-1.037-.241-.94-.887A9.853,9.853,0,0,1,7.169,3.066c1.145-.574,2.416-.952,3.6-1.479A2.555,2.555,0,0,0,11.788.759,1.654,1.654,0,0,1,14.551.744a2.349,2.349,0,0,0,1.44.971A29.772,29.772,0,0,1,19.314,3a10.027,10.027,0,0,1,5.458,7.925c.114.724-.194.915-1,.908C20.231,11.8,16.687,11.82,13.143,11.82ZM2.649,10.6c.622.206.762-.077.871-.492.938-3.552,3.347-5.946,7.3-7.111a3.119,3.119,0,0,0,.689-.242,2.051,2.051,0,0,0,.408-.423,1.841,1.841,0,0,0-.584-.091C6.778,3.1,3.211,6.524,2.649,10.6Z"/><path class="b" d="M25.388,12.453c.031.219.05.362.072.505.1.659-.12.987-.982.931-1.018-.067-2.045-.016-3-.016a6.924,6.924,0,0,0-.806,5.748,1.725,1.725,0,0,1-.94,2.209,33.906,33.906,0,0,0-3.077,2.107,1.063,1.063,0,0,1-1.2.147,7.752,7.752,0,0,0-1.057-.42,7.731,7.731,0,0,1-5.246-4.906,2.087,2.087,0,0,0-.728-.842C6.71,16.65,4.992,15.381,3.212,14.185a3.155,3.155,0,0,0-1.535-.3c-.585-.018-.921-.088-.927-.714-.006-.609.224-.789.9-.788q11.468.024,22.934.012C24.832,12.4,25.076,12.431,25.388,12.453Zm-11.736,1.44c-.14,1.368-.292,2.67-.39,3.975a1.228,1.228,0,0,0,.27.8,2.754,2.754,0,0,0,2.759.945,2.247,2.247,0,0,0,1.958-1.732c.439-1.317.065-2.824,1.345-3.983ZM11.559,16.34l.384-2.41h-1.66Zm-2.9-.834c-.253-1.448-1.079-1.88-2.764-1.511Z"/><path d="M21.329,21.1c.41.444.744.8,1.069,1.16.1.112.174.242.326.457l-5.147,3.626L16.13,24.762Z"/><path class="c" d="M13.652,13.893h5.942c-1.28,1.159-.906,2.666-1.345,3.983a2.247,2.247,0,0,1-1.958,1.732,2.754,2.754,0,0,1-2.759-.945,1.228,1.228,0,0,1-.27-.8C13.36,16.563,13.512,15.261,13.652,13.893Z"/><path class="c" d="M11.559,16.34l-1.276-2.41h1.66Z"/><path class="c" d="M8.656,15.506,5.892,13.995C7.577,13.626,8.4,14.058,8.656,15.506Z"/></g></svg>