<svg xmlns="http://www.w3.org/2000/svg" width="23.627" height="22.73" viewBox="0 0 23.627 22.73"><defs><style>.a,.c,.e{fill:none;stroke:#21201f;}.a,.b,.c,.d,.e,.f,.g,.h{stroke-miterlimit:10;}.a{stroke-width:0.255px;}.b{fill:#f8a43b;}.b,.d,.f,.g,.h{stroke:#030504;stroke-width:0.25px;fill-rule:evenodd;}.c{stroke-width:0.251px;}.d{fill:#e52c6f;}.e{stroke-width:0.261px;}.f{fill:#45c1e9;}.g{fill:#e9699b;}.h{fill:#ffe14b;}</style></defs><g transform="translate(-1.297 -1.906)"><path class="a" d="M22.9,14.6a5.9,5.9,0,0,1-6.569,5.408c-2.8-.327-3.334-1.982-3.995-2.166,0,.494,0,.987,0,1.478-.014,1.294.2,1.38,1.714,1.373l6.092,0c.7.005.824.084,1.28-.25,6.436-4.746,2.587-14.7-4.474-14.426a6.046,6.046,0,0,0-1.986.278,8.564,8.564,0,0,0-2.107.969c-2.131,1.443-1.775,2-1.775,4.974,1.419-1.971,1.06-2.908,3.688-3.978a5.755,5.755,0,0,1,4.929.206A6.49,6.49,0,0,1,22.9,14.6Z"/><path class="b" d="M22.9,14.6a5.9,5.9,0,0,1-6.567,5.408c-2.8-.325-3.335-1.982-4-2.165,0,.493,0,.986,0,1.478-.015,1.293.2,1.38,1.713,1.373l6.093,0c.7.005.823.084,1.278-.251,6.437-4.746,2.587-14.7-4.473-14.425a5.97,5.97,0,0,0-1.986.279,8.513,8.513,0,0,0-2.108.968c-2.129,1.443-1.774,2-1.774,4.973,1.419-1.971,1.061-2.907,3.689-3.978a5.752,5.752,0,0,1,4.929.207A6.487,6.487,0,0,1,22.9,14.6"/><path class="c" d="M3,2.408V2.8c-1.324,0-1.3.589,0,.589V5.259H1.8a.3.3,0,1,0,0,.59H3v.689c-2.114,0-2.095.589,0,.589v.59H1.8a.3.3,0,1,0,0,.59H3v.688H1.8a.3.3,0,1,0,0,.59H3v.688c-.814-.36-1.682.491,0,.491V14.6c-1.568.3-1.243,8.03-1.243,9.438,0,.75,1.268.394,1.981.394a41.51,41.51,0,0,1-.092-5.112c0-1.023,1.04-.886,1.569-.886,0-1.285.356-1.807-.831-1.966,0-1.482.2-1.868-.83-1.868V10.764c1.867,0,.549-.735,0-.491V9.585c2.1,0,2.1-.59,0-.59V8.307c2.1,0,2.1-.59,0-.59V7.029c.354.181,1.655.4,1.475-.491H3.555V5.849c2.1,0,2.1-.59,0-.59V4.571c.676,0,1.6.162,1.529-.275-.075-.455-1.226-.224-1.529-.216V3.391c1.325,0,1.289-.589,0-.589C3.555,1.625,3,2.059,3,2.408Z"/><path class="d" d="M3,2.407V2.8c-1.324,0-1.3.591,0,.591V5.258H1.8a.3.3,0,1,0,0,.591H3v.688c-2.114,0-2.095.589,0,.589v.591H1.8a.3.3,0,1,0,0,.589H3v.689H1.8a.3.3,0,1,0,0,.589H3v.689c-.813-.361-1.682.491,0,.491V14.6c-1.568.3-1.243,8.03-1.243,9.438,0,.75,1.268.394,1.982.394a41.33,41.33,0,0,1-.092-5.113c0-1.022,1.039-.885,1.568-.885,0-1.285.357-1.808-.831-1.966,0-1.483.2-1.868-.83-1.868V10.764c1.868,0,.55-.736,0-.491V9.584c2.1,0,2.1-.589,0-.589V8.306c2.1,0,2.1-.589,0-.589V7.028c.355.181,1.655.4,1.475-.491H3.555V5.849c2.1,0,2.1-.591,0-.591V4.571c.676,0,1.6.161,1.528-.276-.074-.455-1.225-.224-1.528-.217V3.391c1.325,0,1.289-.591,0-.591C3.555,1.624,3,2.058,3,2.407"/><path class="e" d="M12.3,24.43h7.388c1.434,0,2.262,0,3.1-.588a2.937,2.937,0,0,0,1.4-2.656H12.7C12.044,21.186,12.618,23.081,12.3,24.43Z"/><path class="b" d="M12.3,24.43h7.389c1.434,0,2.262,0,3.1-.588a2.936,2.936,0,0,0,1.395-2.656H12.7c-.654,0-.08,1.895-.4,3.244"/><path class="e" d="M7.107,16.074v2.358c.676,0,1.5-.111,1.5,1.082v4.228a5.343,5.343,0,0,1-.1.688c.7,0,1.4-.005,2.1,0,.775.006,1.4.075,1.4-.688V16.074a.561.561,0,0,0-.5-.492H7.607A.562.562,0,0,0,7.107,16.074Z"/><path class="d" d="M7.108,16.073v2.359c.675,0,1.5-.111,1.5,1.082v4.228a5.193,5.193,0,0,1-.1.688c.7,0,1.4-.005,2.1,0,.775.006,1.4.075,1.4-.688V16.073a.561.561,0,0,0-.5-.491H7.608a.562.562,0,0,0-.5.491"/><path class="f" d="M4.1,19.5v4.228a.6.6,0,0,0,.667.688H7.63a.549.549,0,0,0,.477-.492V19.2c0-.3-.279-.394-.572-.394H4.771A.6.6,0,0,0,4.1,19.5"/><path class="e" d="M8.206,9.88v3.048c0,.506.986.294,2.4.294.462,0,.3-.784.3-1.278V7.127A15.976,15.976,0,0,0,8.206,9.88Z"/><path class="g" d="M8.206,9.879v3.048c0,.506.987.3,2.4.3.462,0,.3-.785.3-1.278V7.126a15.984,15.984,0,0,0-2.7,2.753"/><path class="e" d="M7.706,14.3v.786H11.4c0-1.785.292-1.474-3.194-1.474C7.883,13.616,7.706,13.973,7.706,14.3Z"/><path class="d" d="M7.707,14.3v.787H11.4c0-1.786.292-1.475-3.195-1.475-.322,0-.5.357-.5.688"/><path class="e" d="M17.491,16.074c.852,0,6.2-6.679.273-.911C17.649,15.277,16.69,16.074,17.491,16.074Z"/><path class="h" d="M17.492,16.073c.853,0,6.2-6.679.275-.91-.116.113-1.075.91-.275.91"/><path class="e" d="M15.968,14.575c.232-.223.434-.333.523-.665l-.219-.176c-.559.112-.962.7-1.352,1.085C12.726,16.979,14.517,15.964,15.968,14.575Z"/><path class="h" d="M15.97,14.574c.232-.222.434-.332.523-.664l-.219-.177c-.559.113-.962.7-1.353,1.086-2.193,2.16-.4,1.144,1.049-.245"/><path class="e" d="M18.333,12.282c.1-.116.69-.617.754-.909.029-.128-.043-.215-.3-.215s-1.651,1.453-1.727,1.557C16.262,13.792,17.785,12.928,18.333,12.282Z"/><path class="h" d="M18.334,12.281c.1-.116.692-.616.755-.909.029-.127-.043-.215-.3-.215s-1.652,1.453-1.729,1.557c-.8,1.077.725.213,1.272-.433"/><path class="e" d="M16.692,16.958c0-.219-.092-.234-.2-.394-.336.09-.379.229-.627.466C14.686,18.165,16.692,17.574,16.692,16.958Z"/><path class="h" d="M16.694,16.958c0-.219-.092-.234-.2-.394-.336.09-.379.228-.627.466-1.179,1.135.828.544.828-.072"/></g></svg>