<svg xmlns="http://www.w3.org/2000/svg" width="23.371" height="24.728" viewBox="0 0 23.371 24.728"><defs><style>.a{fill:#b3e59f;}.a,.b,.c,.d,.e,.f,.g,.h{fill-rule:evenodd;}.b{fill:#62d9fa;}.c{fill:#54d0f2;}.d{fill:#fd91ba;}.e{fill:#fcbf66;}.f{fill:#f585b0;}.g{fill:#f7b551;}.h{fill:#95d6a4;}.i{stroke:#fff;stroke-width:0.2px;}</style></defs><g transform="translate(-503.041 -336.9)"><g transform="translate(503.141 337)"><g transform="translate(0.367 0.366)"><g transform="translate(3.218 14.018)"><path class="a" d="M93.067,400.209a3.486,3.486,0,0,1-5.462-1.821c-.062-.246-.075-.215.133-.361a3.485,3.485,0,0,1,5.329,2.182Z" transform="translate(-87.566 -392.895)"/><path class="a" d="M311.785,400.209a3.486,3.486,0,0,0,5.462-1.821c.062-.246.075-.215-.133-.361a3.485,3.485,0,0,0-5.329,2.182Z" transform="translate(-301.285 -392.895)"/><path class="a" d="M164.494,307.422a2.194,2.194,0,0,0,1.971-.944,2.217,2.217,0,0,0,.313-2.035c-.057-.155-.039-.143-.2-.145a2.273,2.273,0,0,0-2.079,3.125Z" transform="translate(-160.688 -304.297)"/><path class="a" d="M297.148,307.422a2.194,2.194,0,0,1-1.971-.944,2.217,2.217,0,0,1-.313-2.035c.057-.155.039-.143.2-.145a2.273,2.273,0,0,1,2.079,3.125Z" transform="translate(-284.952 -304.297)"/></g><path class="b" d="M22.987,217.09c.5-.538,1.6-.048,2.095.281.419.282.411.183.449-.274.047-.579.347-1.7,1.065-1.765.692-.042,1.326,1.1,1.413,2.542a3.8,3.8,0,0,1-3.635,4.106c-1.445.089-2.651-.4-2.694-1.1-.024-.738,1.1-1.17,1.679-1.282.494-.1.414-.17.123-.511-.376-.443-.957-1.449-.494-2Z" transform="translate(-21.679 -205.485)"/><path class="c" d="M60.493,215.64a.782.782,0,0,1,.541-.307c.692-.042,1.326,1.1,1.413,2.542a3.8,3.8,0,0,1-3.635,4.106,5.219,5.219,0,0,1-.926-.024,3.786,3.786,0,0,0,3.377-4.083A3.734,3.734,0,0,0,60.493,215.64Z" transform="translate(-56.118 -205.486)"/><path class="b" d="M365.576,217.091c-.5-.529-1.563-.068-2.049.255-.465.309-.457.21-.5-.3-.05-.57-.356-1.652-1.058-1.714-.694-.042-1.326,1.1-1.414,2.542a3.8,3.8,0,0,0,3.635,4.106c1.445.089,2.651-.4,2.694-1.1.022-.694-.976-1.12-1.528-1.242-.138-.029-.548-.069-.478-.275a4.55,4.55,0,0,1,.4-.532c.3-.435.706-1.26.3-1.746Z" transform="translate(-344.448 -205.486)"/><path class="d" d="M143.514,7.49c.684.021,1.079,1.195,1.225,1.746.164.613.369.44.808.184s1.439-.681,1.89-.238c.459.505-.025,1.593-.293,2.082-.293.536-.188.609.355.764.507.145,1.545.566,1.563,1.238-.019.685-1.1,1.112-1.616,1.258-.567.161-.547.3-.271.8.261.475.7,1.539.262,2.025-.484.476-1.53-.028-2-.3-.507-.3-.589-.176-.734.371-.14.526-.549,1.6-1.191,1.624-.671-.021-1.06-1.146-1.208-1.688-.185-.681-.391-.486-.879-.213-.443.248-1.4.64-1.837.209-.442-.487,0-1.549.262-2.025.322-.59.21-.666-.383-.839-.5-.144-1.486-.569-1.5-1.22.019-.691,1.1-1.11,1.619-1.257.668-.191.471-.4.206-.915-.238-.458-.613-1.455-.2-1.912.479-.469,1.535.024,2,.3.522.311.585.187.734-.372.14-.525.553-1.6,1.192-1.621Z" transform="translate(-132.285 -7.49)"/><path class="e" d="M214,85.722a2.167,2.167,0,1,0-2.168-2.167A2.171,2.171,0,0,0,214,85.722Z" transform="translate(-202.775 -77.875)"/><path class="f" d="M306.4,43.7c-.59.161-.569.3-.282.8.27.475.732,1.539.273,2.025a.623.623,0,0,1-.082.065,1.28,1.28,0,0,0,1.267-.065c.46-.486,0-1.551-.273-2.025-.287-.5-.307-.64.282-.8.536-.147,1.663-.573,1.682-1.258-.019-.671-1.1-1.092-1.627-1.238-.565-.155-.674-.228-.37-.764.278-.489.782-1.577.3-2.082a1.307,1.307,0,0,0-1.268-.066.625.625,0,0,1,.083.066c.478.505-.028,1.593-.3,2.082-.3.536-.2.609.368.764.529.145,1.609.566,1.628,1.238C308.062,43.127,306.935,43.553,306.4,43.7Z" transform="translate(-292.357 -36.666)"/><path class="g" d="M244.687,85.722a2.167,2.167,0,0,0,0-4.333,2.144,2.144,0,0,0-.593.082,2.168,2.168,0,0,1,0,4.17A2.144,2.144,0,0,0,244.687,85.722Z" transform="translate(-233.475 -77.875)"/><path class="c" d="M428.007,250.468c.022-.694-.976-1.12-1.528-1.242-.138-.029-.548-.069-.478-.275a4.551,4.551,0,0,1,.4-.532c.3-.435.706-1.26.3-1.746a1.234,1.234,0,0,0-1.315-.108.737.737,0,0,1,.13.108c.406.486,0,1.311-.3,1.746a4.565,4.565,0,0,0-.4.532c-.071.206.339.246.476.275.554.122,1.552.548,1.528,1.242-.032.539-.766.954-1.768,1.072.086.011.173.018.26.024,1.445.089,2.651-.4,2.694-1.1Z" transform="translate(-405.57 -235.083)"/><path class="h" d="M346.042,398.378c.062-.246.075-.215-.133-.361a3.337,3.337,0,0,0-2.484-.533,3.218,3.218,0,0,1,1.3.533c.206.147.2.115.133.361a3.393,3.393,0,0,1-2.145,2.315,3.656,3.656,0,0,1-.653.176,3.541,3.541,0,0,0,1.839-.176,3.393,3.393,0,0,0,2.144-2.315Z" transform="translate(-326.863 -378.865)"/><path class="h" d="M299.248,306.581a2.277,2.277,0,0,0-.435-1.33,2.212,2.212,0,0,0-1.823-.954c-.166,0-.148-.01-.2.145-.008.024-.015.047-.024.071a2.3,2.3,0,0,1,.867.738,2.222,2.222,0,0,1,.336,1.964,2.119,2.119,0,0,0,.681.2c.187-.285.388-.562.6-.836Z" transform="translate(-283.624 -290.157)"/><path class="h" d="M173.515,306.477a2.217,2.217,0,0,0,.313-2.035c-.057-.155-.039-.143-.2-.145a2.09,2.09,0,0,0-.957.216,2.222,2.222,0,0,1-.336,1.964,2.355,2.355,0,0,1-.6.587q.125.174.241.353a2.245,2.245,0,0,0,1.548-.94Z" transform="translate(-164.558 -290.157)"/><path class="h" d="M121.131,398.836a3.586,3.586,0,0,0-3.433-1.353,3.646,3.646,0,0,1,.652.176,3.374,3.374,0,0,1,2.193,2.539,3.164,3.164,0,0,1-1.479.67,3.347,3.347,0,0,0,2.4-.475,8.95,8.95,0,0,0-.332-1.557Z" transform="translate(-113.119 -378.866)"/></g><path class="i" d="M19.3,21.571a.359.359,0,0,1-.4.6,3.756,3.756,0,0,1-.97-.926,3.482,3.482,0,0,1-.558-1.19.679.679,0,0,1-.022-.424.754.754,0,0,1,.338-.341,3.526,3.526,0,0,1,1.592-.584,3.849,3.849,0,0,1,1.772.22,3.9,3.9,0,0,1,1.118.641c-.038-.1-.079-.189-.12-.281A11.626,11.626,0,0,0,19.809,16.1a4.165,4.165,0,0,1-2.461,1.081A4.741,4.741,0,0,1,15.2,16.92a1.422,1.422,0,0,1-1.028-1.135,1.337,1.337,0,0,1,.741-1.165,3.7,3.7,0,0,1,1.061-.44,3.756,3.756,0,0,1-.565-1,1.339,1.339,0,0,1,.136-1.373,1.338,1.338,0,0,1,1.347-.3,3.714,3.714,0,0,1,1.062.44,3.762,3.762,0,0,1,.308-1.108,1.33,1.33,0,0,1,1.126-.879,1.457,1.457,0,0,1,1.194.885,4.69,4.69,0,0,1,.515,1.939h0v.027h0v0a4.182,4.182,0,0,1-.807,2.755c.263.281.512.558.747.837a2.667,2.667,0,0,1,1.38-1.9,2.409,2.409,0,0,1,1.167-.281.5.5,0,0,1,.341.081.57.57,0,0,1,.2.337,2.416,2.416,0,0,1,.1,1.154,2.661,2.661,0,0,1-1.465,1.977,2.456,2.456,0,0,1-.591.2,9.413,9.413,0,0,1,.536,1.027,12.374,12.374,0,0,1,.925,5.177.359.359,0,0,1-.718,0,17.658,17.658,0,0,0-.086-1.81,3.511,3.511,0,0,1-.793.327,3.73,3.73,0,0,1-1.463.1.358.358,0,1,1,.09-.71,3.018,3.018,0,0,0,1.183-.081,2.752,2.752,0,0,0,.838-.391,2.787,2.787,0,0,0-.6-1.124A3.111,3.111,0,0,0,20.8,19.6a3.148,3.148,0,0,0-1.444-.181,2.8,2.8,0,0,0-1.286.478,2.762,2.762,0,0,0,.439.926,3.041,3.041,0,0,0,.785.75Zm5.8-13.91a.359.359,0,0,1-.27.665A2.5,2.5,0,0,1,23.7,7.408a2.483,2.483,0,1,1,3,.918.359.359,0,0,1-.269-.665,1.762,1.762,0,0,0,1.1-1.638,1.766,1.766,0,1,0-3.233.986,1.781,1.781,0,0,0,.8.652ZM26.747.6a4.321,4.321,0,0,1,.6,1.338c.041.144.276.029.358-.018a3.633,3.633,0,0,1,1.262-.432,1.248,1.248,0,0,1,1.046.273A1.258,1.258,0,0,1,30.3,2.863a4.31,4.31,0,0,1-.517,1.373c-.13.23.062.206.144.228a4.051,4.051,0,0,1,1.293.6,1.256,1.256,0,0,1,.568.951A1.272,1.272,0,0,1,31.2,7a4.278,4.278,0,0,1-1.332.607c-.247.068-.11.175-.058.263A4.034,4.034,0,0,1,30.3,9.2a1.262,1.262,0,0,1-.269,1.073,1.26,1.26,0,0,1-1.105.284,4.308,4.308,0,0,1-1.374-.516c-.215-.121-.186-.011-.227.148a4.094,4.094,0,0,1-.6,1.289,1.484,1.484,0,0,1-.6.493v12.2a.359.359,0,0,1-.718,0V11.974a1.469,1.469,0,0,1-.612-.508,4.376,4.376,0,0,1-.606-1.335c-.062-.22-.255-.06-.383.009a3.767,3.767,0,0,1-1.27.424,1.238,1.238,0,0,1-1.021-.274A1.256,1.256,0,0,1,21.227,9.2a4.054,4.054,0,0,1,.487-1.338c.162-.287.124-.216-.178-.3a3.873,3.873,0,0,1-1.247-.6,1.248,1.248,0,0,1-.55-.936,1.265,1.265,0,0,1,.583-.983,4.282,4.282,0,0,1,1.334-.606c.232-.064.065-.242-.011-.382a3.786,3.786,0,0,1-.424-1.27A1.243,1.243,0,0,1,21.5,1.771,1.27,1.27,0,0,1,22.6,1.489,4.235,4.235,0,0,1,23.975,2c.1.057.19-.03.225-.151A4.079,4.079,0,0,1,24.8.565,1.1,1.1,0,0,1,26.747.6Zm-.579.424a.628.628,0,0,0-.4-.3.627.627,0,0,0-.39.285,3.281,3.281,0,0,0-.482,1.042c-.1.361-.179.587-.394.716-.236.141-.486.09-.879-.136A3.471,3.471,0,0,0,22.5,2.2a.63.63,0,0,0-.492.072.6.6,0,0,0-.077.445,3.024,3.024,0,0,0,.342,1l.073.136a1.937,1.937,0,0,1,.2.42c.115.421-.022.672-.7.858a3.5,3.5,0,0,0-1.093.49.626.626,0,0,0-.295.4.607.607,0,0,0,.274.382,3.132,3.132,0,0,0,1,.47c.394.11.634.2.762.428.14.246.077.505-.156.917a3.354,3.354,0,0,0-.4,1.08.613.613,0,0,0,.075.477.6.6,0,0,0,.445.076,3.054,3.054,0,0,0,1.006-.342l.121-.068A2.06,2.06,0,0,1,24,9.247c.425-.121.68.012.872.69a3.658,3.658,0,0,0,.492,1.1c.084.113.243.289.4.289s.307-.177.388-.284A3.294,3.294,0,0,0,26.633,10c.1-.357.187-.583.4-.707.236-.136.487-.088.87.128a3.54,3.54,0,0,0,1.12.429.624.624,0,0,0,.49-.073.622.622,0,0,0,.073-.478,3.314,3.314,0,0,0-.4-1.078c-.187-.329-.285-.55-.217-.79.072-.263.287-.4.712-.517a3.507,3.507,0,0,0,1.09-.492.637.637,0,0,0,.3-.4.614.614,0,0,0-.285-.39,3.333,3.333,0,0,0-1.048-.479c-.368-.1-.593-.186-.718-.4-.134-.236-.08-.483.14-.869a3.568,3.568,0,0,0,.43-1.122.62.62,0,0,0-.073-.489.608.608,0,0,0-.463-.075,3.07,3.07,0,0,0-1.039.368,2.381,2.381,0,0,1-.509.247c-.406.114-.659-.012-.835-.646a3.823,3.823,0,0,0-.5-1.146Zm5.843,14.387a3.353,3.353,0,0,0,1.2.82.358.358,0,1,1-.266.665A4.053,4.053,0,0,1,31.7,16.1a11.626,11.626,0,0,0-2.243,3.182c-.041.092-.081.186-.12.281a3.9,3.9,0,0,1,1.118-.641,3.849,3.849,0,0,1,1.772-.22,3.537,3.537,0,0,1,1.635.614.662.662,0,0,1,.295.31.679.679,0,0,1-.022.425,3.519,3.519,0,0,1-.839,1.53,3.884,3.884,0,0,1-3.388,1.2,3.551,3.551,0,0,1-1.226-.42,17.69,17.69,0,0,0-.086,1.81.359.359,0,0,1-.718,0,12.374,12.374,0,0,1,.925-5.177,9.418,9.418,0,0,1,.536-1.027,2.4,2.4,0,0,1-.591-.2,2.661,2.661,0,0,1-1.465-1.977,2.406,2.406,0,0,1,.094-1.135.674.674,0,0,1,.209-.356.575.575,0,0,1,.341-.081,2.409,2.409,0,0,1,1.167.281,2.667,2.667,0,0,1,1.38,1.9c.235-.278.483-.555.747-.837-.072-.1-.138-.2-.2-.3a4.246,4.246,0,0,1-.588-2.664,4.585,4.585,0,0,1,.5-1.764,1.42,1.42,0,0,1,1.3-.879,1.362,1.362,0,0,1,1.023.872,3.724,3.724,0,0,1,.307,1.108,3.737,3.737,0,0,1,1.063-.44,1.338,1.338,0,0,1,1.347.3,1.339,1.339,0,0,1,.136,1.373,3.755,3.755,0,0,1-.565,1,3.7,3.7,0,0,1,1.061.44,1.338,1.338,0,0,1,.742,1.165,1.352,1.352,0,0,1-.892,1.076,4.293,4.293,0,0,1-1.772.345.358.358,0,1,1,0-.716,3.58,3.58,0,0,0,1.469-.278c.288-.136.469-.3.478-.468s-.144-.35-.409-.519a3.515,3.515,0,0,0-1.4-.456.359.359,0,0,1-.31-.4.355.355,0,0,1,.1-.2h0a3.527,3.527,0,0,0,.822-1.221c.1-.3.114-.536,0-.661s-.35-.144-.657-.076a3.521,3.521,0,0,0-1.313.667.357.357,0,0,1-.5-.065.37.37,0,0,1-.075-.238,3.483,3.483,0,0,0-.284-1.423c-.13-.274-.288-.448-.448-.467l-.03,0c-.186,0-.388.2-.566.516a3.965,3.965,0,0,0-.425,1.64,3.5,3.5,0,0,0,.5,2.064,3.392,3.392,0,0,0,.389.512Zm-12.477-.046.022-.023a3.436,3.436,0,0,0,.823-2.484c0-.015,0-.03,0-.043a3.924,3.924,0,0,0-.424-1.62c-.178-.32-.38-.516-.566-.516l-.03,0c-.16.019-.318.193-.448.467a3.491,3.491,0,0,0-.284,1.4.4.4,0,0,1-.075.257.357.357,0,0,1-.5.065,3.52,3.52,0,0,0-1.313-.667c-.307-.068-.547-.049-.657.076s-.1.364,0,.661a3.49,3.49,0,0,0,.8,1.2.369.369,0,0,1,.121.225.359.359,0,0,1-.31.4,3.516,3.516,0,0,0-1.4.456c-.265.168-.42.352-.409.519.011.189.232.371.581.512a4.089,4.089,0,0,0,1.7.224,3.437,3.437,0,0,0,2.364-1.119Zm9.518,1.764a1.714,1.714,0,0,0,.665.168,1.727,1.727,0,0,0,.056-.686,1.951,1.951,0,0,0-1.016-1.472,1.716,1.716,0,0,0-.722-.2,1.733,1.733,0,0,0-.046.75,1.946,1.946,0,0,0,1.063,1.438Zm-7.265.168a1.714,1.714,0,0,0,.665-.168,1.946,1.946,0,0,0,1.063-1.438,1.733,1.733,0,0,0-.046-.75,1.716,1.716,0,0,0-.722.2,1.943,1.943,0,0,0-1.016,1.472,1.73,1.73,0,0,0,.056.686ZM28.823,21.6a2.784,2.784,0,0,0,1.184.464,3.185,3.185,0,0,0,2.759-.97,2.809,2.809,0,0,0,.664-1.2,2.8,2.8,0,0,0-1.286-.478A3.149,3.149,0,0,0,30.7,19.6a3.111,3.111,0,0,0-1.282.881,2.786,2.786,0,0,0-.6,1.124Z" transform="translate(-14.167 0.001)"/></g></g></svg>