<svg xmlns="http://www.w3.org/2000/svg" width="23.573" height="23.577" viewBox="0 0 23.573 23.577"><defs><style>.a{fill:#e52c6f;stroke:#030504;}.a,.c,.d{stroke-miterlimit:10;stroke-width:0.25px;}.b{fill:#fff;}.c{fill:#f8a43b;stroke:#1a1818;}.d{fill:#ffe97a;stroke:#21201f;}</style></defs><g transform="translate(-0.861 -1.05)"><path d="M22.365,19.31a.51.51,0,0,1-.045.1,11.62,11.62,0,0,1-7.193,4.853,11.2,11.2,0,0,1-3.51.223A11.718,11.718,0,0,1,1.485,16.347a11.219,11.219,0,0,1-.493-2.508A11.628,11.628,0,0,1,2.288,7.4,1.522,1.522,0,0,1,2.4,7.232l0,0a1.443,1.443,0,0,1-.057.147A11.6,11.6,0,0,0,1.01,13.582a11.466,11.466,0,0,0,.923,3.868,11.669,11.669,0,0,0,9.88,7.019,11.289,11.289,0,0,0,4.058-.425,11.61,11.61,0,0,0,6.377-4.59c.036-.05.08-.094.121-.141Z"/><path d="M5.038,3.977a1.156,1.156,0,0,1,.105-.115,11.412,11.412,0,0,1,5.889-2.608,11.545,11.545,0,0,1,8.6,2.2,1.8,1.8,0,0,1,.157.146l0,0a1.517,1.517,0,0,1-.136-.08,11.523,11.523,0,0,0-9.14-2.139A11.285,11.285,0,0,0,5.156,3.9a1.051,1.051,0,0,1-.12.075Z"/><path d="M21.662,5.414a.943.943,0,0,1,.1.1,11.7,11.7,0,0,1,1.159,12.915c-.146.271-.314.529-.474.791a.578.578,0,0,1-.085.094l0,0a1.383,1.383,0,0,1,.077-.154,11.539,11.539,0,0,0,1.643-8.567,11.35,11.35,0,0,0-2.342-5.048,1.281,1.281,0,0,1-.082-.133Z"/><path d="M2.4,7.232c.13-.233.248-.473.391-.7A11.579,11.579,0,0,1,4.93,4.043a.624.624,0,0,1,.108-.066l0,0a1.065,1.065,0,0,1-.093.107A11.728,11.728,0,0,0,2.467,7.142a.643.643,0,0,1-.071.087Z"/><path d="M19.785,3.6a4.174,4.174,0,0,1,.449.341c.467.457.923.925,1.382,1.39a.343.343,0,0,1,.046.087l0,0a.605.605,0,0,1-.087-.072,11.961,11.961,0,0,0-1.725-1.672.46.46,0,0,1-.065-.074Z"/><path class="a" d="M19.788,3.593a.46.46,0,0,0,.065.074,11.961,11.961,0,0,1,1.725,1.672.605.605,0,0,0,.087.072,1.281,1.281,0,0,0,.082.133,11.35,11.35,0,0,1,2.342,5.048,11.539,11.539,0,0,1-1.643,8.567,1.383,1.383,0,0,0-.077.154c-.041.047-.085.091-.121.141a11.61,11.61,0,0,1-6.377,4.59,11.289,11.289,0,0,1-4.058.425,11.669,11.669,0,0,1-9.88-7.019,11.466,11.466,0,0,1-.923-3.868A11.6,11.6,0,0,1,2.339,7.376,1.443,1.443,0,0,0,2.4,7.229a.643.643,0,0,0,.071-.087A11.728,11.728,0,0,1,4.943,4.081a1.065,1.065,0,0,0,.093-.107,1.051,1.051,0,0,0,.12-.075,11.285,11.285,0,0,1,5.356-2.525,11.523,11.523,0,0,1,9.14,2.139A1.517,1.517,0,0,0,19.788,3.593ZM6.535,21.806l-.006,0a1.168,1.168,0,0,0,.107.093,10.912,10.912,0,0,0,8.321,1.57A10.422,10.422,0,0,0,20.165,20.7a10.681,10.681,0,0,0,3.181-9.9,10.319,10.319,0,0,0-2.155-4.721c-.063-.079-.136-.149-.2-.223l0,.006-.561-.636-.187-.187c-.026-.028-.05-.059-.079-.086a10.866,10.866,0,0,0-8.749-2.933,10.628,10.628,0,0,0-3.044.805,10.907,10.907,0,0,0-6.52,8.662,10.614,10.614,0,0,0,.18,3.726,10.832,10.832,0,0,0,2.591,4.966,2.694,2.694,0,0,0,.227.2l.3.3a.522.522,0,0,0,.081.114q.6.492,1.212.978A.362.362,0,0,0,6.535,21.806Z"/><path class="b" d="M20.243,5.032l.187.187.561.636,0-.006a1.243,1.243,0,0,0,.077.121,10.708,10.708,0,0,1,2.386,5.76,10.584,10.584,0,0,1-.614,4.853,10.844,10.844,0,0,1-11.772,6.975,10.726,10.726,0,0,1-4.382-1.674,1.708,1.708,0,0,0-.152-.082l.006,0c0-.008,0-.02-.012-.025q-.684-.555-1.37-1.108l-.3-.3c-.016-.02-.029-.04-.046-.058A10.74,10.74,0,0,1,1.829,13.46,10.519,10.519,0,0,1,2.3,9.6,10.716,10.716,0,0,1,6.622,3.813a10.59,10.59,0,0,1,5.006-1.784,10.835,10.835,0,0,1,8.5,2.929A.72.72,0,0,0,20.243,5.032Zm2.5,7.846A10.071,10.071,0,1,0,12.8,22.944,10.077,10.077,0,0,0,22.739,12.878Z"/><path d="M20.243,5.032a.72.72,0,0,1-.119-.074,10.835,10.835,0,0,0-8.5-2.929A10.59,10.59,0,0,0,6.622,3.813,10.716,10.716,0,0,0,2.3,9.6a10.519,10.519,0,0,0-.467,3.859A10.74,10.74,0,0,0,4.8,20.311c.017.018.03.038.046.058a2.694,2.694,0,0,1-.227-.2,10.832,10.832,0,0,1-2.591-4.966,10.614,10.614,0,0,1-.18-3.726,10.907,10.907,0,0,1,6.52-8.662,10.628,10.628,0,0,1,3.044-.805,10.866,10.866,0,0,1,8.749,2.933C20.193,4.973,20.217,5,20.243,5.032Z"/><path d="M6.529,21.8a1.708,1.708,0,0,1,.152.082,10.726,10.726,0,0,0,4.382,1.674,10.844,10.844,0,0,0,11.772-6.975,10.584,10.584,0,0,0,.614-4.853,10.708,10.708,0,0,0-2.386-5.76,1.243,1.243,0,0,1-.077-.121c.069.074.142.144.2.223a10.319,10.319,0,0,1,2.155,4.721,10.681,10.681,0,0,1-3.181,9.9,10.422,10.422,0,0,1-5.208,2.767A10.912,10.912,0,0,1,6.636,21.9,1.168,1.168,0,0,1,6.529,21.8Z"/><path d="M5.153,20.673q.686.553,1.37,1.108c.007,0,.008.017.012.025a.362.362,0,0,1-.089-.041q-.608-.487-1.212-.978A.522.522,0,0,1,5.153,20.673Z"/><path d="M20.991,5.855l-.561-.636Z"/><path class="c" d="M22.739,12.878A10.071,10.071,0,1,1,12.668,2.806,10.076,10.076,0,0,1,22.739,12.878Zm-12.6,4.312-1.7,2.546c.275,0,.512.008.747,0a.371.371,0,0,0,.226-.094c.592-.583,1.178-1.172,1.763-1.761.224-.224.442-.454.665-.684a.956.956,0,0,1,.088.072q1.191,1.191,2.384,2.382c.033.034.074.082.113.083.272.008.544,0,.852,0L13.6,17.2c.065,0,.1-.008.132-.008.635,0,1.271,0,1.906,0a.437.437,0,0,0,.488-.491q0-2.28,0-4.559c0-.057,0-.113-.007-.163-.027-.009-.037-.016-.045-.015-.049.008-.1.016-.144.026a3.223,3.223,0,0,1-2.684-.6,3.518,3.518,0,0,1-.841-.909.233.233,0,0,0-.156-.1c-.254-.011-.508-.01-.762,0a.237.237,0,0,0-.152.085c-.163.194-.3.413-.478.59a3.194,3.194,0,0,1-3.023.942c-.069-.013-.139-.02-.215-.031,0,.053-.011.086-.011.12v1.04q0,1.8,0,3.6a.438.438,0,0,0,.466.467c.421,0,.841,0,1.261,0ZM15.259,6.142a2.532,2.532,0,0,0-2.565,2.546,2.563,2.563,0,0,0,5.126.034A2.544,2.544,0,0,0,15.259,6.142Zm-6.791,0a2.554,2.554,0,1,0,2.558,2.612A2.531,2.531,0,0,0,8.468,6.142Zm11.055,8.493c0-.693,0-1.387,0-2.08,0-.118-.009-.248-.131-.283a.391.391,0,0,0-.28.055q-.908.591-1.8,1.2a.83.83,0,0,0-.37.711c0,.244,0,.489,0,.733a.893.893,0,0,0,.432.8l.548.365c.41.273.819.548,1.231.817.2.128.358.039.371-.194,0-.044,0-.088,0-.132Z"/><path class="d" d="M10.137,17.19H9.332c-.42,0-.84,0-1.261,0a.438.438,0,0,1-.466-.467q0-1.8,0-3.6v-1.04c0-.034.006-.067.011-.12.076.011.146.018.215.031a3.194,3.194,0,0,0,3.023-.942c.179-.177.315-.4.478-.59a.237.237,0,0,1,.152-.085c.254-.009.508-.01.762,0a.233.233,0,0,1,.156.1,3.518,3.518,0,0,0,.841.909,3.223,3.223,0,0,0,2.684.6c.047-.01.1-.018.144-.026.008,0,.018.006.045.015,0,.05.007.106.007.163q0,2.28,0,4.559a.437.437,0,0,1-.488.491c-.635,0-1.271,0-1.906,0-.033,0-.067,0-.132.008l1.684,2.532c-.308,0-.58,0-.852,0-.039,0-.08-.049-.113-.083q-1.193-1.189-2.384-2.382a.956.956,0,0,0-.088-.072c-.223.23-.441.46-.665.684-.585.589-1.171,1.178-1.763,1.761a.371.371,0,0,1-.226.094c-.235.013-.472,0-.747,0Z"/><path class="d" d="M15.259,6.142a2.544,2.544,0,0,1,2.561,2.58,2.563,2.563,0,0,1-5.126-.034A2.532,2.532,0,0,1,15.259,6.142Z"/><path class="d" d="M8.468,6.142a2.531,2.531,0,0,1,2.558,2.612A2.56,2.56,0,1,1,8.468,6.142Z"/><path class="d" d="M19.523,14.635v1.992c0,.044,0,.088,0,.132-.013.233-.176.322-.371.194-.412-.269-.821-.544-1.231-.817l-.548-.365a.893.893,0,0,1-.432-.8c0-.244,0-.489,0-.733a.83.83,0,0,1,.37-.711q.894-.613,1.8-1.2a.391.391,0,0,1,.28-.055c.122.035.131.165.131.283C19.522,13.248,19.523,13.942,19.523,14.635Z"/></g></svg>