<svg xmlns="http://www.w3.org/2000/svg" width="23.877" height="25.04" viewBox="0 0 23.877 25.04"><defs><style>.a,.c,.e{fill:none;stroke:#21201f;stroke-width:0.208px;}.a{stroke-miterlimit:114.593;}.b{fill:#ffe14b;}.b,.d,.f{stroke:#1a1818;stroke-width:0.25px;}.b,.d,.e,.f{stroke-miterlimit:10;}.b,.d{fill-rule:evenodd;}.c{stroke-miterlimit:22.926;}.d,.f{fill:#f8a43b;}</style></defs><g transform="translate(-1.313 -0.821)"><path class="a" d="M6.3,13.088a5.794,5.794,0,0,0,.6,2.779l1.282,1.784A14.385,14.385,0,0,1,9.75,20.679c.206.689.163,1.156.435,1.156h5.854c.245,0,.227-.246.267-.464a8,8,0,0,1,.594-1.727,19.82,19.82,0,0,1,2.086-3.317c2.466-3.165-.038-9.685-5.873-9.685A7.039,7.039,0,0,0,9.27,7.8a6.577,6.577,0,0,0-2.309,2.636A6.035,6.035,0,0,0,6.3,13.088Zm2.588,2.894a4.069,4.069,0,0,1-.81-1.124A5.19,5.19,0,0,1,13.249,8.09a1.034,1.034,0,0,1,.341.065c-.013.01-.033.009-.039.027l-.176.1a7.811,7.811,0,0,0-2.945,2.216A8.151,8.151,0,0,0,8.893,15.982Z"/><path class="b" d="M6.306,13.092a5.79,5.79,0,0,0,.6,2.778l1.282,1.783A14.377,14.377,0,0,1,9.751,20.68c.206.689.163,1.157.435,1.157h5.855c.244,0,.227-.247.267-.464a7.982,7.982,0,0,1,.594-1.727,19.852,19.852,0,0,1,2.086-3.316c2.466-3.164-.038-9.683-5.874-9.683A7.04,7.04,0,0,0,9.271,7.8a6.57,6.57,0,0,0-2.309,2.634,6.025,6.025,0,0,0-.656,2.654m2.588,2.893a4.071,4.071,0,0,1-.811-1.124A5.19,5.19,0,0,1,13.25,8.1a1.029,1.029,0,0,1,.341.066c-.013.009-.033.008-.039.027l-.176.1A7.819,7.819,0,0,0,10.431,10.5,8.146,8.146,0,0,0,8.894,15.985Z"/><path class="c" d="M9.982,23.808c0,.754.143,1.053,1.02,1.053,0,.259-.059.857.341.857a30.736,30.736,0,0,0,3.744-.068,1.336,1.336,0,0,0,.136-.789c.746,0,1.02-.173,1.02-1.053a.821.821,0,0,0-.885-.856H10.865A.8.8,0,0,0,9.982,23.808Z"/><path class="d" d="M9.983,23.809c0,.754.143,1.052,1.021,1.052,0,.26-.06.857.34.857a30.756,30.756,0,0,0,3.745-.068,1.342,1.342,0,0,0,.136-.789c.745,0,1.019-.172,1.019-1.052a.821.821,0,0,0-.885-.856H10.866a.8.8,0,0,0-.883.856"/><path class="e" d="M2.085,12.826H4.943c1.06,0,1.087-1.118,0-1.118H2.29C1.108,11.708,1.267,12.826,2.085,12.826Z"/><path class="d" d="M2.085,12.83H4.943c1.061,0,1.088-1.118,0-1.118H2.29c-1.182,0-1.022,1.118-.2,1.118"/><path class="e" d="M20.736,12.561c0,.417.554.593,1.022.593h2.449c1.164,0,1.049-1.119.2-1.119H21.417C21.115,12.035,20.736,12.273,20.736,12.561Z"/><path class="d" d="M20.738,12.565c0,.416.554.593,1.022.593h2.45c1.163,0,1.048-1.119.2-1.119H21.419c-.3,0-.681.238-.681.526"/><path class="e" d="M2.9,6.84c0,.525,1,.916,1.495,1.186a9.415,9.415,0,0,0,1.841.919c.422,0,1.024-.572-.063-1.189A13.735,13.735,0,0,0,3.446,6.378.514.514,0,0,0,2.9,6.84Z"/><path class="d" d="M2.9,6.846c0,.525,1,.915,1.495,1.185a9.45,9.45,0,0,0,1.842.919c.421,0,1.024-.572-.063-1.189A13.808,13.808,0,0,0,3.447,6.384a.514.514,0,0,0-.546.462"/><path class="e" d="M16.718,5.655c0,.479.586.935,1.207-.087a17.719,17.719,0,0,0,1.45-2.607c0-.408-.592-.99-1.229.06A12.084,12.084,0,0,0,16.718,5.655Z"/><path class="f" d="M16.72,5.661c0,.479.586.935,1.207-.087a17.663,17.663,0,0,0,1.45-2.606c0-.408-.593-.99-1.229.06A12.058,12.058,0,0,0,16.72,5.661"/><path class="e" d="M9.165,6.115c1.052,0,.081-1.429,0-1.579L8.057,2.711c-.54-.646-1.512-.274-.777.883l1.1,1.837C8.551,5.722,8.735,6.115,9.165,6.115Z"/><path class="d" d="M9.166,6.121c1.052,0,.081-1.428,0-1.579L8.058,2.718c-.54-.646-1.512-.274-.777.882l1.1,1.837c.173.291.358.684.788.684"/><path class="e" d="M19.716,8.483c0,.372-.039.592.612.592a2.381,2.381,0,0,0,.881-.4c.282-.154.552-.308.861-.484s.52-.3.822-.453c1.124-.586.516-1.23.158-1.23C22.765,6.51,19.716,8.049,19.716,8.483Z"/><path class="d" d="M19.718,8.488c0,.373-.039.592.611.592a2.384,2.384,0,0,0,.882-.4c.282-.154.552-.308.861-.484.294-.169.52-.3.822-.453,1.124-.586.516-1.229.158-1.229-.285,0-3.334,1.538-3.334,1.972"/><path class="e" d="M12.567,1.51V4.472a.547.547,0,1,0,1.091,0V1.51A.546.546,0,1,0,12.567,1.51Z"/><path class="d" d="M12.569,1.518V4.479a.547.547,0,1,0,1.091,0V1.518a.546.546,0,1,0-1.091,0"/></g></svg>