<svg xmlns="http://www.w3.org/2000/svg" width="25.149" height="23.632" viewBox="0 0 25.149 23.632"><defs><style>.a,.c{fill:none;}.a,.c,.d,.e,.f{stroke:#21201f;}.a,.b,.d,.e,.f{stroke-miterlimit:10;}.a{stroke-width:0.209px;}.b{fill:#f8a43b;stroke:#1a1818;}.b,.d,.e,.f{stroke-width:0.25px;fill-rule:evenodd;}.c{stroke-miterlimit:22.926;stroke-width:0.215px;}.d{fill:#e52c6f;}.e{fill:#ffe97a;}.f{fill:#9dc86d;}</style></defs><g transform="translate(-0.423 -0.926)"><path class="a" d="M.548,12.415A11.081,11.081,0,0,0,2.8,19.461a10.416,10.416,0,0,0,1.8,1.893l2.19,1.519a13.135,13.135,0,0,0,10.288.907,12.7,12.7,0,0,0,3.04-1.458,10.811,10.811,0,0,0,1.268-.97c.165-.156.269-.195.423-.34l1.036-1.132a12.143,12.143,0,0,0,1.687-2.731A11.176,11.176,0,0,0,25.1,9.994a11.333,11.333,0,0,0-2.529-4.732,12.629,12.629,0,0,0-2.379-2.081,12.861,12.861,0,0,0-6.86-2.137,12.875,12.875,0,0,0-7.92,2.4,12.3,12.3,0,0,0-3.2,3.423A10.83,10.83,0,0,0,.548,12.415Z"/><path class="b" d="M.548,12.419A11.076,11.076,0,0,0,2.8,19.463a10.442,10.442,0,0,0,1.8,1.892l2.191,1.519a13.147,13.147,0,0,0,10.291.906,12.676,12.676,0,0,0,3.042-1.457,10.913,10.913,0,0,0,1.268-.969c.165-.157.27-.2.423-.341l1.037-1.131a12.143,12.143,0,0,0,1.687-2.731A11.17,11.17,0,0,0,25.1,10a11.344,11.344,0,0,0-2.53-4.73,12.7,12.7,0,0,0-2.38-2.081,12.869,12.869,0,0,0-6.862-2.136A12.882,12.882,0,0,0,5.41,3.456a12.314,12.314,0,0,0-3.2,3.421A10.827,10.827,0,0,0,.548,12.419"/><path class="c" d="M6.252,10.672a2.071,2.071,0,1,1-2.061,2.071A2.067,2.067,0,0,1,6.252,10.672Z"/><path class="d" d="M6.252,10.672A2.071,2.071,0,1,1,4.19,12.743a2.067,2.067,0,0,1,2.062-2.071"/><path class="c" d="M13,10.672a2.071,2.071,0,1,1-2.061,2.071A2.065,2.065,0,0,1,13,10.672Z"/><path class="e" d="M13,10.672a2.071,2.071,0,1,1-2.061,2.071A2.066,2.066,0,0,1,13,10.672"/><path class="c" d="M19.752,10.672a2.071,2.071,0,1,1-2.062,2.071A2.065,2.065,0,0,1,19.752,10.672Z"/><path class="f" d="M19.752,10.672a2.071,2.071,0,1,1-2.062,2.071,2.066,2.066,0,0,1,2.062-2.071"/></g></svg>