<svg xmlns="http://www.w3.org/2000/svg" width="22.898" height="17.135" viewBox="0 0 22.898 17.135"><defs><style>.a{fill:#ff515e;}.a,.b,.c,.d,.e,.f{stroke:#0f0e0e;stroke-miterlimit:10;stroke-width:0.2px;}.b{fill:#c6507a;}.c{fill:#ff6888;}.d{fill:#f4de48;}.e{fill:#554fb2;}.f{fill:#736dd9;}</style></defs><g transform="translate(0.1 -64.9)"><path class="a" d="M213.212,65h-3.547a.665.665,0,0,0-.665.665V68.5a.665.665,0,0,0,.665.665h3.547a.665.665,0,0,0,.665-.665V65.665A.665.665,0,0,0,213.212,65Z" transform="translate(-199.735)"/><path class="b" d="M373.211,65h-3.546a.665.665,0,0,0-.665.665V68.5a.665.665,0,0,0,.665.665h3.546a.665.665,0,0,0,.665-.665V65.665A.665.665,0,0,0,373.211,65Z" transform="translate(-352.642)"/><path class="c" d="M191.851,128.665v6.384a.665.665,0,0,1-.665.665H177.665a.665.665,0,0,1-.665-.665v-6.384a.665.665,0,0,1,.665-.665h13.521A.665.665,0,0,1,191.851,128.665Z" transform="translate(-169.153 -60.207)"/><path class="a" d="M351.448,128.665v6.384a.665.665,0,0,1-.665.665H344V128h6.783A.665.665,0,0,1,351.448,128.665Z" transform="translate(-328.75 -60.207)"/><path class="d" d="M336.448,273h-6.783a.665.665,0,0,0-.665.665v6.384a.665.665,0,0,0,.665.665h6.783a.665.665,0,0,0,.665-.665v-6.384A.665.665,0,0,0,336.448,273Z" transform="translate(-314.415 -198.779)"/><path class="e" d="M37.212,209H33.665a.665.665,0,0,0-.665.665V212.5a.665.665,0,0,0,.665.665h3.547a.665.665,0,0,0,.665-.665v-2.837A.665.665,0,0,0,37.212,209Z" transform="translate(-31.537 -137.616)"/><path class="f" d="M15.915,273.665v6.384a.665.665,0,0,1-.665.665H.665A.665.665,0,0,1,0,280.049v-6.384A.665.665,0,0,1,.665,273H15.25A.665.665,0,0,1,15.915,273.665Z" transform="translate(0 -198.779)"/><path class="e" d="M184.113,273.665v6.384a.665.665,0,0,1-.665.665H176V273h7.448A.665.665,0,0,1,184.113,273.665Z" transform="translate(-168.198 -198.779)"/></g></svg>