<svg xmlns="http://www.w3.org/2000/svg" width="149.845" height="120.419" viewBox="0 0 149.845 120.419"><defs><style>.a{fill:#ff9f40;}.b{opacity:0.3;}.c{fill:#390075;}.d{opacity:0.55;}.e{fill:#fff;}.f{fill:#f7c414;}.g{opacity:0.6;}.h{opacity:0.7;}.i{fill:#30ce52;}.j{opacity:0.2;}.k{fill:#428af9;}.l{fill:#8a423a;}.m{fill:#ffb78a;}.n{fill:#f75cb8;}.o{fill:#b8c5d3;}.p{opacity:0.8;}.q{fill:#c7d3e3;}.r{opacity:0.1;}</style></defs><g transform="translate(-275.814 -340.238)"><g transform="translate(291.885 449.361)"><rect class="a" width="118.279" height="5.877" rx="2.938" transform="translate(0)"/></g><g class="b" transform="translate(291.885 450.132)"><path class="c" d="M931.213,3180.167a2.936,2.936,0,0,1-2.932,2.807h-112.4a2.924,2.924,0,0,1-1.979-.771c0,.043-.007.087-.007.131a2.938,2.938,0,0,0,2.939,2.938h112.4a2.935,2.935,0,0,0,1.98-5.105Z" transform="translate(-813.893 -3180.167)"/></g><g class="d" transform="translate(291.885 449.361)"><path class="e" d="M932.1,3166.914a2.928,2.928,0,0,0-1.842-.65h-112.4a2.934,2.934,0,0,0-2.939,2.939,3,3,0,0,0,.071.649,2.939,2.939,0,0,1,1.842-5.23h112.4A2.938,2.938,0,0,1,932.1,3166.914Z" transform="translate(-813.893 -3164.622)"/></g><g transform="translate(291.221 448.697)"><path class="c" d="M916.512,3158.441H804.11a3.6,3.6,0,1,1,0-7.2h112.4a3.6,3.6,0,0,1,0,7.2Zm-112.4-5.876a2.274,2.274,0,1,0,0,4.549h112.4a2.274,2.274,0,1,0,0-4.549Z" transform="translate(-800.507 -3151.236)"/></g><g transform="translate(389.072 435.296)"><path class="f" d="M2786.97,2884.566v7c0,.122,0,.246-.01.367-.01.158-.027.319-.047.474h0a5.884,5.884,0,0,1-1.219,2.843,1.7,1.7,0,0,1-.114.148,5.963,5.963,0,0,1-10.534-3.831v-7a.983.983,0,0,1,.982-.981h9.966A.982.982,0,0,1,2786.97,2884.566Z" transform="translate(-2774.92 -2883.465)"/><path class="c" d="M2778.692,2895.339a6.092,6.092,0,0,1-6.085-6.085v-7a1.1,1.1,0,0,1,1.1-1.1h9.966a1.1,1.1,0,0,1,1.1,1.1v7c0,.123,0,.25-.01.373-.01.161-.028.325-.048.483l-.019.1a6.024,6.024,0,0,1-1.229,2.8,1.668,1.668,0,0,1-.117.152A6.068,6.068,0,0,1,2778.692,2895.339Zm-4.983-13.945a.863.863,0,0,0-.861.861v7a5.842,5.842,0,0,0,10.321,3.753,1.6,1.6,0,0,0,.106-.137,5.788,5.788,0,0,0,1.2-2.792l.016-.1c.014-.119.026-.24.033-.361s.01-.24.01-.359v-7a.862.862,0,0,0-.86-.861Z" transform="translate(-2772.607 -2881.153)"/></g><g class="b" transform="translate(393.189 435.417)"><path class="c" d="M2862.786,2884.566v7c0,.122,0,.246-.01.367-.01.158-.027.319-.047.474h0a5.882,5.882,0,0,1-1.22,2.843,1.57,1.57,0,0,1-.115.148,5.947,5.947,0,0,1-4.569,2.134,6.024,6.024,0,0,1-1.24-.128,5.965,5.965,0,0,0,3.343-2.006,1.656,1.656,0,0,0,.115-.148,5.886,5.886,0,0,0,1.22-2.843h0c.021-.155.037-.316.047-.474.007-.121.01-.245.01-.367v-7a.983.983,0,0,0-.981-.981h2.466A.982.982,0,0,1,2862.786,2884.566Z" transform="translate(-2855.582 -2883.585)"/></g><g class="g" transform="translate(386.284 414.832)"><path class="e" d="M2726.65,2487.274a1.443,1.443,0,0,0,.038-.417c0-.139,0-.28-.01-.42-.012-.281-.031-.561-.052-.841l-.064-.84-.018-.21-.009-.1-.013-.093a1.232,1.232,0,0,0-.108-.351,1.279,1.279,0,0,0-1.122-.738h-.086l-.1,0-.211.009-.422.019-.844.038-3.375.12-.422.015-.211.008c-.07,0-.164,0-.245,0a3.077,3.077,0,0,1-2.519-1.513,3.236,3.236,0,0,1-.376-.96,3.163,3.163,0,0,1,.856-2.89,3.219,3.219,0,0,1,1.867-.923c.088-.015.176-.014.264-.021l.13-.007h.105l.422-.006.844-.011,3.374-.029,3.375-.01,3.374.009.844.007h.316c.036,0,.074,0,.093,0,.048,0,.1,0,.145-.007s.1-.014.144-.02a1.6,1.6,0,0,0,1.273-1.717,1.631,1.631,0,0,0-1.037-1.361.839.839,0,0,0-.145-.048l-.073-.022-.075-.013a.911.911,0,0,0-.152-.02c-.055,0-.091-.011-.17-.011l-1.687-.043c-1.125-.031-2.25-.051-3.375-.092l-1.687-.06-.844-.03-.105,0-.131-.01a1.89,1.89,0,0,1-.26-.042,1.929,1.929,0,0,1-.487-.194,1.865,1.865,0,0,1-.709-.736,1.792,1.792,0,0,1-.2-.98,1.772,1.772,0,0,1,.337-.92,1.863,1.863,0,0,1,.342-.347,1.837,1.837,0,0,1,.42-.233,1.672,1.672,0,0,1,.463-.106,2.033,2.033,0,0,1,.234-.005l.211.011a2.1,2.1,0,0,0,.395,0,1.431,1.431,0,0,0,.982-.6,1.364,1.364,0,0,0,.183-.365,1.562,1.562,0,0,0,.081-.41,1.5,1.5,0,0,1-.167.833,1.58,1.58,0,0,1-.606.638,1.6,1.6,0,0,1-.423.17,2.4,2.4,0,0,1-.446.054l-.211.011a1.554,1.554,0,0,0-.186.026,1.248,1.248,0,0,0-.346.12,1.365,1.365,0,0,0-.295.208,1.522,1.522,0,0,0-.224.276,1.245,1.245,0,0,0-.177.663,1.186,1.186,0,0,0,.684,1.057,1.367,1.367,0,0,0,.3.094,1.214,1.214,0,0,0,.157.012h.08l.105,0,.844-.03,1.687-.06c1.125-.041,2.25-.06,3.375-.092l1.687-.043c.061,0,.165,0,.25,0a2.039,2.039,0,0,1,.267.026l.134.02.131.031a1.793,1.793,0,0,1,.259.075,2.916,2.916,0,0,1,1.952,2.4,2.965,2.965,0,0,1-2.328,3.265l-.274.043c-.092.011-.184.013-.276.019-.051,0-.083,0-.118,0h-.105l-.211,0-.844.006-3.374.009-3.375-.01-3.374-.029-.844-.01-.422-.006-.105,0-.082,0c-.052,0-.1,0-.156.008a1.93,1.93,0,0,0-1.711,1.61,2.008,2.008,0,0,0-.007.644,2.07,2.07,0,0,0,.205.615,2.048,2.048,0,0,0,.948.9,2.1,2.1,0,0,0,.648.172c.059,0,.106.011.177.013l.211.008.422.015,3.375.121.844.037.422.019.211.01.106,0,.125.011a1.744,1.744,0,0,1,.906.372,1.7,1.7,0,0,1,.642,1.246l0,.117,0,.105,0,.212c-.008.282-.016.564-.029.846s-.031.564-.055.846c-.013.141-.025.282-.044.423A1.488,1.488,0,0,1,2726.65,2487.274Z" transform="translate(-2716.41 -2468.727)"/></g><g class="h" transform="translate(389.193 435.417)"><path class="e" d="M2782.037,2897.442a6.157,6.157,0,0,1-1.032.087,5.966,5.966,0,0,1-5.964-5.965v-7a.983.983,0,0,1,.982-.981h2.056a.983.983,0,0,0-.981.981v7A5.968,5.968,0,0,0,2782.037,2897.442Z" transform="translate(-2775.041 -2883.585)"/></g><g transform="translate(399.604 436.778)"><path class="f" d="M2995.912,2917.327v.981a3.867,3.867,0,0,1-2.013,3.4l-2.771,1.579a2.618,2.618,0,0,1-1.482.346,5.876,5.876,0,0,0,1.22-2.843h0c.021-.154.037-.316.047-.474l1.673-.954a1.194,1.194,0,0,0,.635-1.052v-.981a1.192,1.192,0,0,0-1.189-1.189h-1.109v-2.688h1.109A3.879,3.879,0,0,1,2995.912,2917.327Z" transform="translate(-2989.407 -2913.329)"/><path class="c" d="M2985.273,2921.445q-.09,0-.18-.007l-.23-.015.143-.18a5.763,5.763,0,0,0,1.195-2.785l.017-.1c.014-.119.025-.241.033-.361l0-.065,1.73-.987a1.07,1.07,0,0,0,.573-.947v-.981a1.07,1.07,0,0,0-1.068-1.069h-1.229v-2.929h1.229a4,4,0,0,1,4,4V2916a3.986,3.986,0,0,1-2.076,3.5l-2.77,1.579A2.758,2.758,0,0,1,2985.273,2921.445Zm1.151-2.849a6.006,6.006,0,0,1-1.084,2.606,2.515,2.515,0,0,0,1.183-.335l2.771-1.58a3.745,3.745,0,0,0,1.952-3.292v-.981a3.761,3.761,0,0,0-3.757-3.757h-.989v2.448h.989a1.311,1.311,0,0,1,1.31,1.31V2916a1.308,1.308,0,0,1-.7,1.158l-1.616.921c-.01.14-.025.281-.043.416Z" transform="translate(-2984.863 -2911.016)"/></g><g transform="translate(388.468 434.692)"><path class="c" d="M2767.128,2884.378a6.7,6.7,0,0,1-6.689-6.689v-7a1.708,1.708,0,0,1,1.706-1.706h9.966a1.707,1.707,0,0,1,1.706,1.706v7c0,.135,0,.272-.011.407-.01.169-.028.344-.052.526a.69.69,0,0,1-.014.079,6.618,6.618,0,0,1-1.342,3.1c-.042.061-.091.123-.148.191A6.666,6.666,0,0,1,2767.128,2884.378Zm-4.983-13.945a.257.257,0,0,0-.257.257v7a5.239,5.239,0,0,0,9.254,3.366.743.743,0,0,0,.066-.084c.011-.016.024-.033.036-.048a5.172,5.172,0,0,0,1.07-2.493c0-.021.007-.041.011-.06.014-.12.027-.241.034-.361.006-.1.008-.213.008-.32v-7a.257.257,0,0,0-.257-.257Zm10.89,8.1h0Z" transform="translate(-2760.439 -2868.985)"/></g><g transform="translate(399.116 436.174)"><g transform="translate(0)"><path class="c" d="M2975.939,2910.483c-.074,0-.147,0-.221-.007a.725.725,0,0,1-.52-1.173,5.167,5.167,0,0,0,1.07-2.493c0-.021.007-.041.011-.06.014-.118.026-.24.034-.36a.722.722,0,0,1,.364-.583l1.673-.955a.479.479,0,0,0,.27-.422v-.981a.465.465,0,0,0-.465-.465h-1.109a.724.724,0,0,1-.724-.725v-2.688a.724.724,0,0,1,.724-.724h1.109a4.607,4.607,0,0,1,4.6,4.6v.981a4.59,4.59,0,0,1-2.389,4.033l-2.76,1.573A3.351,3.351,0,0,1,2975.939,2910.483Zm1.753-3.4a6.532,6.532,0,0,1-.4,1.463l2.367-1.348a3.149,3.149,0,0,0,1.646-2.768v-.981a3.157,3.157,0,0,0-3.153-3.153h-.384v1.239h.384a1.916,1.916,0,0,1,1.914,1.914v.981a1.927,1.927,0,0,1-1.011,1.687l-1.334.761-.016.125A.8.8,0,0,1,2977.693,2907.084Z" transform="translate(-2975.042 -2898.848)"/></g></g><g transform="translate(297.868 393.299)"><g transform="translate(5.547 0.704)"><path class="i" d="M1046.277,2060.653l.121.615,4.854,24.694c-.04-2.317,1.276-4.407,2.438-6.413a16.057,16.057,0,0,0,1.51-3.233,6.224,6.224,0,0,0,.208-3.326,28.041,28.041,0,0,0-1.636-3.69c-1.87-4.714,1.217-10.165-.121-15.059a8.671,8.671,0,0,0-3.543-4.892,1.692,1.692,0,0,0-1.438-.36c-.857.311-.773,1.528-.618,2.426A13.485,13.485,0,0,1,1046.277,2060.653Z" transform="translate(-1046.277 -2048.93)"/></g><g class="j" transform="translate(5.669 11.282)"><path class="c" d="M1048.718,2263.362l4.854,24.694c-.041-2.317,1.276-4.407,2.438-6.414a16.056,16.056,0,0,0,1.509-3.233c-.127-.277-.267-.55-.416-.817-1.146-2.031-2.854-3.73-3.786-5.87a9.164,9.164,0,0,1-.665-4.932,13.662,13.662,0,0,0,.317-2.448,2.335,2.335,0,0,0-1.14-2.059,2.676,2.676,0,0,0-2.777.754C1048.935,2263.145,1048.824,2263.25,1048.718,2263.362Z" transform="translate(-1048.718 -2262.122)"/></g><g class="d" transform="translate(5.547 0.704)"><path class="e" d="M1046.277,2060.653l.214,1.087h1.562l-.049-.258a13.479,13.479,0,0,0,1.77-9.243c-.155-.9-.236-2.112.621-2.423a.9.9,0,0,1,.276-.056c-.183-.149-.373-.285-.565-.413a1.692,1.692,0,0,0-1.438-.36c-.857.311-.773,1.528-.618,2.426A13.485,13.485,0,0,1,1046.277,2060.653Z" transform="translate(-1046.277 -2048.93)"/></g><g transform="translate(4.842)"><path class="c" d="M1037.749,2073.185a.7.7,0,0,1-.7-.692c-.04-2.366,1.156-4.414,2.311-6.394l.224-.384c1.08-1.86,2.119-4.033,1.641-6.045a9.207,9.207,0,0,0-.887-2.086,16.07,16.07,0,0,1-.719-1.5c-1.057-2.662-.642-5.5-.241-8.248.354-2.425.688-4.715.1-6.885a7.984,7.984,0,0,0-3.253-4.491c-.492-.326-.718-.319-.81-.286-.265.1-.327.71-.166,1.643a14.228,14.228,0,0,1-1.866,9.729.7.7,0,1,1-1.2-.736,12.8,12.8,0,0,0,1.679-8.754c-.3-1.759.057-2.837,1.073-3.206a2.392,2.392,0,0,1,2.068.435,9.413,9.413,0,0,1,3.834,5.294c.671,2.454.3,5-.06,7.461-.391,2.681-.761,5.213.156,7.525a14.681,14.681,0,0,0,.659,1.371,10.44,10.44,0,0,1,1.009,2.413c.592,2.494-.575,4.977-1.793,7.077l-.226.387c-1.058,1.813-2.153,3.688-2.119,5.661a.7.7,0,0,1-.692.716Z" transform="translate(-1032.07 -2034.745)"/></g><g transform="translate(1.153 12.417)"><path class="i" d="M968.562,2312.326a12.64,12.64,0,0,0-.17-11.866c-1.144-2.032-2.853-3.73-3.784-5.868a9.166,9.166,0,0,1-.665-4.932,13.66,13.66,0,0,0,.314-2.448,2.327,2.327,0,0,0-1.138-2.058,2.676,2.676,0,0,0-2.778.756,8.555,8.555,0,0,0-2.624,6.376,15.388,15.388,0,0,0,1.826,6.8c.761,1.526,1.7,3.093,1.58,4.794-.111,1.559-1.1,2.894-1.808,4.285s-1.138,3.186-.2,4.44" transform="translate(-957.719 -2284.991)"/></g><g class="d" transform="translate(1.153 12.416)"><path class="e" d="M959.3,2308.156c-.711,1.391-1.137,3.186-.2,4.441l1.674-.05c-.888-1.252-.466-3.019.236-4.392.714-1.392,1.7-2.727,1.811-4.286.121-1.7-.82-3.267-1.581-4.792a15.4,15.4,0,0,1-1.826-6.8,8.562,8.562,0,0,1,2.624-6.379,3.971,3.971,0,0,1,1.134-.721.65.65,0,0,0-.065-.034,2.678,2.678,0,0,0-2.777.755,8.563,8.563,0,0,0-2.624,6.379,15.4,15.4,0,0,0,1.826,6.8c.761,1.525,1.7,3.094,1.581,4.792C961,2305.43,960.018,2306.765,959.3,2308.156Z" transform="translate(-957.708 -2284.984)"/></g><g transform="translate(0.45 11.712)"><path class="c" d="M945.633,2299.812a.7.7,0,0,1-.565-.283c-.947-1.271-.9-3.159.141-5.182.172-.335.359-.667.539-.987a7.542,7.542,0,0,0,1.193-3.027,7.656,7.656,0,0,0-1.218-3.86c-.1-.19-.195-.38-.289-.569a15.857,15.857,0,0,1-1.9-7.114,9.181,9.181,0,0,1,2.86-6.9,3.273,3.273,0,0,1,3.549-.865,3.026,3.026,0,0,1,1.538,2.667,8.366,8.366,0,0,1-.2,1.87c-.043.235-.087.469-.121.705a8.517,8.517,0,0,0,.613,4.551,17.513,17.513,0,0,0,2.05,3.271,25.75,25.75,0,0,1,1.7,2.533,13.416,13.416,0,0,1,.179,12.538.7.7,0,0,1-1.246-.655,11.976,11.976,0,0,0-.16-11.192,24.121,24.121,0,0,0-1.611-2.392,18.815,18.815,0,0,1-2.2-3.54,9.8,9.8,0,0,1-.716-5.314c.036-.254.083-.508.13-.76a7.239,7.239,0,0,0,.177-1.56,1.676,1.676,0,0,0-.738-1.451c-.616-.293-1.466.165-2.006.646a7.886,7.886,0,0,0-2.389,5.852,14.5,14.5,0,0,0,1.752,6.484c.092.186.187.371.282.557a8.792,8.792,0,0,1,1.369,4.6,8.69,8.69,0,0,1-1.371,3.618c-.182.324-.354.628-.513.939-.37.722-1.137,2.528-.265,3.7a.7.7,0,0,1-.564,1.125Z" transform="translate(-943.535 -2270.791)"/></g><g transform="translate(0.704 39.446)"><path class="k" d="M954.184,2846.363H957a5.146,5.146,0,0,0,5.143-4.954l.381-10.185a1.423,1.423,0,0,0-1.422-1.477H950.083a1.423,1.423,0,0,0-1.422,1.477l.381,10.185A5.146,5.146,0,0,0,954.184,2846.363Z" transform="translate(-948.659 -2829.748)"/></g><g class="b" transform="translate(5.786 39.136)"><path class="c" d="M1051.092,2840.1h2.86a5.149,5.149,0,0,0,5.143-4.953l.379-10.187a1.423,1.423,0,0,0-1.422-1.476h-2.9a1.423,1.423,0,0,1,1.422,1.476l-.382,10.187A5.143,5.143,0,0,1,1051.092,2840.1Z" transform="translate(-1051.092 -2823.488)"/></g><g class="d" transform="translate(0.704 39.446)"><path class="e" d="M948.673,2831.223l.379,10.186a5.149,5.149,0,0,0,5.143,4.954h1.864a5.149,5.149,0,0,1-5.143-4.954l-.379-10.186a1.423,1.423,0,0,1,1.423-1.476H950.1A1.423,1.423,0,0,0,948.673,2831.223Z" transform="translate(-948.672 -2829.748)"/></g><g transform="translate(0 38.742)"><path class="c" d="M943.521,2833.585H940.7a5.831,5.831,0,0,1-5.846-5.631l-.381-10.186a2.126,2.126,0,0,1,2.125-2.206h11.021a2.126,2.126,0,0,1,2.125,2.206l-.381,10.186A5.83,5.83,0,0,1,943.521,2833.585Zm-6.92-16.616a.72.72,0,0,0-.719.747l.381,10.186a4.428,4.428,0,0,0,4.439,4.276h2.819a4.428,4.428,0,0,0,4.439-4.277l.381-10.185a.72.72,0,0,0-.719-.747Z" transform="translate(-934.474 -2815.562)"/></g><g transform="translate(0.795 42.625)"><path class="c" d="M964.179,2895.219l-13.686-.7,13.686-.7Z" transform="translate(-950.493 -2893.811)"/></g><g transform="translate(6.306 25.608)"><path class="c" d="M1061.567,2550.858a15.906,15.906,0,0,1,2.349,2.882,6.706,6.706,0,0,1,.728,1.762,4.906,4.906,0,0,1,.095,1.955,23.714,23.714,0,0,1-1.19,3.55,5.142,5.142,0,0,0-.257,1.633,2.23,2.23,0,0,0,.43,1.343.705.705,0,1,1-1.1.877.668.668,0,0,1-.042-.06l-.014-.022a3.559,3.559,0,0,1-.5-2.17,6.273,6.273,0,0,1,.5-1.967,24.316,24.316,0,0,0,1.49-3.322,5.126,5.126,0,0,0-.444-3.417A15.752,15.752,0,0,0,1061.567,2550.858Z" transform="translate(-1061.567 -2550.858)"/></g></g><g transform="translate(330.119 371.941)"><path class="l" d="M1589.928,1607.4a43.327,43.327,0,0,0-5.448,22.575l38.01-.929c4.651-8.3,4.336-19.237.032-24.746Z" transform="translate(-1584.469 -1604.299)"/></g><g class="d" transform="translate(330.388 371.94)"><path class="e" d="M1596.787,1607.613a43.262,43.262,0,0,0-5.452,22.3l-1.442.034a43.357,43.357,0,0,1,5.449-22.576l32.593-3.1c.089.117.179.234.265.354Z" transform="translate(-1589.882 -1604.271)"/></g><g transform="translate(329.455 371.278)"><path class="c" d="M1571.761,1617.923a.665.665,0,0,1-.664-.65,44.183,44.183,0,0,1,5.533-22.915.666.666,0,0,1,.516-.336l32.594-3.1a.67.67,0,0,1,.586.252c2.208,2.827,3.445,6.992,3.483,11.729a28.088,28.088,0,0,1-3.459,13.751.663.663,0,0,1-.563.339l-38.01.928Zm5.858-22.611a42.774,42.774,0,0,0-5.2,21.267l36.958-.9c4.087-7.586,4.137-17.9.124-23.395Z" transform="translate(-1571.086 -1590.921)"/></g><g transform="translate(326.484 384.653)"><path class="m" d="M1562.8,1890.412h-49.079a42.317,42.317,0,0,1,3.773-13.677,9.272,9.272,0,0,1,6.019-4.8l10.763-2.7.293-.074a1.755,1.755,0,0,0,1.328-1.623l.08-1.642s4.072-5.868,7.938-.881v1.925a1.852,1.852,0,0,0,1.032,1.66l2.023,1,1.768.875,1.882.933.314.154,3.7,1.83,1.931.955.989.49a6.092,6.092,0,0,1,3.1,3.589,48.841,48.841,0,0,1,1.987,10.036Q1562.727,1889.43,1562.8,1890.412Z" transform="translate(-1513.592 -1862.887)"/><path class="c" d="M1560.4,1888.14h-49.079a.125.125,0,0,1-.124-.141,42.638,42.638,0,0,1,3.786-13.717,9.387,9.387,0,0,1,6.1-4.864l11.055-2.77a1.637,1.637,0,0,0,1.234-1.508l.08-1.642a.125.125,0,0,1,.022-.065c.081-.117,2.024-2.876,4.549-2.942a4.439,4.439,0,0,1,3.59,2.056.125.125,0,0,1,.026.077v1.925a1.718,1.718,0,0,0,.963,1.548l12.6,6.238a6.251,6.251,0,0,1,3.159,3.662,49.189,49.189,0,0,1,1.992,10.062c.064.641.121,1.3.167,1.947a.125.125,0,0,1-.125.134Zm-48.937-.25h48.8c-.044-.6-.1-1.211-.156-1.806a48.906,48.906,0,0,0-1.981-10.01,6,6,0,0,0-3.032-3.515l-12.6-6.238a1.966,1.966,0,0,1-1.1-1.772v-1.882a4.188,4.188,0,0,0-3.359-1.926c-2.266.059-4.118,2.513-4.331,2.807l-.078,1.6a1.889,1.889,0,0,1-1.422,1.738l-.292.074-10.763,2.7a9.138,9.138,0,0,0-5.938,4.734A42.217,42.217,0,0,0,1511.463,1887.89Z" transform="translate(-1511.196 -1860.49)"/></g><g class="d" transform="translate(326.609 391.023)"><path class="e" d="M1534.213,1988.876a1.376,1.376,0,0,1-1.005,1.647l-8.075,2.022a9.271,9.271,0,0,0-6.019,4.8,41.182,41.182,0,0,0-3.641,12.675h-1.756a42.317,42.317,0,0,1,3.773-13.677,9.271,9.271,0,0,1,6.019-4.8l10.7-2.68Z" transform="translate(-1513.717 -1988.864)"/></g><g class="b" transform="translate(347.164 384.778)"><path class="c" d="M1940.68,1869.608a15.421,15.421,0,0,1-12.694-.367l.293-.074a1.755,1.755,0,0,0,1.328-1.623l.08-1.642s4.072-5.868,7.938-.881v1.925a1.852,1.852,0,0,0,1.032,1.66Z" transform="translate(-1927.986 -1863.012)"/></g><g transform="translate(335.811 392.552)"><path class="n" d="M1730.885,2022.31v17.015h-31.707l.59-18.476,4.6-1.151c7.093,11.606,14.592,14.361,22.838.792Z" transform="translate(-1699.178 -2019.698)"/></g><g class="b" transform="translate(363.619 393.336)"><path class="c" d="M2271.688,2054.33h-8.249l-2.785-11.589s-1.586-4.02-.832-7.254l3.7,1.83,1.931.955c.006.41.034.82.077,1.226a14.08,14.08,0,0,0,1.777,5.5l4.217,7.39C2271.586,2053.027,2271.641,2053.673,2271.688,2054.33Z" transform="translate(-2259.618 -2035.487)"/></g><g class="d" transform="translate(335.81 392.553)"><path class="e" d="M1704.344,2019.719c.259.422.518.835.776,1.232l-3.779.946-.558,17.447h-1.629l.591-18.476Z" transform="translate(-1699.154 -2019.719)"/></g><g class="d" transform="translate(349.135 393.342)"><path class="e" d="M1986.1,2037.435v.237l-2.088-1.032c-5.757,9.472-11.151,10.991-16.3,7.091,4.664,2.477,9.537.382,14.7-8.12Z" transform="translate(-1967.718 -2035.612)"/></g><g transform="translate(335.147 391.888)"><path class="c" d="M1718.165,2027.27h-31.707a.664.664,0,0,1-.664-.685l.59-18.476a.664.664,0,0,1,.5-.623l4.6-1.151a.664.664,0,0,1,.728.3c3.878,6.347,7.652,9.565,11.215,9.565h.007c3.42,0,6.947-2.956,10.481-8.772a.664.664,0,0,1,.862-.251l3.681,1.821a.664.664,0,0,1,.37.6v17.014A.664.664,0,0,1,1718.165,2027.27Zm-31.021-1.328H1717.5V2010l-2.769-1.37c-3.736,5.977-7.435,8.887-11.295,8.892h-.009c-4.031,0-7.988-3.2-12.091-9.785l-3.641.912Z" transform="translate(-1685.793 -2006.315)"/></g><g transform="translate(325.945 384.114)"><path class="c" d="M1550.073,1878.367h-49.079a.664.664,0,0,1-.659-.747,43.113,43.113,0,0,1,3.84-13.893,9.9,9.9,0,0,1,6.45-5.145l11.054-2.769a1.1,1.1,0,0,0,.827-1.01l.08-1.644a.666.666,0,0,1,.118-.347c.088-.126,2.184-3.1,4.98-3.174a4.958,4.958,0,0,1,4.03,2.264.665.665,0,0,1,.139.407v1.926a1.18,1.18,0,0,0,.661,1.064l12.605,6.238a6.8,6.8,0,0,1,3.433,3.981,52,52,0,0,1,2.184,12.137.664.664,0,0,1-.663.711Zm-48.322-1.328h47.6a49.775,49.775,0,0,0-2.069-11.112,5.465,5.465,0,0,0-2.758-3.2l-12.606-6.238a2.5,2.5,0,0,1-1.4-2.255v-1.693a3.628,3.628,0,0,0-2.737-1.577h-.065c-1.823.045-3.4,1.917-3.819,2.459l-.07,1.441A2.408,2.408,0,0,1,1522,1857.1l-11.055,2.769a8.578,8.578,0,0,0-5.587,4.453A40.908,40.908,0,0,0,1501.751,1877.038Z" transform="translate(-1500.33 -1849.638)"/></g><g transform="translate(334.567 353.749)"><path class="m" d="M1709.557,1253.41v7.707a13.46,13.46,0,0,1-1.4,6.053,14.025,14.025,0,0,1-11.69,7.956,16.434,16.434,0,0,1-8.727-1.777,10.577,10.577,0,0,1-5.289-6.373l-1.026-3.348c-4.6,0-6.09-6.709-3.373-8.69a3.048,3.048,0,0,1,1.987-.542.05.05,0,0,1,.021,0c9.214.792,18.109-5.6,18.716-14.231.382,1.124.786,2.178,1.223,3.16a22.248,22.248,0,0,0,3.167,5.286A17.362,17.362,0,0,0,1709.557,1253.41Z" transform="translate(-1676.568 -1240.039)"/><path class="c" d="M1692.81,1272.9a16.383,16.383,0,0,1-7.589-1.83,10.745,10.745,0,0,1-5.352-6.448l-1-3.261a4.884,4.884,0,0,1-4.437-3.633c-.7-2.137-.251-4.309,1.084-5.281a3.164,3.164,0,0,1,2.061-.566.151.151,0,0,1,.034,0,18.3,18.3,0,0,0,13.383-4.265,14.332,14.332,0,0,0,5.195-9.851.125.125,0,0,1,.243-.031c.4,1.172.8,2.2,1.219,3.15a22.09,22.09,0,0,0,3.149,5.257,17.31,17.31,0,0,0,6.347,4.765.125.125,0,0,1,.073.114v7.707a13.65,13.65,0,0,1-1.415,6.109,14.116,14.116,0,0,1-11.788,8.024Q1693.408,1272.9,1692.81,1272.9Zm-15.419-20.774a2.861,2.861,0,0,0-1.727.523c-1.248.91-1.656,2.967-.993,5a4.627,4.627,0,0,0,4.293,3.462.125.125,0,0,1,.119.088l1.025,3.348a10.5,10.5,0,0,0,5.226,6.3,16.264,16.264,0,0,0,8.662,1.764,13.876,13.876,0,0,0,11.586-7.888,13.392,13.392,0,0,0,1.388-6V1251.1a17.524,17.524,0,0,1-6.363-4.8,22.339,22.339,0,0,1-3.185-5.315c-.358-.8-.7-1.666-1.037-2.623a14.677,14.677,0,0,1-5.229,9.445,18.555,18.555,0,0,1-13.57,4.323h-.016Q1677.481,1252.122,1677.391,1252.122Z" transform="translate(-1674.108 -1237.646)"/></g><g class="b" transform="translate(342.627 365.724)"><path class="c" d="M1861.469,1480.386v7.707a13.461,13.461,0,0,1-1.4,6.053,14.026,14.026,0,0,1-11.69,7.957,16.433,16.433,0,0,1-8.726-1.777,10.245,10.245,0,0,1-3.111-2.433c.178.108.36.206.548.3a16.437,16.437,0,0,0,8.727,1.777,14.025,14.025,0,0,0,11.69-7.957,13.458,13.458,0,0,0,1.4-6.053v-6.971A19.119,19.119,0,0,0,1861.469,1480.386Z" transform="translate(-1836.54 -1478.991)"/></g><g class="d" transform="translate(334.695 368.17)"><path class="e" d="M1703.3,1546.6a15.2,15.2,0,0,1-6.851,2.35,16.433,16.433,0,0,1-8.726-1.777,10.577,10.577,0,0,1-5.289-6.373l-1.026-3.349c-5.129,0-6.395-8.347-2.261-9.167-1.909,2.163-.74,7.321,2.795,8.165a1.972,1.972,0,0,1,1.4,1.356l.647,2.111a10.573,10.573,0,0,0,5.289,6.373,16.432,16.432,0,0,0,8.726,1.777A15.884,15.884,0,0,0,1703.3,1546.6Z" transform="translate(-1676.676 -1528.283)"/></g><g transform="translate(334.031 353.211)"><path class="c" d="M1682.55,1263.127a16.91,16.91,0,0,1-7.829-1.889,11.284,11.284,0,0,1-5.622-6.771l-.89-2.9a5.159,5.159,0,0,1-4.017-2.768,6.308,6.308,0,0,1-.176-6.089,3.539,3.539,0,0,1,3.31-1.68c.024,0,.048,0,.072,0h0a17.756,17.756,0,0,0,12.99-4.137,13.8,13.8,0,0,0,5.007-9.479.664.664,0,0,1,1.291-.168c2.327,6.825,5.348,10.55,10.427,12.855a.664.664,0,0,1,.39.6v7.707a14.182,14.182,0,0,1-1.472,6.351,14.626,14.626,0,0,1-12.212,8.318l-.028,0Q1683.165,1263.126,1682.55,1263.127Zm-15.419-20.774a2.185,2.185,0,0,0-1.986,1.055,5.01,5.01,0,0,0,.208,4.743,3.825,3.825,0,0,0,3.355,2.11.665.665,0,0,1,.635.47l1.026,3.348a9.953,9.953,0,0,0,4.954,5.975,15.738,15.738,0,0,0,8.369,1.708,13.366,13.366,0,0,0,11.153-7.593,12.849,12.849,0,0,0,1.331-5.755v-7.283c-4.6-2.193-7.582-5.513-9.868-11.1a15.557,15.557,0,0,1-5.056,7.873,19.089,19.089,0,0,1-13.938,4.453h-.023C1667.237,1242.354,1667.184,1242.353,1667.131,1242.353Z" transform="translate(-1663.315 -1226.797)"/></g><g transform="translate(338.029 367.337)"><path class="c" d="M1744.128,1513.05a.755.755,0,0,1-.1-.006c-.052-.006-.1-.008-.151-.01l.064-1.539c.094,0,.183.009.277.021a.77.77,0,0,1-.094,1.534Z" transform="translate(-1743.881 -1511.495)"/></g><g transform="translate(367.432 366.421)"><path class="m" d="M2338.984,1502.589v-6.469c.24-.17.469-.345.687-.53C2343.6,1494.888,2343.913,1502.589,2338.984,1502.589Z" transform="translate(-2338.859 -1495.421)"/><path class="c" d="M2336.589,1500.333a.125.125,0,0,1-.125-.125v-6.469a.125.125,0,0,1,.052-.1c.241-.169.463-.341.679-.523a.121.121,0,0,1,.058-.027,2.374,2.374,0,0,1,2.432.929,4.343,4.343,0,0,1,.232,4.329A3.538,3.538,0,0,1,2336.589,1500.333Zm.125-6.529v6.277a3.282,3.282,0,0,0,2.981-1.849,4.081,4.081,0,0,0-.209-4.068,2.1,2.1,0,0,0-2.155-.838C2337.134,1493.492,2336.931,1493.649,2336.714,1493.8Z" transform="translate(-2336.464 -1493.039)"/></g><g transform="translate(366.893 365.88)"><path class="c" d="M2326.264,1490.52a.664.664,0,0,1-.664-.664v-6.469a.664.664,0,0,1,.282-.543c.227-.16.437-.322.64-.494a.665.665,0,0,1,.313-.147,2.892,2.892,0,0,1,2.959,1.137,4.9,4.9,0,0,1,.281,4.893A4.1,4.1,0,0,1,2326.264,1490.52Zm.665-6.795v5.408a2.68,2.68,0,0,0,1.959-1.494,3.569,3.569,0,0,0-.159-3.5,1.554,1.554,0,0,0-1.5-.648C2327.132,1483.569,2327.031,1483.647,2326.928,1483.725Z" transform="translate(-2325.6 -1482.148)"/></g><g transform="translate(358.937 362.915)"><path class="c" d="M2168.588,1423.9c.013,0,0-.006-.013-.01a.258.258,0,0,0-.038-.013.751.751,0,0,0-.089-.024c-.061-.017-.128-.025-.2-.036a2.275,2.275,0,0,0-.414-.01,2.309,2.309,0,0,0-.835.221,2.941,2.941,0,0,0-.756.553c-.121.111-.216.248-.329.374-.1.137-.19.281-.288.424l-.013.019a.193.193,0,0,1-.342-.17c.06-.175.115-.354.181-.531a5.61,5.61,0,0,1,.25-.517,3.768,3.768,0,0,1,.745-.941,3.43,3.43,0,0,1,1.094-.649,3.6,3.6,0,0,1,.636-.167c.11-.015.221-.031.337-.036.056,0,.116-.006.177-.005.029,0,.06,0,.094,0a1.157,1.157,0,0,1,.119.011.77.77,0,0,1-.32,1.506Z" transform="translate(-2165.266 -1422.379)"/></g><g transform="translate(338.769 374.117)"><path class="c" d="M1758.789,1651.481l.013-3.194a.135.135,0,0,1,.262-.043l1.036,3.021a.674.674,0,0,1-1.274.437A.691.691,0,0,1,1758.789,1651.481Z" transform="translate(-1758.789 -1648.153)"/></g><g transform="translate(341.72 366.95)"><path class="c" d="M1819.529,1503.759c.254.095.569.188.862.268s.6.156.907.218a13.07,13.07,0,0,0,1.849.261,8.995,8.995,0,0,0,1.857-.058,5.5,5.5,0,0,0,1.759-.574l.008,0a.185.185,0,0,1,.206.306,6.032,6.032,0,0,1-1.791.989,9.864,9.864,0,0,1-2,.451,14.331,14.331,0,0,1-2.044.1c-.342,0-.683-.021-1.025-.048s-.672-.057-1.049-.119h-.009a.929.929,0,0,1,.3-1.834A.972.972,0,0,1,1819.529,1503.759Z" transform="translate(-1818.276 -1503.7)"/></g><g transform="translate(332.349 340.906)"><path class="l" d="M1669.241,995.775c-.514,4.158-1.824,7.282-4.62,9.241-5.545-2.517-8.523-6.623-10.781-13.245-.607,8.634-9.5,15.023-18.716,14.231a.05.05,0,0,0-.021,0c-.015,0-.034,0-.052,0-.12-.012-.24-.025-.357-.043a6.145,6.145,0,0,1-4.229-2.726,6.318,6.318,0,0,1-1.044-3.718c.523-15,15.094-27.819,27.347-16.212l2.144-.986a3.571,3.571,0,0,1,4.152.838c.551.616,1.072,1.241,1.559,1.882A22.292,22.292,0,0,1,1669.241,995.775Z" transform="translate(-1629.415 -978.803)"/></g><g class="j" transform="translate(336.05 353.874)"><path class="c" d="M1724.72,1240.164c.382,1.124.785,2.178,1.223,3.16-1.337,7.984-9.808,13.717-18.565,12.965-.006,0-.012,0-.022,0s-.034,0-.052,0c-.12-.012-.24-.025-.358-.043a6.087,6.087,0,0,1-2.951-1.306,3.049,3.049,0,0,1,1.987-.542.051.051,0,0,1,.022,0C1715.218,1255.187,1724.114,1248.8,1724.72,1240.164Z" transform="translate(-1703.996 -1240.164)"/></g><g class="d" transform="translate(332.35 340.906)"><path class="e" d="M1663.616,983.784a3.6,3.6,0,0,0-3.327-.16l-2.144.986c-12.257-11.607-26.823,1.214-27.35,16.212a6.345,6.345,0,0,0,1.321,4.106,6.332,6.332,0,0,1-2.692-5.415c.524-15,15.094-27.819,27.347-16.212l2.144-.986a3.571,3.571,0,0,1,4.152.838C1663.255,983.362,1663.437,983.571,1663.616,983.784Z" transform="translate(-1629.42 -978.803)"/></g><g transform="translate(331.685 340.238)"><path class="c" d="M1623.963,993.946q-.8,0-1.593-.067l-.047,0-.057,0a6.915,6.915,0,0,1-6.237-7.173c.316-9.028,5.522-17.374,12.66-20.3,5.269-2.158,10.75-.977,15.479,3.323l1.74-.8a4.258,4.258,0,0,1,4.924,1,24,24,0,0,1,6.343,12.977.677.677,0,0,1,0,.171c-.531,4.278-1.854,7.181-4.164,9.136-.234.2-.474.383-.734.566a.663.663,0,0,1-.657.062c-4.825-2.19-7.908-5.538-10.257-11.282a15.561,15.561,0,0,1-5.056,7.873A19.074,19.074,0,0,1,1623.963,993.946Zm-1.508-1.393h0a17.754,17.754,0,0,0,12.989-4.137,13.8,13.8,0,0,0,5.007-9.479.664.664,0,0,1,1.291-.168c2.272,6.667,5.208,10.375,10.076,12.692.115-.088.225-.177.334-.269,2.025-1.714,3.2-4.321,3.693-8.2a22.75,22.75,0,0,0-6-12.184,2.921,2.921,0,0,0-3.379-.677l-2.144.986a.664.664,0,0,1-.734-.121c-4.4-4.169-9.512-5.364-14.393-3.365-6.564,2.689-11.542,10.728-11.835,19.116a5.586,5.586,0,0,0,5.027,5.8h.018Z" transform="translate(-1616.024 -965.347)"/></g><g transform="translate(364.202 378.396)"><path class="m" d="M2274.468,1746.937l.87-2.471a3.55,3.55,0,0,0-.344-3.069l-.624-.992a3.243,3.243,0,0,1-.389-2.558l.121-.453a.655.655,0,0,1,1.173-.2l3.049,4.462a1.927,1.927,0,0,1,.269,1.592l-1.335,4.916" transform="translate(-2273.749 -1736.782)"/><path class="c" d="M2274.878,1745.9a.117.117,0,0,1-.032,0,.124.124,0,0,1-.088-.153l1.334-4.917a1.8,1.8,0,0,0-.251-1.489l-3.049-4.461a.529.529,0,0,0-.949.163l-.12.453a3.127,3.127,0,0,0,.374,2.46l.623.991a3.655,3.655,0,0,1,.356,3.177l-.87,2.472a.125.125,0,0,1-.236-.083l.87-2.472a3.406,3.406,0,0,0-.332-2.961l-.624-.991a3.379,3.379,0,0,1-.4-2.657l.12-.453a.779.779,0,0,1,1.4-.24l3.049,4.461a2.049,2.049,0,0,1,.286,1.7L2275,1745.8A.126.126,0,0,1,2274.878,1745.9Z" transform="translate(-2271.369 -1734.391)"/></g><g class="d" transform="translate(364.327 378.522)"><path class="e" d="M2277.453,1747.513l-.182.665-2.788-1.223.869-2.473a3.55,3.55,0,0,0-.343-3.068l-.625-.992a3.243,3.243,0,0,1-.388-2.557l.12-.453a.655.655,0,0,1,1.153-.231l-.117.444a3.254,3.254,0,0,0,.388,2.56l.625.992a3.546,3.546,0,0,1,.342,3.068l-.869,2.47Z" transform="translate(-2273.888 -1736.925)"/></g><g transform="translate(363.663 377.856)"><path class="c" d="M2264.553,1736.094a.664.664,0,0,1-.641-.838l1.334-4.916a1.259,1.259,0,0,0-.176-1.043l-3.048-4.462-.1.45a2.587,2.587,0,0,0,.309,2.034l.624.992a4.192,4.192,0,0,1,.408,3.643l-.87,2.472a.664.664,0,1,1-1.252-.441l.869-2.471a2.87,2.87,0,0,0-.28-2.5l-.624-.991a3.917,3.917,0,0,1-.469-3.082l.121-.453a1.318,1.318,0,0,1,2.363-.405l3.049,4.462a2.587,2.587,0,0,1,.361,2.14l-1.334,4.916A.664.664,0,0,1,2264.553,1736.094Z" transform="translate(-2260.504 -1723.51)"/></g><g transform="translate(358.249 384.895)"><path class="m" d="M2157.066,1875.4c-1.456,3.339.5,8.289.5,8.289l3.49,14.529h10.166l-7.007-12.273a14.1,14.1,0,0,1-1.777-5.5h0a15.851,15.851,0,0,1,.526-5.893,21.477,21.477,0,0,0,.71-4.108l-5.39-2.567-2.46.775a2.742,2.742,0,0,0-1.881,3.056l.85,5.2a2.632,2.632,0,0,0,2.387-1.848l.539-2.426" transform="translate(-2153.782 -1867.756)"/><path class="c" d="M2168.841,1895.953h-10.166a.124.124,0,0,1-.121-.1l-3.491-14.529c-.069-.172-1.644-4.229-.8-7.482a3.128,3.128,0,0,1-1.85.8.131.131,0,0,1-.128-.1l-.85-5.2a2.88,2.88,0,0,1,1.967-3.195l2.46-.775a.123.123,0,0,1,.091.006l5.39,2.567a.124.124,0,0,1,.071.122,21.738,21.738,0,0,1-.714,4.132,15.71,15.71,0,0,0-.523,5.847,13.894,13.894,0,0,0,1.761,5.451l7.007,12.273a.125.125,0,0,1-.108.187Zm-10.067-.25h9.852l-6.9-12.086a14.155,14.155,0,0,1-1.792-5.549,15.975,15.975,0,0,1,.531-5.94,21.442,21.442,0,0,0,.7-4l-5.269-2.509-2.413.76a2.63,2.63,0,0,0-1.8,2.917l.831,5.09a2.509,2.509,0,0,0,2.019-1.344l.036-.085,0-.011a2.4,2.4,0,0,0,.1-.306l.538-2.422a.125.125,0,0,1,.244.054l-.539,2.426a2.633,2.633,0,0,1-.118.352l0,.006,0,.005-.015.035c-1.385,3.252.5,8.1.517,8.154Z" transform="translate(-2151.402 -1865.362)"/></g><g class="d" transform="translate(358.374 385.019)"><path class="e" d="M2155.633,1871.7l.751,4.611a3.008,3.008,0,0,1-1.577.594l-.85-5.205a2.741,2.741,0,0,1,1.883-3.056l2.458-.776.668.317-1.454.459A2.742,2.742,0,0,0,2155.633,1871.7Z" transform="translate(-2153.921 -1867.868)"/></g><g class="d" transform="translate(360.996 392.603)"><path class="e" d="M2212.97,2043.469h-1.676l-3.49-14.527a15.1,15.1,0,0,1-.924-6.795,2.625,2.625,0,0,0,2.076-1.436c-1.408,3.336.524,8.23.524,8.23Z" transform="translate(-2206.768 -2020.712)"/></g><g transform="translate(357.712 384.548)"><path class="c" d="M2144.587,1866.46a11.18,11.18,0,0,0-.185,2.013,17.322,17.322,0,0,0,.163,2,19.093,19.093,0,0,0,.4,1.991c.168.651.364,1.327.586,1.931l.009.025a.6.6,0,0,1,.021.07l.835,3.641c.279,1.214.572,2.424.863,3.635l1.745,7.265-.645-.509h10.165l-.577.993-5.879-10.3-.734-1.287-.368-.643c-.125-.221-.25-.451-.367-.68a14.718,14.718,0,0,1-1.106-2.894,15.509,15.509,0,0,1-.342-6.143q.108-.766.289-1.517c.057-.246.131-.509.193-.737s.123-.463.177-.7q.166-.7.282-1.407.059-.354.1-.711a.929.929,0,0,0-.042-.428.95.95,0,0,0-.231-.366.883.883,0,0,0-.173-.136c-.03-.022-.063-.034-.1-.054l-.167-.08-1.338-.637-1.338-.637-.643-.3a2.023,2.023,0,0,0-.536-.144,2,2,0,0,0-.554.009,1.962,1.962,0,0,0-.271.062l-.347.109-.707.222-.353.111c-.065.019-.108.036-.151.052a1.4,1.4,0,0,0-.131.051,2.081,2.081,0,0,0-1.237,1.742,2.185,2.185,0,0,0,0,.28c0,.047.011.093.015.14l.008.07.014.09.12.731.238,1.463c.156.976.336,1.947.518,2.919l-.724-.591.107-.015c.045-.009.089-.014.135-.026a2.576,2.576,0,0,0,.268-.074,2.211,2.211,0,0,0,.491-.218,1.759,1.759,0,0,0,.69-.716c.041-.075.067-.156.109-.233l.108-.335q.111-.339.24-.674a10.5,10.5,0,0,1,.59-1.326.23.23,0,0,1,.432.1,10.629,10.629,0,0,1-.029,1.462c-.018.241-.041.481-.071.72-.015.121-.026.235-.049.361a3.975,3.975,0,0,1-.125.441,2.857,2.857,0,0,1-1.148,1.409,3.3,3.3,0,0,1-.8.373,3.6,3.6,0,0,1-.422.106c-.071.015-.145.024-.217.036s-.137.017-.248.022h-.015a.69.69,0,0,1-.708-.591c-.136-.979-.275-1.957-.438-2.932l-.239-1.463-.119-.732-.015-.093-.014-.114c-.008-.076-.021-.152-.022-.229a3.406,3.406,0,0,1,2.035-3.317c.069-.034.142-.056.215-.083s.145-.053.2-.069l.353-.111.707-.223.361-.113a3.308,3.308,0,0,1,1.373-.118,3.335,3.335,0,0,1,.891.239c.155.067.246.114.362.169l.334.159,1.338.637,1.338.637.167.08a2.391,2.391,0,0,1,.227.125,2.2,2.2,0,0,1,.408.322,2.262,2.262,0,0,1,.655,1.909c-.033.252-.07.5-.112.756q-.124.753-.3,1.5-.088.372-.189.74c-.068.249-.128.462-.183.7-.111.46-.2.925-.266,1.393a14.174,14.174,0,0,0,.311,5.616,13.362,13.362,0,0,0,1.007,2.634c.107.211.218.414.337.623l.367.644.735,1.287,5.878,10.3a.664.664,0,0,1-.577.994h-10.165a.664.664,0,0,1-.646-.509l-1.745-7.264c-.291-1.211-.581-2.422-.883-3.63l-.911-3.623.03.1c-.143-.369-.252-.706-.358-1.063s-.2-.707-.276-1.066a14.9,14.9,0,0,1-.326-2.186,9.532,9.532,0,0,1,.113-2.232,5.811,5.811,0,0,1,.81-2.094.224.224,0,0,1,.407.165Z" transform="translate(-2140.563 -1858.378)"/></g><g transform="translate(315.692 443.552)"><path class="o" d="M0,0H69.869a0,0,0,0,1,0,0V0a5.7,5.7,0,0,1-5.7,5.7H5.7A5.7,5.7,0,0,1,0,0V0A0,0,0,0,1,0,0Z" transform="translate(0.111 0.111)"/><path class="c" d="M1357.977,3053.46h-58.472a5.816,5.816,0,0,1-5.809-5.809v-.111h70.09v.111A5.815,5.815,0,0,1,1357.977,3053.46Zm-64.059-5.7a5.6,5.6,0,0,0,5.587,5.478h58.472a5.6,5.6,0,0,0,5.587-5.478Z" transform="translate(-1293.696 -3047.54)"/></g><g class="p" transform="translate(315.803 443.662)"><path class="e" d="M1365.6,3051.242a5.715,5.715,0,0,0,.192-1.47h-69.869a5.709,5.709,0,0,0,.192,1.47Z" transform="translate(-1295.927 -3049.772)"/></g><g transform="translate(315.139 442.998)"><path class="c" d="M1347.378,3043.414h-58.472a6.37,6.37,0,0,1-6.363-6.363.664.664,0,0,1,.664-.664h69.869a.664.664,0,0,1,.664.664A6.37,6.37,0,0,1,1347.378,3043.414Zm-63.463-5.7a5.042,5.042,0,0,0,4.991,4.37h58.472a5.042,5.042,0,0,0,4.991-4.37Z" transform="translate(-1282.543 -3036.387)"/></g><g transform="translate(316.543 411.681)"><path class="q" d="M1320.856,2445.019h52.8a3.428,3.428,0,0,0,3.487-2.869l4.253-31.064a3.353,3.353,0,0,0-3.487-3.635h-61.3a3.354,3.354,0,0,0-3.487,3.635l4.253,31.064A3.428,3.428,0,0,0,1320.856,2445.019Z" transform="translate(-1312.98 -2407.339)"/><path class="c" d="M1371.529,2443.008h-52.8a3.54,3.54,0,0,1-3.6-2.966l-4.253-31.063a3.17,3.17,0,0,1,.791-2.525,3.723,3.723,0,0,1,2.805-1.236h61.3a3.723,3.723,0,0,1,2.805,1.236,3.169,3.169,0,0,1,.791,2.524l-4.253,31.065A3.541,3.541,0,0,1,1371.529,2443.008Zm-57.05-37.569a3.5,3.5,0,0,0-2.639,1.16,2.952,2.952,0,0,0-.738,2.35l4.253,31.063a3.319,3.319,0,0,0,3.377,2.774h52.8a3.319,3.319,0,0,0,3.377-2.773l4.253-31.065a2.953,2.953,0,0,0-.738-2.349,3.5,3.5,0,0,0-2.639-1.16Z" transform="translate(-1310.856 -2405.218)"/></g><g class="p" transform="translate(316.653 411.792)"><path class="e" d="M1313.1,2411.087l3.882,28.158v0l.372,2.9a3.427,3.427,0,0,0,3.486,2.869h52.8a3.428,3.428,0,0,0,3.487-2.869l4.254-31.064a3.353,3.353,0,0,0-3.487-3.635h-61.3A3.353,3.353,0,0,0,1313.1,2411.087Z" transform="translate(-1313.071 -2407.452)"/></g><g transform="translate(319.53 414.47)"><path class="o" d="M1378.152,2496.318h48.387a3.15,3.15,0,0,0,3.186-2.676l3.885-28.824a3.1,3.1,0,0,0-3.186-3.39h-56.157a3.1,3.1,0,0,0-3.186,3.39l3.885,28.824A3.15,3.15,0,0,0,1378.152,2496.318Z" transform="translate(-1371.059 -2461.427)"/></g><g transform="translate(315.99 411.128)"><path class="c" d="M1360.934,2432.963h-52.8a4.094,4.094,0,0,1-4.146-3.449l-4.252-31.059a3.719,3.719,0,0,1,.924-2.966,4.276,4.276,0,0,1,3.221-1.424h61.3a4.277,4.277,0,0,1,3.221,1.424,3.717,3.717,0,0,1,.925,2.96l-4.254,31.07A4.093,4.093,0,0,1,1360.934,2432.963Zm-57.05-37.569a2.948,2.948,0,0,0-2.224.973,2.4,2.4,0,0,0-.6,1.914l4.252,31.059a2.767,2.767,0,0,0,2.829,2.3h52.8a2.766,2.766,0,0,0,2.828-2.29l4.254-31.07a2.4,2.4,0,0,0-.6-1.908,2.949,2.949,0,0,0-2.224-.973Z" transform="translate(-1299.708 -2394.066)"/></g><g class="b" transform="translate(320.561 411.792)"><path class="c" d="M1391.825,2439.246v0l.371,2.9a3.427,3.427,0,0,0,3.487,2.869h52.8a3.427,3.427,0,0,0,3.487-2.869l4.254-31.064a3.353,3.353,0,0,0-3.487-3.635h-4.489C1445.212,2435.6,1426.091,2444.419,1391.825,2439.246Z" transform="translate(-1391.825 -2407.452)"/></g><g transform="translate(346.773 427.903)"><path class="c" d="M1928.03,2736.979a4.019,4.019,0,0,1-3.881,2.68,3.758,3.758,0,1,1,0-7.494,4.157,4.157,0,0,1,.555.037,2.921,2.921,0,0,0-.555,1.707,3.373,3.373,0,0,0,3.881,3.071Z" transform="translate(-1920.101 -2732.164)"/></g><g class="p" transform="translate(350.82 428.168)"><path class="e" d="M2001.676,2738.981a2.882,2.882,0,0,1,.41-1.478h.028a4.08,4.08,0,0,1,.554.037,2.918,2.918,0,0,0-.554,1.706,3.023,3.023,0,0,0,1.315,2.467A3.082,3.082,0,0,1,2001.676,2738.981Z" transform="translate(-2001.676 -2737.503)"/></g><g class="p" transform="translate(348.837 432.983)"><path class="e" d="M1968,2834.536a4.019,4.019,0,0,1-3.881,2.68,4.234,4.234,0,0,1-2.421-.746,4.289,4.289,0,0,0,1.984.481,4.057,4.057,0,0,0,3.767-2.375h.028A3.231,3.231,0,0,0,1968,2834.536Z" transform="translate(-1961.696 -2834.536)"/></g><g class="r" transform="translate(339.147 348.257)"><path class="e" d="M1772.968,1127.171c1.308.795.412,3.127-1.162,5.719s-3.233,4.461-4.541,3.666-1.093-3.541.482-6.132S1771.66,1126.376,1772.968,1127.171Z" transform="translate(-1766.409 -1126.954)"/></g><g class="b" transform="translate(333.398 352.61)"><path class="c" d="M1673.922,1215.957c-.607,8.634-9.5,15.022-18.716,14.231a.05.05,0,0,0-.021,0c-.016,0-.034,0-.052,0-.12-.012-.241-.025-.358-.043l-4.229-2.726c6.542,2.362,12.167,1.232,15.857-7.288C1668.534,1214.022,1671.131,1213.748,1673.922,1215.957Z" transform="translate(-1650.545 -1214.693)"/></g><g class="b" transform="translate(356.775 347.137)"><path class="c" d="M2137.081,1115.133c-.514,4.158-1.824,7.282-4.621,9.241-5.545-2.517-8.523-6.623-10.781-13.246,10.362,9,15.987,6.158,10.781-6.737A22.3,22.3,0,0,1,2137.081,1115.133Z" transform="translate(-2121.679 -1104.392)"/></g><g class="b" transform="translate(275.814 455.372)"><path class="c" d="M633.731,3285.774c3.939.452,6.114.948,6.114,1.467,0,2.109-25.877,3.818-69.982,3.818S490,3289.35,490,3287.241c0-.519,2.176-1.015,6.114-1.467Z" transform="translate(-490 -3285.774)"/></g><g transform="translate(282.818 454.487)"><path class="c" d="M631.39,3268.553a64.648,64.648,0,0,1,8.461-.578c2.82-.059,5.64-.028,8.46,0s5.64.031,8.46.027h97.3l2.115-.02,2.115-.033a40.387,40.387,0,0,1,8.461.6.279.279,0,0,1,0,.546,40.4,40.4,0,0,1-8.461.6l-2.115-.034-2.115-.02-4.23,0H656.771q-4.23-.005-8.46.028c-2.82.032-5.64.063-8.46,0a64.733,64.733,0,0,1-8.461-.578.276.276,0,0,1,0-.546Z" transform="translate(-631.155 -3267.942)"/></g></g></svg>