<svg xmlns="http://www.w3.org/2000/svg" width="27.786" height="27.786" viewBox="0 0 27.786 27.786"><defs><style>.a{fill:#362448;}.b{fill:#fefefe;}</style></defs><ellipse class="a" cx="13.893" cy="13.893" rx="13.893" ry="13.893"/><path class="b" d="M11.7,1.928H4.388A1.823,1.823,0,0,0,2.571,3.746v7.314a1.823,1.823,0,0,0,1.818,1.818H11.7a1.823,1.823,0,0,0,1.818-1.818V3.746A1.823,1.823,0,0,0,11.7,1.928ZM6.076,6.718h3.939a2.085,2.085,0,1,1-3.939,0Zm6.075,0v4.105a.686.686,0,0,1-.684.684H4.624a.686.686,0,0,1-.684-.684V6.718H5.01a3.111,3.111,0,1,0,6.071,0Zm0-2.4a.343.343,0,0,1-.342.342h-.684a.343.343,0,0,1-.342-.342V3.639a.343.343,0,0,1,.342-.342h.684a.343.343,0,0,1,.342.342Z" transform="translate(6.149 6.792)"/></svg>