<svg xmlns="http://www.w3.org/2000/svg" width="27.786" height="27.786" viewBox="0 0 27.786 27.786"><defs><style>.a{fill:#362448;}.b{fill:#fefefe;}</style></defs><ellipse class="a" cx="13.893" cy="13.893" rx="13.893" ry="13.893"/><path class="b" d="M6.468,1.928l-.92,1.824-.92-1.824H3.456L5.113,4.817l.01-.006V7.033h.851V4.811l.01.006L7.641,1.928Zm2.483,1.7a.431.431,0,0,1,.425.425v1.7a.425.425,0,1,1-.851,0v-1.7A.431.431,0,0,1,8.952,3.63Zm0-.851A1.28,1.28,0,0,0,7.675,4.055v1.7a1.276,1.276,0,1,0,2.552,0v-1.7A1.28,1.28,0,0,0,8.952,2.779Zm3.829,0v3.35c-.371.31-.851.5-.851-.607V2.779h-.851V5.694h0c.013.7.161,1.97,1.7.94v.4h.851V2.779H12.78Zm1.276,8.508a.426.426,0,0,0-.425.425v.425h.851v-.425A.426.426,0,0,0,14.056,11.287Zm-3.829.425v2.233c.288.288.851.319.851-.106V11.845C11.079,11.42,10.653,11.287,10.228,11.712Zm5.886-2.053a1.769,1.769,0,0,0-1.739-1.706c-.928-.046-3.05-.069-4.915-.069s-4.138.023-5.066.069A1.769,1.769,0,0,0,2.654,9.659c-.056,1-.083,1.361-.083,1.86s.028,1.248.083,2.247a1.769,1.769,0,0,0,1.739,1.706c.928.046,3.2.069,5.066.069s3.987-.023,4.915-.069a1.769,1.769,0,0,0,1.739-1.706q.07-1.248.07-2.247c0-.666-.023-1.028-.07-1.86ZM5.123,14.69H4.272V10.436H3.421V9.585H5.974v.851H5.123Zm3.4,0H7.675v-.4c-1.617.908-1.687.029-1.7-.674h0V11.287h.851v2.344c0,.514.48.464.851.155v-2.5h.851Zm3.4-.863c0,.889-.911,1.149-1.7.457v.406H9.377v-5.1h.851v1.383c.851-.851,1.7-.532,1.7.319Zm3.4-1.689v.425h-1.7v.851a.425.425,0,1,0,.851,0v-.425h.851v.425a1.276,1.276,0,0,1-2.552,0v-1.7a1.276,1.276,0,0,1,2.552,0Z" transform="translate(4.903 4.3)"/></svg>