<svg xmlns="http://www.w3.org/2000/svg" width="27.786" height="27.786" viewBox="0 0 27.786 27.786"><defs><style>.a{fill:#362448;}.b{fill:#fefefe;}</style></defs><ellipse class="a" cx="13.893" cy="13.893" rx="13.893" ry="13.893"/><path class="b" d="M45.7,5876.781l.026.42-.425-.052a6.909,6.909,0,0,1-4.038-1.987l-.56-.556-.144.41a2.472,2.472,0,0,0,.526,2.535c.34.358.263.411-.323.2a.992.992,0,0,0-.4-.093,3.071,3.071,0,0,0,.3,1.147,2.729,2.729,0,0,0,1.162,1.1l.416.2-.493.007c-.474,0-.492.01-.441.188A2.563,2.563,0,0,0,42.9,5881.7l.526.179-.459.276a4.76,4.76,0,0,1-2.273.632,2.474,2.474,0,0,0-.7.069,6.525,6.525,0,0,0,1.637.754,7.167,7.167,0,0,0,5.566-.634,7.464,7.464,0,0,0,2.825-3.322,8.859,8.859,0,0,0,.577-2.569c0-.4.025-.446.5-.919a5.336,5.336,0,0,0,.594-.66c.085-.162.076-.162-.357-.015-.72.255-.823.222-.466-.163a2.509,2.509,0,0,0,.577-.917c0-.025-.127.017-.271.094a4.727,4.727,0,0,1-.746.292l-.459.145-.415-.281a3.443,3.443,0,0,0-.722-.378,2.908,2.908,0,0,0-1.484.035A2.453,2.453,0,0,0,45.7,5876.781Z" transform="translate(-32.526 -5865.48)"/></svg>